G04 #@! TF.GenerationSoftware,KiCad,Pcbnew,9.0.7*
G04 #@! TF.CreationDate,2026-02-19T02:03:21-08:00*
G04 #@! TF.ProjectId,memori-hw,6d656d6f-7269-42d6-9877-2e6b69636164,vFEB 2026*
G04 #@! TF.SameCoordinates,Original*
G04 #@! TF.FileFunction,Legend,Top*
G04 #@! TF.FilePolarity,Positive*
%FSLAX46Y46*%
G04 Gerber Fmt 4.6, Leading zero omitted, Abs format (unit mm)*
G04 Created by KiCad (PCBNEW 9.0.7) date 2026-02-19 02:03:21*
%MOMM*%
%LPD*%
G01*
G04 APERTURE LIST*
G04 Aperture macros list*
%AMRoundRect*
0 Rectangle with rounded corners*
0 $1 Rounding radius*
0 $2 $3 $4 $5 $6 $7 $8 $9 X,Y pos of 4 corners*
0 Add a 4 corners polygon primitive as box body*
4,1,4,$2,$3,$4,$5,$6,$7,$8,$9,$2,$3,0*
0 Add four circle primitives for the rounded corners*
1,1,$1+$1,$2,$3*
1,1,$1+$1,$4,$5*
1,1,$1+$1,$6,$7*
1,1,$1+$1,$8,$9*
0 Add four rect primitives between the rounded corners*
20,1,$1+$1,$2,$3,$4,$5,0*
20,1,$1+$1,$4,$5,$6,$7,0*
20,1,$1+$1,$6,$7,$8,$9,0*
20,1,$1+$1,$8,$9,$2,$3,0*%
%AMOutline5P*
0 Free polygon, 5 corners , with rotation*
0 The origin of the aperture is its center*
0 number of corners: always 5*
0 $1 to $10 corner X, Y*
0 $11 Rotation angle, in degrees counterclockwise*
0 create outline with 5 corners*
4,1,5,$1,$2,$3,$4,$5,$6,$7,$8,$9,$10,$1,$2,$11*%
%AMOutline6P*
0 Free polygon, 6 corners , with rotation*
0 The origin of the aperture is its center*
0 number of corners: always 6*
0 $1 to $12 corner X, Y*
0 $13 Rotation angle, in degrees counterclockwise*
0 create outline with 6 corners*
4,1,6,$1,$2,$3,$4,$5,$6,$7,$8,$9,$10,$11,$12,$1,$2,$13*%
%AMOutline7P*
0 Free polygon, 7 corners , with rotation*
0 The origin of the aperture is its center*
0 number of corners: always 7*
0 $1 to $14 corner X, Y*
0 $15 Rotation angle, in degrees counterclockwise*
0 create outline with 7 corners*
4,1,7,$1,$2,$3,$4,$5,$6,$7,$8,$9,$10,$11,$12,$13,$14,$1,$2,$15*%
%AMOutline8P*
0 Free polygon, 8 corners , with rotation*
0 The origin of the aperture is its center*
0 number of corners: always 8*
0 $1 to $16 corner X, Y*
0 $17 Rotation angle, in degrees counterclockwise*
0 create outline with 8 corners*
4,1,8,$1,$2,$3,$4,$5,$6,$7,$8,$9,$10,$11,$12,$13,$14,$15,$16,$1,$2,$17*%
G04 Aperture macros list end*
%ADD10C,0.250000*%
%ADD11C,0.304800*%
%ADD12C,0.101600*%
%ADD13C,0.150000*%
%ADD14C,0.504000*%
%ADD15C,0.127000*%
%ADD16C,0.100000*%
%ADD17C,0.120000*%
%ADD18RoundRect,0.152400X-0.609600X1.063600X-0.609600X-1.063600X0.609600X-1.063600X0.609600X1.063600X0*%
%ADD19C,1.524000*%
%ADD20RoundRect,0.152400X0.609600X-1.063600X0.609600X1.063600X-0.609600X1.063600X-0.609600X-1.063600X0*%
%ADD21Outline5P,-0.850000X0.510000X-0.510000X0.850000X0.850000X0.850000X0.850000X-0.850000X-0.850000X-0.850000X0.000000*%
%ADD22C,1.700000*%
G04 APERTURE END LIST*
D10*
G36*
X111827973Y-108034000D02*
G01*
X112022573Y-108034000D01*
X112273166Y-107294860D01*
X112096762Y-107294860D01*
X111928784Y-107877257D01*
X111921762Y-107877257D01*
X111753784Y-107294860D01*
X111577379Y-107294860D01*
X111827973Y-108034000D01*
G37*
G36*
X112496404Y-108034000D02*
G01*
X112661573Y-108034000D01*
X112661573Y-107636433D01*
X113042409Y-107636433D01*
X113042409Y-107485247D01*
X112661573Y-107485247D01*
X112661573Y-107234654D01*
X113096997Y-107234654D01*
X113096997Y-107082063D01*
X112496404Y-107082063D01*
X112496404Y-108034000D01*
G37*
G36*
X113345392Y-108034000D02*
G01*
X113929194Y-108034000D01*
X113929194Y-107881409D01*
X113510623Y-107881409D01*
X113510623Y-107615428D01*
X113847983Y-107615428D01*
X113847983Y-107462838D01*
X113510623Y-107462838D01*
X113510623Y-107234654D01*
X113901228Y-107234654D01*
X113901228Y-107082063D01*
X113345392Y-107082063D01*
X113345392Y-108034000D01*
G37*
G36*
X114492060Y-107077817D02*
G01*
X114583604Y-107090457D01*
X114644044Y-107110227D01*
X114686006Y-107137559D01*
X114702634Y-107155378D01*
X114716171Y-107175954D01*
X114728262Y-107203345D01*
X114736920Y-107234888D01*
X114743891Y-107285551D01*
X114746003Y-107345235D01*
X114745103Y-107381420D01*
X114736719Y-107438228D01*
X114719372Y-107475035D01*
X114705145Y-107490491D01*
X114687050Y-107503391D01*
X114650315Y-107519591D01*
X114601839Y-107532813D01*
X114601839Y-107537026D01*
X114678436Y-107561279D01*
X114724721Y-107587084D01*
X114741551Y-107602275D01*
X114755176Y-107619760D01*
X114767058Y-107642738D01*
X114775603Y-107669662D01*
X114783027Y-107718523D01*
X114785204Y-107779254D01*
X114782327Y-107846716D01*
X114770179Y-107911012D01*
X114748984Y-107956675D01*
X114734221Y-107975311D01*
X114716355Y-107991422D01*
X114692860Y-108006403D01*
X114665034Y-108018720D01*
X114625147Y-108030350D01*
X114577940Y-108038737D01*
X114494776Y-108045903D01*
X114393194Y-108048043D01*
X114319186Y-108047618D01*
X114221897Y-108043712D01*
X114142601Y-108034000D01*
X114142601Y-107894048D01*
X114306427Y-107894048D01*
X114368709Y-107898742D01*
X114439417Y-107898262D01*
X114488084Y-107894076D01*
X114553535Y-107881913D01*
X114589245Y-107864867D01*
X114601514Y-107853070D01*
X114610292Y-107838837D01*
X114617840Y-107812500D01*
X114620035Y-107779254D01*
X114616357Y-107716698D01*
X114604370Y-107674033D01*
X114582948Y-107646079D01*
X114565285Y-107634797D01*
X114543223Y-107626601D01*
X114498202Y-107619031D01*
X114439417Y-107616833D01*
X114306427Y-107616833D01*
X114306427Y-107894048D01*
X114142601Y-107894048D01*
X114142601Y-107226227D01*
X114306427Y-107226227D01*
X114306427Y-107469860D01*
X114439417Y-107469860D01*
X114466935Y-107469391D01*
X114522768Y-107462590D01*
X114554130Y-107448298D01*
X114565567Y-107436713D01*
X114573857Y-107421934D01*
X114581442Y-107391402D01*
X114583643Y-107350852D01*
X114578990Y-107301159D01*
X114565028Y-107270674D01*
X114552205Y-107258127D01*
X114535135Y-107248137D01*
X114495232Y-107235868D01*
X114439417Y-107227632D01*
X114384463Y-107223243D01*
X114306427Y-107226227D01*
X114142601Y-107226227D01*
X114142601Y-107082063D01*
X114216462Y-107075217D01*
X114359611Y-107073637D01*
X114492060Y-107077817D01*
G37*
G36*
X114979072Y-108034000D02*
G01*
X115611844Y-108034000D01*
X115611844Y-107881409D01*
X115180633Y-107881409D01*
X115180633Y-107874448D01*
X115317456Y-107750429D01*
X115411795Y-107656545D01*
X115497050Y-107560840D01*
X115539235Y-107508219D01*
X115566979Y-107463114D01*
X115578159Y-107435958D01*
X115585424Y-107407676D01*
X115590839Y-107335465D01*
X115588702Y-107270194D01*
X115581562Y-107216002D01*
X115573019Y-107184219D01*
X115561126Y-107157066D01*
X115548010Y-107137268D01*
X115531932Y-107120426D01*
X115491555Y-107095484D01*
X115432930Y-107078523D01*
X115342067Y-107069270D01*
X115277231Y-107068019D01*
X115197008Y-107070170D01*
X115131227Y-107077410D01*
X115093910Y-107085878D01*
X115062211Y-107097640D01*
X115039546Y-107110376D01*
X115020281Y-107125939D01*
X114992189Y-107163897D01*
X114972726Y-107217329D01*
X114960460Y-107298302D01*
X114958067Y-107334061D01*
X115126045Y-107334061D01*
X115131876Y-107293856D01*
X115142439Y-107263868D01*
X115152273Y-107249701D01*
X115165131Y-107238684D01*
X115199815Y-107225183D01*
X115261470Y-107219410D01*
X115277231Y-107219266D01*
X115333167Y-107221505D01*
X115373589Y-107229362D01*
X115391117Y-107237349D01*
X115404475Y-107248253D01*
X115419390Y-107275966D01*
X115425455Y-107322311D01*
X115425609Y-107334061D01*
X115423319Y-107369874D01*
X115415105Y-107399749D01*
X115388900Y-107442926D01*
X115368212Y-107468455D01*
X115288918Y-107558253D01*
X115206955Y-107640898D01*
X115041308Y-107787270D01*
X114979072Y-107839460D01*
X114979072Y-108034000D01*
G37*
G36*
X116143669Y-107445656D02*
G01*
X116172657Y-107454107D01*
X116183220Y-107462914D01*
X116191048Y-107475395D01*
X116199543Y-107510487D01*
X116201874Y-107563649D01*
X116199876Y-107613765D01*
X116191075Y-107651841D01*
X116183732Y-107663780D01*
X116173949Y-107672395D01*
X116152202Y-107680396D01*
X116122067Y-107682656D01*
X116100574Y-107681655D01*
X116071528Y-107673237D01*
X116060956Y-107664460D01*
X116053121Y-107652021D01*
X116044595Y-107616906D01*
X116042261Y-107563649D01*
X116044254Y-107513515D01*
X116053043Y-107475449D01*
X116060380Y-107463514D01*
X116070158Y-107454903D01*
X116091910Y-107446901D01*
X116122067Y-107444642D01*
X116143669Y-107445656D01*
G37*
G36*
X116197515Y-107070186D02*
G01*
X116273834Y-107080699D01*
X116324918Y-107099447D01*
X116345352Y-107112651D01*
X116363048Y-107128783D01*
X116380303Y-107151013D01*
X116394983Y-107177710D01*
X116413258Y-107226771D01*
X116428653Y-107287838D01*
X116447229Y-107409151D01*
X116455275Y-107560840D01*
X116447987Y-107704116D01*
X116428653Y-107832438D01*
X116415059Y-107886574D01*
X116390930Y-107949127D01*
X116362030Y-107990324D01*
X116343797Y-108006367D01*
X116322687Y-108019433D01*
X116293937Y-108031248D01*
X116260181Y-108039757D01*
X116197928Y-108047260D01*
X116120663Y-108049448D01*
X116049754Y-108047518D01*
X115973628Y-108037243D01*
X115922202Y-108018535D01*
X115901424Y-108005245D01*
X115883293Y-107988951D01*
X115865451Y-107966456D01*
X115850059Y-107939374D01*
X115830799Y-107890455D01*
X115814077Y-107829629D01*
X115797613Y-107735881D01*
X115790930Y-107657404D01*
X115788859Y-107576227D01*
X115788994Y-107559436D01*
X115954028Y-107559436D01*
X115960154Y-107684002D01*
X115975033Y-107787620D01*
X115988706Y-107837608D01*
X116007328Y-107870432D01*
X116020407Y-107882088D01*
X116036534Y-107890548D01*
X116072131Y-107898725D01*
X116120663Y-107901009D01*
X116179496Y-107896955D01*
X116215971Y-107884337D01*
X116230392Y-107873292D01*
X116242241Y-107858653D01*
X116257225Y-107826448D01*
X116269040Y-107782063D01*
X116282940Y-107693150D01*
X116290045Y-107563649D01*
X116284278Y-107440842D01*
X116269040Y-107334061D01*
X116254146Y-107281020D01*
X116234843Y-107247561D01*
X116221523Y-107235712D01*
X116205265Y-107227123D01*
X116169321Y-107218768D01*
X116120663Y-107216458D01*
X116064824Y-107219972D01*
X116028266Y-107231864D01*
X116013969Y-107242420D01*
X116002231Y-107256542D01*
X115987047Y-107288842D01*
X115975033Y-107334061D01*
X115961830Y-107419130D01*
X115954028Y-107559436D01*
X115788994Y-107559436D01*
X115789079Y-107548871D01*
X115798081Y-107396980D01*
X115815481Y-107285029D01*
X115828825Y-107231737D01*
X115852967Y-107168692D01*
X115881787Y-107127262D01*
X115899918Y-107111166D01*
X115920890Y-107098061D01*
X115949392Y-107086229D01*
X115982827Y-107077710D01*
X116044365Y-107070207D01*
X116120663Y-107068019D01*
X116197515Y-107070186D01*
G37*
G36*
X116657509Y-108034000D02*
G01*
X117290281Y-108034000D01*
X117290281Y-107881409D01*
X116859070Y-107881409D01*
X116859070Y-107874448D01*
X116995892Y-107750429D01*
X117090232Y-107656545D01*
X117175487Y-107560840D01*
X117217671Y-107508219D01*
X117245416Y-107463114D01*
X117256596Y-107435958D01*
X117263861Y-107407676D01*
X117269276Y-107335465D01*
X117267139Y-107270194D01*
X117259998Y-107216002D01*
X117251456Y-107184219D01*
X117239563Y-107157066D01*
X117226446Y-107137268D01*
X117210369Y-107120426D01*
X117169992Y-107095484D01*
X117111367Y-107078523D01*
X117020504Y-107069270D01*
X116955668Y-107068019D01*
X116875445Y-107070170D01*
X116809664Y-107077410D01*
X116772347Y-107085878D01*
X116740648Y-107097640D01*
X116717983Y-107110376D01*
X116698718Y-107125939D01*
X116670626Y-107163897D01*
X116651163Y-107217329D01*
X116638897Y-107298302D01*
X116636504Y-107334061D01*
X116804482Y-107334061D01*
X116810313Y-107293856D01*
X116820875Y-107263868D01*
X116830710Y-107249701D01*
X116843568Y-107238684D01*
X116878252Y-107225183D01*
X116939907Y-107219410D01*
X116955668Y-107219266D01*
X117011604Y-107221505D01*
X117052026Y-107229362D01*
X117069554Y-107237349D01*
X117082912Y-107248253D01*
X117097827Y-107275966D01*
X117103892Y-107322311D01*
X117104046Y-107334061D01*
X117101756Y-107369874D01*
X117093542Y-107399749D01*
X117067337Y-107442926D01*
X117046648Y-107468455D01*
X116967355Y-107558253D01*
X116885392Y-107640898D01*
X116719745Y-107787270D01*
X116657509Y-107839460D01*
X116657509Y-108034000D01*
G37*
G36*
X117874601Y-107220892D02*
G01*
X117753229Y-107334170D01*
X117696691Y-107400162D01*
X117679112Y-107428845D01*
X117667514Y-107455816D01*
X117675879Y-107455816D01*
X117677767Y-107452077D01*
X117685288Y-107442628D01*
X117696760Y-107435332D01*
X117718637Y-107428858D01*
X117751305Y-107424847D01*
X117859306Y-107422232D01*
X117899687Y-107422988D01*
X117977711Y-107431551D01*
X118029491Y-107448560D01*
X118066528Y-107474897D01*
X118081846Y-107493515D01*
X118094402Y-107515661D01*
X118106084Y-107547089D01*
X118114504Y-107584338D01*
X118121732Y-107650553D01*
X118123882Y-107731627D01*
X118120498Y-107823626D01*
X118108189Y-107899844D01*
X118087826Y-107951994D01*
X118058130Y-107989904D01*
X118037748Y-108005614D01*
X118013913Y-108018472D01*
X117980888Y-108030319D01*
X117942324Y-108038833D01*
X117877227Y-108045915D01*
X117799100Y-108048043D01*
X117700443Y-108043769D01*
X117628176Y-108030465D01*
X117577834Y-108008915D01*
X117557831Y-107994567D01*
X117540621Y-107977460D01*
X117525017Y-107955742D01*
X117512234Y-107930370D01*
X117500400Y-107895087D01*
X117491894Y-107853897D01*
X117484811Y-107784330D01*
X117483324Y-107726009D01*
X117645105Y-107726009D01*
X117646604Y-107801165D01*
X117657208Y-107845801D01*
X117677007Y-107874490D01*
X117693247Y-107885876D01*
X117713504Y-107894130D01*
X117753897Y-107901630D01*
X117806122Y-107903818D01*
X117860113Y-107901110D01*
X117904032Y-107890219D01*
X117932221Y-107870223D01*
X117943491Y-107853657D01*
X117951684Y-107832856D01*
X117959315Y-107789725D01*
X117961521Y-107733031D01*
X117958978Y-107674081D01*
X117948541Y-107625900D01*
X117929891Y-107596171D01*
X117914946Y-107584675D01*
X117896327Y-107576346D01*
X117858345Y-107568671D01*
X117808869Y-107566458D01*
X117757892Y-107568628D01*
X117710500Y-107578865D01*
X117680292Y-107597919D01*
X117668148Y-107613510D01*
X117658989Y-107633087D01*
X117649592Y-107673290D01*
X117645105Y-107726009D01*
X117483324Y-107726009D01*
X117482683Y-107700852D01*
X117487383Y-107589724D01*
X117503070Y-107495521D01*
X117531458Y-107412757D01*
X117552435Y-107370958D01*
X117578111Y-107329315D01*
X117613991Y-107280644D01*
X117657197Y-107230159D01*
X117732000Y-107153518D01*
X117824318Y-107068019D01*
X118052502Y-107068019D01*
X117874601Y-107220892D01*
G37*
D11*
G36*
X124661500Y-106170000D02*
G01*
X125127698Y-106170000D01*
X125127698Y-104658197D01*
X125068897Y-103881139D01*
X125081536Y-103881139D01*
X125509816Y-105162131D01*
X125925640Y-105162131D01*
X126354103Y-103881139D01*
X126366742Y-103881139D01*
X126307941Y-104658197D01*
X126307941Y-106170000D01*
X126774139Y-106170000D01*
X126774139Y-103314190D01*
X126160846Y-103314190D01*
X125728353Y-104670654D01*
X125707287Y-104670654D01*
X125274610Y-103314190D01*
X124661500Y-103314190D01*
X124661500Y-106170000D01*
G37*
G36*
X128368637Y-103913230D02*
G01*
X128625217Y-103941154D01*
X128803909Y-103995623D01*
X128936200Y-104077780D01*
X128991410Y-104132880D01*
X129038795Y-104197661D01*
X129082786Y-104281719D01*
X129118263Y-104379340D01*
X129150574Y-104516313D01*
X129172427Y-104675740D01*
X129187578Y-104944900D01*
X129186648Y-105267095D01*
X127767170Y-105267095D01*
X127788536Y-105460671D01*
X127831544Y-105601190D01*
X127898260Y-105690323D01*
X127949584Y-105725081D01*
X128012290Y-105750210D01*
X128134941Y-105772869D01*
X128292170Y-105779455D01*
X128371540Y-105778054D01*
X128521931Y-105758166D01*
X128609760Y-105711763D01*
X128655455Y-105652948D01*
X128691140Y-105569528D01*
X129157339Y-105569528D01*
X129126448Y-105733857D01*
X129066437Y-105915744D01*
X128987858Y-106036861D01*
X128936448Y-106084388D01*
X128876144Y-106123167D01*
X128793088Y-106158364D01*
X128695031Y-106183719D01*
X128518541Y-106205649D01*
X128300596Y-106212131D01*
X128231571Y-106211604D01*
X127929576Y-106190683D01*
X127726559Y-106143318D01*
X127580960Y-106070502D01*
X127521782Y-106022317D01*
X127470778Y-105965441D01*
X127423955Y-105892967D01*
X127385587Y-105808786D01*
X127349958Y-105691953D01*
X127324364Y-105556154D01*
X127303140Y-105328736D01*
X127296758Y-105057168D01*
X127296961Y-105001840D01*
X127302367Y-104889190D01*
X127771383Y-104889190D01*
X128724663Y-104889190D01*
X128703666Y-104660926D01*
X128662319Y-104509429D01*
X128599468Y-104416179D01*
X128552479Y-104380825D01*
X128495496Y-104355351D01*
X128387275Y-104332837D01*
X128250221Y-104326271D01*
X128087094Y-104335733D01*
X127960696Y-104370902D01*
X127914018Y-104399248D01*
X127875375Y-104436242D01*
X127839651Y-104491162D01*
X127812618Y-104560297D01*
X127784783Y-104702392D01*
X127771383Y-104889190D01*
X127302367Y-104889190D01*
X127315261Y-104620502D01*
X127358658Y-104375726D01*
X127424299Y-104208567D01*
X127515380Y-104088558D01*
X127575699Y-104039694D01*
X127645270Y-103999821D01*
X127739045Y-103963694D01*
X127847108Y-103937808D01*
X128022339Y-103916799D01*
X128229155Y-103910448D01*
X128368637Y-103913230D01*
G37*
G36*
X129663288Y-106170000D02*
G01*
X130112634Y-106170000D01*
X130112634Y-105015036D01*
X130119106Y-104749532D01*
X130140962Y-104561231D01*
X130163315Y-104479928D01*
X130193524Y-104420733D01*
X130223808Y-104387743D01*
X130260031Y-104366051D01*
X130343627Y-104351550D01*
X130399567Y-104357850D01*
X130444353Y-104378496D01*
X130493941Y-104444600D01*
X130525113Y-104575825D01*
X130536884Y-104838632D01*
X130536884Y-106170000D01*
X130986229Y-106170000D01*
X130986229Y-105015036D01*
X130992669Y-104749532D01*
X131014300Y-104561231D01*
X131036557Y-104479341D01*
X131066620Y-104419912D01*
X131096672Y-104386999D01*
X131132582Y-104365497D01*
X131213009Y-104351550D01*
X131268950Y-104357850D01*
X131313736Y-104378496D01*
X131363324Y-104444600D01*
X131394496Y-104575825D01*
X131406266Y-104838632D01*
X131406266Y-106170000D01*
X131855612Y-106170000D01*
X131855612Y-104838632D01*
X131849302Y-104568466D01*
X131828576Y-104352743D01*
X131804278Y-104232250D01*
X131770826Y-104133835D01*
X131735843Y-104068269D01*
X131693566Y-104015508D01*
X131595143Y-103948747D01*
X131460933Y-103915396D01*
X131364134Y-103910448D01*
X131259184Y-103916851D01*
X131173552Y-103938223D01*
X131121387Y-103964804D01*
X131075592Y-104002111D01*
X130997301Y-104113016D01*
X130948311Y-104221308D01*
X130923215Y-104221308D01*
X130888502Y-104112413D01*
X130845720Y-104030565D01*
X130808450Y-103987208D01*
X130763889Y-103954726D01*
X130653039Y-103918739D01*
X130528457Y-103910448D01*
X130415885Y-103916851D01*
X130324210Y-103938223D01*
X130268478Y-103964700D01*
X130219340Y-104001829D01*
X130134634Y-104111374D01*
X130078928Y-104221308D01*
X130053832Y-104221308D01*
X130053832Y-103952580D01*
X129663288Y-103952580D01*
X129663288Y-106170000D01*
G37*
G36*
X133403947Y-103913230D02*
G01*
X133660528Y-103941154D01*
X133839220Y-103995623D01*
X133971511Y-104077780D01*
X134026721Y-104132880D01*
X134074105Y-104197661D01*
X134118097Y-104281719D01*
X134153574Y-104379340D01*
X134185885Y-104516313D01*
X134207737Y-104675740D01*
X134222888Y-104944900D01*
X134221959Y-105267095D01*
X132802480Y-105267095D01*
X132823846Y-105460671D01*
X132866854Y-105601190D01*
X132933570Y-105690323D01*
X132984894Y-105725081D01*
X133047600Y-105750210D01*
X133170251Y-105772869D01*
X133327480Y-105779455D01*
X133406851Y-105778054D01*
X133557242Y-105758166D01*
X133645071Y-105711763D01*
X133690766Y-105652948D01*
X133726451Y-105569528D01*
X134192650Y-105569528D01*
X134161759Y-105733857D01*
X134101748Y-105915744D01*
X134023168Y-106036861D01*
X133971758Y-106084388D01*
X133911454Y-106123167D01*
X133828399Y-106158364D01*
X133730342Y-106183719D01*
X133553851Y-106205649D01*
X133335907Y-106212131D01*
X133266881Y-106211604D01*
X132964886Y-106190683D01*
X132761869Y-106143318D01*
X132616270Y-106070502D01*
X132557093Y-106022317D01*
X132506089Y-105965441D01*
X132459266Y-105892967D01*
X132420897Y-105808786D01*
X132385269Y-105691953D01*
X132359674Y-105556154D01*
X132338450Y-105328736D01*
X132332069Y-105057168D01*
X132332272Y-105001840D01*
X132337678Y-104889190D01*
X132806693Y-104889190D01*
X133759973Y-104889190D01*
X133738977Y-104660926D01*
X133697629Y-104509429D01*
X133634778Y-104416179D01*
X133587790Y-104380825D01*
X133530806Y-104355351D01*
X133422586Y-104332837D01*
X133285532Y-104326271D01*
X133122404Y-104335733D01*
X132996006Y-104370902D01*
X132949329Y-104399248D01*
X132910685Y-104436242D01*
X132874962Y-104491162D01*
X132847928Y-104560297D01*
X132820093Y-104702392D01*
X132806693Y-104889190D01*
X132337678Y-104889190D01*
X132350572Y-104620502D01*
X132393968Y-104375726D01*
X132459610Y-104208567D01*
X132550691Y-104088558D01*
X132611010Y-104039694D01*
X132680580Y-103999821D01*
X132774356Y-103963694D01*
X132882418Y-103937808D01*
X133057650Y-103916799D01*
X133264466Y-103910448D01*
X133403947Y-103913230D01*
G37*
G36*
X134875003Y-106170000D02*
G01*
X135370511Y-106170000D01*
X135370511Y-105023463D01*
X135377145Y-104804220D01*
X135400141Y-104637592D01*
X135424515Y-104558181D01*
X135457975Y-104494796D01*
X135493927Y-104452794D01*
X135537716Y-104420123D01*
X135652289Y-104378961D01*
X135840922Y-104364190D01*
X135970813Y-104370912D01*
X136067161Y-104394518D01*
X136111353Y-104419401D01*
X136145744Y-104453650D01*
X136187299Y-104547052D01*
X136205700Y-104713690D01*
X136206371Y-104767374D01*
X136206371Y-106170000D01*
X136701878Y-106170000D01*
X136701878Y-104767374D01*
X136695400Y-104533493D01*
X136673495Y-104344445D01*
X136648354Y-104240748D01*
X136613519Y-104153941D01*
X136576059Y-104093273D01*
X136530359Y-104042793D01*
X136418329Y-103972158D01*
X136257712Y-103928425D01*
X135975378Y-103910448D01*
X135789039Y-103917184D01*
X135645230Y-103940888D01*
X135573340Y-103966522D01*
X135512432Y-104002026D01*
X135423058Y-104095830D01*
X135343539Y-104250306D01*
X135328562Y-104288536D01*
X135307496Y-104288536D01*
X135307496Y-103952580D01*
X134875003Y-103952580D01*
X134875003Y-106170000D01*
G37*
G36*
X137321217Y-104351550D02*
G01*
X137879740Y-104351550D01*
X137879740Y-105464565D01*
X137886226Y-105671990D01*
X137908180Y-105838876D01*
X137933310Y-105929722D01*
X137968124Y-106005454D01*
X138006007Y-106058650D01*
X138052312Y-106102580D01*
X138169391Y-106164319D01*
X138344419Y-106201118D01*
X138581144Y-106212131D01*
X138794381Y-106202997D01*
X139155434Y-106162502D01*
X139194438Y-106157543D01*
X139194438Y-105708014D01*
X138926625Y-105745406D01*
X138740696Y-105754359D01*
X138587343Y-105747558D01*
X138479848Y-105723399D01*
X138436046Y-105699527D01*
X138403537Y-105667026D01*
X138368499Y-105580639D01*
X138358578Y-105451926D01*
X138358578Y-104351550D01*
X139089291Y-104351550D01*
X139089291Y-103952580D01*
X138367004Y-103952580D01*
X138367004Y-103297337D01*
X137883953Y-103498838D01*
X137883953Y-103952580D01*
X137443033Y-103952580D01*
X137321217Y-104351550D01*
G37*
G36*
X140903971Y-103911102D02*
G01*
X141207665Y-103932509D01*
X141411616Y-103980141D01*
X141557740Y-104053057D01*
X141617061Y-104101197D01*
X141668188Y-104157991D01*
X141715064Y-104230229D01*
X141753479Y-104314100D01*
X141789094Y-104430252D01*
X141814679Y-104565196D01*
X141835787Y-104789579D01*
X141842152Y-105057168D01*
X141840896Y-105184866D01*
X141817648Y-105530072D01*
X141769513Y-105758136D01*
X141698378Y-105917749D01*
X141599676Y-106034937D01*
X141533899Y-106083400D01*
X141458201Y-106122998D01*
X141355899Y-106159067D01*
X141238170Y-106184920D01*
X141048820Y-106205799D01*
X140825858Y-106212131D01*
X140740619Y-106211340D01*
X140439162Y-106189260D01*
X140235901Y-106140925D01*
X140089892Y-106067220D01*
X140030522Y-106018606D01*
X139979352Y-105961326D01*
X139932407Y-105888494D01*
X139893942Y-105804014D01*
X139858281Y-105687108D01*
X139832668Y-105551409D01*
X139811536Y-105325880D01*
X139805167Y-105057168D01*
X140292431Y-105057168D01*
X140295387Y-105213513D01*
X140320390Y-105444058D01*
X140367233Y-105582886D01*
X140439365Y-105673444D01*
X140493728Y-105708817D01*
X140559019Y-105734280D01*
X140678020Y-105756292D01*
X140825858Y-105762786D01*
X140899358Y-105761386D01*
X141074599Y-105738618D01*
X141187386Y-105689657D01*
X141231549Y-105652242D01*
X141267809Y-105605196D01*
X141301595Y-105535308D01*
X141326132Y-105449013D01*
X141348523Y-105277757D01*
X141355071Y-105057168D01*
X141352382Y-104909390D01*
X141327819Y-104678583D01*
X141281301Y-104539692D01*
X141209498Y-104449153D01*
X141155374Y-104413812D01*
X141090343Y-104388372D01*
X140972353Y-104366457D01*
X140825858Y-104359977D01*
X140752467Y-104361339D01*
X140574814Y-104384001D01*
X140460872Y-104432697D01*
X140416442Y-104469764D01*
X140379987Y-104516322D01*
X140346098Y-104585274D01*
X140321495Y-104670302D01*
X140298995Y-104839445D01*
X140292431Y-105057168D01*
X139805167Y-105057168D01*
X139806283Y-104937068D01*
X139829061Y-104591609D01*
X139876782Y-104363811D01*
X139947540Y-104204543D01*
X140045933Y-104087634D01*
X140111640Y-104039255D01*
X140187315Y-103999728D01*
X140289867Y-103963660D01*
X140407991Y-103937808D01*
X140599683Y-103916799D01*
X140825858Y-103910448D01*
X140903971Y-103911102D01*
G37*
G36*
X144802742Y-106170000D02*
G01*
X145268941Y-106170000D01*
X145268941Y-104658197D01*
X145210139Y-103881139D01*
X145222779Y-103881139D01*
X145651058Y-105162131D01*
X146066882Y-105162131D01*
X146495345Y-103881139D01*
X146507984Y-103881139D01*
X146449183Y-104658197D01*
X146449183Y-106170000D01*
X146915382Y-106170000D01*
X146915382Y-103314190D01*
X146302088Y-103314190D01*
X145869595Y-104670654D01*
X145848529Y-104670654D01*
X145415853Y-103314190D01*
X144802742Y-103314190D01*
X144802742Y-106170000D01*
G37*
G36*
X148456937Y-103911102D02*
G01*
X148760631Y-103932509D01*
X148964582Y-103980141D01*
X149110706Y-104053057D01*
X149170026Y-104101197D01*
X149221154Y-104157991D01*
X149268030Y-104230229D01*
X149306445Y-104314100D01*
X149342059Y-104430252D01*
X149367644Y-104565196D01*
X149388753Y-104789579D01*
X149395118Y-105057168D01*
X149393861Y-105184866D01*
X149370614Y-105530072D01*
X149322479Y-105758136D01*
X149251344Y-105917749D01*
X149152642Y-106034937D01*
X149086865Y-106083400D01*
X149011167Y-106122998D01*
X148908865Y-106159067D01*
X148791136Y-106184920D01*
X148601786Y-106205799D01*
X148378824Y-106212131D01*
X148293585Y-106211340D01*
X147992127Y-106189260D01*
X147788867Y-106140925D01*
X147642858Y-106067220D01*
X147583488Y-106018606D01*
X147532318Y-105961326D01*
X147485373Y-105888494D01*
X147446908Y-105804014D01*
X147411246Y-105687108D01*
X147385634Y-105551409D01*
X147364501Y-105325880D01*
X147358133Y-105057168D01*
X147845397Y-105057168D01*
X147848353Y-105213513D01*
X147873356Y-105444058D01*
X147920199Y-105582886D01*
X147992331Y-105673444D01*
X148046694Y-105708817D01*
X148111985Y-105734280D01*
X148230986Y-105756292D01*
X148378824Y-105762786D01*
X148452324Y-105761386D01*
X148627565Y-105738618D01*
X148740352Y-105689657D01*
X148784515Y-105652242D01*
X148820775Y-105605196D01*
X148854561Y-105535308D01*
X148879098Y-105449013D01*
X148901489Y-105277757D01*
X148908037Y-105057168D01*
X148905348Y-104909390D01*
X148880785Y-104678583D01*
X148834266Y-104539692D01*
X148762464Y-104449153D01*
X148708339Y-104413812D01*
X148643308Y-104388372D01*
X148525319Y-104366457D01*
X148378824Y-104359977D01*
X148305433Y-104361339D01*
X148127779Y-104384001D01*
X148013838Y-104432697D01*
X147969407Y-104469764D01*
X147932953Y-104516322D01*
X147899064Y-104585274D01*
X147874461Y-104670302D01*
X147851961Y-104839445D01*
X147845397Y-105057168D01*
X147358133Y-105057168D01*
X147359249Y-104937068D01*
X147382027Y-104591609D01*
X147429747Y-104363811D01*
X147500506Y-104204543D01*
X147598899Y-104087634D01*
X147664606Y-104039255D01*
X147740280Y-103999728D01*
X147842832Y-103963660D01*
X147960956Y-103937808D01*
X148152648Y-103916799D01*
X148378824Y-103910448D01*
X148456937Y-103911102D01*
G37*
G36*
X150090111Y-106170000D02*
G01*
X150564736Y-106170000D01*
X150564736Y-104994153D01*
X150571976Y-104891206D01*
X150599207Y-104796911D01*
X150692667Y-104632346D01*
X150732714Y-104574117D01*
X150814711Y-104470832D01*
X150893632Y-104407019D01*
X151005289Y-104371041D01*
X151123258Y-104364190D01*
X151232667Y-104371109D01*
X151311259Y-104396094D01*
X151347797Y-104422758D01*
X151378379Y-104459833D01*
X151438148Y-104595183D01*
X151891891Y-104481793D01*
X151856040Y-104325467D01*
X151810308Y-104200838D01*
X151771127Y-104132318D01*
X151723826Y-104075999D01*
X151614475Y-104002428D01*
X151459047Y-103957335D01*
X151210524Y-103936664D01*
X151123258Y-103935727D01*
X150957827Y-103942443D01*
X150827277Y-103966008D01*
X150758431Y-103992284D01*
X150698582Y-104028892D01*
X150603966Y-104129314D01*
X150509864Y-104301297D01*
X150493295Y-104338911D01*
X150472229Y-104338911D01*
X150509965Y-103952580D01*
X150090111Y-103952580D01*
X150090111Y-106170000D01*
G37*
G36*
X153136980Y-103507264D02*
G01*
X153758517Y-103507264D01*
X153758517Y-102911006D01*
X153136980Y-102911006D01*
X153136980Y-103507264D01*
G37*
G36*
X152590914Y-106170000D02*
G01*
X154401120Y-106170000D01*
X154401120Y-105750146D01*
X153750090Y-105750146D01*
X153750090Y-103952580D01*
X152632862Y-103952580D01*
X152632862Y-104372433D01*
X153279678Y-104372433D01*
X153279678Y-105750146D01*
X152590914Y-105750146D01*
X152590914Y-106170000D01*
G37*
G36*
X155612503Y-106170000D02*
G01*
X156250893Y-106170000D01*
X156250893Y-105531610D01*
X155612503Y-105531610D01*
X155612503Y-106170000D01*
G37*
G36*
X95365203Y-92071156D02*
G01*
X95366013Y-92164717D01*
X95374783Y-92243194D01*
X95386645Y-92290221D01*
X95403831Y-92330734D01*
X95423284Y-92360678D01*
X95447438Y-92386393D01*
X95509094Y-92425257D01*
X95599533Y-92452629D01*
X95739674Y-92468857D01*
X95881481Y-92472323D01*
X96019479Y-92469051D01*
X96132526Y-92458061D01*
X96196498Y-92445228D01*
X96250618Y-92427420D01*
X96288639Y-92408418D01*
X96320753Y-92385265D01*
X96345527Y-92359909D01*
X96365935Y-92330482D01*
X96395495Y-92256347D01*
X96411913Y-92148702D01*
X96414881Y-92056267D01*
X96411639Y-91966733D01*
X96400857Y-91890189D01*
X96387412Y-91841895D01*
X96368559Y-91799026D01*
X96346847Y-91765096D01*
X96319993Y-91734546D01*
X96249567Y-91682152D01*
X96143711Y-91634566D01*
X95974488Y-91585722D01*
X95904931Y-91569767D01*
X95789408Y-91540837D01*
X95708942Y-91510789D01*
X95675999Y-91491201D01*
X95651910Y-91469099D01*
X95627933Y-91422869D01*
X95621202Y-91362810D01*
X95624520Y-91314988D01*
X95635834Y-91277654D01*
X95648991Y-91257821D01*
X95667330Y-91241858D01*
X95720991Y-91220345D01*
X95820817Y-91208669D01*
X95900651Y-91207126D01*
X96007715Y-91210598D01*
X96079115Y-91222989D01*
X96105359Y-91234526D01*
X96124115Y-91250055D01*
X96142170Y-91288298D01*
X96146041Y-91320190D01*
X96389291Y-91320190D01*
X96384164Y-91238374D01*
X96371783Y-91170143D01*
X96357690Y-91129336D01*
X96338530Y-91094415D01*
X96317122Y-91068346D01*
X96290982Y-91046218D01*
X96222946Y-91012717D01*
X96119994Y-90990175D01*
X95953264Y-90979308D01*
X95892183Y-90978765D01*
X95753308Y-90982053D01*
X95640617Y-90993157D01*
X95578409Y-91005929D01*
X95526148Y-91023627D01*
X95489831Y-91042434D01*
X95459410Y-91065336D01*
X95417199Y-91119648D01*
X95390416Y-91193877D01*
X95377024Y-91303503D01*
X95375812Y-91360669D01*
X95379049Y-91441359D01*
X95389801Y-91510593D01*
X95403323Y-91554793D01*
X95422310Y-91594167D01*
X95444486Y-91625825D01*
X95471988Y-91654440D01*
X95545713Y-91704653D01*
X95659367Y-91751623D01*
X95846237Y-91801918D01*
X95896463Y-91813017D01*
X96000284Y-91839292D01*
X96075028Y-91868274D01*
X96107136Y-91888162D01*
X96131535Y-91911136D01*
X96158357Y-91961334D01*
X96169091Y-92033915D01*
X96169491Y-92056267D01*
X96166157Y-92113923D01*
X96154729Y-92158580D01*
X96141827Y-92181514D01*
X96123932Y-92199943D01*
X96074362Y-92223966D01*
X95987189Y-92237318D01*
X95898603Y-92239774D01*
X95789410Y-92236318D01*
X95710730Y-92224034D01*
X95677443Y-92211863D01*
X95651734Y-92195279D01*
X95622647Y-92154988D01*
X95607973Y-92092268D01*
X95606220Y-92071156D01*
X95365203Y-92071156D01*
G37*
G36*
X97629827Y-91324470D02*
G01*
X97378109Y-91324470D01*
X97378109Y-91906911D01*
X97374739Y-92018323D01*
X97363057Y-92102995D01*
X97350675Y-92143346D01*
X97333678Y-92175553D01*
X97315416Y-92196894D01*
X97293173Y-92213494D01*
X97234979Y-92234408D01*
X97139140Y-92241915D01*
X97073229Y-92238503D01*
X97024316Y-92226532D01*
X97001839Y-92213896D01*
X96984345Y-92196504D01*
X96963208Y-92149090D01*
X96953838Y-92064548D01*
X96953492Y-92037097D01*
X96953492Y-91324470D01*
X96701774Y-91324470D01*
X96701774Y-92037097D01*
X96705067Y-92155954D01*
X96716202Y-92252012D01*
X96728976Y-92304658D01*
X96746674Y-92348727D01*
X96765706Y-92379525D01*
X96788924Y-92405151D01*
X96845852Y-92441009D01*
X96927489Y-92463209D01*
X97070837Y-92472323D01*
X97165497Y-92468901D01*
X97238552Y-92456859D01*
X97275072Y-92443837D01*
X97306013Y-92425801D01*
X97351415Y-92378148D01*
X97391811Y-92299675D01*
X97399419Y-92280254D01*
X97410121Y-92280254D01*
X97410121Y-92450920D01*
X97629827Y-92450920D01*
X97629827Y-91324470D01*
G37*
G36*
X98038345Y-92450920D02*
G01*
X98279455Y-92450920D01*
X98279455Y-91853590D01*
X98283132Y-91801292D01*
X98296966Y-91753390D01*
X98344443Y-91669792D01*
X98364787Y-91640211D01*
X98406442Y-91587743D01*
X98446534Y-91555325D01*
X98503256Y-91537048D01*
X98563184Y-91533568D01*
X98618764Y-91537083D01*
X98658688Y-91549775D01*
X98677250Y-91563321D01*
X98692785Y-91582155D01*
X98723148Y-91650913D01*
X98953649Y-91593311D01*
X98935437Y-91513897D01*
X98912205Y-91450585D01*
X98892301Y-91415777D01*
X98868272Y-91387167D01*
X98812722Y-91349793D01*
X98733765Y-91326886D01*
X98607515Y-91316385D01*
X98563184Y-91315909D01*
X98479145Y-91319321D01*
X98412825Y-91331292D01*
X98377852Y-91344640D01*
X98347448Y-91363237D01*
X98299383Y-91414251D01*
X98251580Y-91501619D01*
X98243163Y-91520726D01*
X98232461Y-91520726D01*
X98251631Y-91324470D01*
X98038345Y-91324470D01*
X98038345Y-92450920D01*
G37*
G36*
X99793525Y-91304481D02*
G01*
X99923868Y-91318666D01*
X100014643Y-91346336D01*
X100081847Y-91388072D01*
X100109894Y-91416063D01*
X100133965Y-91448971D01*
X100156313Y-91491673D01*
X100174335Y-91541264D01*
X100190749Y-91610847D01*
X100201850Y-91691835D01*
X100209547Y-91828569D01*
X100209075Y-91992244D01*
X99487980Y-91992244D01*
X99498834Y-92090581D01*
X99520682Y-92161964D01*
X99554574Y-92207244D01*
X99580646Y-92224901D01*
X99612501Y-92237666D01*
X99674807Y-92249177D01*
X99754680Y-92252523D01*
X99795000Y-92251811D01*
X99871399Y-92241708D01*
X99916016Y-92218136D01*
X99939229Y-92188257D01*
X99957357Y-92145880D01*
X100194186Y-92145880D01*
X100178493Y-92229359D01*
X100148008Y-92321758D01*
X100108089Y-92383285D01*
X100081973Y-92407429D01*
X100051338Y-92427129D01*
X100009146Y-92445008D01*
X99959333Y-92457889D01*
X99869676Y-92469029D01*
X99758960Y-92472323D01*
X99723895Y-92472055D01*
X99570482Y-92461427D01*
X99467349Y-92437366D01*
X99393385Y-92400375D01*
X99363323Y-92375897D01*
X99337413Y-92347004D01*
X99313627Y-92310187D01*
X99294135Y-92267423D01*
X99276036Y-92208072D01*
X99263034Y-92139086D01*
X99252252Y-92023558D01*
X99249011Y-91885601D01*
X99249114Y-91857495D01*
X99251860Y-91800268D01*
X99490120Y-91800268D01*
X99974386Y-91800268D01*
X99963720Y-91684310D01*
X99942716Y-91607349D01*
X99910787Y-91559979D01*
X99886917Y-91542019D01*
X99857969Y-91529078D01*
X99802993Y-91517641D01*
X99733370Y-91514306D01*
X99650501Y-91519112D01*
X99586291Y-91536978D01*
X99562579Y-91551377D01*
X99542948Y-91570171D01*
X99524800Y-91598070D01*
X99511067Y-91633191D01*
X99496927Y-91705375D01*
X99490120Y-91800268D01*
X99251860Y-91800268D01*
X99258410Y-91663775D01*
X99280456Y-91539428D01*
X99313801Y-91454512D01*
X99360071Y-91393547D01*
X99390713Y-91368724D01*
X99426054Y-91348469D01*
X99473692Y-91330116D01*
X99528588Y-91316966D01*
X99617606Y-91306294D01*
X99722668Y-91303067D01*
X99793525Y-91304481D01*
G37*
G36*
X100540821Y-92450920D02*
G01*
X100792539Y-92450920D01*
X100792539Y-91868479D01*
X100795910Y-91757103D01*
X100807591Y-91672457D01*
X100819973Y-91632116D01*
X100836971Y-91599916D01*
X100855235Y-91578579D01*
X100877479Y-91561982D01*
X100935682Y-91541072D01*
X101031508Y-91533568D01*
X101097493Y-91536983D01*
X101146438Y-91548975D01*
X101168887Y-91561615D01*
X101186358Y-91579014D01*
X101207468Y-91626462D01*
X101216816Y-91711114D01*
X101217156Y-91738386D01*
X101217156Y-92450920D01*
X101468874Y-92450920D01*
X101468874Y-91738386D01*
X101465583Y-91619574D01*
X101454455Y-91523538D01*
X101441684Y-91470860D01*
X101423988Y-91426762D01*
X101404958Y-91395943D01*
X101381742Y-91370299D01*
X101324831Y-91334416D01*
X101243238Y-91312200D01*
X101099812Y-91303067D01*
X101005152Y-91306489D01*
X100932097Y-91318531D01*
X100895577Y-91331553D01*
X100864635Y-91349589D01*
X100819233Y-91397241D01*
X100778838Y-91475715D01*
X100771229Y-91495136D01*
X100760528Y-91495136D01*
X100760528Y-91324470D01*
X100540821Y-91324470D01*
X100540821Y-92450920D01*
G37*
G36*
X102749983Y-92450920D02*
G01*
X102521716Y-92450920D01*
X102521716Y-92335716D01*
X102511014Y-92335716D01*
X102490157Y-92380075D01*
X102453016Y-92426838D01*
X102427288Y-92444153D01*
X102395880Y-92456755D01*
X102327441Y-92468888D01*
X102233706Y-92472323D01*
X102098528Y-92465834D01*
X101997184Y-92445284D01*
X101925213Y-92411424D01*
X101896000Y-92388401D01*
X101870790Y-92360829D01*
X101847526Y-92325114D01*
X101828432Y-92283166D01*
X101810537Y-92223865D01*
X101797654Y-92154213D01*
X101786757Y-92033668D01*
X101783498Y-91887741D01*
X101783574Y-91885601D01*
X102030935Y-91885601D01*
X102031704Y-91947253D01*
X102042695Y-92077179D01*
X102064563Y-92152776D01*
X102098076Y-92200396D01*
X102122938Y-92218540D01*
X102152783Y-92231580D01*
X102206963Y-92242798D01*
X102274185Y-92246102D01*
X102374469Y-92237303D01*
X102430799Y-92214949D01*
X102452765Y-92197202D01*
X102470829Y-92174481D01*
X102487808Y-92139967D01*
X102500182Y-92096768D01*
X102511917Y-92005611D01*
X102515295Y-91885601D01*
X102514614Y-91826525D01*
X102503987Y-91695739D01*
X102482527Y-91620160D01*
X102449451Y-91572700D01*
X102424827Y-91554625D01*
X102395185Y-91541628D01*
X102341272Y-91530446D01*
X102274185Y-91527147D01*
X102258971Y-91527281D01*
X102171025Y-91536550D01*
X102115005Y-91559497D01*
X102093056Y-91577636D01*
X102075001Y-91600793D01*
X102058050Y-91635839D01*
X102045709Y-91679606D01*
X102034271Y-91768950D01*
X102030935Y-91885601D01*
X101783574Y-91885601D01*
X101790984Y-91678067D01*
X101811317Y-91545391D01*
X101842680Y-91456593D01*
X101886135Y-91394068D01*
X101914690Y-91368988D01*
X101947659Y-91348549D01*
X101991866Y-91330156D01*
X102042816Y-91316982D01*
X102125453Y-91306296D01*
X102223004Y-91303067D01*
X102321348Y-91307153D01*
X102393473Y-91323140D01*
X102419815Y-91336658D01*
X102441728Y-91354655D01*
X102467778Y-91389951D01*
X102489704Y-91437534D01*
X102500406Y-91437534D01*
X102498265Y-90884964D01*
X102747843Y-90884964D01*
X102749983Y-92450920D01*
G37*
G36*
X103154221Y-92450920D02*
G01*
X103395330Y-92450920D01*
X103395330Y-91853590D01*
X103399008Y-91801292D01*
X103412841Y-91753390D01*
X103460319Y-91669792D01*
X103480663Y-91640211D01*
X103522317Y-91587743D01*
X103562409Y-91555325D01*
X103619131Y-91537048D01*
X103679060Y-91533568D01*
X103734639Y-91537083D01*
X103774564Y-91549775D01*
X103793125Y-91563321D01*
X103808661Y-91582155D01*
X103839024Y-91650913D01*
X104069525Y-91593311D01*
X104051313Y-91513897D01*
X104028081Y-91450585D01*
X104008177Y-91415777D01*
X103984148Y-91387167D01*
X103928598Y-91349793D01*
X103849640Y-91326886D01*
X103723390Y-91316385D01*
X103679060Y-91315909D01*
X103595020Y-91319321D01*
X103528701Y-91331292D01*
X103493727Y-91344640D01*
X103463324Y-91363237D01*
X103415259Y-91414251D01*
X103367455Y-91501619D01*
X103359038Y-91520726D01*
X103348337Y-91520726D01*
X103367506Y-91324470D01*
X103154221Y-91324470D01*
X103154221Y-92450920D01*
G37*
G36*
X104897563Y-91303999D02*
G01*
X105038074Y-91316121D01*
X105127593Y-91340268D01*
X105188798Y-91376628D01*
X105213103Y-91401415D01*
X105232945Y-91430733D01*
X105250962Y-91471200D01*
X105263917Y-91518811D01*
X105274794Y-91600731D01*
X105278050Y-91699953D01*
X105278050Y-92450920D01*
X105064671Y-92450920D01*
X105064671Y-92316546D01*
X105054063Y-92316546D01*
X105024659Y-92377775D01*
X104984300Y-92424153D01*
X104955994Y-92441703D01*
X104921775Y-92454455D01*
X104848112Y-92466727D01*
X104748930Y-92470182D01*
X104633097Y-92466090D01*
X104533303Y-92449370D01*
X104469259Y-92420953D01*
X104444882Y-92401167D01*
X104425020Y-92377204D01*
X104407163Y-92343783D01*
X104394296Y-92303814D01*
X104383161Y-92231306D01*
X104379868Y-92141600D01*
X104380579Y-92107448D01*
X104620885Y-92107448D01*
X104623795Y-92160162D01*
X104638426Y-92207384D01*
X104652155Y-92224139D01*
X104670920Y-92236438D01*
X104718483Y-92249023D01*
X104787363Y-92252523D01*
X104891596Y-92244590D01*
X104952564Y-92223449D01*
X104975712Y-92206992D01*
X104994792Y-92185966D01*
X105012486Y-92154830D01*
X105025606Y-92116086D01*
X105038345Y-92038071D01*
X105043361Y-91936782D01*
X104851386Y-91936782D01*
X104808866Y-91937389D01*
X104716846Y-91947265D01*
X104666737Y-91968000D01*
X104648974Y-91984462D01*
X104636126Y-92005399D01*
X104624279Y-92049213D01*
X104620885Y-92107448D01*
X104380579Y-92107448D01*
X104381077Y-92083531D01*
X104394375Y-91973020D01*
X104420959Y-91898496D01*
X104462836Y-91844125D01*
X104493009Y-91821233D01*
X104529050Y-91802434D01*
X104580948Y-91784745D01*
X104642767Y-91771977D01*
X104755221Y-91760847D01*
X104894006Y-91757555D01*
X105045502Y-91757555D01*
X105045502Y-91704234D01*
X105044780Y-91668159D01*
X105033987Y-91591537D01*
X105010694Y-91546527D01*
X104991064Y-91529375D01*
X104965865Y-91516886D01*
X104910734Y-91504962D01*
X104836404Y-91501557D01*
X104750992Y-91506783D01*
X104700569Y-91523332D01*
X104683366Y-91537254D01*
X104671008Y-91555542D01*
X104659629Y-91596589D01*
X104657177Y-91653053D01*
X104418207Y-91653053D01*
X104421919Y-91526236D01*
X104440259Y-91445290D01*
X104472784Y-91389230D01*
X104496733Y-91366372D01*
X104525915Y-91347608D01*
X104568252Y-91330085D01*
X104619281Y-91317417D01*
X104713119Y-91306350D01*
X104829983Y-91303067D01*
X104897563Y-91303999D01*
G37*
G36*
X106899374Y-92032817D02*
G01*
X106900053Y-92141309D01*
X106908798Y-92231172D01*
X106920489Y-92283502D01*
X106937410Y-92328134D01*
X106956226Y-92360296D01*
X106979512Y-92387648D01*
X107037441Y-92427621D01*
X107120392Y-92454710D01*
X107246924Y-92469858D01*
X107349581Y-92472323D01*
X107464418Y-92469064D01*
X107559338Y-92458166D01*
X107614386Y-92445232D01*
X107661251Y-92427250D01*
X107694869Y-92407725D01*
X107723407Y-92383863D01*
X107764737Y-92325642D01*
X107792462Y-92243922D01*
X107807874Y-92121285D01*
X107810397Y-92022115D01*
X107810397Y-91000168D01*
X107554398Y-91000168D01*
X107554398Y-92013554D01*
X107551022Y-92093127D01*
X107539301Y-92152544D01*
X107526896Y-92180256D01*
X107509862Y-92201952D01*
X107466229Y-92227660D01*
X107394612Y-92240357D01*
X107343160Y-92241915D01*
X107277992Y-92238547D01*
X107229214Y-92226889D01*
X107206061Y-92214320D01*
X107187984Y-92197008D01*
X107166053Y-92150156D01*
X107155937Y-92067707D01*
X107155372Y-92032817D01*
X106899374Y-92032817D01*
G37*
G36*
X108517534Y-92450920D02*
G01*
X108841836Y-92450920D01*
X108841836Y-92126618D01*
X108517534Y-92126618D01*
X108517534Y-92450920D01*
G37*
G36*
X111368051Y-90994912D02*
G01*
X111500597Y-91015515D01*
X111589338Y-91047190D01*
X111651877Y-91091075D01*
X111677100Y-91120092D01*
X111697612Y-91153550D01*
X111716400Y-91199286D01*
X111729874Y-91252040D01*
X111742039Y-91350671D01*
X111745478Y-91469545D01*
X111741656Y-91579767D01*
X111724217Y-91689925D01*
X111693945Y-91765710D01*
X111673348Y-91795668D01*
X111648490Y-91821453D01*
X111616575Y-91844870D01*
X111578962Y-91864070D01*
X111525903Y-91881967D01*
X111463458Y-91894852D01*
X111354693Y-91905787D01*
X111222687Y-91909051D01*
X111062723Y-91909051D01*
X111062723Y-92450920D01*
X110810912Y-92450920D01*
X110810912Y-91676503D01*
X111062723Y-91676503D01*
X111203517Y-91676503D01*
X111322737Y-91671167D01*
X111400684Y-91654083D01*
X111448034Y-91625420D01*
X111465910Y-91603378D01*
X111478804Y-91576311D01*
X111490321Y-91523780D01*
X111493667Y-91456704D01*
X111486593Y-91363786D01*
X111466058Y-91304990D01*
X111449742Y-91282628D01*
X111428750Y-91264279D01*
X111397166Y-91247259D01*
X111357623Y-91234866D01*
X111275288Y-91223238D01*
X111167225Y-91219875D01*
X111062723Y-91219875D01*
X111062723Y-91676503D01*
X110810912Y-91676503D01*
X110810912Y-91000168D01*
X110972283Y-90989734D01*
X111160804Y-90987326D01*
X111368051Y-90994912D01*
G37*
G36*
X112107003Y-92450920D02*
G01*
X112348112Y-92450920D01*
X112348112Y-91853590D01*
X112351790Y-91801292D01*
X112365623Y-91753390D01*
X112413101Y-91669792D01*
X112433445Y-91640211D01*
X112475099Y-91587743D01*
X112515192Y-91555325D01*
X112571913Y-91537048D01*
X112631842Y-91533568D01*
X112687421Y-91537083D01*
X112727346Y-91549775D01*
X112745908Y-91563321D01*
X112761443Y-91582155D01*
X112791806Y-91650913D01*
X113022307Y-91593311D01*
X113004095Y-91513897D01*
X112980863Y-91450585D01*
X112960959Y-91415777D01*
X112936930Y-91387167D01*
X112881380Y-91349793D01*
X112802422Y-91326886D01*
X112676173Y-91316385D01*
X112631842Y-91315909D01*
X112547802Y-91319321D01*
X112481483Y-91331292D01*
X112446509Y-91344640D01*
X112416106Y-91363237D01*
X112368041Y-91414251D01*
X112320237Y-91501619D01*
X112311820Y-91520726D01*
X112301119Y-91520726D01*
X112320288Y-91324470D01*
X112107003Y-91324470D01*
X112107003Y-92450920D01*
G37*
G36*
X113862183Y-91304481D02*
G01*
X113992525Y-91318666D01*
X114083301Y-91346336D01*
X114150505Y-91388072D01*
X114178552Y-91416063D01*
X114202623Y-91448971D01*
X114224971Y-91491673D01*
X114242993Y-91541264D01*
X114259407Y-91610847D01*
X114270508Y-91691835D01*
X114278205Y-91828569D01*
X114277732Y-91992244D01*
X113556637Y-91992244D01*
X113567491Y-92090581D01*
X113589339Y-92161964D01*
X113623231Y-92207244D01*
X113649304Y-92224901D01*
X113681158Y-92237666D01*
X113743465Y-92249177D01*
X113823337Y-92252523D01*
X113863658Y-92251811D01*
X113940056Y-92241708D01*
X113984673Y-92218136D01*
X114007887Y-92188257D01*
X114026015Y-92145880D01*
X114262843Y-92145880D01*
X114247151Y-92229359D01*
X114216665Y-92321758D01*
X114176747Y-92383285D01*
X114150631Y-92407429D01*
X114119996Y-92427129D01*
X114077804Y-92445008D01*
X114027991Y-92457889D01*
X113938334Y-92469029D01*
X113827618Y-92472323D01*
X113792553Y-92472055D01*
X113639140Y-92461427D01*
X113536007Y-92437366D01*
X113462043Y-92400375D01*
X113431981Y-92375897D01*
X113406070Y-92347004D01*
X113382284Y-92310187D01*
X113362793Y-92267423D01*
X113344694Y-92208072D01*
X113331692Y-92139086D01*
X113320910Y-92023558D01*
X113317668Y-91885601D01*
X113317771Y-91857495D01*
X113320517Y-91800268D01*
X113558778Y-91800268D01*
X114043044Y-91800268D01*
X114032378Y-91684310D01*
X114011373Y-91607349D01*
X113979445Y-91559979D01*
X113955575Y-91542019D01*
X113926627Y-91529078D01*
X113871651Y-91517641D01*
X113802027Y-91514306D01*
X113719159Y-91519112D01*
X113654949Y-91536978D01*
X113631236Y-91551377D01*
X113611606Y-91570171D01*
X113593458Y-91598070D01*
X113579725Y-91633191D01*
X113565585Y-91705375D01*
X113558778Y-91800268D01*
X113320517Y-91800268D01*
X113327068Y-91663775D01*
X113349113Y-91539428D01*
X113382459Y-91454512D01*
X113428728Y-91393547D01*
X113459370Y-91368724D01*
X113494712Y-91348469D01*
X113542350Y-91330116D01*
X113597246Y-91316966D01*
X113686263Y-91306294D01*
X113791326Y-91303067D01*
X113862183Y-91304481D01*
G37*
G36*
X114605198Y-92130898D02*
G01*
X114605253Y-92214837D01*
X114613543Y-92284440D01*
X114625025Y-92324962D01*
X114641846Y-92359569D01*
X114661194Y-92385109D01*
X114685347Y-92406770D01*
X114749348Y-92439449D01*
X114848070Y-92461435D01*
X115010413Y-92471884D01*
X115063874Y-92472323D01*
X115201577Y-92469025D01*
X115311315Y-92457852D01*
X115369770Y-92445247D01*
X115418143Y-92427833D01*
X115451084Y-92409433D01*
X115478174Y-92387067D01*
X115514704Y-92333620D01*
X115536251Y-92258752D01*
X115543953Y-92143740D01*
X115540686Y-92065243D01*
X115529729Y-91999592D01*
X115516428Y-91960194D01*
X115497826Y-91925934D01*
X115476259Y-91899284D01*
X115449555Y-91875941D01*
X115376987Y-91836889D01*
X115261628Y-91803484D01*
X115102306Y-91776725D01*
X114985016Y-91756574D01*
X114911977Y-91732092D01*
X114889707Y-91716922D01*
X114874600Y-91698704D01*
X114861998Y-91655377D01*
X114861197Y-91635930D01*
X114864566Y-91596148D01*
X114876239Y-91566107D01*
X114889691Y-91550972D01*
X114908501Y-91539217D01*
X114969181Y-91523861D01*
X115085184Y-91518586D01*
X115180582Y-91522187D01*
X115240794Y-91535485D01*
X115260410Y-91547141D01*
X115274014Y-91562749D01*
X115286998Y-91605147D01*
X115287954Y-91614621D01*
X115522643Y-91614621D01*
X115518051Y-91535435D01*
X115505998Y-91470306D01*
X115492296Y-91432662D01*
X115473550Y-91400785D01*
X115452439Y-91377197D01*
X115426574Y-91357456D01*
X115357671Y-91328003D01*
X115249738Y-91309416D01*
X115080996Y-91303067D01*
X114946994Y-91306378D01*
X114840576Y-91317644D01*
X114784582Y-91330254D01*
X114738335Y-91347670D01*
X114706885Y-91366099D01*
X114681102Y-91388511D01*
X114646394Y-91442518D01*
X114626300Y-91519189D01*
X114620087Y-91623182D01*
X114623359Y-91700942D01*
X114634349Y-91765612D01*
X114647605Y-91803973D01*
X114666132Y-91837177D01*
X114687624Y-91862896D01*
X114714236Y-91885299D01*
X114787015Y-91922583D01*
X114904016Y-91954146D01*
X115036143Y-91975215D01*
X115149374Y-91993092D01*
X115226070Y-92015014D01*
X115255741Y-92030570D01*
X115276879Y-92049192D01*
X115296658Y-92090339D01*
X115300703Y-92133038D01*
X115297307Y-92174574D01*
X115285444Y-92205814D01*
X115271993Y-92221240D01*
X115253206Y-92233238D01*
X115193074Y-92248937D01*
X115070295Y-92254663D01*
X114970392Y-92251084D01*
X114904019Y-92237940D01*
X114880489Y-92226039D01*
X114863453Y-92210013D01*
X114846133Y-92168759D01*
X114842027Y-92130898D01*
X114605198Y-92130898D01*
G37*
G36*
X115852156Y-91527147D02*
G01*
X116135885Y-91527147D01*
X116135885Y-92092559D01*
X116139180Y-92197931D01*
X116150333Y-92282709D01*
X116163099Y-92328858D01*
X116180784Y-92367330D01*
X116200029Y-92394354D01*
X116223552Y-92416670D01*
X116283028Y-92448034D01*
X116371942Y-92466728D01*
X116492199Y-92472323D01*
X116600523Y-92467682D01*
X116783938Y-92447111D01*
X116803752Y-92444592D01*
X116803752Y-92216231D01*
X116667703Y-92235226D01*
X116573251Y-92239774D01*
X116495348Y-92236319D01*
X116440740Y-92224047D01*
X116418489Y-92211919D01*
X116401974Y-92195409D01*
X116384175Y-92151525D01*
X116379135Y-92086138D01*
X116379135Y-91527147D01*
X116750337Y-91527147D01*
X116750337Y-91324470D01*
X116383415Y-91324470D01*
X116383415Y-90991607D01*
X116138025Y-91093969D01*
X116138025Y-91324470D01*
X115914038Y-91324470D01*
X115852156Y-91527147D01*
G37*
G36*
X117672195Y-91303400D02*
G01*
X117826471Y-91314274D01*
X117930078Y-91338472D01*
X118004309Y-91375513D01*
X118034444Y-91399968D01*
X118060417Y-91428819D01*
X118084230Y-91465516D01*
X118103745Y-91508122D01*
X118121837Y-91567128D01*
X118134834Y-91635679D01*
X118145557Y-91749666D01*
X118148791Y-91885601D01*
X118148152Y-91950472D01*
X118136343Y-92125836D01*
X118111890Y-92241693D01*
X118075753Y-92322776D01*
X118025613Y-92382308D01*
X117992198Y-92406927D01*
X117953743Y-92427043D01*
X117901774Y-92445366D01*
X117841968Y-92458499D01*
X117745778Y-92469106D01*
X117632513Y-92472323D01*
X117589212Y-92471920D01*
X117436071Y-92460704D01*
X117332815Y-92436150D01*
X117258643Y-92398707D01*
X117228483Y-92374012D01*
X117202488Y-92344913D01*
X117178640Y-92307915D01*
X117159100Y-92264999D01*
X117140984Y-92205611D01*
X117127973Y-92136675D01*
X117117237Y-92022107D01*
X117114002Y-91885601D01*
X117361533Y-91885601D01*
X117363034Y-91965024D01*
X117375735Y-92082141D01*
X117399532Y-92152666D01*
X117436175Y-92198669D01*
X117463791Y-92216639D01*
X117496959Y-92229574D01*
X117557412Y-92240756D01*
X117632513Y-92244055D01*
X117669851Y-92243344D01*
X117758874Y-92231778D01*
X117816170Y-92206906D01*
X117838604Y-92187899D01*
X117857024Y-92163999D01*
X117874188Y-92128496D01*
X117886653Y-92084658D01*
X117898027Y-91997660D01*
X117901353Y-91885601D01*
X117899988Y-91810530D01*
X117887509Y-91693280D01*
X117863878Y-91622723D01*
X117827402Y-91576729D01*
X117799907Y-91558776D01*
X117766871Y-91545852D01*
X117706933Y-91534720D01*
X117632513Y-91531428D01*
X117595231Y-91532120D01*
X117504983Y-91543632D01*
X117447100Y-91568370D01*
X117424530Y-91587200D01*
X117406011Y-91610851D01*
X117388795Y-91645879D01*
X117376297Y-91689073D01*
X117364867Y-91774998D01*
X117361533Y-91885601D01*
X117114002Y-91885601D01*
X117114569Y-91824590D01*
X117126140Y-91649097D01*
X117150382Y-91533376D01*
X117186328Y-91452468D01*
X117236312Y-91393078D01*
X117269690Y-91368501D01*
X117308133Y-91348422D01*
X117360230Y-91330099D01*
X117420237Y-91316966D01*
X117517616Y-91306294D01*
X117632513Y-91303067D01*
X117672195Y-91303400D01*
G37*
G36*
X118446386Y-92450920D02*
G01*
X118698103Y-92450920D01*
X118698103Y-91868479D01*
X118701474Y-91757103D01*
X118713156Y-91672457D01*
X118725537Y-91632116D01*
X118742535Y-91599916D01*
X118760799Y-91578579D01*
X118783044Y-91561982D01*
X118841247Y-91541072D01*
X118937073Y-91533568D01*
X119003057Y-91536983D01*
X119052002Y-91548975D01*
X119074451Y-91561615D01*
X119091922Y-91579014D01*
X119113032Y-91626462D01*
X119122380Y-91711114D01*
X119122720Y-91738386D01*
X119122720Y-92450920D01*
X119374438Y-92450920D01*
X119374438Y-91738386D01*
X119371147Y-91619574D01*
X119360020Y-91523538D01*
X119347248Y-91470860D01*
X119329552Y-91426762D01*
X119310522Y-91395943D01*
X119287307Y-91370299D01*
X119230395Y-91334416D01*
X119148802Y-91312200D01*
X119005376Y-91303067D01*
X118910716Y-91306489D01*
X118837661Y-91318531D01*
X118801141Y-91331553D01*
X118770199Y-91349589D01*
X118724798Y-91397241D01*
X118684402Y-91475715D01*
X118676793Y-91495136D01*
X118666092Y-91495136D01*
X118666092Y-91324470D01*
X118446386Y-91324470D01*
X118446386Y-92450920D01*
G37*
G36*
X121755289Y-92069016D02*
G01*
X121742719Y-92129504D01*
X121723985Y-92174666D01*
X121707455Y-92196479D01*
X121686531Y-92213335D01*
X121631413Y-92233718D01*
X121520601Y-92241915D01*
X121460528Y-92238677D01*
X121410113Y-92227925D01*
X121379243Y-92214589D01*
X121352732Y-92195920D01*
X121314593Y-92146086D01*
X121287100Y-92067930D01*
X121269010Y-91939037D01*
X121262462Y-91721263D01*
X121265801Y-91557952D01*
X121277266Y-91431999D01*
X121289612Y-91369954D01*
X121306571Y-91319864D01*
X121324062Y-91287302D01*
X121345222Y-91261294D01*
X121394742Y-91228607D01*
X121463843Y-91212050D01*
X121520601Y-91209266D01*
X121592808Y-91212713D01*
X121646808Y-91224929D01*
X121672131Y-91237830D01*
X121692695Y-91255638D01*
X121721154Y-91304832D01*
X121742541Y-91390540D01*
X121994259Y-91390540D01*
X121983133Y-91287079D01*
X121965703Y-91201713D01*
X121948833Y-91152022D01*
X121927383Y-91109844D01*
X121904870Y-91079250D01*
X121878141Y-91053453D01*
X121813009Y-91015904D01*
X121720757Y-90991399D01*
X121579399Y-90979513D01*
X121520601Y-90978765D01*
X121429757Y-90981873D01*
X121349405Y-90991718D01*
X121291862Y-91005101D01*
X121240507Y-91023786D01*
X121200018Y-91045055D01*
X121163946Y-91071076D01*
X121106761Y-91134784D01*
X121062783Y-91220608D01*
X121029937Y-91339179D01*
X121008871Y-91508240D01*
X121002183Y-91725544D01*
X121005419Y-91899712D01*
X121016158Y-92045783D01*
X121029133Y-92133378D01*
X121047186Y-92208827D01*
X121066429Y-92262815D01*
X121089866Y-92309431D01*
X121114698Y-92345324D01*
X121143377Y-92375985D01*
X121210609Y-92421664D01*
X121298954Y-92452371D01*
X121422164Y-92469386D01*
X121520601Y-92472323D01*
X121639574Y-92469048D01*
X121737410Y-92458037D01*
X121793402Y-92445092D01*
X121841157Y-92427096D01*
X121875665Y-92407484D01*
X121905185Y-92383492D01*
X121949110Y-92324458D01*
X121980811Y-92240604D01*
X122002948Y-92112345D01*
X122007100Y-92069016D01*
X121755289Y-92069016D01*
G37*
G36*
X122586191Y-92450920D02*
G01*
X122910493Y-92450920D01*
X122910493Y-92126618D01*
X122586191Y-92126618D01*
X122586191Y-92450920D01*
G37*
G36*
X125592196Y-92069016D02*
G01*
X125579626Y-92129504D01*
X125560892Y-92174666D01*
X125544362Y-92196479D01*
X125523437Y-92213335D01*
X125468320Y-92233718D01*
X125357508Y-92241915D01*
X125297435Y-92238677D01*
X125247019Y-92227925D01*
X125216149Y-92214589D01*
X125189638Y-92195920D01*
X125151500Y-92146086D01*
X125124007Y-92067930D01*
X125105917Y-91939037D01*
X125099369Y-91721263D01*
X125102708Y-91557952D01*
X125114173Y-91431999D01*
X125126519Y-91369954D01*
X125143477Y-91319864D01*
X125160969Y-91287302D01*
X125182129Y-91261294D01*
X125231649Y-91228607D01*
X125300750Y-91212050D01*
X125357508Y-91209266D01*
X125429714Y-91212713D01*
X125483715Y-91224929D01*
X125509038Y-91237830D01*
X125529602Y-91255638D01*
X125558060Y-91304832D01*
X125579447Y-91390540D01*
X125831165Y-91390540D01*
X125820039Y-91287079D01*
X125802610Y-91201713D01*
X125785739Y-91152022D01*
X125764290Y-91109844D01*
X125741776Y-91079250D01*
X125715047Y-91053453D01*
X125649916Y-91015904D01*
X125557663Y-90991399D01*
X125416306Y-90979513D01*
X125357508Y-90978765D01*
X125266664Y-90981873D01*
X125186312Y-90991718D01*
X125128769Y-91005101D01*
X125077414Y-91023786D01*
X125036924Y-91045055D01*
X125000853Y-91071076D01*
X124943668Y-91134784D01*
X124899690Y-91220608D01*
X124866844Y-91339179D01*
X124845777Y-91508240D01*
X124839090Y-91725544D01*
X124842325Y-91899712D01*
X124853065Y-92045783D01*
X124866039Y-92133378D01*
X124884093Y-92208827D01*
X124903336Y-92262815D01*
X124926773Y-92309431D01*
X124951604Y-92345324D01*
X124980284Y-92375985D01*
X125047516Y-92421664D01*
X125135861Y-92452371D01*
X125259071Y-92469386D01*
X125357508Y-92472323D01*
X125476481Y-92469048D01*
X125574317Y-92458037D01*
X125630309Y-92445092D01*
X125678064Y-92427096D01*
X125712571Y-92407484D01*
X125742092Y-92383492D01*
X125786017Y-92324458D01*
X125817717Y-92240604D01*
X125839855Y-92112345D01*
X125844007Y-92069016D01*
X125592196Y-92069016D01*
G37*
G36*
X126640034Y-91303999D02*
G01*
X126780545Y-91316121D01*
X126870063Y-91340268D01*
X126931269Y-91376628D01*
X126955574Y-91401415D01*
X126975416Y-91430733D01*
X126993433Y-91471200D01*
X127006388Y-91518811D01*
X127017265Y-91600731D01*
X127020521Y-91699953D01*
X127020521Y-92450920D01*
X126807142Y-92450920D01*
X126807142Y-92316546D01*
X126796534Y-92316546D01*
X126767130Y-92377775D01*
X126726771Y-92424153D01*
X126698465Y-92441703D01*
X126664246Y-92454455D01*
X126590583Y-92466727D01*
X126491401Y-92470182D01*
X126375568Y-92466090D01*
X126275774Y-92449370D01*
X126211730Y-92420953D01*
X126187353Y-92401167D01*
X126167491Y-92377204D01*
X126149634Y-92343783D01*
X126136767Y-92303814D01*
X126125632Y-92231306D01*
X126122339Y-92141600D01*
X126123050Y-92107448D01*
X126363356Y-92107448D01*
X126366266Y-92160162D01*
X126380897Y-92207384D01*
X126394626Y-92224139D01*
X126413391Y-92236438D01*
X126460954Y-92249023D01*
X126529834Y-92252523D01*
X126634067Y-92244590D01*
X126695035Y-92223449D01*
X126718183Y-92206992D01*
X126737263Y-92185966D01*
X126754957Y-92154830D01*
X126768077Y-92116086D01*
X126780816Y-92038071D01*
X126785832Y-91936782D01*
X126593857Y-91936782D01*
X126551337Y-91937389D01*
X126459317Y-91947265D01*
X126409208Y-91968000D01*
X126391445Y-91984462D01*
X126378597Y-92005399D01*
X126366750Y-92049213D01*
X126363356Y-92107448D01*
X126123050Y-92107448D01*
X126123548Y-92083531D01*
X126136846Y-91973020D01*
X126163430Y-91898496D01*
X126205307Y-91844125D01*
X126235479Y-91821233D01*
X126271521Y-91802434D01*
X126323419Y-91784745D01*
X126385238Y-91771977D01*
X126497692Y-91760847D01*
X126636476Y-91757555D01*
X126787972Y-91757555D01*
X126787972Y-91704234D01*
X126787251Y-91668159D01*
X126776458Y-91591537D01*
X126753165Y-91546527D01*
X126733535Y-91529375D01*
X126708336Y-91516886D01*
X126653205Y-91504962D01*
X126578874Y-91501557D01*
X126493463Y-91506783D01*
X126443040Y-91523332D01*
X126425837Y-91537254D01*
X126413479Y-91555542D01*
X126402100Y-91596589D01*
X126399648Y-91653053D01*
X126160678Y-91653053D01*
X126164390Y-91526236D01*
X126182730Y-91445290D01*
X126215255Y-91389230D01*
X126239204Y-91366372D01*
X126268386Y-91347608D01*
X126310723Y-91330085D01*
X126361752Y-91317417D01*
X126455590Y-91306350D01*
X126572454Y-91303067D01*
X126640034Y-91303999D01*
G37*
G36*
X127723470Y-91098250D02*
G01*
X128039210Y-91098250D01*
X128039210Y-90795351D01*
X127723470Y-90795351D01*
X127723470Y-91098250D01*
G37*
G36*
X127446068Y-92450920D02*
G01*
X128365653Y-92450920D01*
X128365653Y-92237634D01*
X128034930Y-92237634D01*
X128034930Y-91324470D01*
X127467378Y-91324470D01*
X127467378Y-91537756D01*
X127795961Y-91537756D01*
X127795961Y-92237634D01*
X127446068Y-92237634D01*
X127446068Y-92450920D01*
G37*
G36*
X128678137Y-92450920D02*
G01*
X128929854Y-92450920D01*
X128929854Y-91868479D01*
X128933225Y-91757103D01*
X128944907Y-91672457D01*
X128957289Y-91632116D01*
X128974286Y-91599916D01*
X128992550Y-91578579D01*
X129014795Y-91561982D01*
X129072998Y-91541072D01*
X129168824Y-91533568D01*
X129234808Y-91536983D01*
X129283753Y-91548975D01*
X129306202Y-91561615D01*
X129323673Y-91579014D01*
X129344783Y-91626462D01*
X129354131Y-91711114D01*
X129354471Y-91738386D01*
X129354471Y-92450920D01*
X129606189Y-92450920D01*
X129606189Y-91738386D01*
X129602898Y-91619574D01*
X129591771Y-91523538D01*
X129578999Y-91470860D01*
X129561303Y-91426762D01*
X129542273Y-91395943D01*
X129519058Y-91370299D01*
X129462146Y-91334416D01*
X129380553Y-91312200D01*
X129237127Y-91303067D01*
X129142467Y-91306489D01*
X129069412Y-91318531D01*
X129032892Y-91331553D01*
X129001950Y-91349589D01*
X128956549Y-91397241D01*
X128916153Y-91475715D01*
X128908545Y-91495136D01*
X128897843Y-91495136D01*
X128897843Y-91324470D01*
X128678137Y-91324470D01*
X128678137Y-92450920D01*
G37*
G36*
X130476941Y-91303999D02*
G01*
X130617452Y-91316121D01*
X130706970Y-91340268D01*
X130768176Y-91376628D01*
X130792481Y-91401415D01*
X130812323Y-91430733D01*
X130830340Y-91471200D01*
X130843294Y-91518811D01*
X130854172Y-91600731D01*
X130857427Y-91699953D01*
X130857427Y-92450920D01*
X130644049Y-92450920D01*
X130644049Y-92316546D01*
X130633440Y-92316546D01*
X130604037Y-92377775D01*
X130563677Y-92424153D01*
X130535372Y-92441703D01*
X130501152Y-92454455D01*
X130427490Y-92466727D01*
X130328308Y-92470182D01*
X130212474Y-92466090D01*
X130112680Y-92449370D01*
X130048636Y-92420953D01*
X130024259Y-92401167D01*
X130004398Y-92377204D01*
X129986541Y-92343783D01*
X129973674Y-92303814D01*
X129962538Y-92231306D01*
X129959246Y-92141600D01*
X129959956Y-92107448D01*
X130200262Y-92107448D01*
X130203172Y-92160162D01*
X130217803Y-92207384D01*
X130231532Y-92224139D01*
X130250298Y-92236438D01*
X130297860Y-92249023D01*
X130366740Y-92252523D01*
X130470973Y-92244590D01*
X130531941Y-92223449D01*
X130555090Y-92206992D01*
X130574170Y-92185966D01*
X130591864Y-92154830D01*
X130604983Y-92116086D01*
X130617722Y-92038071D01*
X130622739Y-91936782D01*
X130430763Y-91936782D01*
X130388244Y-91937389D01*
X130296223Y-91947265D01*
X130246114Y-91968000D01*
X130228351Y-91984462D01*
X130215504Y-92005399D01*
X130203656Y-92049213D01*
X130200262Y-92107448D01*
X129959956Y-92107448D01*
X129960454Y-92083531D01*
X129973753Y-91973020D01*
X130000336Y-91898496D01*
X130042214Y-91844125D01*
X130072386Y-91821233D01*
X130108428Y-91802434D01*
X130160326Y-91784745D01*
X130222145Y-91771977D01*
X130334598Y-91760847D01*
X130473383Y-91757555D01*
X130624879Y-91757555D01*
X130624879Y-91704234D01*
X130624157Y-91668159D01*
X130613365Y-91591537D01*
X130590071Y-91546527D01*
X130570441Y-91529375D01*
X130545242Y-91516886D01*
X130490112Y-91504962D01*
X130415781Y-91501557D01*
X130330370Y-91506783D01*
X130279946Y-91523332D01*
X130262744Y-91537254D01*
X130250386Y-91555542D01*
X130239007Y-91596589D01*
X130236554Y-91653053D01*
X129997585Y-91653053D01*
X130001296Y-91526236D01*
X130019637Y-91445290D01*
X130052161Y-91389230D01*
X130076110Y-91366372D01*
X130105293Y-91347608D01*
X130147630Y-91330085D01*
X130198658Y-91317417D01*
X130292496Y-91306350D01*
X130409360Y-91303067D01*
X130476941Y-91303999D01*
G37*
G36*
X131236074Y-92450920D02*
G01*
X131487792Y-92450920D01*
X131487792Y-91868479D01*
X131491163Y-91757103D01*
X131502844Y-91672457D01*
X131515226Y-91632116D01*
X131532224Y-91599916D01*
X131550488Y-91578579D01*
X131572732Y-91561982D01*
X131630935Y-91541072D01*
X131726761Y-91533568D01*
X131792746Y-91536983D01*
X131841691Y-91548975D01*
X131864140Y-91561615D01*
X131881611Y-91579014D01*
X131902721Y-91626462D01*
X131912069Y-91711114D01*
X131912409Y-91738386D01*
X131912409Y-92450920D01*
X132164127Y-92450920D01*
X132164127Y-91738386D01*
X132160836Y-91619574D01*
X132149708Y-91523538D01*
X132136937Y-91470860D01*
X132119241Y-91426762D01*
X132100211Y-91395943D01*
X132076995Y-91370299D01*
X132020084Y-91334416D01*
X131938491Y-91312200D01*
X131795065Y-91303067D01*
X131700405Y-91306489D01*
X131627350Y-91318531D01*
X131590830Y-91331553D01*
X131559888Y-91349589D01*
X131514486Y-91397241D01*
X131474091Y-91475715D01*
X131466482Y-91495136D01*
X131455781Y-91495136D01*
X131455781Y-91324470D01*
X131236074Y-91324470D01*
X131236074Y-92450920D01*
G37*
G36*
X133864363Y-92450920D02*
G01*
X134754076Y-92450920D01*
X134754076Y-92218371D01*
X134116174Y-92218371D01*
X134116174Y-91813017D01*
X134630311Y-91813017D01*
X134630311Y-91580469D01*
X134116174Y-91580469D01*
X134116174Y-91232717D01*
X134711456Y-91232717D01*
X134711456Y-91000168D01*
X133864363Y-91000168D01*
X133864363Y-92450920D01*
G37*
G36*
X135375880Y-92450920D02*
G01*
X135700182Y-92450920D01*
X135700182Y-92126618D01*
X135375880Y-92126618D01*
X135375880Y-92450920D01*
G37*
G36*
X137594627Y-92032817D02*
G01*
X137595306Y-92141309D01*
X137604051Y-92231172D01*
X137615742Y-92283502D01*
X137632663Y-92328134D01*
X137651479Y-92360296D01*
X137674765Y-92387648D01*
X137732694Y-92427621D01*
X137815645Y-92454710D01*
X137942177Y-92469858D01*
X138044834Y-92472323D01*
X138159671Y-92469064D01*
X138254591Y-92458166D01*
X138309639Y-92445232D01*
X138356504Y-92427250D01*
X138390122Y-92407725D01*
X138418660Y-92383863D01*
X138459990Y-92325642D01*
X138487715Y-92243922D01*
X138503127Y-92121285D01*
X138505650Y-92022115D01*
X138505650Y-91000168D01*
X138249652Y-91000168D01*
X138249652Y-92013554D01*
X138246275Y-92093127D01*
X138234555Y-92152544D01*
X138222149Y-92180256D01*
X138205115Y-92201952D01*
X138161482Y-92227660D01*
X138089865Y-92240357D01*
X138038413Y-92241915D01*
X137973245Y-92238547D01*
X137924467Y-92226889D01*
X137901314Y-92214320D01*
X137883237Y-92197008D01*
X137861306Y-92150156D01*
X137851190Y-92067707D01*
X137850625Y-92032817D01*
X137594627Y-92032817D01*
G37*
G36*
X139835800Y-91324470D02*
G01*
X139584082Y-91324470D01*
X139584082Y-91906911D01*
X139580712Y-92018323D01*
X139569030Y-92102995D01*
X139556648Y-92143346D01*
X139539651Y-92175553D01*
X139521389Y-92196894D01*
X139499146Y-92213494D01*
X139440952Y-92234408D01*
X139345113Y-92241915D01*
X139279202Y-92238503D01*
X139230289Y-92226532D01*
X139207812Y-92213896D01*
X139190318Y-92196504D01*
X139169181Y-92149090D01*
X139159811Y-92064548D01*
X139159465Y-92037097D01*
X139159465Y-91324470D01*
X138907747Y-91324470D01*
X138907747Y-92037097D01*
X138911040Y-92155954D01*
X138922175Y-92252012D01*
X138934949Y-92304658D01*
X138952647Y-92348727D01*
X138971679Y-92379525D01*
X138994897Y-92405151D01*
X139051825Y-92441009D01*
X139133462Y-92463209D01*
X139276809Y-92472323D01*
X139371470Y-92468901D01*
X139444525Y-92456859D01*
X139481045Y-92443837D01*
X139511986Y-92425801D01*
X139557388Y-92378148D01*
X139597784Y-92299675D01*
X139605392Y-92280254D01*
X139616094Y-92280254D01*
X139616094Y-92450920D01*
X139835800Y-92450920D01*
X139835800Y-91324470D01*
G37*
G36*
X140195184Y-92450920D02*
G01*
X141140359Y-92450920D01*
X141140359Y-92235494D01*
X140799028Y-92235494D01*
X140799028Y-90897713D01*
X140216587Y-90897713D01*
X140216587Y-91113232D01*
X140562199Y-91113232D01*
X140562199Y-92235494D01*
X140195184Y-92235494D01*
X140195184Y-92450920D01*
G37*
G36*
X141987661Y-91303999D02*
G01*
X142128172Y-91316121D01*
X142217690Y-91340268D01*
X142278896Y-91376628D01*
X142303201Y-91401415D01*
X142323043Y-91430733D01*
X142341060Y-91471200D01*
X142354014Y-91518811D01*
X142364892Y-91600731D01*
X142368147Y-91699953D01*
X142368147Y-92450920D01*
X142154769Y-92450920D01*
X142154769Y-92316546D01*
X142144160Y-92316546D01*
X142114757Y-92377775D01*
X142074397Y-92424153D01*
X142046092Y-92441703D01*
X142011872Y-92454455D01*
X141938210Y-92466727D01*
X141839028Y-92470182D01*
X141723194Y-92466090D01*
X141623400Y-92449370D01*
X141559356Y-92420953D01*
X141534979Y-92401167D01*
X141515118Y-92377204D01*
X141497261Y-92343783D01*
X141484394Y-92303814D01*
X141473258Y-92231306D01*
X141469966Y-92141600D01*
X141470676Y-92107448D01*
X141710982Y-92107448D01*
X141713892Y-92160162D01*
X141728523Y-92207384D01*
X141742252Y-92224139D01*
X141761018Y-92236438D01*
X141808580Y-92249023D01*
X141877460Y-92252523D01*
X141981693Y-92244590D01*
X142042661Y-92223449D01*
X142065810Y-92206992D01*
X142084890Y-92185966D01*
X142102584Y-92154830D01*
X142115703Y-92116086D01*
X142128442Y-92038071D01*
X142133459Y-91936782D01*
X141941483Y-91936782D01*
X141898964Y-91937389D01*
X141806943Y-91947265D01*
X141756834Y-91968000D01*
X141739071Y-91984462D01*
X141726223Y-92005399D01*
X141714376Y-92049213D01*
X141710982Y-92107448D01*
X141470676Y-92107448D01*
X141471174Y-92083531D01*
X141484473Y-91973020D01*
X141511056Y-91898496D01*
X141552934Y-91844125D01*
X141583106Y-91821233D01*
X141619147Y-91802434D01*
X141671046Y-91784745D01*
X141732864Y-91771977D01*
X141845318Y-91760847D01*
X141984103Y-91757555D01*
X142135599Y-91757555D01*
X142135599Y-91704234D01*
X142134877Y-91668159D01*
X142124085Y-91591537D01*
X142100791Y-91546527D01*
X142081161Y-91529375D01*
X142055962Y-91516886D01*
X142000832Y-91504962D01*
X141926501Y-91501557D01*
X141841090Y-91506783D01*
X141790666Y-91523332D01*
X141773464Y-91537254D01*
X141761106Y-91555542D01*
X141749727Y-91596589D01*
X141747274Y-91653053D01*
X141508305Y-91653053D01*
X141512016Y-91526236D01*
X141530357Y-91445290D01*
X141562881Y-91389230D01*
X141586830Y-91366372D01*
X141616013Y-91347608D01*
X141658350Y-91330085D01*
X141709378Y-91317417D01*
X141803216Y-91306350D01*
X141920080Y-91303067D01*
X141987661Y-91303999D01*
G37*
G36*
X143071096Y-91098250D02*
G01*
X143386837Y-91098250D01*
X143386837Y-90795351D01*
X143071096Y-90795351D01*
X143071096Y-91098250D01*
G37*
G36*
X142793695Y-92450920D02*
G01*
X143713279Y-92450920D01*
X143713279Y-92237634D01*
X143382556Y-92237634D01*
X143382556Y-91324470D01*
X142815005Y-91324470D01*
X142815005Y-91537756D01*
X143143587Y-91537756D01*
X143143587Y-92237634D01*
X142793695Y-92237634D01*
X142793695Y-92450920D01*
G37*
G36*
X144025763Y-92450920D02*
G01*
X144277481Y-92450920D01*
X144277481Y-91868479D01*
X144280851Y-91757103D01*
X144292533Y-91672457D01*
X144304915Y-91632116D01*
X144321913Y-91599916D01*
X144340176Y-91578579D01*
X144362421Y-91561982D01*
X144420624Y-91541072D01*
X144516450Y-91533568D01*
X144582435Y-91536983D01*
X144631379Y-91548975D01*
X144653829Y-91561615D01*
X144671300Y-91579014D01*
X144692410Y-91626462D01*
X144701757Y-91711114D01*
X144702098Y-91738386D01*
X144702098Y-92450920D01*
X144953816Y-92450920D01*
X144953816Y-91738386D01*
X144950525Y-91619574D01*
X144939397Y-91523538D01*
X144926626Y-91470860D01*
X144908929Y-91426762D01*
X144889900Y-91395943D01*
X144866684Y-91370299D01*
X144809772Y-91334416D01*
X144728179Y-91312200D01*
X144584754Y-91303067D01*
X144490093Y-91306489D01*
X144417038Y-91318531D01*
X144380518Y-91331553D01*
X144349577Y-91349589D01*
X144304175Y-91397241D01*
X144263779Y-91475715D01*
X144256171Y-91495136D01*
X144245470Y-91495136D01*
X144245470Y-91324470D01*
X144025763Y-91324470D01*
X144025763Y-92450920D01*
G37*
G36*
X146511117Y-92450920D02*
G01*
X146747946Y-92450920D01*
X146747946Y-91682924D01*
X146718074Y-91288178D01*
X146724495Y-91288178D01*
X146942062Y-91938923D01*
X147153300Y-91938923D01*
X147370959Y-91288178D01*
X147377380Y-91288178D01*
X147347509Y-91682924D01*
X147347509Y-92450920D01*
X147584338Y-92450920D01*
X147584338Y-91000168D01*
X147272784Y-91000168D01*
X147053078Y-91689252D01*
X147042376Y-91689252D01*
X146822577Y-91000168D01*
X146511117Y-91000168D01*
X146511117Y-92450920D01*
G37*
G36*
X148165569Y-92450920D02*
G01*
X148489871Y-92450920D01*
X148489871Y-92126618D01*
X148165569Y-92126618D01*
X148165569Y-92450920D01*
G37*
G36*
X150467508Y-92450920D02*
G01*
X150710758Y-92450920D01*
X150710758Y-91785286D01*
X151190743Y-92450920D01*
X151517186Y-92450920D01*
X150947587Y-91710655D01*
X151421244Y-91000168D01*
X151122533Y-91000168D01*
X150710758Y-91638071D01*
X150710758Y-91000168D01*
X150467508Y-91000168D01*
X150467508Y-92450920D01*
G37*
G36*
X152231249Y-91304481D02*
G01*
X152361592Y-91318666D01*
X152452367Y-91346336D01*
X152519571Y-91388072D01*
X152547618Y-91416063D01*
X152571689Y-91448971D01*
X152594037Y-91491673D01*
X152612059Y-91541264D01*
X152628473Y-91610847D01*
X152639574Y-91691835D01*
X152647271Y-91828569D01*
X152646799Y-91992244D01*
X151925704Y-91992244D01*
X151936558Y-92090581D01*
X151958406Y-92161964D01*
X151992297Y-92207244D01*
X152018370Y-92224901D01*
X152050225Y-92237666D01*
X152112531Y-92249177D01*
X152192404Y-92252523D01*
X152232724Y-92251811D01*
X152309123Y-92241708D01*
X152353740Y-92218136D01*
X152376953Y-92188257D01*
X152395081Y-92145880D01*
X152631910Y-92145880D01*
X152616217Y-92229359D01*
X152585732Y-92321758D01*
X152545813Y-92383285D01*
X152519697Y-92407429D01*
X152489062Y-92427129D01*
X152446870Y-92445008D01*
X152397057Y-92457889D01*
X152307400Y-92469029D01*
X152196684Y-92472323D01*
X152161619Y-92472055D01*
X152008206Y-92461427D01*
X151905073Y-92437366D01*
X151831109Y-92400375D01*
X151801047Y-92375897D01*
X151775137Y-92347004D01*
X151751351Y-92310187D01*
X151731859Y-92267423D01*
X151713760Y-92208072D01*
X151700758Y-92139086D01*
X151689976Y-92023558D01*
X151686735Y-91885601D01*
X151686838Y-91857495D01*
X151689584Y-91800268D01*
X151927844Y-91800268D01*
X152412110Y-91800268D01*
X152401444Y-91684310D01*
X152380439Y-91607349D01*
X152348511Y-91559979D01*
X152324641Y-91542019D01*
X152295693Y-91529078D01*
X152240717Y-91517641D01*
X152171094Y-91514306D01*
X152088225Y-91519112D01*
X152024015Y-91536978D01*
X152000303Y-91551377D01*
X151980672Y-91570171D01*
X151962524Y-91598070D01*
X151948791Y-91633191D01*
X151934651Y-91705375D01*
X151927844Y-91800268D01*
X151689584Y-91800268D01*
X151696134Y-91663775D01*
X151718180Y-91539428D01*
X151751525Y-91454512D01*
X151797794Y-91393547D01*
X151828437Y-91368724D01*
X151863778Y-91348469D01*
X151911416Y-91330116D01*
X151966312Y-91316966D01*
X152055330Y-91306294D01*
X152160392Y-91303067D01*
X152231249Y-91304481D01*
G37*
G36*
X152978545Y-92450920D02*
G01*
X153230263Y-92450920D01*
X153230263Y-91868479D01*
X153233634Y-91757103D01*
X153245315Y-91672457D01*
X153257697Y-91632116D01*
X153274695Y-91599916D01*
X153292959Y-91578579D01*
X153315203Y-91561982D01*
X153373406Y-91541072D01*
X153469232Y-91533568D01*
X153535217Y-91536983D01*
X153584162Y-91548975D01*
X153606611Y-91561615D01*
X153624082Y-91579014D01*
X153645192Y-91626462D01*
X153654540Y-91711114D01*
X153654880Y-91738386D01*
X153654880Y-92450920D01*
X153906598Y-92450920D01*
X153906598Y-91738386D01*
X153903307Y-91619574D01*
X153892179Y-91523538D01*
X153879408Y-91470860D01*
X153861711Y-91426762D01*
X153842682Y-91395943D01*
X153819466Y-91370299D01*
X153762555Y-91334416D01*
X153680962Y-91312200D01*
X153537536Y-91303067D01*
X153442876Y-91306489D01*
X153369821Y-91318531D01*
X153333300Y-91331553D01*
X153302359Y-91349589D01*
X153256957Y-91397241D01*
X153216562Y-91475715D01*
X153208953Y-91495136D01*
X153198252Y-91495136D01*
X153198252Y-91324470D01*
X152978545Y-91324470D01*
X152978545Y-92450920D01*
G37*
G36*
X154312976Y-92450920D02*
G01*
X154554085Y-92450920D01*
X154554085Y-91853590D01*
X154557763Y-91801292D01*
X154571596Y-91753390D01*
X154619074Y-91669792D01*
X154639418Y-91640211D01*
X154681072Y-91587743D01*
X154721164Y-91555325D01*
X154777886Y-91537048D01*
X154837815Y-91533568D01*
X154893394Y-91537083D01*
X154933319Y-91549775D01*
X154951880Y-91563321D01*
X154967416Y-91582155D01*
X154997779Y-91650913D01*
X155228280Y-91593311D01*
X155210068Y-91513897D01*
X155186836Y-91450585D01*
X155166932Y-91415777D01*
X155142903Y-91387167D01*
X155087353Y-91349793D01*
X155008395Y-91326886D01*
X154882145Y-91316385D01*
X154837815Y-91315909D01*
X154753775Y-91319321D01*
X154687456Y-91331292D01*
X154652482Y-91344640D01*
X154622079Y-91363237D01*
X154574014Y-91414251D01*
X154526210Y-91501619D01*
X154517793Y-91520726D01*
X154507092Y-91520726D01*
X154526261Y-91324470D01*
X154312976Y-91324470D01*
X154312976Y-92450920D01*
G37*
G36*
X155860785Y-91098250D02*
G01*
X156176526Y-91098250D01*
X156176526Y-90795351D01*
X155860785Y-90795351D01*
X155860785Y-91098250D01*
G37*
G36*
X155583383Y-92450920D02*
G01*
X156502968Y-92450920D01*
X156502968Y-92237634D01*
X156172245Y-92237634D01*
X156172245Y-91324470D01*
X155604693Y-91324470D01*
X155604693Y-91537756D01*
X155933276Y-91537756D01*
X155933276Y-92237634D01*
X155583383Y-92237634D01*
X155583383Y-92450920D01*
G37*
G36*
X157527986Y-92126618D02*
G01*
X157515423Y-92174171D01*
X157496770Y-92207931D01*
X157480183Y-92223307D01*
X157459020Y-92234450D01*
X157395866Y-92246589D01*
X157342431Y-92248242D01*
X157270558Y-92244962D01*
X157212539Y-92233909D01*
X157180214Y-92220974D01*
X157153286Y-92202999D01*
X157117337Y-92156657D01*
X157093901Y-92085049D01*
X157081434Y-91965246D01*
X157080012Y-91885601D01*
X157083377Y-91768844D01*
X157095025Y-91679447D01*
X157107451Y-91636253D01*
X157124525Y-91601549D01*
X157142761Y-91578489D01*
X157164958Y-91560346D01*
X157221882Y-91537119D01*
X157311490Y-91527369D01*
X157331729Y-91527147D01*
X157401361Y-91530647D01*
X157451480Y-91543233D01*
X157473237Y-91556027D01*
X157490403Y-91573607D01*
X157513479Y-91623787D01*
X157523798Y-91672223D01*
X157771235Y-91672223D01*
X157765315Y-91577934D01*
X157752249Y-91500463D01*
X157738017Y-91455632D01*
X157718912Y-91417730D01*
X157698114Y-91390253D01*
X157672905Y-91367216D01*
X157609094Y-91333630D01*
X157514588Y-91312158D01*
X157340291Y-91303067D01*
X157226584Y-91306296D01*
X157130272Y-91316982D01*
X157071040Y-91330116D01*
X157019633Y-91348440D01*
X156981692Y-91368535D01*
X156948761Y-91393135D01*
X156899399Y-91452723D01*
X156863883Y-91534195D01*
X156839975Y-91651208D01*
X156828697Y-91829564D01*
X156828201Y-91887741D01*
X156831433Y-92024184D01*
X156842153Y-92138581D01*
X156855146Y-92207388D01*
X156873233Y-92266604D01*
X156892737Y-92309351D01*
X156916535Y-92346166D01*
X156942478Y-92375096D01*
X156972575Y-92399618D01*
X157046659Y-92436748D01*
X157149986Y-92461015D01*
X157303753Y-92471970D01*
X157344571Y-92472323D01*
X157459801Y-92469020D01*
X157552586Y-92457810D01*
X157603047Y-92445016D01*
X157645339Y-92427287D01*
X157675189Y-92408066D01*
X157700145Y-92384577D01*
X157736025Y-92325941D01*
X157759706Y-92239804D01*
X157771235Y-92126618D01*
X157527986Y-92126618D01*
G37*
G36*
X159710440Y-92450920D02*
G01*
X159962251Y-92450920D01*
X159962251Y-91230576D01*
X160342015Y-91230576D01*
X160342015Y-91000168D01*
X159332817Y-91000168D01*
X159332817Y-91230576D01*
X159710440Y-91230576D01*
X159710440Y-92450920D01*
G37*
G36*
X160955257Y-92450920D02*
G01*
X161279559Y-92450920D01*
X161279559Y-92126618D01*
X160955257Y-92126618D01*
X160955257Y-92450920D01*
G37*
G36*
X109421631Y-106420920D02*
G01*
X109684050Y-106420920D01*
X109684050Y-105708386D01*
X109660600Y-105300798D01*
X109667021Y-105300798D01*
X109801395Y-105917484D01*
X110014773Y-105917484D01*
X110147006Y-105300798D01*
X110153427Y-105300798D01*
X110129977Y-105708386D01*
X110129977Y-106420920D01*
X110392396Y-106420920D01*
X110392396Y-104970168D01*
X110061674Y-104970168D01*
X109910178Y-105642223D01*
X109903850Y-105642223D01*
X109752354Y-104970168D01*
X109421631Y-104970168D01*
X109421631Y-106420920D01*
G37*
G36*
X110654351Y-106420920D02*
G01*
X111471480Y-106420920D01*
X111471480Y-106160640D01*
X110944501Y-106160640D01*
X110944501Y-105804327D01*
X111362697Y-105804327D01*
X111362697Y-105546188D01*
X110944501Y-105546188D01*
X110944501Y-105230447D01*
X111433141Y-105230447D01*
X111433141Y-104970168D01*
X110654351Y-104970168D01*
X110654351Y-106420920D01*
G37*
G36*
X111660943Y-106420920D02*
G01*
X111923362Y-106420920D01*
X111923362Y-105708386D01*
X111899912Y-105300798D01*
X111906333Y-105300798D01*
X112040707Y-105917484D01*
X112254085Y-105917484D01*
X112386319Y-105300798D01*
X112392740Y-105300798D01*
X112369289Y-105708386D01*
X112369289Y-106420920D01*
X112631709Y-106420920D01*
X112631709Y-104970168D01*
X112300986Y-104970168D01*
X112149490Y-105642223D01*
X112143162Y-105642223D01*
X111991666Y-104970168D01*
X111660943Y-104970168D01*
X111660943Y-106420920D01*
G37*
G36*
X112872353Y-106758063D02*
G01*
X113659611Y-106758063D01*
X113659611Y-106463632D01*
X112872353Y-106463632D01*
X112872353Y-106758063D01*
G37*
G36*
X114589432Y-106026267D02*
G01*
X114579464Y-106091692D01*
X114562501Y-106135894D01*
X114548242Y-106153190D01*
X114529862Y-106165496D01*
X114477907Y-106178093D01*
X114431515Y-106179903D01*
X114384445Y-106176543D01*
X114345991Y-106164937D01*
X114324349Y-106151164D01*
X114306064Y-106131796D01*
X114279095Y-106075188D01*
X114260272Y-105973845D01*
X114250732Y-105779642D01*
X114250148Y-105689123D01*
X114253681Y-105499648D01*
X114266505Y-105366184D01*
X114278486Y-105314146D01*
X114294686Y-105274397D01*
X114310998Y-105250528D01*
X114330602Y-105232847D01*
X114378239Y-105213610D01*
X114431515Y-105209137D01*
X114484423Y-105212767D01*
X114522001Y-105226264D01*
X114550847Y-105259115D01*
X114570621Y-105322218D01*
X114578730Y-105371242D01*
X114864600Y-105371242D01*
X114852518Y-105251128D01*
X114833716Y-105155383D01*
X114817095Y-105106147D01*
X114796007Y-105065014D01*
X114774188Y-105036080D01*
X114748273Y-105012073D01*
X114684844Y-104978102D01*
X114592992Y-104957102D01*
X114431515Y-104948765D01*
X114333575Y-104952000D01*
X114249413Y-104962731D01*
X114196412Y-104976092D01*
X114149796Y-104994803D01*
X114114416Y-105015706D01*
X114083284Y-105041413D01*
X114034720Y-105105329D01*
X113997954Y-105194944D01*
X113971412Y-105325717D01*
X113956166Y-105526004D01*
X113953577Y-105693404D01*
X113956895Y-105886493D01*
X113968210Y-106044400D01*
X113981115Y-106131288D01*
X113999024Y-106205136D01*
X114017839Y-106256586D01*
X114040738Y-106300460D01*
X114064906Y-106333671D01*
X114092825Y-106361637D01*
X114158800Y-106402459D01*
X114247368Y-106428738D01*
X114375456Y-106441427D01*
X114431515Y-106442323D01*
X114544998Y-106438975D01*
X114637051Y-106427452D01*
X114686815Y-106414427D01*
X114729090Y-106396332D01*
X114759626Y-106376504D01*
X114785642Y-106352183D01*
X114824785Y-106290677D01*
X114853242Y-106199636D01*
X114873189Y-106053032D01*
X114875302Y-106026267D01*
X114589432Y-106026267D01*
G37*
G36*
X115541809Y-105520937D02*
G01*
X115579810Y-105536238D01*
X115594808Y-105552677D01*
X115605940Y-105576151D01*
X115616294Y-105628559D01*
X115619475Y-105704105D01*
X115616812Y-105774332D01*
X115603252Y-105839225D01*
X115592381Y-105858960D01*
X115578278Y-105873064D01*
X115547520Y-105886096D01*
X115506318Y-105889660D01*
X115472682Y-105887581D01*
X115433723Y-105873240D01*
X115418597Y-105857703D01*
X115407383Y-105835417D01*
X115396509Y-105782217D01*
X115393254Y-105704105D01*
X115395476Y-105631309D01*
X115407439Y-105567611D01*
X115430768Y-105535022D01*
X115462117Y-105522017D01*
X115506318Y-105518457D01*
X115541809Y-105520937D01*
G37*
G36*
X115610548Y-104951516D02*
G01*
X115723928Y-104966497D01*
X115798046Y-104993747D01*
X115827235Y-105013106D01*
X115852208Y-105036884D01*
X115876347Y-105070137D01*
X115896381Y-105110310D01*
X115921643Y-105189645D01*
X115941636Y-105290190D01*
X115963414Y-105449968D01*
X115972752Y-105570795D01*
X115975788Y-105706245D01*
X115975091Y-105771765D01*
X115964460Y-105938732D01*
X115939496Y-106111600D01*
X115924058Y-106190771D01*
X115892593Y-106291260D01*
X115853823Y-106355707D01*
X115829200Y-106380348D01*
X115800440Y-106400390D01*
X115761125Y-106418447D01*
X115714729Y-106431462D01*
X115625991Y-106443222D01*
X115514879Y-106446603D01*
X115410113Y-106443832D01*
X115295954Y-106428596D01*
X115220183Y-106400790D01*
X115189973Y-106381009D01*
X115163901Y-106356730D01*
X115138445Y-106322900D01*
X115116934Y-106282086D01*
X115089564Y-106203771D01*
X115066812Y-106105179D01*
X115064064Y-106091843D01*
X115041820Y-105926299D01*
X115036941Y-105718994D01*
X115037349Y-105699824D01*
X115325044Y-105699824D01*
X115325302Y-105742179D01*
X115333121Y-105897843D01*
X115352775Y-106039016D01*
X115360758Y-106080887D01*
X115381177Y-106142140D01*
X115394172Y-106160655D01*
X115410544Y-106174034D01*
X115448354Y-106186963D01*
X115502130Y-106190512D01*
X115533781Y-106189483D01*
X115586020Y-106177881D01*
X115605378Y-106165566D01*
X115621081Y-106147797D01*
X115641964Y-106101057D01*
X115657814Y-106030547D01*
X115672887Y-105929371D01*
X115682474Y-105823695D01*
X115685545Y-105708386D01*
X115683355Y-105567688D01*
X115676248Y-105470124D01*
X115662094Y-105375523D01*
X115651414Y-105318433D01*
X115629469Y-105254159D01*
X115615814Y-105234605D01*
X115599048Y-105220497D01*
X115559482Y-105206428D01*
X115504271Y-105202717D01*
X115474466Y-105203628D01*
X115422982Y-105214807D01*
X115403958Y-105226904D01*
X115388537Y-105244517D01*
X115366945Y-105295008D01*
X115350634Y-105373382D01*
X115340239Y-105442785D01*
X115328432Y-105562449D01*
X115325044Y-105699824D01*
X115037349Y-105699824D01*
X115040473Y-105552844D01*
X115051272Y-105418736D01*
X115071092Y-105279488D01*
X115086975Y-105201906D01*
X115119002Y-105102607D01*
X115158144Y-105038969D01*
X115183051Y-105014573D01*
X115212193Y-104994710D01*
X115252202Y-104976768D01*
X115299560Y-104963824D01*
X115390262Y-104952137D01*
X115504271Y-104948765D01*
X115610548Y-104951516D01*
G37*
G36*
X116680576Y-104959595D02*
G01*
X116819339Y-104973897D01*
X116908061Y-104999631D01*
X116968980Y-105037479D01*
X116993300Y-105063206D01*
X117013136Y-105093526D01*
X117031298Y-105135688D01*
X117044359Y-105185258D01*
X117055814Y-105275670D01*
X117059152Y-105386224D01*
X117054330Y-105529332D01*
X117038249Y-105622570D01*
X117011323Y-105678438D01*
X116991172Y-105699678D01*
X116966426Y-105716051D01*
X116916507Y-105733970D01*
X116852194Y-105744585D01*
X116852194Y-105757426D01*
X116909088Y-105779624D01*
X116931760Y-105796641D01*
X116951392Y-105819631D01*
X116982801Y-105881971D01*
X117014299Y-105979273D01*
X117144485Y-106420920D01*
X116830884Y-106420920D01*
X116728429Y-106007097D01*
X116716473Y-105964986D01*
X116689898Y-105907247D01*
X116673400Y-105888659D01*
X116653269Y-105875157D01*
X116604914Y-105861407D01*
X116536454Y-105857741D01*
X116476711Y-105857741D01*
X116476711Y-106420920D01*
X116197169Y-106420920D01*
X116197169Y-105219746D01*
X116476711Y-105219746D01*
X116476711Y-105601650D01*
X116640956Y-105601650D01*
X116702719Y-105597172D01*
X116745670Y-105580174D01*
X116761941Y-105563919D01*
X116773965Y-105541672D01*
X116786779Y-105482272D01*
X116790312Y-105394692D01*
X116787977Y-105336583D01*
X116774660Y-105280280D01*
X116762471Y-105260890D01*
X116745757Y-105245959D01*
X116701581Y-105227788D01*
X116636675Y-105217606D01*
X116559869Y-105213860D01*
X116476711Y-105219746D01*
X116197169Y-105219746D01*
X116197169Y-104970168D01*
X116337743Y-104959734D01*
X116566325Y-104957326D01*
X116680576Y-104959595D01*
G37*
G36*
X117372287Y-106420920D02*
G01*
X118189417Y-106420920D01*
X118189417Y-106160640D01*
X117662437Y-106160640D01*
X117662437Y-105804327D01*
X118080634Y-105804327D01*
X118080634Y-105546188D01*
X117662437Y-105546188D01*
X117662437Y-105230447D01*
X118151077Y-105230447D01*
X118151077Y-104970168D01*
X117372287Y-104970168D01*
X117372287Y-106420920D01*
G37*
D12*
X167809403Y-102000241D02*
X167900117Y-102030479D01*
X167900117Y-102030479D02*
X168051308Y-102030479D01*
X168051308Y-102030479D02*
X168111784Y-102000241D01*
X168111784Y-102000241D02*
X168142022Y-101970002D01*
X168142022Y-101970002D02*
X168172260Y-101909526D01*
X168172260Y-101909526D02*
X168172260Y-101849050D01*
X168172260Y-101849050D02*
X168142022Y-101788574D01*
X168142022Y-101788574D02*
X168111784Y-101758336D01*
X168111784Y-101758336D02*
X168051308Y-101728098D01*
X168051308Y-101728098D02*
X167930355Y-101697860D01*
X167930355Y-101697860D02*
X167869879Y-101667621D01*
X167869879Y-101667621D02*
X167839641Y-101637383D01*
X167839641Y-101637383D02*
X167809403Y-101576907D01*
X167809403Y-101576907D02*
X167809403Y-101516431D01*
X167809403Y-101516431D02*
X167839641Y-101455955D01*
X167839641Y-101455955D02*
X167869879Y-101425717D01*
X167869879Y-101425717D02*
X167930355Y-101395479D01*
X167930355Y-101395479D02*
X168081546Y-101395479D01*
X168081546Y-101395479D02*
X168172260Y-101425717D01*
X168686308Y-102000241D02*
X168625832Y-102030479D01*
X168625832Y-102030479D02*
X168504879Y-102030479D01*
X168504879Y-102030479D02*
X168444403Y-102000241D01*
X168444403Y-102000241D02*
X168414165Y-101939764D01*
X168414165Y-101939764D02*
X168414165Y-101697860D01*
X168414165Y-101697860D02*
X168444403Y-101637383D01*
X168444403Y-101637383D02*
X168504879Y-101607145D01*
X168504879Y-101607145D02*
X168625832Y-101607145D01*
X168625832Y-101607145D02*
X168686308Y-101637383D01*
X168686308Y-101637383D02*
X168716546Y-101697860D01*
X168716546Y-101697860D02*
X168716546Y-101758336D01*
X168716546Y-101758336D02*
X168414165Y-101818812D01*
X169230594Y-102000241D02*
X169170118Y-102030479D01*
X169170118Y-102030479D02*
X169049165Y-102030479D01*
X169049165Y-102030479D02*
X168988689Y-102000241D01*
X168988689Y-102000241D02*
X168958451Y-101939764D01*
X168958451Y-101939764D02*
X168958451Y-101697860D01*
X168958451Y-101697860D02*
X168988689Y-101637383D01*
X168988689Y-101637383D02*
X169049165Y-101607145D01*
X169049165Y-101607145D02*
X169170118Y-101607145D01*
X169170118Y-101607145D02*
X169230594Y-101637383D01*
X169230594Y-101637383D02*
X169260832Y-101697860D01*
X169260832Y-101697860D02*
X169260832Y-101758336D01*
X169260832Y-101758336D02*
X168958451Y-101818812D01*
X169774880Y-102000241D02*
X169714404Y-102030479D01*
X169714404Y-102030479D02*
X169593451Y-102030479D01*
X169593451Y-102030479D02*
X169532975Y-102000241D01*
X169532975Y-102000241D02*
X169502737Y-101939764D01*
X169502737Y-101939764D02*
X169502737Y-101697860D01*
X169502737Y-101697860D02*
X169532975Y-101637383D01*
X169532975Y-101637383D02*
X169593451Y-101607145D01*
X169593451Y-101607145D02*
X169714404Y-101607145D01*
X169714404Y-101607145D02*
X169774880Y-101637383D01*
X169774880Y-101637383D02*
X169805118Y-101697860D01*
X169805118Y-101697860D02*
X169805118Y-101758336D01*
X169805118Y-101758336D02*
X169502737Y-101818812D01*
X170349404Y-102030479D02*
X170349404Y-101395479D01*
X170349404Y-102000241D02*
X170288928Y-102030479D01*
X170288928Y-102030479D02*
X170167975Y-102030479D01*
X170167975Y-102030479D02*
X170107499Y-102000241D01*
X170107499Y-102000241D02*
X170077261Y-101970002D01*
X170077261Y-101970002D02*
X170047023Y-101909526D01*
X170047023Y-101909526D02*
X170047023Y-101728098D01*
X170047023Y-101728098D02*
X170077261Y-101667621D01*
X170077261Y-101667621D02*
X170107499Y-101637383D01*
X170107499Y-101637383D02*
X170167975Y-101607145D01*
X170167975Y-101607145D02*
X170288928Y-101607145D01*
X170288928Y-101607145D02*
X170349404Y-101637383D01*
X171105357Y-102000241D02*
X171196071Y-102030479D01*
X171196071Y-102030479D02*
X171347262Y-102030479D01*
X171347262Y-102030479D02*
X171407738Y-102000241D01*
X171407738Y-102000241D02*
X171437976Y-101970002D01*
X171437976Y-101970002D02*
X171468214Y-101909526D01*
X171468214Y-101909526D02*
X171468214Y-101849050D01*
X171468214Y-101849050D02*
X171437976Y-101788574D01*
X171437976Y-101788574D02*
X171407738Y-101758336D01*
X171407738Y-101758336D02*
X171347262Y-101728098D01*
X171347262Y-101728098D02*
X171226309Y-101697860D01*
X171226309Y-101697860D02*
X171165833Y-101667621D01*
X171165833Y-101667621D02*
X171135595Y-101637383D01*
X171135595Y-101637383D02*
X171105357Y-101576907D01*
X171105357Y-101576907D02*
X171105357Y-101516431D01*
X171105357Y-101516431D02*
X171135595Y-101455955D01*
X171135595Y-101455955D02*
X171165833Y-101425717D01*
X171165833Y-101425717D02*
X171226309Y-101395479D01*
X171226309Y-101395479D02*
X171377500Y-101395479D01*
X171377500Y-101395479D02*
X171468214Y-101425717D01*
X171649643Y-101607145D02*
X171891547Y-101607145D01*
X171740357Y-101395479D02*
X171740357Y-101939764D01*
X171740357Y-101939764D02*
X171770595Y-102000241D01*
X171770595Y-102000241D02*
X171831071Y-102030479D01*
X171831071Y-102030479D02*
X171891547Y-102030479D01*
X172375357Y-101607145D02*
X172375357Y-102030479D01*
X172103214Y-101607145D02*
X172103214Y-101939764D01*
X172103214Y-101939764D02*
X172133452Y-102000241D01*
X172133452Y-102000241D02*
X172193928Y-102030479D01*
X172193928Y-102030479D02*
X172284643Y-102030479D01*
X172284643Y-102030479D02*
X172345119Y-102000241D01*
X172345119Y-102000241D02*
X172375357Y-101970002D01*
X172949881Y-102030479D02*
X172949881Y-101395479D01*
X172949881Y-102000241D02*
X172889405Y-102030479D01*
X172889405Y-102030479D02*
X172768452Y-102030479D01*
X172768452Y-102030479D02*
X172707976Y-102000241D01*
X172707976Y-102000241D02*
X172677738Y-101970002D01*
X172677738Y-101970002D02*
X172647500Y-101909526D01*
X172647500Y-101909526D02*
X172647500Y-101728098D01*
X172647500Y-101728098D02*
X172677738Y-101667621D01*
X172677738Y-101667621D02*
X172707976Y-101637383D01*
X172707976Y-101637383D02*
X172768452Y-101607145D01*
X172768452Y-101607145D02*
X172889405Y-101607145D01*
X172889405Y-101607145D02*
X172949881Y-101637383D01*
X173252262Y-102030479D02*
X173252262Y-101607145D01*
X173252262Y-101395479D02*
X173222024Y-101425717D01*
X173222024Y-101425717D02*
X173252262Y-101455955D01*
X173252262Y-101455955D02*
X173282500Y-101425717D01*
X173282500Y-101425717D02*
X173252262Y-101395479D01*
X173252262Y-101395479D02*
X173252262Y-101455955D01*
X173645357Y-102030479D02*
X173584881Y-102000241D01*
X173584881Y-102000241D02*
X173554643Y-101970002D01*
X173554643Y-101970002D02*
X173524405Y-101909526D01*
X173524405Y-101909526D02*
X173524405Y-101728098D01*
X173524405Y-101728098D02*
X173554643Y-101667621D01*
X173554643Y-101667621D02*
X173584881Y-101637383D01*
X173584881Y-101637383D02*
X173645357Y-101607145D01*
X173645357Y-101607145D02*
X173736072Y-101607145D01*
X173736072Y-101607145D02*
X173796548Y-101637383D01*
X173796548Y-101637383D02*
X173826786Y-101667621D01*
X173826786Y-101667621D02*
X173857024Y-101728098D01*
X173857024Y-101728098D02*
X173857024Y-101909526D01*
X173857024Y-101909526D02*
X173826786Y-101970002D01*
X173826786Y-101970002D02*
X173796548Y-102000241D01*
X173796548Y-102000241D02*
X173736072Y-102030479D01*
X173736072Y-102030479D02*
X173645357Y-102030479D01*
X174552501Y-101395479D02*
X174975834Y-102030479D01*
X174975834Y-101395479D02*
X174552501Y-102030479D01*
X175217739Y-102030479D02*
X175217739Y-101607145D01*
X175217739Y-101395479D02*
X175187501Y-101425717D01*
X175187501Y-101425717D02*
X175217739Y-101455955D01*
X175217739Y-101455955D02*
X175247977Y-101425717D01*
X175247977Y-101425717D02*
X175217739Y-101395479D01*
X175217739Y-101395479D02*
X175217739Y-101455955D01*
X175792263Y-102030479D02*
X175792263Y-101697860D01*
X175792263Y-101697860D02*
X175762025Y-101637383D01*
X175762025Y-101637383D02*
X175701549Y-101607145D01*
X175701549Y-101607145D02*
X175580596Y-101607145D01*
X175580596Y-101607145D02*
X175520120Y-101637383D01*
X175792263Y-102000241D02*
X175731787Y-102030479D01*
X175731787Y-102030479D02*
X175580596Y-102030479D01*
X175580596Y-102030479D02*
X175520120Y-102000241D01*
X175520120Y-102000241D02*
X175489882Y-101939764D01*
X175489882Y-101939764D02*
X175489882Y-101879288D01*
X175489882Y-101879288D02*
X175520120Y-101818812D01*
X175520120Y-101818812D02*
X175580596Y-101788574D01*
X175580596Y-101788574D02*
X175731787Y-101788574D01*
X175731787Y-101788574D02*
X175792263Y-101758336D01*
X176185358Y-102030479D02*
X176124882Y-102000241D01*
X176124882Y-102000241D02*
X176094644Y-101970002D01*
X176094644Y-101970002D02*
X176064406Y-101909526D01*
X176064406Y-101909526D02*
X176064406Y-101728098D01*
X176064406Y-101728098D02*
X176094644Y-101667621D01*
X176094644Y-101667621D02*
X176124882Y-101637383D01*
X176124882Y-101637383D02*
X176185358Y-101607145D01*
X176185358Y-101607145D02*
X176276073Y-101607145D01*
X176276073Y-101607145D02*
X176336549Y-101637383D01*
X176336549Y-101637383D02*
X176366787Y-101667621D01*
X176366787Y-101667621D02*
X176397025Y-101728098D01*
X176397025Y-101728098D02*
X176397025Y-101909526D01*
X176397025Y-101909526D02*
X176366787Y-101970002D01*
X176366787Y-101970002D02*
X176336549Y-102000241D01*
X176336549Y-102000241D02*
X176276073Y-102030479D01*
X176276073Y-102030479D02*
X176185358Y-102030479D01*
X177152978Y-101697860D02*
X177364645Y-101697860D01*
X177455359Y-102030479D02*
X177152978Y-102030479D01*
X177152978Y-102030479D02*
X177152978Y-101395479D01*
X177152978Y-101395479D02*
X177455359Y-101395479D01*
X177697264Y-102000241D02*
X177787978Y-102030479D01*
X177787978Y-102030479D02*
X177939169Y-102030479D01*
X177939169Y-102030479D02*
X177999645Y-102000241D01*
X177999645Y-102000241D02*
X178029883Y-101970002D01*
X178029883Y-101970002D02*
X178060121Y-101909526D01*
X178060121Y-101909526D02*
X178060121Y-101849050D01*
X178060121Y-101849050D02*
X178029883Y-101788574D01*
X178029883Y-101788574D02*
X177999645Y-101758336D01*
X177999645Y-101758336D02*
X177939169Y-101728098D01*
X177939169Y-101728098D02*
X177818216Y-101697860D01*
X177818216Y-101697860D02*
X177757740Y-101667621D01*
X177757740Y-101667621D02*
X177727502Y-101637383D01*
X177727502Y-101637383D02*
X177697264Y-101576907D01*
X177697264Y-101576907D02*
X177697264Y-101516431D01*
X177697264Y-101516431D02*
X177727502Y-101455955D01*
X177727502Y-101455955D02*
X177757740Y-101425717D01*
X177757740Y-101425717D02*
X177818216Y-101395479D01*
X177818216Y-101395479D02*
X177969407Y-101395479D01*
X177969407Y-101395479D02*
X178060121Y-101425717D01*
X178332264Y-102030479D02*
X178332264Y-101395479D01*
X178332264Y-101395479D02*
X178574169Y-101395479D01*
X178574169Y-101395479D02*
X178634645Y-101425717D01*
X178634645Y-101425717D02*
X178664883Y-101455955D01*
X178664883Y-101455955D02*
X178695121Y-101516431D01*
X178695121Y-101516431D02*
X178695121Y-101607145D01*
X178695121Y-101607145D02*
X178664883Y-101667621D01*
X178664883Y-101667621D02*
X178634645Y-101697860D01*
X178634645Y-101697860D02*
X178574169Y-101728098D01*
X178574169Y-101728098D02*
X178332264Y-101728098D01*
X178906788Y-101395479D02*
X179299883Y-101395479D01*
X179299883Y-101395479D02*
X179088216Y-101637383D01*
X179088216Y-101637383D02*
X179178931Y-101637383D01*
X179178931Y-101637383D02*
X179239407Y-101667621D01*
X179239407Y-101667621D02*
X179269645Y-101697860D01*
X179269645Y-101697860D02*
X179299883Y-101758336D01*
X179299883Y-101758336D02*
X179299883Y-101909526D01*
X179299883Y-101909526D02*
X179269645Y-101970002D01*
X179269645Y-101970002D02*
X179239407Y-102000241D01*
X179239407Y-102000241D02*
X179178931Y-102030479D01*
X179178931Y-102030479D02*
X178997502Y-102030479D01*
X178997502Y-102030479D02*
X178937026Y-102000241D01*
X178937026Y-102000241D02*
X178906788Y-101970002D01*
X179541788Y-101455955D02*
X179572026Y-101425717D01*
X179572026Y-101425717D02*
X179632502Y-101395479D01*
X179632502Y-101395479D02*
X179783693Y-101395479D01*
X179783693Y-101395479D02*
X179844169Y-101425717D01*
X179844169Y-101425717D02*
X179874407Y-101455955D01*
X179874407Y-101455955D02*
X179904645Y-101516431D01*
X179904645Y-101516431D02*
X179904645Y-101576907D01*
X179904645Y-101576907D02*
X179874407Y-101667621D01*
X179874407Y-101667621D02*
X179511550Y-102030479D01*
X179511550Y-102030479D02*
X179904645Y-102030479D01*
X180176788Y-101788574D02*
X180660598Y-101788574D01*
X181325835Y-101970002D02*
X181295597Y-102000241D01*
X181295597Y-102000241D02*
X181204883Y-102030479D01*
X181204883Y-102030479D02*
X181144407Y-102030479D01*
X181144407Y-102030479D02*
X181053692Y-102000241D01*
X181053692Y-102000241D02*
X180993216Y-101939764D01*
X180993216Y-101939764D02*
X180962978Y-101879288D01*
X180962978Y-101879288D02*
X180932740Y-101758336D01*
X180932740Y-101758336D02*
X180932740Y-101667621D01*
X180932740Y-101667621D02*
X180962978Y-101546669D01*
X180962978Y-101546669D02*
X180993216Y-101486193D01*
X180993216Y-101486193D02*
X181053692Y-101425717D01*
X181053692Y-101425717D02*
X181144407Y-101395479D01*
X181144407Y-101395479D02*
X181204883Y-101395479D01*
X181204883Y-101395479D02*
X181295597Y-101425717D01*
X181295597Y-101425717D02*
X181325835Y-101455955D01*
X181537502Y-101395479D02*
X181930597Y-101395479D01*
X181930597Y-101395479D02*
X181718930Y-101637383D01*
X181718930Y-101637383D02*
X181809645Y-101637383D01*
X181809645Y-101637383D02*
X181870121Y-101667621D01*
X181870121Y-101667621D02*
X181900359Y-101697860D01*
X181900359Y-101697860D02*
X181930597Y-101758336D01*
X181930597Y-101758336D02*
X181930597Y-101909526D01*
X181930597Y-101909526D02*
X181900359Y-101970002D01*
X181900359Y-101970002D02*
X181870121Y-102000241D01*
X181870121Y-102000241D02*
X181809645Y-102030479D01*
X181809645Y-102030479D02*
X181628216Y-102030479D01*
X181628216Y-102030479D02*
X181567740Y-102000241D01*
X181567740Y-102000241D02*
X181537502Y-101970002D01*
D13*
X96440666Y-94864819D02*
X96440666Y-95579104D01*
X96440666Y-95579104D02*
X96393047Y-95721961D01*
X96393047Y-95721961D02*
X96297809Y-95817200D01*
X96297809Y-95817200D02*
X96154952Y-95864819D01*
X96154952Y-95864819D02*
X96059714Y-95864819D01*
X97440666Y-95864819D02*
X96869238Y-95864819D01*
X97154952Y-95864819D02*
X97154952Y-94864819D01*
X97154952Y-94864819D02*
X97059714Y-95007676D01*
X97059714Y-95007676D02*
X96964476Y-95102914D01*
X96964476Y-95102914D02*
X96869238Y-95150533D01*
D14*
X185372000Y-92622000D02*
G75*
G02*
X184868000Y-92622000I-252000J0D01*
G01*
X184868000Y-92622000D02*
G75*
G02*
X185372000Y-92622000I252000J0D01*
G01*
X184492000Y-93765000D02*
G75*
G02*
X183988000Y-93765000I-252000J0D01*
G01*
X183988000Y-93765000D02*
G75*
G02*
X184492000Y-93765000I252000J0D01*
G01*
D15*
X186921000Y-105626000D02*
G75*
G02*
X186421000Y-106126000I-500000J0D01*
G01*
X186421272Y-97130728D02*
G75*
G02*
X186920999Y-97630728I-291J-500018D01*
G01*
X185411000Y-108607000D02*
G75*
G02*
X183506000Y-110512000I-1905000J0D01*
G01*
X183506000Y-92732000D02*
G75*
G02*
X185411000Y-94637000I-1J-1905001D01*
G01*
X166361000Y-110512000D02*
G75*
G02*
X164456000Y-108607000I0J1905000D01*
G01*
X164456000Y-94637000D02*
G75*
G02*
X166361000Y-92732000I1905001J-1D01*
G01*
X186921000Y-97630728D02*
X186921000Y-105626000D01*
X186421000Y-106126000D02*
X185411000Y-106126000D01*
X185411000Y-108607000D02*
X185411000Y-94637000D01*
D16*
X185411000Y-108607000D02*
X185411000Y-94637000D01*
D15*
X185411000Y-97127000D02*
X186421272Y-97130728D01*
X166361000Y-110512000D02*
X183506000Y-110512000D01*
X166361000Y-92732000D02*
X183506000Y-92732000D01*
X164456000Y-94637000D02*
X164456000Y-108607000D01*
D17*
X94124000Y-96410000D02*
X95504000Y-96410000D01*
X94124000Y-97790000D02*
X94124000Y-96410000D01*
X94124000Y-99060000D02*
X94124000Y-106790000D01*
X94124000Y-99060000D02*
X96774000Y-99060000D01*
X94124000Y-106790000D02*
X99424000Y-106790000D01*
X96774000Y-96410000D02*
X99424000Y-96410000D01*
X96774000Y-99060000D02*
X96774000Y-96410000D01*
X99424000Y-96410000D02*
X99424000Y-106790000D01*
%LPC*%
D18*
X182490000Y-110077000D03*
D19*
X182490000Y-109242000D03*
D18*
X179950000Y-110077000D03*
D19*
X179950000Y-109242000D03*
D18*
X177410000Y-110077000D03*
D19*
X177410000Y-109242000D03*
D18*
X174870000Y-110077000D03*
D19*
X174870000Y-109242000D03*
D18*
X172330000Y-110077000D03*
D19*
X172330000Y-109242000D03*
D18*
X169790000Y-110077000D03*
D19*
X169790000Y-109242000D03*
D18*
X167250000Y-110077000D03*
D19*
X167250000Y-109242000D03*
X167250000Y-94002000D03*
D20*
X167250000Y-93167000D03*
D19*
X169790000Y-94002000D03*
D20*
X169790000Y-93167000D03*
D19*
X172330000Y-94002000D03*
D20*
X172330000Y-93167000D03*
D19*
X174870000Y-94002000D03*
D20*
X174870000Y-93167000D03*
D19*
X177410000Y-94002000D03*
D20*
X177410000Y-93167000D03*
D19*
X179950000Y-94002000D03*
D20*
X179950000Y-93167000D03*
D19*
X182490000Y-94002000D03*
D20*
X182490000Y-93167000D03*
D21*
X95504000Y-97790000D03*
D22*
X98044000Y-97790000D03*
X95504000Y-100330000D03*
X98044000Y-100330000D03*
X95504000Y-102870000D03*
X98044000Y-102870000D03*
X95504000Y-105410000D03*
X98044000Y-105410000D03*
%LPD*%
M02*
