G04 #@! TF.GenerationSoftware,KiCad,Pcbnew,9.0.7*
G04 #@! TF.CreationDate,2026-02-21T01:38:48-08:00*
G04 #@! TF.ProjectId,memori-hw,6d656d6f-7269-42d6-9877-2e6b69636164,vFEB 2026*
G04 #@! TF.SameCoordinates,Original*
G04 #@! TF.FileFunction,Legend,Bot*
G04 #@! TF.FilePolarity,Positive*
%FSLAX46Y46*%
G04 Gerber Fmt 4.6, Leading zero omitted, Abs format (unit mm)*
G04 Created by KiCad (PCBNEW 9.0.7) date 2026-02-21 01:38:48*
%MOMM*%
%LPD*%
G01*
G04 APERTURE LIST*
G04 Aperture macros list*
%AMRoundRect*
0 Rectangle with rounded corners*
0 $1 Rounding radius*
0 $2 $3 $4 $5 $6 $7 $8 $9 X,Y pos of 4 corners*
0 Add a 4 corners polygon primitive as box body*
4,1,4,$2,$3,$4,$5,$6,$7,$8,$9,$2,$3,0*
0 Add four circle primitives for the rounded corners*
1,1,$1+$1,$2,$3*
1,1,$1+$1,$4,$5*
1,1,$1+$1,$6,$7*
1,1,$1+$1,$8,$9*
0 Add four rect primitives between the rounded corners*
20,1,$1+$1,$2,$3,$4,$5,0*
20,1,$1+$1,$4,$5,$6,$7,0*
20,1,$1+$1,$6,$7,$8,$9,0*
20,1,$1+$1,$8,$9,$2,$3,0*%
%AMOutline5P*
0 Free polygon, 5 corners , with rotation*
0 The origin of the aperture is its center*
0 number of corners: always 5*
0 $1 to $10 corner X, Y*
0 $11 Rotation angle, in degrees counterclockwise*
0 create outline with 5 corners*
4,1,5,$1,$2,$3,$4,$5,$6,$7,$8,$9,$10,$1,$2,$11*%
%AMOutline6P*
0 Free polygon, 6 corners , with rotation*
0 The origin of the aperture is its center*
0 number of corners: always 6*
0 $1 to $12 corner X, Y*
0 $13 Rotation angle, in degrees counterclockwise*
0 create outline with 6 corners*
4,1,6,$1,$2,$3,$4,$5,$6,$7,$8,$9,$10,$11,$12,$1,$2,$13*%
%AMOutline7P*
0 Free polygon, 7 corners , with rotation*
0 The origin of the aperture is its center*
0 number of corners: always 7*
0 $1 to $14 corner X, Y*
0 $15 Rotation angle, in degrees counterclockwise*
0 create outline with 7 corners*
4,1,7,$1,$2,$3,$4,$5,$6,$7,$8,$9,$10,$11,$12,$13,$14,$1,$2,$15*%
%AMOutline8P*
0 Free polygon, 8 corners , with rotation*
0 The origin of the aperture is its center*
0 number of corners: always 8*
0 $1 to $16 corner X, Y*
0 $17 Rotation angle, in degrees counterclockwise*
0 create outline with 8 corners*
4,1,8,$1,$2,$3,$4,$5,$6,$7,$8,$9,$10,$11,$12,$13,$14,$15,$16,$1,$2,$17*%
G04 Aperture macros list end*
%ADD10C,0.304800*%
%ADD11C,1.400000*%
%ADD12RoundRect,0.250000X0.625000X-0.350000X0.625000X0.350000X-0.625000X0.350000X-0.625000X-0.350000X0*%
%ADD13O,1.750000X1.200000*%
%ADD14Outline5P,-0.850000X0.510000X-0.510000X0.850000X0.850000X0.850000X0.850000X-0.850000X-0.850000X-0.850000X0.000000*%
%ADD15C,1.700000*%
G04 APERTURE END LIST*
D10*
G36*
X149983003Y-112770920D02*
G01*
X149731192Y-112770920D01*
X149731192Y-111550576D01*
X149351428Y-111550576D01*
X149351428Y-111320168D01*
X150360626Y-111320168D01*
X150360626Y-111550576D01*
X149983003Y-111550576D01*
X149983003Y-112770920D01*
G37*
G36*
X149030476Y-112770920D02*
G01*
X148778665Y-112770920D01*
X148778665Y-112192759D01*
X148775269Y-112076032D01*
X148763406Y-111987993D01*
X148751042Y-111947079D01*
X148734093Y-111914550D01*
X148715987Y-111893193D01*
X148693956Y-111876665D01*
X148636577Y-111856155D01*
X148548257Y-111849288D01*
X148483896Y-111852684D01*
X148435683Y-111864545D01*
X148413012Y-111877235D01*
X148395242Y-111894730D01*
X148373434Y-111942507D01*
X148363218Y-112027251D01*
X148362609Y-112064714D01*
X148362609Y-112770920D01*
X148110891Y-112770920D01*
X148110891Y-112064714D01*
X148114179Y-111943850D01*
X148125280Y-111846261D01*
X148138026Y-111792737D01*
X148155680Y-111747983D01*
X148174628Y-111716784D01*
X148197732Y-111690849D01*
X148254166Y-111654687D01*
X148334779Y-111632341D01*
X148460209Y-111623163D01*
X148477906Y-111623067D01*
X148564175Y-111626465D01*
X148629920Y-111638336D01*
X148662710Y-111651245D01*
X148690281Y-111669110D01*
X148731382Y-111717496D01*
X148768057Y-111795966D01*
X148778665Y-111795966D01*
X148778665Y-111204964D01*
X149030476Y-111204964D01*
X149030476Y-112770920D01*
G37*
G36*
X147406362Y-111626294D02*
G01*
X147495380Y-111636966D01*
X147550275Y-111650116D01*
X147597913Y-111668469D01*
X147633255Y-111688724D01*
X147663897Y-111713547D01*
X147710166Y-111774512D01*
X147743512Y-111859428D01*
X147765558Y-111983775D01*
X147774854Y-112177495D01*
X147774957Y-112205601D01*
X147771715Y-112343558D01*
X147760933Y-112459086D01*
X147747932Y-112528072D01*
X147729832Y-112587423D01*
X147710341Y-112630187D01*
X147686555Y-112667004D01*
X147660645Y-112695897D01*
X147630583Y-112720375D01*
X147556619Y-112757366D01*
X147453486Y-112781427D01*
X147300073Y-112792055D01*
X147265008Y-112792323D01*
X147154292Y-112789029D01*
X147064635Y-112777889D01*
X147014821Y-112765008D01*
X146972629Y-112747129D01*
X146941995Y-112727429D01*
X146915879Y-112703285D01*
X146875960Y-112641758D01*
X146845475Y-112549359D01*
X146829782Y-112465880D01*
X147066611Y-112465880D01*
X147084739Y-112508257D01*
X147107952Y-112538136D01*
X147152569Y-112561708D01*
X147228968Y-112571811D01*
X147269288Y-112572523D01*
X147349160Y-112569177D01*
X147411467Y-112557666D01*
X147443322Y-112544901D01*
X147469394Y-112527244D01*
X147503286Y-112481964D01*
X147525134Y-112410581D01*
X147535988Y-112312244D01*
X146814893Y-112312244D01*
X146814421Y-112148569D01*
X146816014Y-112120268D01*
X147049582Y-112120268D01*
X147533848Y-112120268D01*
X147527041Y-112025375D01*
X147512901Y-111953191D01*
X147499167Y-111918070D01*
X147481020Y-111890171D01*
X147461389Y-111871377D01*
X147437677Y-111856978D01*
X147373467Y-111839112D01*
X147290598Y-111834306D01*
X147220975Y-111837641D01*
X147165998Y-111849078D01*
X147137051Y-111862019D01*
X147113181Y-111879979D01*
X147081252Y-111927349D01*
X147060248Y-112004310D01*
X147049582Y-112120268D01*
X146816014Y-112120268D01*
X146822118Y-112011835D01*
X146833219Y-111930847D01*
X146849633Y-111861264D01*
X146867655Y-111811673D01*
X146890003Y-111768971D01*
X146914074Y-111736063D01*
X146942121Y-111708072D01*
X147009324Y-111666336D01*
X147100100Y-111638666D01*
X147230443Y-111624481D01*
X147301300Y-111623067D01*
X147406362Y-111626294D01*
G37*
G36*
X145197850Y-112770920D02*
G01*
X144252675Y-112770920D01*
X144252675Y-112555494D01*
X144594006Y-112555494D01*
X144594006Y-111217713D01*
X145176447Y-111217713D01*
X145176447Y-111433232D01*
X144830835Y-111433232D01*
X144830835Y-112555494D01*
X145197850Y-112555494D01*
X145197850Y-112770920D01*
G37*
G36*
X143575009Y-111626294D02*
G01*
X143672389Y-111636966D01*
X143732396Y-111650099D01*
X143784492Y-111668422D01*
X143822935Y-111688501D01*
X143856314Y-111713078D01*
X143906298Y-111772468D01*
X143942243Y-111853376D01*
X143966485Y-111969097D01*
X143978056Y-112144590D01*
X143978623Y-112205601D01*
X143975388Y-112342107D01*
X143964653Y-112456675D01*
X143951642Y-112525611D01*
X143933526Y-112584999D01*
X143913985Y-112627915D01*
X143890137Y-112664913D01*
X143864143Y-112694012D01*
X143833983Y-112718707D01*
X143759810Y-112756150D01*
X143656554Y-112780704D01*
X143503414Y-112791920D01*
X143460112Y-112792323D01*
X143346847Y-112789106D01*
X143250658Y-112778499D01*
X143190851Y-112765366D01*
X143138882Y-112747043D01*
X143100427Y-112726927D01*
X143067013Y-112702308D01*
X143016872Y-112642776D01*
X142980735Y-112561693D01*
X142956283Y-112445836D01*
X142944473Y-112270472D01*
X142943835Y-112205601D01*
X143191272Y-112205601D01*
X143194599Y-112317660D01*
X143205973Y-112404658D01*
X143218438Y-112448496D01*
X143235601Y-112483999D01*
X143254021Y-112507899D01*
X143276456Y-112526906D01*
X143333752Y-112551778D01*
X143422774Y-112563344D01*
X143460112Y-112564055D01*
X143535214Y-112560756D01*
X143595666Y-112549574D01*
X143628834Y-112536639D01*
X143656451Y-112518669D01*
X143693094Y-112472666D01*
X143716890Y-112402141D01*
X143729592Y-112285024D01*
X143731093Y-112205601D01*
X143727758Y-112094998D01*
X143716328Y-112009073D01*
X143703830Y-111965879D01*
X143686615Y-111930851D01*
X143668096Y-111907200D01*
X143645525Y-111888370D01*
X143587643Y-111863632D01*
X143497395Y-111852120D01*
X143460112Y-111851428D01*
X143385693Y-111854720D01*
X143325754Y-111865852D01*
X143292718Y-111878776D01*
X143265223Y-111896729D01*
X143228747Y-111942723D01*
X143205116Y-112013280D01*
X143192638Y-112130530D01*
X143191272Y-112205601D01*
X142943835Y-112205601D01*
X142947068Y-112069666D01*
X142957791Y-111955679D01*
X142970789Y-111887128D01*
X142988881Y-111828122D01*
X143008395Y-111785516D01*
X143032208Y-111748819D01*
X143058181Y-111719968D01*
X143088316Y-111695513D01*
X143162547Y-111658472D01*
X143266154Y-111634274D01*
X143420431Y-111623400D01*
X143460112Y-111623067D01*
X143575009Y-111626294D01*
G37*
G36*
X142646240Y-112770920D02*
G01*
X142394522Y-112770920D01*
X142394522Y-112188479D01*
X142391152Y-112077103D01*
X142379470Y-111992457D01*
X142367088Y-111952116D01*
X142350090Y-111919916D01*
X142331827Y-111898579D01*
X142309582Y-111881982D01*
X142251379Y-111861072D01*
X142155553Y-111853568D01*
X142089569Y-111856983D01*
X142040624Y-111868975D01*
X142018174Y-111881615D01*
X142000703Y-111899014D01*
X141979593Y-111946462D01*
X141970246Y-112031114D01*
X141969905Y-112058386D01*
X141969905Y-112770920D01*
X141718187Y-112770920D01*
X141718187Y-112058386D01*
X141721478Y-111939574D01*
X141732606Y-111843538D01*
X141745378Y-111790860D01*
X141763074Y-111746762D01*
X141782103Y-111715943D01*
X141805319Y-111690299D01*
X141862231Y-111654416D01*
X141943824Y-111632200D01*
X142087249Y-111623067D01*
X142181910Y-111626489D01*
X142254965Y-111638531D01*
X142291485Y-111651553D01*
X142322426Y-111669589D01*
X142367828Y-111717241D01*
X142408224Y-111795715D01*
X142415832Y-111815136D01*
X142426534Y-111815136D01*
X142426534Y-111644470D01*
X142646240Y-111644470D01*
X142646240Y-112770920D01*
G37*
G36*
X141011518Y-111626294D02*
G01*
X141100535Y-111636966D01*
X141155431Y-111650116D01*
X141203069Y-111668469D01*
X141238411Y-111688724D01*
X141269053Y-111713547D01*
X141315322Y-111774512D01*
X141348668Y-111859428D01*
X141370713Y-111983775D01*
X141380010Y-112177495D01*
X141380113Y-112205601D01*
X141376871Y-112343558D01*
X141366089Y-112459086D01*
X141353087Y-112528072D01*
X141334988Y-112587423D01*
X141315497Y-112630187D01*
X141291711Y-112667004D01*
X141265801Y-112695897D01*
X141235738Y-112720375D01*
X141161774Y-112757366D01*
X141058642Y-112781427D01*
X140905228Y-112792055D01*
X140870163Y-112792323D01*
X140759447Y-112789029D01*
X140669790Y-112777889D01*
X140619977Y-112765008D01*
X140577785Y-112747129D01*
X140547151Y-112727429D01*
X140521034Y-112703285D01*
X140481116Y-112641758D01*
X140450630Y-112549359D01*
X140434938Y-112465880D01*
X140671767Y-112465880D01*
X140689895Y-112508257D01*
X140713108Y-112538136D01*
X140757725Y-112561708D01*
X140834124Y-112571811D01*
X140874444Y-112572523D01*
X140954316Y-112569177D01*
X141016623Y-112557666D01*
X141048478Y-112544901D01*
X141074550Y-112527244D01*
X141108442Y-112481964D01*
X141130290Y-112410581D01*
X141141144Y-112312244D01*
X140420049Y-112312244D01*
X140419577Y-112148569D01*
X140421170Y-112120268D01*
X140654737Y-112120268D01*
X141139003Y-112120268D01*
X141132196Y-112025375D01*
X141118056Y-111953191D01*
X141104323Y-111918070D01*
X141086176Y-111890171D01*
X141066545Y-111871377D01*
X141042833Y-111856978D01*
X140978622Y-111839112D01*
X140895754Y-111834306D01*
X140826130Y-111837641D01*
X140771154Y-111849078D01*
X140742206Y-111862019D01*
X140718336Y-111879979D01*
X140686408Y-111927349D01*
X140665403Y-112004310D01*
X140654737Y-112120268D01*
X140421170Y-112120268D01*
X140427273Y-112011835D01*
X140438374Y-111930847D01*
X140454788Y-111861264D01*
X140472811Y-111811673D01*
X140495158Y-111768971D01*
X140519230Y-111736063D01*
X140547276Y-111708072D01*
X140614480Y-111666336D01*
X140705256Y-111638666D01*
X140835599Y-111624481D01*
X140906455Y-111623067D01*
X141011518Y-111626294D01*
G37*
G36*
X138473943Y-111626350D02*
G01*
X138567781Y-111637417D01*
X138618809Y-111650085D01*
X138661146Y-111667608D01*
X138690328Y-111686372D01*
X138714277Y-111709230D01*
X138746802Y-111765290D01*
X138765142Y-111846236D01*
X138768854Y-111973053D01*
X138529885Y-111973053D01*
X138527432Y-111916589D01*
X138516053Y-111875542D01*
X138503695Y-111857254D01*
X138486492Y-111843332D01*
X138436069Y-111826783D01*
X138350658Y-111821557D01*
X138276327Y-111824962D01*
X138221196Y-111836886D01*
X138195998Y-111849375D01*
X138176367Y-111866527D01*
X138153074Y-111911537D01*
X138142281Y-111988159D01*
X138141560Y-112024234D01*
X138141560Y-112077555D01*
X138293056Y-112077555D01*
X138431841Y-112080847D01*
X138544294Y-112091977D01*
X138606113Y-112104745D01*
X138658011Y-112122434D01*
X138694053Y-112141233D01*
X138724225Y-112164125D01*
X138766102Y-112218496D01*
X138792686Y-112293020D01*
X138805984Y-112403531D01*
X138807193Y-112461600D01*
X138803901Y-112551306D01*
X138792765Y-112623814D01*
X138779898Y-112663783D01*
X138762041Y-112697204D01*
X138742179Y-112721167D01*
X138717803Y-112740953D01*
X138653758Y-112769370D01*
X138553964Y-112786090D01*
X138438131Y-112790182D01*
X138338949Y-112786727D01*
X138265287Y-112774455D01*
X138231067Y-112761703D01*
X138202762Y-112744153D01*
X138162402Y-112697775D01*
X138132999Y-112636546D01*
X138122390Y-112636546D01*
X138122390Y-112770920D01*
X137909011Y-112770920D01*
X137909011Y-112256782D01*
X138143700Y-112256782D01*
X138148717Y-112358071D01*
X138161456Y-112436086D01*
X138174575Y-112474830D01*
X138192269Y-112505966D01*
X138211349Y-112526992D01*
X138234497Y-112543449D01*
X138295466Y-112564590D01*
X138399699Y-112572523D01*
X138468578Y-112569023D01*
X138516141Y-112556438D01*
X138534906Y-112544139D01*
X138548635Y-112527384D01*
X138563267Y-112480162D01*
X138566177Y-112427448D01*
X138562783Y-112369213D01*
X138550935Y-112325399D01*
X138538088Y-112304462D01*
X138520324Y-112288000D01*
X138470215Y-112267265D01*
X138378195Y-112257389D01*
X138335676Y-112256782D01*
X138143700Y-112256782D01*
X137909011Y-112256782D01*
X137909011Y-112019953D01*
X137912267Y-111920731D01*
X137923144Y-111838811D01*
X137936099Y-111791200D01*
X137954116Y-111750733D01*
X137973958Y-111721415D01*
X137998263Y-111696628D01*
X138059469Y-111660268D01*
X138148987Y-111636121D01*
X138289498Y-111623999D01*
X138357079Y-111623067D01*
X138473943Y-111626350D01*
G37*
G36*
X137530364Y-112770920D02*
G01*
X137278647Y-112770920D01*
X137278647Y-112188479D01*
X137275276Y-112077103D01*
X137263594Y-111992457D01*
X137251213Y-111952116D01*
X137234215Y-111919916D01*
X137215951Y-111898579D01*
X137193706Y-111881982D01*
X137135503Y-111861072D01*
X137039677Y-111853568D01*
X136973693Y-111856983D01*
X136924748Y-111868975D01*
X136902299Y-111881615D01*
X136884828Y-111899014D01*
X136863718Y-111946462D01*
X136854370Y-112031114D01*
X136854030Y-112058386D01*
X136854030Y-112770920D01*
X136602312Y-112770920D01*
X136602312Y-112058386D01*
X136605603Y-111939574D01*
X136616730Y-111843538D01*
X136629502Y-111790860D01*
X136647198Y-111746762D01*
X136666228Y-111715943D01*
X136689443Y-111690299D01*
X136746355Y-111654416D01*
X136827948Y-111632200D01*
X136971374Y-111623067D01*
X137066034Y-111626489D01*
X137139089Y-111638531D01*
X137175609Y-111651553D01*
X137206551Y-111669589D01*
X137251952Y-111717241D01*
X137292348Y-111795715D01*
X137299957Y-111815136D01*
X137310658Y-111815136D01*
X137310658Y-111644470D01*
X137530364Y-111644470D01*
X137530364Y-112770920D01*
G37*
G36*
X135570780Y-111757534D02*
G01*
X135581482Y-111757534D01*
X135603408Y-111709951D01*
X135629458Y-111674655D01*
X135651371Y-111656658D01*
X135677713Y-111643140D01*
X135749838Y-111627153D01*
X135848182Y-111623067D01*
X135945733Y-111626296D01*
X136028370Y-111636982D01*
X136079320Y-111650156D01*
X136123527Y-111668549D01*
X136156496Y-111688988D01*
X136185051Y-111714068D01*
X136228506Y-111776593D01*
X136259868Y-111865391D01*
X136280202Y-111998067D01*
X136287688Y-112207741D01*
X136284429Y-112353668D01*
X136273532Y-112474213D01*
X136260649Y-112543865D01*
X136242754Y-112603166D01*
X136223660Y-112645114D01*
X136200396Y-112680829D01*
X136175186Y-112708401D01*
X136145973Y-112731424D01*
X136074002Y-112765284D01*
X135972658Y-112785834D01*
X135837480Y-112792323D01*
X135743745Y-112788888D01*
X135675306Y-112776755D01*
X135643898Y-112764153D01*
X135618170Y-112746838D01*
X135581028Y-112700075D01*
X135560172Y-112655716D01*
X135549470Y-112655716D01*
X135549470Y-112770920D01*
X135321203Y-112770920D01*
X135321976Y-112205601D01*
X135555891Y-112205601D01*
X135559269Y-112325611D01*
X135571004Y-112416768D01*
X135583378Y-112459967D01*
X135600357Y-112494481D01*
X135618420Y-112517202D01*
X135640387Y-112534949D01*
X135696717Y-112557303D01*
X135797001Y-112566102D01*
X135864223Y-112562798D01*
X135918402Y-112551580D01*
X135948247Y-112538540D01*
X135973109Y-112520396D01*
X136006623Y-112472776D01*
X136028491Y-112397179D01*
X136039481Y-112267253D01*
X136040250Y-112205601D01*
X136036915Y-112088950D01*
X136025477Y-111999606D01*
X136013136Y-111955839D01*
X135996185Y-111920793D01*
X135978130Y-111897636D01*
X135956181Y-111879497D01*
X135900161Y-111856550D01*
X135812215Y-111847281D01*
X135797001Y-111847147D01*
X135729914Y-111850446D01*
X135676001Y-111861628D01*
X135646359Y-111874625D01*
X135621735Y-111892700D01*
X135588659Y-111940160D01*
X135567199Y-112015739D01*
X135556572Y-112146525D01*
X135555891Y-112205601D01*
X135321976Y-112205601D01*
X135323343Y-111204964D01*
X135572920Y-111204964D01*
X135570780Y-111757534D01*
G37*
G36*
X133687130Y-112770920D02*
G01*
X132741955Y-112770920D01*
X132741955Y-112555494D01*
X133083286Y-112555494D01*
X133083286Y-111217713D01*
X133665727Y-111217713D01*
X133665727Y-111433232D01*
X133320115Y-111433232D01*
X133320115Y-112555494D01*
X133687130Y-112555494D01*
X133687130Y-112770920D01*
G37*
G36*
X132058736Y-111626294D02*
G01*
X132147753Y-111636966D01*
X132202649Y-111650116D01*
X132250287Y-111668469D01*
X132285629Y-111688724D01*
X132316271Y-111713547D01*
X132362540Y-111774512D01*
X132395886Y-111859428D01*
X132417931Y-111983775D01*
X132427228Y-112177495D01*
X132427331Y-112205601D01*
X132424089Y-112343558D01*
X132413307Y-112459086D01*
X132400305Y-112528072D01*
X132382206Y-112587423D01*
X132362715Y-112630187D01*
X132338929Y-112667004D01*
X132313018Y-112695897D01*
X132282956Y-112720375D01*
X132208992Y-112757366D01*
X132105859Y-112781427D01*
X131952446Y-112792055D01*
X131917381Y-112792323D01*
X131806665Y-112789029D01*
X131717008Y-112777889D01*
X131667195Y-112765008D01*
X131625003Y-112747129D01*
X131594368Y-112727429D01*
X131568252Y-112703285D01*
X131528334Y-112641758D01*
X131497848Y-112549359D01*
X131482156Y-112465880D01*
X131718984Y-112465880D01*
X131737112Y-112508257D01*
X131760326Y-112538136D01*
X131804943Y-112561708D01*
X131881341Y-112571811D01*
X131921662Y-112572523D01*
X132001534Y-112569177D01*
X132063841Y-112557666D01*
X132095695Y-112544901D01*
X132121768Y-112527244D01*
X132155660Y-112481964D01*
X132177508Y-112410581D01*
X132188362Y-112312244D01*
X131467267Y-112312244D01*
X131466794Y-112148569D01*
X131468387Y-112120268D01*
X131701955Y-112120268D01*
X132186221Y-112120268D01*
X132179414Y-112025375D01*
X132165274Y-111953191D01*
X132151541Y-111918070D01*
X132133393Y-111890171D01*
X132113763Y-111871377D01*
X132090050Y-111856978D01*
X132025840Y-111839112D01*
X131942972Y-111834306D01*
X131873348Y-111837641D01*
X131818372Y-111849078D01*
X131789424Y-111862019D01*
X131765554Y-111879979D01*
X131733626Y-111927349D01*
X131712621Y-112004310D01*
X131701955Y-112120268D01*
X131468387Y-112120268D01*
X131474491Y-112011835D01*
X131485592Y-111930847D01*
X131502006Y-111861264D01*
X131520028Y-111811673D01*
X131542376Y-111768971D01*
X131566447Y-111736063D01*
X131594494Y-111708072D01*
X131661698Y-111666336D01*
X131752474Y-111638666D01*
X131882816Y-111624481D01*
X131953673Y-111623067D01*
X132058736Y-111626294D01*
G37*
G36*
X130819779Y-112770920D02*
G01*
X130523208Y-112770920D01*
X130141304Y-111644470D01*
X130410144Y-111644470D01*
X130666143Y-112532043D01*
X130676844Y-112532043D01*
X130932843Y-111644470D01*
X131201683Y-111644470D01*
X130819779Y-112770920D01*
G37*
G36*
X129500798Y-111626294D02*
G01*
X129589815Y-111636966D01*
X129644711Y-111650116D01*
X129692349Y-111668469D01*
X129727691Y-111688724D01*
X129758333Y-111713547D01*
X129804602Y-111774512D01*
X129837948Y-111859428D01*
X129859993Y-111983775D01*
X129869290Y-112177495D01*
X129869393Y-112205601D01*
X129866151Y-112343558D01*
X129855369Y-112459086D01*
X129842367Y-112528072D01*
X129824268Y-112587423D01*
X129804777Y-112630187D01*
X129780991Y-112667004D01*
X129755081Y-112695897D01*
X129725019Y-112720375D01*
X129651054Y-112757366D01*
X129547922Y-112781427D01*
X129394508Y-112792055D01*
X129359443Y-112792323D01*
X129248727Y-112789029D01*
X129159070Y-112777889D01*
X129109257Y-112765008D01*
X129067065Y-112747129D01*
X129036431Y-112727429D01*
X129010314Y-112703285D01*
X128970396Y-112641758D01*
X128939910Y-112549359D01*
X128924218Y-112465880D01*
X129161047Y-112465880D01*
X129179175Y-112508257D01*
X129202388Y-112538136D01*
X129247005Y-112561708D01*
X129323404Y-112571811D01*
X129363724Y-112572523D01*
X129443596Y-112569177D01*
X129505903Y-112557666D01*
X129537758Y-112544901D01*
X129563830Y-112527244D01*
X129597722Y-112481964D01*
X129619570Y-112410581D01*
X129630424Y-112312244D01*
X128909329Y-112312244D01*
X128908857Y-112148569D01*
X128910450Y-112120268D01*
X129144017Y-112120268D01*
X129628284Y-112120268D01*
X129621477Y-112025375D01*
X129607336Y-111953191D01*
X129593603Y-111918070D01*
X129575456Y-111890171D01*
X129555825Y-111871377D01*
X129532113Y-111856978D01*
X129467902Y-111839112D01*
X129385034Y-111834306D01*
X129315410Y-111837641D01*
X129260434Y-111849078D01*
X129231487Y-111862019D01*
X129207616Y-111879979D01*
X129175688Y-111927349D01*
X129154684Y-112004310D01*
X129144017Y-112120268D01*
X128910450Y-112120268D01*
X128916553Y-112011835D01*
X128927654Y-111930847D01*
X128944068Y-111861264D01*
X128962091Y-111811673D01*
X128984438Y-111768971D01*
X129008510Y-111736063D01*
X129036556Y-111708072D01*
X129103760Y-111666336D01*
X129194536Y-111638666D01*
X129324879Y-111624481D01*
X129395735Y-111623067D01*
X129500798Y-111626294D01*
G37*
G36*
X128571254Y-112770920D02*
G01*
X127626079Y-112770920D01*
X127626079Y-112555494D01*
X127967411Y-112555494D01*
X127967411Y-111217713D01*
X128549851Y-111217713D01*
X128549851Y-111433232D01*
X128204240Y-111433232D01*
X128204240Y-112555494D01*
X128571254Y-112555494D01*
X128571254Y-112770920D01*
G37*
G36*
X126023925Y-112450898D02*
G01*
X126023871Y-112534837D01*
X126015581Y-112604440D01*
X126004098Y-112644962D01*
X125987278Y-112679569D01*
X125967930Y-112705109D01*
X125943777Y-112726770D01*
X125879775Y-112759449D01*
X125781054Y-112781435D01*
X125618710Y-112791884D01*
X125565250Y-112792323D01*
X125427546Y-112789025D01*
X125317808Y-112777852D01*
X125259354Y-112765247D01*
X125210980Y-112747833D01*
X125178040Y-112729433D01*
X125150949Y-112707067D01*
X125114419Y-112653620D01*
X125092872Y-112578752D01*
X125085171Y-112463740D01*
X125088438Y-112385243D01*
X125099395Y-112319592D01*
X125112695Y-112280194D01*
X125131298Y-112245934D01*
X125152864Y-112219284D01*
X125179568Y-112195941D01*
X125252136Y-112156889D01*
X125367496Y-112123484D01*
X125526817Y-112096725D01*
X125644108Y-112076574D01*
X125717146Y-112052092D01*
X125739416Y-112036922D01*
X125754523Y-112018704D01*
X125767125Y-111975377D01*
X125767927Y-111955930D01*
X125764558Y-111916148D01*
X125752885Y-111886107D01*
X125739432Y-111870972D01*
X125720623Y-111859217D01*
X125659942Y-111843861D01*
X125543940Y-111838586D01*
X125448542Y-111842187D01*
X125388329Y-111855485D01*
X125368714Y-111867141D01*
X125355109Y-111882749D01*
X125342126Y-111925147D01*
X125341169Y-111934621D01*
X125106481Y-111934621D01*
X125111073Y-111855435D01*
X125123125Y-111790306D01*
X125136827Y-111752662D01*
X125155574Y-111720785D01*
X125176684Y-111697197D01*
X125202550Y-111677456D01*
X125271452Y-111648003D01*
X125379385Y-111629416D01*
X125548127Y-111623067D01*
X125682129Y-111626378D01*
X125788548Y-111637644D01*
X125844542Y-111650254D01*
X125890788Y-111667670D01*
X125922238Y-111686099D01*
X125948021Y-111708511D01*
X125982730Y-111762518D01*
X126002824Y-111839189D01*
X126009036Y-111943182D01*
X126005765Y-112020942D01*
X125994775Y-112085612D01*
X125981518Y-112123973D01*
X125962992Y-112157177D01*
X125941499Y-112182896D01*
X125914887Y-112205299D01*
X125842108Y-112242583D01*
X125725108Y-112274146D01*
X125592980Y-112295215D01*
X125479750Y-112313092D01*
X125403054Y-112335014D01*
X125373382Y-112350570D01*
X125352244Y-112369192D01*
X125332465Y-112410339D01*
X125328421Y-112453038D01*
X125331817Y-112494574D01*
X125343679Y-112525814D01*
X125357131Y-112541240D01*
X125375917Y-112553238D01*
X125436050Y-112568937D01*
X125558829Y-112574663D01*
X125658731Y-112571084D01*
X125725105Y-112557940D01*
X125748635Y-112546039D01*
X125765671Y-112530013D01*
X125782991Y-112488759D01*
X125787096Y-112450898D01*
X126023925Y-112450898D01*
G37*
G36*
X124405285Y-111626350D02*
G01*
X124499123Y-111637417D01*
X124550151Y-111650085D01*
X124592488Y-111667608D01*
X124621671Y-111686372D01*
X124645620Y-111709230D01*
X124678144Y-111765290D01*
X124696485Y-111846236D01*
X124700196Y-111973053D01*
X124461227Y-111973053D01*
X124458775Y-111916589D01*
X124447395Y-111875542D01*
X124435037Y-111857254D01*
X124417835Y-111843332D01*
X124367411Y-111826783D01*
X124282000Y-111821557D01*
X124207669Y-111824962D01*
X124152539Y-111836886D01*
X124127340Y-111849375D01*
X124107710Y-111866527D01*
X124084417Y-111911537D01*
X124073624Y-111988159D01*
X124072902Y-112024234D01*
X124072902Y-112077555D01*
X124224398Y-112077555D01*
X124363183Y-112080847D01*
X124475637Y-112091977D01*
X124537455Y-112104745D01*
X124589354Y-112122434D01*
X124625395Y-112141233D01*
X124655567Y-112164125D01*
X124697445Y-112218496D01*
X124724028Y-112293020D01*
X124737327Y-112403531D01*
X124738535Y-112461600D01*
X124735243Y-112551306D01*
X124724107Y-112623814D01*
X124711240Y-112663783D01*
X124693383Y-112697204D01*
X124673522Y-112721167D01*
X124649145Y-112740953D01*
X124585101Y-112769370D01*
X124485307Y-112786090D01*
X124369473Y-112790182D01*
X124270291Y-112786727D01*
X124196629Y-112774455D01*
X124162409Y-112761703D01*
X124134104Y-112744153D01*
X124093744Y-112697775D01*
X124064341Y-112636546D01*
X124053732Y-112636546D01*
X124053732Y-112770920D01*
X123840354Y-112770920D01*
X123840354Y-112256782D01*
X124075042Y-112256782D01*
X124080059Y-112358071D01*
X124092798Y-112436086D01*
X124105917Y-112474830D01*
X124123611Y-112505966D01*
X124142691Y-112526992D01*
X124165840Y-112543449D01*
X124226808Y-112564590D01*
X124331041Y-112572523D01*
X124399921Y-112569023D01*
X124447483Y-112556438D01*
X124466249Y-112544139D01*
X124479978Y-112527384D01*
X124494609Y-112480162D01*
X124497519Y-112427448D01*
X124494125Y-112369213D01*
X124482278Y-112325399D01*
X124469430Y-112304462D01*
X124451667Y-112288000D01*
X124401558Y-112267265D01*
X124309537Y-112257389D01*
X124267018Y-112256782D01*
X124075042Y-112256782D01*
X123840354Y-112256782D01*
X123840354Y-112019953D01*
X123843609Y-111920731D01*
X123854487Y-111838811D01*
X123867441Y-111791200D01*
X123885458Y-111750733D01*
X123905301Y-111721415D01*
X123929605Y-111696628D01*
X123990811Y-111660268D01*
X124080329Y-111636121D01*
X124220840Y-111623999D01*
X124288421Y-111623067D01*
X124405285Y-111626350D01*
G37*
G36*
X123461707Y-112770920D02*
G01*
X123209989Y-112770920D01*
X123209989Y-112188479D01*
X123206618Y-112077103D01*
X123194937Y-111992457D01*
X123182555Y-111952116D01*
X123165557Y-111919916D01*
X123147293Y-111898579D01*
X123125049Y-111881982D01*
X123066846Y-111861072D01*
X122971020Y-111853568D01*
X122905035Y-111856983D01*
X122856091Y-111868975D01*
X122833641Y-111881615D01*
X122816170Y-111899014D01*
X122795060Y-111946462D01*
X122785713Y-112031114D01*
X122785372Y-112058386D01*
X122785372Y-112770920D01*
X122533654Y-112770920D01*
X122533654Y-112058386D01*
X122536945Y-111939574D01*
X122548073Y-111843538D01*
X122560844Y-111790860D01*
X122578541Y-111746762D01*
X122597570Y-111715943D01*
X122620786Y-111690299D01*
X122677697Y-111654416D01*
X122759291Y-111632200D01*
X122902716Y-111623067D01*
X122997377Y-111626489D01*
X123070431Y-111638531D01*
X123106952Y-111651553D01*
X123137893Y-111669589D01*
X123183295Y-111717241D01*
X123223690Y-111795715D01*
X123231299Y-111815136D01*
X123242000Y-111815136D01*
X123242000Y-111644470D01*
X123461707Y-111644470D01*
X123461707Y-112770920D01*
G37*
G36*
X121502123Y-111757534D02*
G01*
X121512824Y-111757534D01*
X121534750Y-111709951D01*
X121560800Y-111674655D01*
X121582713Y-111656658D01*
X121609056Y-111643140D01*
X121681181Y-111627153D01*
X121779524Y-111623067D01*
X121877075Y-111626296D01*
X121959712Y-111636982D01*
X122010662Y-111650156D01*
X122054869Y-111668549D01*
X122087839Y-111688988D01*
X122116393Y-111714068D01*
X122159848Y-111776593D01*
X122191211Y-111865391D01*
X122211544Y-111998067D01*
X122219030Y-112207741D01*
X122215772Y-112353668D01*
X122204874Y-112474213D01*
X122191991Y-112543865D01*
X122174096Y-112603166D01*
X122155002Y-112645114D01*
X122131739Y-112680829D01*
X122106528Y-112708401D01*
X122077315Y-112731424D01*
X122005345Y-112765284D01*
X121904000Y-112785834D01*
X121768823Y-112792323D01*
X121675087Y-112788888D01*
X121606648Y-112776755D01*
X121575240Y-112764153D01*
X121549513Y-112746838D01*
X121512371Y-112700075D01*
X121491514Y-112655716D01*
X121480813Y-112655716D01*
X121480813Y-112770920D01*
X121252545Y-112770920D01*
X121253318Y-112205601D01*
X121487233Y-112205601D01*
X121490612Y-112325611D01*
X121502346Y-112416768D01*
X121514720Y-112459967D01*
X121531699Y-112494481D01*
X121549763Y-112517202D01*
X121571729Y-112534949D01*
X121628059Y-112557303D01*
X121728343Y-112566102D01*
X121795565Y-112562798D01*
X121849745Y-112551580D01*
X121879590Y-112538540D01*
X121904452Y-112520396D01*
X121937965Y-112472776D01*
X121959833Y-112397179D01*
X121970824Y-112267253D01*
X121971593Y-112205601D01*
X121968257Y-112088950D01*
X121956819Y-111999606D01*
X121944478Y-111955839D01*
X121927527Y-111920793D01*
X121909472Y-111897636D01*
X121887523Y-111879497D01*
X121831504Y-111856550D01*
X121743557Y-111847281D01*
X121728343Y-111847147D01*
X121661256Y-111850446D01*
X121607343Y-111861628D01*
X121577702Y-111874625D01*
X121553077Y-111892700D01*
X121520001Y-111940160D01*
X121498541Y-112015739D01*
X121487915Y-112146525D01*
X121487233Y-112205601D01*
X121253318Y-112205601D01*
X121254685Y-111204964D01*
X121504263Y-111204964D01*
X121502123Y-111757534D01*
G37*
G36*
X120908050Y-112450898D02*
G01*
X120907995Y-112534837D01*
X120899705Y-112604440D01*
X120888223Y-112644962D01*
X120871402Y-112679569D01*
X120852054Y-112705109D01*
X120827901Y-112726770D01*
X120763900Y-112759449D01*
X120665178Y-112781435D01*
X120502835Y-112791884D01*
X120449374Y-112792323D01*
X120311671Y-112789025D01*
X120201933Y-112777852D01*
X120143478Y-112765247D01*
X120095105Y-112747833D01*
X120062164Y-112729433D01*
X120035074Y-112707067D01*
X119998544Y-112653620D01*
X119976997Y-112578752D01*
X119969295Y-112463740D01*
X119972562Y-112385243D01*
X119983519Y-112319592D01*
X119996820Y-112280194D01*
X120015422Y-112245934D01*
X120036989Y-112219284D01*
X120063693Y-112195941D01*
X120136261Y-112156889D01*
X120251620Y-112123484D01*
X120410942Y-112096725D01*
X120528232Y-112076574D01*
X120601271Y-112052092D01*
X120623541Y-112036922D01*
X120638648Y-112018704D01*
X120651250Y-111975377D01*
X120652051Y-111955930D01*
X120648682Y-111916148D01*
X120637009Y-111886107D01*
X120623557Y-111870972D01*
X120604747Y-111859217D01*
X120544067Y-111843861D01*
X120428064Y-111838586D01*
X120332666Y-111842187D01*
X120272454Y-111855485D01*
X120252838Y-111867141D01*
X120239234Y-111882749D01*
X120226250Y-111925147D01*
X120225294Y-111934621D01*
X119990605Y-111934621D01*
X119995197Y-111855435D01*
X120007250Y-111790306D01*
X120020952Y-111752662D01*
X120039698Y-111720785D01*
X120060809Y-111697197D01*
X120086674Y-111677456D01*
X120155577Y-111648003D01*
X120263510Y-111629416D01*
X120432252Y-111623067D01*
X120566254Y-111626378D01*
X120672672Y-111637644D01*
X120728666Y-111650254D01*
X120774912Y-111667670D01*
X120806363Y-111686099D01*
X120832146Y-111708511D01*
X120866854Y-111762518D01*
X120886948Y-111839189D01*
X120893161Y-111943182D01*
X120889889Y-112020942D01*
X120878899Y-112085612D01*
X120865643Y-112123973D01*
X120847116Y-112157177D01*
X120825624Y-112182896D01*
X120799012Y-112205299D01*
X120726233Y-112242583D01*
X120609232Y-112274146D01*
X120477105Y-112295215D01*
X120363874Y-112313092D01*
X120287178Y-112335014D01*
X120257506Y-112350570D01*
X120236369Y-112369192D01*
X120216590Y-112410339D01*
X120212545Y-112453038D01*
X120215941Y-112494574D01*
X120227804Y-112525814D01*
X120241255Y-112541240D01*
X120260042Y-112553238D01*
X120320174Y-112568937D01*
X120442953Y-112574663D01*
X120542856Y-112571084D01*
X120609229Y-112557940D01*
X120632759Y-112546039D01*
X120649795Y-112530013D01*
X120667115Y-112488759D01*
X120671221Y-112450898D01*
X120908050Y-112450898D01*
G37*
G36*
X118350112Y-112450898D02*
G01*
X118350058Y-112534837D01*
X118341768Y-112604440D01*
X118330285Y-112644962D01*
X118313464Y-112679569D01*
X118294117Y-112705109D01*
X118269963Y-112726770D01*
X118205962Y-112759449D01*
X118107241Y-112781435D01*
X117944897Y-112791884D01*
X117891436Y-112792323D01*
X117753733Y-112789025D01*
X117643995Y-112777852D01*
X117585540Y-112765247D01*
X117537167Y-112747833D01*
X117504227Y-112729433D01*
X117477136Y-112707067D01*
X117440606Y-112653620D01*
X117419059Y-112578752D01*
X117411358Y-112463740D01*
X117414625Y-112385243D01*
X117425582Y-112319592D01*
X117438882Y-112280194D01*
X117457485Y-112245934D01*
X117479051Y-112219284D01*
X117505755Y-112195941D01*
X117578323Y-112156889D01*
X117693682Y-112123484D01*
X117853004Y-112096725D01*
X117970295Y-112076574D01*
X118043333Y-112052092D01*
X118065603Y-112036922D01*
X118080710Y-112018704D01*
X118093312Y-111975377D01*
X118094113Y-111955930D01*
X118090744Y-111916148D01*
X118079071Y-111886107D01*
X118065619Y-111870972D01*
X118046809Y-111859217D01*
X117986129Y-111843861D01*
X117870126Y-111838586D01*
X117774728Y-111842187D01*
X117714516Y-111855485D01*
X117694900Y-111867141D01*
X117681296Y-111882749D01*
X117668312Y-111925147D01*
X117667356Y-111934621D01*
X117432668Y-111934621D01*
X117437259Y-111855435D01*
X117449312Y-111790306D01*
X117463014Y-111752662D01*
X117481760Y-111720785D01*
X117502871Y-111697197D01*
X117528737Y-111677456D01*
X117597639Y-111648003D01*
X117705572Y-111629416D01*
X117874314Y-111623067D01*
X118008316Y-111626378D01*
X118114735Y-111637644D01*
X118170728Y-111650254D01*
X118216975Y-111667670D01*
X118248425Y-111686099D01*
X118274208Y-111708511D01*
X118308916Y-111762518D01*
X118329010Y-111839189D01*
X118335223Y-111943182D01*
X118331951Y-112020942D01*
X118320961Y-112085612D01*
X118307705Y-112123973D01*
X118289179Y-112157177D01*
X118267686Y-112182896D01*
X118241074Y-112205299D01*
X118168295Y-112242583D01*
X118051294Y-112274146D01*
X117919167Y-112295215D01*
X117805937Y-112313092D01*
X117729241Y-112335014D01*
X117699569Y-112350570D01*
X117678431Y-112369192D01*
X117658652Y-112410339D01*
X117654607Y-112453038D01*
X117658004Y-112494574D01*
X117669866Y-112525814D01*
X117683317Y-112541240D01*
X117702104Y-112553238D01*
X117762237Y-112568937D01*
X117885015Y-112574663D01*
X117984918Y-112571084D01*
X118051291Y-112557940D01*
X118074822Y-112546039D01*
X118091858Y-112530013D01*
X118109177Y-112488759D01*
X118113283Y-112450898D01*
X118350112Y-112450898D01*
G37*
G36*
X117103154Y-111847147D02*
G01*
X116819425Y-111847147D01*
X116819425Y-112412559D01*
X116816130Y-112517931D01*
X116804977Y-112602709D01*
X116792211Y-112648858D01*
X116774526Y-112687330D01*
X116755281Y-112714354D01*
X116731758Y-112736670D01*
X116672282Y-112768034D01*
X116583368Y-112786728D01*
X116463112Y-112792323D01*
X116354787Y-112787682D01*
X116171372Y-112767111D01*
X116151558Y-112764592D01*
X116151558Y-112536231D01*
X116287607Y-112555226D01*
X116382059Y-112559774D01*
X116459963Y-112556319D01*
X116514570Y-112544047D01*
X116536821Y-112531919D01*
X116553336Y-112515409D01*
X116571135Y-112471525D01*
X116576175Y-112406138D01*
X116576175Y-111847147D01*
X116204973Y-111847147D01*
X116204973Y-111644470D01*
X116571895Y-111644470D01*
X116571895Y-111311607D01*
X116817285Y-111413969D01*
X116817285Y-111644470D01*
X117041272Y-111644470D01*
X117103154Y-111847147D01*
G37*
G36*
X115732432Y-112770920D02*
G01*
X115491322Y-112770920D01*
X115491322Y-112173590D01*
X115487645Y-112121292D01*
X115473811Y-112073390D01*
X115426334Y-111989792D01*
X115405990Y-111960211D01*
X115364335Y-111907743D01*
X115324243Y-111875325D01*
X115267521Y-111857048D01*
X115207593Y-111853568D01*
X115152013Y-111857083D01*
X115112089Y-111869775D01*
X115093527Y-111883321D01*
X115077992Y-111902155D01*
X115047629Y-111970913D01*
X114817128Y-111913311D01*
X114835340Y-111833897D01*
X114858572Y-111770585D01*
X114878476Y-111735777D01*
X114902505Y-111707167D01*
X114958055Y-111669793D01*
X115037012Y-111646886D01*
X115163262Y-111636385D01*
X115207593Y-111635909D01*
X115291632Y-111639321D01*
X115357952Y-111651292D01*
X115392925Y-111664640D01*
X115423329Y-111683237D01*
X115471394Y-111734251D01*
X115519198Y-111821619D01*
X115527614Y-111840726D01*
X115538316Y-111840726D01*
X115519146Y-111644470D01*
X115732432Y-111644470D01*
X115732432Y-112770920D01*
G37*
G36*
X114153171Y-111626294D02*
G01*
X114242189Y-111636966D01*
X114297085Y-111650116D01*
X114344723Y-111668469D01*
X114380064Y-111688724D01*
X114410707Y-111713547D01*
X114456976Y-111774512D01*
X114490321Y-111859428D01*
X114512367Y-111983775D01*
X114521663Y-112177495D01*
X114521766Y-112205601D01*
X114518525Y-112343558D01*
X114507743Y-112459086D01*
X114494741Y-112528072D01*
X114476642Y-112587423D01*
X114457150Y-112630187D01*
X114433364Y-112667004D01*
X114407454Y-112695897D01*
X114377392Y-112720375D01*
X114303428Y-112757366D01*
X114200295Y-112781427D01*
X114046882Y-112792055D01*
X114011817Y-112792323D01*
X113901101Y-112789029D01*
X113811444Y-112777889D01*
X113761631Y-112765008D01*
X113719439Y-112747129D01*
X113688804Y-112727429D01*
X113662688Y-112703285D01*
X113622770Y-112641758D01*
X113592284Y-112549359D01*
X113576591Y-112465880D01*
X113813420Y-112465880D01*
X113831548Y-112508257D01*
X113854761Y-112538136D01*
X113899378Y-112561708D01*
X113975777Y-112571811D01*
X114016097Y-112572523D01*
X114095970Y-112569177D01*
X114158276Y-112557666D01*
X114190131Y-112544901D01*
X114216204Y-112527244D01*
X114250095Y-112481964D01*
X114271943Y-112410581D01*
X114282797Y-112312244D01*
X113561702Y-112312244D01*
X113561230Y-112148569D01*
X113562823Y-112120268D01*
X113796391Y-112120268D01*
X114280657Y-112120268D01*
X114273850Y-112025375D01*
X114259710Y-111953191D01*
X114245977Y-111918070D01*
X114227829Y-111890171D01*
X114208198Y-111871377D01*
X114184486Y-111856978D01*
X114120276Y-111839112D01*
X114037407Y-111834306D01*
X113967784Y-111837641D01*
X113912808Y-111849078D01*
X113883860Y-111862019D01*
X113859990Y-111879979D01*
X113828062Y-111927349D01*
X113807057Y-112004310D01*
X113796391Y-112120268D01*
X113562823Y-112120268D01*
X113568927Y-112011835D01*
X113580028Y-111930847D01*
X113596442Y-111861264D01*
X113614464Y-111811673D01*
X113636812Y-111768971D01*
X113660883Y-111736063D01*
X113688930Y-111708072D01*
X113756134Y-111666336D01*
X113846909Y-111638666D01*
X113977252Y-111624481D01*
X114048109Y-111623067D01*
X114153171Y-111626294D01*
G37*
G36*
X112517422Y-112446618D02*
G01*
X112529985Y-112494171D01*
X112548638Y-112527931D01*
X112565225Y-112543307D01*
X112586387Y-112554450D01*
X112649541Y-112566589D01*
X112702977Y-112568242D01*
X112774850Y-112564962D01*
X112832868Y-112553909D01*
X112865193Y-112540974D01*
X112892121Y-112522999D01*
X112928071Y-112476657D01*
X112951507Y-112405049D01*
X112963973Y-112285246D01*
X112965396Y-112205601D01*
X112962030Y-112088844D01*
X112950382Y-111999447D01*
X112937957Y-111956253D01*
X112920883Y-111921549D01*
X112902646Y-111898489D01*
X112880450Y-111880346D01*
X112823526Y-111857119D01*
X112733918Y-111847369D01*
X112713678Y-111847147D01*
X112644047Y-111850647D01*
X112593927Y-111863233D01*
X112572171Y-111876027D01*
X112555005Y-111893607D01*
X112531928Y-111943787D01*
X112521610Y-111992223D01*
X112274172Y-111992223D01*
X112280093Y-111897934D01*
X112293158Y-111820463D01*
X112307391Y-111775632D01*
X112326495Y-111737730D01*
X112347294Y-111710253D01*
X112372503Y-111687216D01*
X112436314Y-111653630D01*
X112530820Y-111632158D01*
X112705117Y-111623067D01*
X112818824Y-111626296D01*
X112915135Y-111636982D01*
X112974367Y-111650116D01*
X113025774Y-111668440D01*
X113063716Y-111688535D01*
X113096647Y-111713135D01*
X113146009Y-111772723D01*
X113181525Y-111854195D01*
X113205432Y-111971208D01*
X113216710Y-112149564D01*
X113217207Y-112207741D01*
X113213974Y-112344184D01*
X113203255Y-112458581D01*
X113190261Y-112527388D01*
X113172175Y-112586604D01*
X113152671Y-112629351D01*
X113128873Y-112666166D01*
X113102930Y-112695096D01*
X113072832Y-112719618D01*
X112998748Y-112756748D01*
X112895422Y-112781015D01*
X112741655Y-112791970D01*
X112700836Y-112792323D01*
X112585607Y-112789020D01*
X112492821Y-112777810D01*
X112442360Y-112765016D01*
X112400068Y-112747287D01*
X112370219Y-112728066D01*
X112345262Y-112704577D01*
X112309383Y-112645941D01*
X112285701Y-112559804D01*
X112274172Y-112446618D01*
X112517422Y-112446618D01*
G37*
G36*
X111940378Y-112770920D02*
G01*
X111688568Y-112770920D01*
X111688568Y-112192759D01*
X111685171Y-112076032D01*
X111673309Y-111987993D01*
X111660945Y-111947079D01*
X111643995Y-111914550D01*
X111625890Y-111893193D01*
X111603859Y-111876665D01*
X111546479Y-111856155D01*
X111458160Y-111849288D01*
X111393798Y-111852684D01*
X111345586Y-111864545D01*
X111322914Y-111877235D01*
X111305145Y-111894730D01*
X111283337Y-111942507D01*
X111273120Y-112027251D01*
X111272512Y-112064714D01*
X111272512Y-112770920D01*
X111020794Y-112770920D01*
X111020794Y-112064714D01*
X111024081Y-111943850D01*
X111035183Y-111846261D01*
X111047928Y-111792737D01*
X111065583Y-111747983D01*
X111084531Y-111716784D01*
X111107634Y-111690849D01*
X111164068Y-111654687D01*
X111244682Y-111632341D01*
X111370112Y-111623163D01*
X111387809Y-111623067D01*
X111474078Y-111626465D01*
X111539823Y-111638336D01*
X111572612Y-111651245D01*
X111600184Y-111669110D01*
X111641284Y-111717496D01*
X111677959Y-111795966D01*
X111688568Y-111795966D01*
X111688568Y-111204964D01*
X111940378Y-111204964D01*
X111940378Y-112770920D01*
G37*
G36*
X109096478Y-112770920D02*
G01*
X108853321Y-112770920D01*
X108853321Y-111851428D01*
X108492727Y-111851428D01*
X108492727Y-111644470D01*
X108853321Y-111644470D01*
X108853321Y-111522845D01*
X108850033Y-111480297D01*
X108838930Y-111446337D01*
X108825554Y-111427336D01*
X108806829Y-111411925D01*
X108751221Y-111390987D01*
X108648397Y-111380665D01*
X108471417Y-111384098D01*
X108471417Y-111164392D01*
X108637788Y-111158655D01*
X108773132Y-111162318D01*
X108848510Y-111170925D01*
X108911927Y-111185051D01*
X108955531Y-111201054D01*
X108992218Y-111221350D01*
X109019684Y-111243469D01*
X109042317Y-111269468D01*
X109074372Y-111333502D01*
X109092478Y-111424267D01*
X109096478Y-111514284D01*
X109096478Y-111644470D01*
X109410172Y-111644470D01*
X109335447Y-111851428D01*
X109096478Y-111851428D01*
X109096478Y-112770920D01*
G37*
G36*
X107778689Y-111626350D02*
G01*
X107872527Y-111637417D01*
X107923556Y-111650085D01*
X107965893Y-111667608D01*
X107995075Y-111686372D01*
X108019024Y-111709230D01*
X108051549Y-111765290D01*
X108069889Y-111846236D01*
X108073601Y-111973053D01*
X107834632Y-111973053D01*
X107832179Y-111916589D01*
X107820800Y-111875542D01*
X107808442Y-111857254D01*
X107791239Y-111843332D01*
X107740816Y-111826783D01*
X107655405Y-111821557D01*
X107581074Y-111824962D01*
X107525943Y-111836886D01*
X107500745Y-111849375D01*
X107481114Y-111866527D01*
X107457821Y-111911537D01*
X107447028Y-111988159D01*
X107446307Y-112024234D01*
X107446307Y-112077555D01*
X107597803Y-112077555D01*
X107736588Y-112080847D01*
X107849041Y-112091977D01*
X107910860Y-112104745D01*
X107962758Y-112122434D01*
X107998800Y-112141233D01*
X108028972Y-112164125D01*
X108070849Y-112218496D01*
X108097433Y-112293020D01*
X108110731Y-112403531D01*
X108111940Y-112461600D01*
X108108648Y-112551306D01*
X108097512Y-112623814D01*
X108084645Y-112663783D01*
X108066788Y-112697204D01*
X108046926Y-112721167D01*
X108022550Y-112740953D01*
X107958505Y-112769370D01*
X107858711Y-112786090D01*
X107742878Y-112790182D01*
X107643696Y-112786727D01*
X107570034Y-112774455D01*
X107535814Y-112761703D01*
X107507509Y-112744153D01*
X107467149Y-112697775D01*
X107437745Y-112636546D01*
X107427137Y-112636546D01*
X107427137Y-112770920D01*
X107213758Y-112770920D01*
X107213758Y-112256782D01*
X107448447Y-112256782D01*
X107453463Y-112358071D01*
X107466202Y-112436086D01*
X107479322Y-112474830D01*
X107497016Y-112505966D01*
X107516096Y-112526992D01*
X107539244Y-112543449D01*
X107600213Y-112564590D01*
X107704445Y-112572523D01*
X107773325Y-112569023D01*
X107820888Y-112556438D01*
X107839653Y-112544139D01*
X107853382Y-112527384D01*
X107868014Y-112480162D01*
X107870924Y-112427448D01*
X107867530Y-112369213D01*
X107855682Y-112325399D01*
X107842835Y-112304462D01*
X107825071Y-112288000D01*
X107774962Y-112267265D01*
X107682942Y-112257389D01*
X107640423Y-112256782D01*
X107448447Y-112256782D01*
X107213758Y-112256782D01*
X107213758Y-112019953D01*
X107217014Y-111920731D01*
X107227891Y-111838811D01*
X107240846Y-111791200D01*
X107258863Y-111750733D01*
X107278705Y-111721415D01*
X107303010Y-111696628D01*
X107364216Y-111660268D01*
X107453734Y-111636121D01*
X107594245Y-111623999D01*
X107661826Y-111623067D01*
X107778689Y-111626350D01*
G37*
G36*
X106779650Y-112770920D02*
G01*
X106538540Y-112770920D01*
X106538540Y-112173590D01*
X106534862Y-112121292D01*
X106521029Y-112073390D01*
X106473552Y-111989792D01*
X106453207Y-111960211D01*
X106411553Y-111907743D01*
X106371461Y-111875325D01*
X106314739Y-111857048D01*
X106254811Y-111853568D01*
X106199231Y-111857083D01*
X106159306Y-111869775D01*
X106140745Y-111883321D01*
X106125210Y-111902155D01*
X106094847Y-111970913D01*
X105864346Y-111913311D01*
X105882558Y-111833897D01*
X105905790Y-111770585D01*
X105925694Y-111735777D01*
X105949723Y-111707167D01*
X106005273Y-111669793D01*
X106084230Y-111646886D01*
X106210480Y-111636385D01*
X106254811Y-111635909D01*
X106338850Y-111639321D01*
X106405170Y-111651292D01*
X106440143Y-111664640D01*
X106470547Y-111683237D01*
X106518612Y-111734251D01*
X106566415Y-111821619D01*
X106574832Y-111840726D01*
X106585534Y-111840726D01*
X106566364Y-111644470D01*
X106779650Y-111644470D01*
X106779650Y-112770920D01*
G37*
G36*
X103941783Y-111626350D02*
G01*
X104035621Y-111637417D01*
X104086649Y-111650085D01*
X104128986Y-111667608D01*
X104158169Y-111686372D01*
X104182118Y-111709230D01*
X104214642Y-111765290D01*
X104232983Y-111846236D01*
X104236694Y-111973053D01*
X103997725Y-111973053D01*
X103995272Y-111916589D01*
X103983893Y-111875542D01*
X103971535Y-111857254D01*
X103954333Y-111843332D01*
X103903909Y-111826783D01*
X103818498Y-111821557D01*
X103744167Y-111824962D01*
X103689037Y-111836886D01*
X103663838Y-111849375D01*
X103644208Y-111866527D01*
X103620914Y-111911537D01*
X103610122Y-111988159D01*
X103609400Y-112024234D01*
X103609400Y-112077555D01*
X103760896Y-112077555D01*
X103899681Y-112080847D01*
X104012135Y-112091977D01*
X104073953Y-112104745D01*
X104125852Y-112122434D01*
X104161893Y-112141233D01*
X104192065Y-112164125D01*
X104233943Y-112218496D01*
X104260526Y-112293020D01*
X104273825Y-112403531D01*
X104275033Y-112461600D01*
X104271741Y-112551306D01*
X104260605Y-112623814D01*
X104247738Y-112663783D01*
X104229881Y-112697204D01*
X104210020Y-112721167D01*
X104185643Y-112740953D01*
X104121599Y-112769370D01*
X104021805Y-112786090D01*
X103905971Y-112790182D01*
X103806789Y-112786727D01*
X103733127Y-112774455D01*
X103698907Y-112761703D01*
X103670602Y-112744153D01*
X103630242Y-112697775D01*
X103600839Y-112636546D01*
X103590230Y-112636546D01*
X103590230Y-112770920D01*
X103376852Y-112770920D01*
X103376852Y-112256782D01*
X103611540Y-112256782D01*
X103616557Y-112358071D01*
X103629296Y-112436086D01*
X103642415Y-112474830D01*
X103660109Y-112505966D01*
X103679189Y-112526992D01*
X103702338Y-112543449D01*
X103763306Y-112564590D01*
X103867539Y-112572523D01*
X103936419Y-112569023D01*
X103983981Y-112556438D01*
X104002747Y-112544139D01*
X104016476Y-112527384D01*
X104031107Y-112480162D01*
X104034017Y-112427448D01*
X104030623Y-112369213D01*
X104018776Y-112325399D01*
X104005928Y-112304462D01*
X103988165Y-112288000D01*
X103938056Y-112267265D01*
X103846035Y-112257389D01*
X103803516Y-112256782D01*
X103611540Y-112256782D01*
X103376852Y-112256782D01*
X103376852Y-112019953D01*
X103380107Y-111920731D01*
X103390985Y-111838811D01*
X103403939Y-111791200D01*
X103421956Y-111750733D01*
X103441798Y-111721415D01*
X103466103Y-111696628D01*
X103527309Y-111660268D01*
X103616827Y-111636121D01*
X103757338Y-111623999D01*
X103824919Y-111623067D01*
X103941783Y-111626350D01*
G37*
G36*
X102944883Y-112770920D02*
G01*
X102686745Y-112770920D01*
X102539529Y-111877019D01*
X102524547Y-111877019D01*
X102379472Y-112770920D01*
X102121333Y-112770920D01*
X101918656Y-111644470D01*
X102157625Y-111644470D01*
X102253660Y-112517061D01*
X102259987Y-112517061D01*
X102400875Y-111644470D01*
X102663294Y-111644470D01*
X102806229Y-112517061D01*
X102812650Y-112517061D01*
X102908591Y-111644470D01*
X103147561Y-111644470D01*
X102944883Y-112770920D01*
G37*
G36*
X101383845Y-111626350D02*
G01*
X101477683Y-111637417D01*
X101528712Y-111650085D01*
X101571048Y-111667608D01*
X101600231Y-111686372D01*
X101624180Y-111709230D01*
X101656705Y-111765290D01*
X101675045Y-111846236D01*
X101678756Y-111973053D01*
X101439787Y-111973053D01*
X101437335Y-111916589D01*
X101425955Y-111875542D01*
X101413597Y-111857254D01*
X101396395Y-111843332D01*
X101345971Y-111826783D01*
X101260560Y-111821557D01*
X101186230Y-111824962D01*
X101131099Y-111836886D01*
X101105900Y-111849375D01*
X101086270Y-111866527D01*
X101062977Y-111911537D01*
X101052184Y-111988159D01*
X101051462Y-112024234D01*
X101051462Y-112077555D01*
X101202958Y-112077555D01*
X101341743Y-112080847D01*
X101454197Y-112091977D01*
X101516015Y-112104745D01*
X101567914Y-112122434D01*
X101603955Y-112141233D01*
X101634128Y-112164125D01*
X101676005Y-112218496D01*
X101702588Y-112293020D01*
X101715887Y-112403531D01*
X101717096Y-112461600D01*
X101713803Y-112551306D01*
X101702667Y-112623814D01*
X101689801Y-112663783D01*
X101671944Y-112697204D01*
X101652082Y-112721167D01*
X101627705Y-112740953D01*
X101563661Y-112769370D01*
X101463867Y-112786090D01*
X101348033Y-112790182D01*
X101248852Y-112786727D01*
X101175189Y-112774455D01*
X101140969Y-112761703D01*
X101112664Y-112744153D01*
X101072304Y-112697775D01*
X101042901Y-112636546D01*
X101032293Y-112636546D01*
X101032293Y-112770920D01*
X100818914Y-112770920D01*
X100818914Y-112256782D01*
X101053603Y-112256782D01*
X101058619Y-112358071D01*
X101071358Y-112436086D01*
X101084477Y-112474830D01*
X101102172Y-112505966D01*
X101121251Y-112526992D01*
X101144400Y-112543449D01*
X101205368Y-112564590D01*
X101309601Y-112572523D01*
X101378481Y-112569023D01*
X101426043Y-112556438D01*
X101444809Y-112544139D01*
X101458538Y-112527384D01*
X101473169Y-112480162D01*
X101476079Y-112427448D01*
X101472685Y-112369213D01*
X101460838Y-112325399D01*
X101447990Y-112304462D01*
X101430227Y-112288000D01*
X101380118Y-112267265D01*
X101288098Y-112257389D01*
X101245578Y-112256782D01*
X101053603Y-112256782D01*
X100818914Y-112256782D01*
X100818914Y-112019953D01*
X100822170Y-111920731D01*
X100833047Y-111838811D01*
X100846002Y-111791200D01*
X100864018Y-111750733D01*
X100883861Y-111721415D01*
X100908166Y-111696628D01*
X100969371Y-111660268D01*
X101058889Y-111636121D01*
X101199400Y-111623999D01*
X101266981Y-111623067D01*
X101383845Y-111626350D01*
G37*
G36*
X100250432Y-113240390D02*
G01*
X99998621Y-113240390D01*
X99448191Y-111644470D01*
X99704190Y-111644470D01*
X99964562Y-112457319D01*
X99973030Y-112457319D01*
X100237590Y-111644470D01*
X100493681Y-111644470D01*
X100130947Y-112696288D01*
X100056223Y-112696288D01*
X100250432Y-113240390D01*
G37*
G36*
X98858399Y-112770920D02*
G01*
X98534097Y-112770920D01*
X98534097Y-112446618D01*
X98858399Y-112446618D01*
X98858399Y-112770920D01*
G37*
G36*
X182589087Y-92048696D02*
G01*
X182601658Y-92109184D01*
X182620391Y-92154346D01*
X182636922Y-92176159D01*
X182657846Y-92193015D01*
X182712963Y-92213398D01*
X182823776Y-92221595D01*
X182883849Y-92218357D01*
X182934264Y-92207605D01*
X182965134Y-92194269D01*
X182991645Y-92175600D01*
X183029783Y-92125766D01*
X183057277Y-92047610D01*
X183075366Y-91918717D01*
X183081914Y-91700943D01*
X183078575Y-91537632D01*
X183067111Y-91411679D01*
X183054764Y-91349634D01*
X183037806Y-91299544D01*
X183020314Y-91266982D01*
X182999154Y-91240974D01*
X182949635Y-91208287D01*
X182880533Y-91191730D01*
X182823776Y-91188946D01*
X182751569Y-91192393D01*
X182697569Y-91204609D01*
X182672245Y-91217510D01*
X182651681Y-91235318D01*
X182623223Y-91284512D01*
X182601836Y-91370220D01*
X182350118Y-91370220D01*
X182361244Y-91266759D01*
X182378673Y-91181393D01*
X182395544Y-91131702D01*
X182416993Y-91089524D01*
X182439507Y-91058930D01*
X182466236Y-91033133D01*
X182531367Y-90995584D01*
X182623620Y-90971079D01*
X182764978Y-90959193D01*
X182823776Y-90958445D01*
X182914619Y-90961553D01*
X182994972Y-90971398D01*
X183052514Y-90984781D01*
X183103870Y-91003466D01*
X183144359Y-91024735D01*
X183180430Y-91050756D01*
X183237616Y-91114464D01*
X183281593Y-91200288D01*
X183314440Y-91318859D01*
X183335506Y-91487920D01*
X183342194Y-91705224D01*
X183338958Y-91879392D01*
X183328218Y-92025463D01*
X183315244Y-92113058D01*
X183297191Y-92188507D01*
X183277947Y-92242495D01*
X183254510Y-92289111D01*
X183229679Y-92325004D01*
X183200999Y-92355665D01*
X183133767Y-92401344D01*
X183045422Y-92432051D01*
X182922213Y-92449066D01*
X182823776Y-92452003D01*
X182704802Y-92448728D01*
X182606967Y-92437717D01*
X182550974Y-92424772D01*
X182503219Y-92406776D01*
X182468712Y-92387164D01*
X182439192Y-92363172D01*
X182395266Y-92304138D01*
X182363566Y-92220284D01*
X182341429Y-92092025D01*
X182337276Y-92048696D01*
X182589087Y-92048696D01*
G37*
G36*
X182120827Y-92050836D02*
G01*
X182120017Y-92144397D01*
X182111247Y-92222874D01*
X182099385Y-92269901D01*
X182082199Y-92310414D01*
X182062746Y-92340358D01*
X182038592Y-92366073D01*
X181976936Y-92404937D01*
X181886497Y-92432309D01*
X181746356Y-92448537D01*
X181604549Y-92452003D01*
X181466551Y-92448731D01*
X181353504Y-92437741D01*
X181289532Y-92424908D01*
X181235412Y-92407100D01*
X181197391Y-92388098D01*
X181165277Y-92364945D01*
X181140503Y-92339589D01*
X181120095Y-92310162D01*
X181090535Y-92236027D01*
X181074117Y-92128382D01*
X181071149Y-92035947D01*
X181074391Y-91946413D01*
X181085173Y-91869869D01*
X181098618Y-91821575D01*
X181117472Y-91778706D01*
X181139183Y-91744776D01*
X181166037Y-91714226D01*
X181236463Y-91661832D01*
X181342319Y-91614246D01*
X181511543Y-91565402D01*
X181581099Y-91549447D01*
X181696622Y-91520517D01*
X181777088Y-91490469D01*
X181810031Y-91470881D01*
X181834121Y-91448779D01*
X181858097Y-91402549D01*
X181864828Y-91342490D01*
X181861510Y-91294668D01*
X181850197Y-91257334D01*
X181837039Y-91237501D01*
X181818700Y-91221538D01*
X181765039Y-91200025D01*
X181665214Y-91188349D01*
X181585379Y-91186806D01*
X181478315Y-91190278D01*
X181406915Y-91202669D01*
X181380671Y-91214206D01*
X181361915Y-91229735D01*
X181343860Y-91267978D01*
X181339989Y-91299870D01*
X181096740Y-91299870D01*
X181101866Y-91218054D01*
X181114248Y-91149823D01*
X181128340Y-91109016D01*
X181147500Y-91074095D01*
X181168908Y-91048026D01*
X181195049Y-91025898D01*
X181263084Y-90992397D01*
X181366036Y-90969855D01*
X181532766Y-90958988D01*
X181593848Y-90958445D01*
X181732722Y-90961733D01*
X181845413Y-90972837D01*
X181907621Y-90985609D01*
X181959882Y-91003307D01*
X181996200Y-91022114D01*
X182026620Y-91045016D01*
X182068831Y-91099328D01*
X182095614Y-91173557D01*
X182109006Y-91283183D01*
X182110218Y-91340349D01*
X182106981Y-91421039D01*
X182096229Y-91490273D01*
X182082707Y-91534473D01*
X182063720Y-91573847D01*
X182041544Y-91605505D01*
X182014042Y-91634120D01*
X181940317Y-91684333D01*
X181826663Y-91731303D01*
X181639794Y-91781598D01*
X181589567Y-91792697D01*
X181485746Y-91818972D01*
X181411002Y-91847954D01*
X181378894Y-91867842D01*
X181354495Y-91890816D01*
X181327673Y-91941014D01*
X181316939Y-92013595D01*
X181316539Y-92035947D01*
X181319873Y-92093603D01*
X181331301Y-92138260D01*
X181344203Y-92161194D01*
X181362098Y-92179623D01*
X181411668Y-92203646D01*
X181498841Y-92216998D01*
X181587427Y-92219454D01*
X181696620Y-92215998D01*
X181775300Y-92203714D01*
X181808587Y-92191543D01*
X181834296Y-92174959D01*
X181863383Y-92134668D01*
X181878057Y-92071948D01*
X181879810Y-92050836D01*
X182120827Y-92050836D01*
G37*
G36*
X180711765Y-92430600D02*
G01*
X179822051Y-92430600D01*
X179822051Y-92198051D01*
X180459954Y-92198051D01*
X180459954Y-91792697D01*
X179945816Y-91792697D01*
X179945816Y-91560149D01*
X180459954Y-91560149D01*
X180459954Y-91212397D01*
X179864671Y-91212397D01*
X179864671Y-90979848D01*
X180711765Y-90979848D01*
X180711765Y-92430600D01*
G37*
G36*
X177750520Y-92430600D02*
G01*
X177494522Y-92430600D01*
X177494522Y-90979848D01*
X177754801Y-90979848D01*
X178190119Y-91297729D01*
X178190119Y-91598581D01*
X177750520Y-91280607D01*
X177750520Y-92430600D01*
G37*
G36*
X176471551Y-92430600D02*
G01*
X176215553Y-92430600D01*
X176215553Y-90979848D01*
X176475832Y-90979848D01*
X176911150Y-91297729D01*
X176911150Y-91598581D01*
X176471551Y-91280607D01*
X176471551Y-92430600D01*
G37*
G36*
X175683362Y-92364529D02*
G01*
X175542017Y-92411307D01*
X175428347Y-92436894D01*
X175283007Y-92447526D01*
X175252325Y-92447722D01*
X175132077Y-92444471D01*
X175031632Y-92433622D01*
X174972131Y-92420598D01*
X174921023Y-92402462D01*
X174884019Y-92382768D01*
X174852260Y-92358692D01*
X174805733Y-92300646D01*
X174773456Y-92221070D01*
X174753328Y-92105485D01*
X174746748Y-91944193D01*
X174750031Y-91831240D01*
X174761095Y-91738229D01*
X174774085Y-91685087D01*
X174792153Y-91639722D01*
X174811920Y-91606834D01*
X174836130Y-91578713D01*
X174896233Y-91536746D01*
X174982540Y-91506674D01*
X175115767Y-91486458D01*
X175154243Y-91483377D01*
X175270250Y-91479085D01*
X175384651Y-91487565D01*
X175363341Y-91208116D01*
X174808538Y-91203835D01*
X174808538Y-90979848D01*
X175578767Y-90979848D01*
X175642790Y-91752124D01*
X175363341Y-91718873D01*
X175275004Y-91714265D01*
X175201663Y-91716571D01*
X175164851Y-91720206D01*
X175105715Y-91730989D01*
X175061889Y-91748294D01*
X175040977Y-91763981D01*
X175024926Y-91784116D01*
X175005683Y-91838253D01*
X174998466Y-91942053D01*
X175001802Y-92031640D01*
X175013240Y-92100252D01*
X175025687Y-92134081D01*
X175042816Y-92161118D01*
X175061852Y-92179540D01*
X175085165Y-92193775D01*
X175149631Y-92211905D01*
X175241716Y-92217314D01*
X175319848Y-92213805D01*
X175396833Y-92201157D01*
X175544152Y-92155123D01*
X175683362Y-92099970D01*
X175683362Y-92364529D01*
G37*
G36*
X174504615Y-92430600D02*
G01*
X174261459Y-92430600D01*
X174178266Y-92108438D01*
X173670457Y-92108438D01*
X173582984Y-92430600D01*
X173339734Y-92430600D01*
X173482942Y-91886591D01*
X173721638Y-91886591D01*
X174122711Y-91886591D01*
X173945625Y-91201695D01*
X173898724Y-91201695D01*
X173721638Y-91886591D01*
X173482942Y-91886591D01*
X173721638Y-90979848D01*
X174124852Y-90979848D01*
X174504615Y-92430600D01*
G37*
G36*
X171812304Y-92430600D02*
G01*
X171530715Y-92430600D01*
X171370658Y-91169684D01*
X171357816Y-91169684D01*
X171197852Y-92430600D01*
X170916170Y-92430600D01*
X170754065Y-90979848D01*
X170969584Y-90979848D01*
X171059198Y-92172461D01*
X171069806Y-92172461D01*
X171108238Y-91773527D01*
X171227723Y-90979848D01*
X171502891Y-90979848D01*
X171620328Y-91773527D01*
X171652247Y-92172461D01*
X171662948Y-92172461D01*
X171761123Y-90979848D01*
X171976549Y-90979848D01*
X171812304Y-92430600D01*
G37*
G36*
X170226062Y-91077930D02*
G01*
X169910322Y-91077930D01*
X169910322Y-90775031D01*
X170226062Y-90775031D01*
X170226062Y-91077930D01*
G37*
G36*
X170503464Y-92430600D02*
G01*
X169583879Y-92430600D01*
X169583879Y-92217314D01*
X169914602Y-92217314D01*
X169914602Y-91304150D01*
X170482154Y-91304150D01*
X170482154Y-91517436D01*
X170153571Y-91517436D01*
X170153571Y-92217314D01*
X170503464Y-92217314D01*
X170503464Y-92430600D01*
G37*
G36*
X169271396Y-92430600D02*
G01*
X169019678Y-92430600D01*
X169019678Y-91848159D01*
X169016307Y-91736783D01*
X169004625Y-91652137D01*
X168992244Y-91611796D01*
X168975246Y-91579596D01*
X168956982Y-91558259D01*
X168934738Y-91541662D01*
X168876534Y-91520752D01*
X168780709Y-91513248D01*
X168714724Y-91516663D01*
X168665779Y-91528655D01*
X168643330Y-91541295D01*
X168625859Y-91558694D01*
X168604749Y-91606142D01*
X168595401Y-91690794D01*
X168595061Y-91718066D01*
X168595061Y-92430600D01*
X168343343Y-92430600D01*
X168343343Y-91718066D01*
X168346634Y-91599254D01*
X168357762Y-91503218D01*
X168370533Y-91450540D01*
X168388229Y-91406442D01*
X168407259Y-91375623D01*
X168430475Y-91349979D01*
X168487386Y-91314096D01*
X168568979Y-91291880D01*
X168712405Y-91282747D01*
X168807065Y-91286169D01*
X168880120Y-91298211D01*
X168916640Y-91311233D01*
X168947582Y-91329269D01*
X168992984Y-91376921D01*
X169033379Y-91455395D01*
X169040988Y-91474816D01*
X169051689Y-91474816D01*
X169051689Y-91304150D01*
X169271396Y-91304150D01*
X169271396Y-92430600D01*
G37*
G36*
X168028719Y-91506827D02*
G01*
X167744989Y-91506827D01*
X167744989Y-92072239D01*
X167741695Y-92177611D01*
X167730542Y-92262389D01*
X167717776Y-92308538D01*
X167700090Y-92347010D01*
X167680846Y-92374034D01*
X167657323Y-92396350D01*
X167597847Y-92427714D01*
X167508932Y-92446408D01*
X167388676Y-92452003D01*
X167280351Y-92447362D01*
X167096937Y-92426791D01*
X167077123Y-92424272D01*
X167077123Y-92195911D01*
X167213171Y-92214906D01*
X167307624Y-92219454D01*
X167385527Y-92215999D01*
X167440134Y-92203727D01*
X167462386Y-92191599D01*
X167478900Y-92175089D01*
X167496699Y-92131205D01*
X167501740Y-92065818D01*
X167501740Y-91506827D01*
X167130537Y-91506827D01*
X167130537Y-91304150D01*
X167497459Y-91304150D01*
X167497459Y-90971287D01*
X167742849Y-91073649D01*
X167742849Y-91304150D01*
X167966836Y-91304150D01*
X168028719Y-91506827D01*
G37*
G36*
X166357704Y-91285974D02*
G01*
X166446722Y-91296646D01*
X166501618Y-91309796D01*
X166549256Y-91328149D01*
X166584597Y-91348404D01*
X166615240Y-91373227D01*
X166661509Y-91434192D01*
X166694855Y-91519108D01*
X166716900Y-91643455D01*
X166726196Y-91837175D01*
X166726300Y-91865281D01*
X166723058Y-92003238D01*
X166712276Y-92118766D01*
X166699274Y-92187752D01*
X166681175Y-92247103D01*
X166661683Y-92289867D01*
X166637897Y-92326684D01*
X166611987Y-92355577D01*
X166581925Y-92380055D01*
X166507961Y-92417046D01*
X166404828Y-92441107D01*
X166251415Y-92451735D01*
X166216350Y-92452003D01*
X166105634Y-92448709D01*
X166015977Y-92437569D01*
X165966164Y-92424688D01*
X165923972Y-92406809D01*
X165893337Y-92387109D01*
X165867221Y-92362965D01*
X165827303Y-92301438D01*
X165796817Y-92209039D01*
X165781125Y-92125560D01*
X166017953Y-92125560D01*
X166036081Y-92167937D01*
X166059294Y-92197816D01*
X166103912Y-92221388D01*
X166180310Y-92231491D01*
X166220630Y-92232203D01*
X166300503Y-92228857D01*
X166362810Y-92217346D01*
X166394664Y-92204581D01*
X166420737Y-92186924D01*
X166454628Y-92141644D01*
X166476477Y-92070261D01*
X166487330Y-91971924D01*
X165766235Y-91971924D01*
X165765763Y-91808249D01*
X165767356Y-91779948D01*
X166000924Y-91779948D01*
X166485190Y-91779948D01*
X166478383Y-91685055D01*
X166464243Y-91612871D01*
X166450510Y-91577750D01*
X166432362Y-91549851D01*
X166412731Y-91531057D01*
X166389019Y-91516658D01*
X166324809Y-91498792D01*
X166241940Y-91493986D01*
X166172317Y-91497321D01*
X166117341Y-91508758D01*
X166088393Y-91521699D01*
X166064523Y-91539659D01*
X166032595Y-91587029D01*
X166011590Y-91663990D01*
X166000924Y-91779948D01*
X165767356Y-91779948D01*
X165773460Y-91671515D01*
X165784561Y-91590527D01*
X165800975Y-91520944D01*
X165818997Y-91471353D01*
X165841345Y-91428651D01*
X165865416Y-91395743D01*
X165893463Y-91367752D01*
X165960667Y-91326016D01*
X166051442Y-91298346D01*
X166181785Y-91284161D01*
X166252642Y-91282747D01*
X166357704Y-91285974D01*
G37*
G36*
X165379027Y-92430600D02*
G01*
X165137918Y-92430600D01*
X165137918Y-91833270D01*
X165134240Y-91780972D01*
X165120407Y-91733070D01*
X165072929Y-91649472D01*
X165052585Y-91619891D01*
X165010931Y-91567423D01*
X164970839Y-91535005D01*
X164914117Y-91516728D01*
X164854188Y-91513248D01*
X164798609Y-91516763D01*
X164758684Y-91529455D01*
X164740123Y-91543001D01*
X164724587Y-91561835D01*
X164694224Y-91630593D01*
X164463723Y-91572991D01*
X164481935Y-91493577D01*
X164505167Y-91430265D01*
X164525071Y-91395457D01*
X164549100Y-91366847D01*
X164604650Y-91329473D01*
X164683608Y-91306566D01*
X164809858Y-91296065D01*
X164854188Y-91295589D01*
X164938228Y-91299001D01*
X165004547Y-91310972D01*
X165039521Y-91324320D01*
X165069924Y-91342917D01*
X165117989Y-91393931D01*
X165165793Y-91481299D01*
X165174210Y-91500406D01*
X165184911Y-91500406D01*
X165165742Y-91304150D01*
X165379027Y-91304150D01*
X165379027Y-92430600D01*
G37*
G36*
X162874411Y-92430600D02*
G01*
X161910066Y-92430600D01*
X161910066Y-92198051D01*
X162567231Y-92198051D01*
X162567231Y-92187443D01*
X162358714Y-91998438D01*
X162214941Y-91855359D01*
X162085012Y-91709504D01*
X162020723Y-91629309D01*
X161978440Y-91560570D01*
X161961401Y-91519185D01*
X161950330Y-91476082D01*
X161942078Y-91366033D01*
X161945334Y-91266559D01*
X161956216Y-91183972D01*
X161969235Y-91135534D01*
X161987360Y-91094152D01*
X162007350Y-91063981D01*
X162031851Y-91038313D01*
X162093386Y-91000302D01*
X162182731Y-90974453D01*
X162321207Y-90960352D01*
X162420016Y-90958445D01*
X162542276Y-90961723D01*
X162642526Y-90972758D01*
X162699398Y-90985662D01*
X162747707Y-91003588D01*
X162782248Y-91022998D01*
X162811608Y-91046716D01*
X162854420Y-91104563D01*
X162884082Y-91185994D01*
X162902776Y-91309396D01*
X162906422Y-91363893D01*
X162650424Y-91363893D01*
X162641537Y-91302621D01*
X162625440Y-91256918D01*
X162610452Y-91235329D01*
X162590857Y-91218538D01*
X162537998Y-91197963D01*
X162444036Y-91189165D01*
X162420016Y-91188946D01*
X162334770Y-91192358D01*
X162273166Y-91204332D01*
X162246454Y-91216504D01*
X162226096Y-91233122D01*
X162203366Y-91275357D01*
X162194123Y-91345986D01*
X162193889Y-91363893D01*
X162197378Y-91418473D01*
X162209896Y-91464002D01*
X162249832Y-91529804D01*
X162281362Y-91568710D01*
X162402205Y-91705561D01*
X162527117Y-91831513D01*
X162779563Y-92054583D01*
X162874411Y-92134121D01*
X162874411Y-92430600D01*
G37*
G36*
X161178445Y-91535862D02*
G01*
X161211596Y-91548057D01*
X161226497Y-91561180D01*
X161237678Y-91579368D01*
X161251073Y-91637381D01*
X161254111Y-91713785D01*
X161250553Y-91794948D01*
X161237559Y-91848464D01*
X161225619Y-91867422D01*
X161209507Y-91880797D01*
X161165242Y-91893627D01*
X161132486Y-91895152D01*
X161086560Y-91891709D01*
X161053417Y-91879514D01*
X161038508Y-91866386D01*
X161027317Y-91848190D01*
X161013905Y-91790163D01*
X161010861Y-91713785D01*
X161014412Y-91632766D01*
X161027360Y-91579287D01*
X161039289Y-91560266D01*
X161055388Y-91546844D01*
X161099565Y-91533964D01*
X161132486Y-91532418D01*
X161178445Y-91535862D01*
G37*
G36*
X161250904Y-90961780D02*
G01*
X161344688Y-90973214D01*
X161395643Y-90986197D01*
X161439079Y-91004229D01*
X161471041Y-91024201D01*
X161498673Y-91048731D01*
X161542595Y-91111870D01*
X161579388Y-91207951D01*
X161599723Y-91289168D01*
X161626240Y-91459781D01*
X161639959Y-91691264D01*
X161640295Y-91732955D01*
X161637139Y-91856668D01*
X161626954Y-91976267D01*
X161601863Y-92119139D01*
X161576379Y-92211838D01*
X161547026Y-92286390D01*
X161523569Y-92327663D01*
X161496378Y-92361945D01*
X161468746Y-92386778D01*
X161437080Y-92407031D01*
X161358706Y-92435543D01*
X161242692Y-92451201D01*
X161134626Y-92454143D01*
X161016875Y-92450808D01*
X160922001Y-92439374D01*
X160870556Y-92426406D01*
X160826742Y-92408399D01*
X160794570Y-92388487D01*
X160766782Y-92364039D01*
X160722739Y-92301253D01*
X160685966Y-92205924D01*
X160665249Y-92123420D01*
X160635784Y-91927857D01*
X160624894Y-91713785D01*
X160876487Y-91713785D01*
X160887315Y-91911145D01*
X160908499Y-92046648D01*
X160926505Y-92114291D01*
X160949342Y-92163371D01*
X160967399Y-92185681D01*
X160989377Y-92202515D01*
X161044964Y-92221744D01*
X161134626Y-92227922D01*
X161208589Y-92224441D01*
X161262839Y-92211980D01*
X161287417Y-92199087D01*
X161307348Y-92181323D01*
X161335728Y-92131300D01*
X161356566Y-92055116D01*
X161379242Y-91897204D01*
X161388577Y-91707364D01*
X161376687Y-91493538D01*
X161356566Y-91363893D01*
X161338257Y-91294980D01*
X161315117Y-91245754D01*
X161297227Y-91224232D01*
X161275439Y-91208144D01*
X161219724Y-91190022D01*
X161134626Y-91184666D01*
X161060471Y-91188186D01*
X161005692Y-91200920D01*
X160980915Y-91214010D01*
X160960616Y-91232067D01*
X160931198Y-91283058D01*
X160908499Y-91363893D01*
X160885276Y-91526627D01*
X160876487Y-91713785D01*
X160624894Y-91713785D01*
X160624676Y-91709504D01*
X160636940Y-91478331D01*
X160665249Y-91293449D01*
X160688711Y-91200383D01*
X160716562Y-91125615D01*
X160738934Y-91084928D01*
X160765231Y-91051049D01*
X160792200Y-91026465D01*
X160823341Y-91006341D01*
X160901194Y-90977770D01*
X161017504Y-90961748D01*
X161134626Y-90958445D01*
X161250904Y-90961780D01*
G37*
G36*
X160316473Y-92430600D02*
G01*
X159352128Y-92430600D01*
X159352128Y-92198051D01*
X160009294Y-92198051D01*
X160009294Y-92187443D01*
X159800776Y-91998438D01*
X159657003Y-91855359D01*
X159527075Y-91709504D01*
X159462785Y-91629309D01*
X159420502Y-91560570D01*
X159403464Y-91519185D01*
X159392392Y-91476082D01*
X159384140Y-91366033D01*
X159387396Y-91266559D01*
X159398279Y-91183972D01*
X159411297Y-91135534D01*
X159429422Y-91094152D01*
X159449412Y-91063981D01*
X159473913Y-91038313D01*
X159535448Y-91000302D01*
X159624793Y-90974453D01*
X159763269Y-90960352D01*
X159862078Y-90958445D01*
X159984338Y-90961723D01*
X160084588Y-90972758D01*
X160141460Y-90985662D01*
X160189769Y-91003588D01*
X160224310Y-91022998D01*
X160253671Y-91046716D01*
X160296483Y-91104563D01*
X160326144Y-91185994D01*
X160344838Y-91309396D01*
X160348485Y-91363893D01*
X160092486Y-91363893D01*
X160083599Y-91302621D01*
X160067502Y-91256918D01*
X160052514Y-91235329D01*
X160032919Y-91218538D01*
X159980061Y-91197963D01*
X159886099Y-91189165D01*
X159862078Y-91188946D01*
X159776832Y-91192358D01*
X159715229Y-91204332D01*
X159688517Y-91216504D01*
X159668159Y-91233122D01*
X159645429Y-91275357D01*
X159636185Y-91345986D01*
X159635951Y-91363893D01*
X159639441Y-91418473D01*
X159651958Y-91464002D01*
X159691894Y-91529804D01*
X159723424Y-91568710D01*
X159844267Y-91705561D01*
X159969179Y-91831513D01*
X160221625Y-92054583D01*
X160316473Y-92134121D01*
X160316473Y-92430600D01*
G37*
G36*
X158678948Y-91088745D02*
G01*
X158792949Y-91205547D01*
X158858795Y-91282486D01*
X158913476Y-91356661D01*
X158952605Y-91420125D01*
X158984575Y-91483826D01*
X159027837Y-91609959D01*
X159051744Y-91753523D01*
X159058907Y-91922883D01*
X159055664Y-92050103D01*
X159044871Y-92156123D01*
X159031907Y-92218897D01*
X159013872Y-92272668D01*
X158994391Y-92311334D01*
X158970611Y-92344433D01*
X158944382Y-92370504D01*
X158913897Y-92392370D01*
X158837176Y-92425213D01*
X158727041Y-92445488D01*
X158576688Y-92452003D01*
X158457623Y-92448759D01*
X158358415Y-92437966D01*
X158299643Y-92424990D01*
X158249313Y-92406936D01*
X158212988Y-92387339D01*
X158181926Y-92363397D01*
X158136669Y-92305623D01*
X158105636Y-92226147D01*
X158086877Y-92109990D01*
X158081800Y-91971924D01*
X158329158Y-91971924D01*
X158332521Y-92058326D01*
X158344150Y-92124056D01*
X158356635Y-92155758D01*
X158373812Y-92181004D01*
X158416771Y-92211478D01*
X158483704Y-92228076D01*
X158565987Y-92232203D01*
X158645577Y-92228869D01*
X158707136Y-92217438D01*
X158738007Y-92204859D01*
X158762757Y-92187506D01*
X158792932Y-92143785D01*
X158809092Y-92075760D01*
X158811377Y-91961222D01*
X158804539Y-91880878D01*
X158790218Y-91819609D01*
X158776258Y-91789774D01*
X158757751Y-91766013D01*
X158711714Y-91736974D01*
X158639489Y-91721373D01*
X158561799Y-91718066D01*
X158486398Y-91721438D01*
X158428514Y-91733136D01*
X158400138Y-91745830D01*
X158377363Y-91763348D01*
X158348940Y-91808655D01*
X158333033Y-91882083D01*
X158329158Y-91971924D01*
X158081800Y-91971924D01*
X158081721Y-91969784D01*
X158084996Y-91846227D01*
X158096013Y-91745316D01*
X158108845Y-91688549D01*
X158126648Y-91640651D01*
X158145784Y-91606901D01*
X158169127Y-91578527D01*
X158225572Y-91538390D01*
X158304484Y-91512467D01*
X158423392Y-91499418D01*
X158484935Y-91498266D01*
X158649527Y-91502251D01*
X158699313Y-91508364D01*
X158732654Y-91518230D01*
X158750137Y-91529349D01*
X158761599Y-91543749D01*
X158764476Y-91549447D01*
X158777225Y-91549447D01*
X158759549Y-91508345D01*
X158732759Y-91464631D01*
X158646595Y-91364059D01*
X158461624Y-91191424D01*
X158190504Y-90958445D01*
X158538256Y-90958445D01*
X158678948Y-91088745D01*
G37*
G36*
X179742196Y-94611156D02*
G01*
X179741386Y-94704717D01*
X179732616Y-94783194D01*
X179720754Y-94830221D01*
X179703568Y-94870734D01*
X179684115Y-94900678D01*
X179659961Y-94926393D01*
X179598305Y-94965257D01*
X179507866Y-94992629D01*
X179367725Y-95008857D01*
X179225918Y-95012323D01*
X179087920Y-95009051D01*
X178974873Y-94998061D01*
X178910901Y-94985228D01*
X178856781Y-94967420D01*
X178818760Y-94948418D01*
X178786646Y-94925265D01*
X178761872Y-94899909D01*
X178741464Y-94870482D01*
X178711904Y-94796347D01*
X178695486Y-94688702D01*
X178692518Y-94596267D01*
X178695760Y-94506733D01*
X178706542Y-94430189D01*
X178719987Y-94381895D01*
X178738840Y-94339026D01*
X178760552Y-94305096D01*
X178787406Y-94274546D01*
X178857832Y-94222152D01*
X178963688Y-94174566D01*
X179132911Y-94125722D01*
X179202468Y-94109767D01*
X179317991Y-94080837D01*
X179398457Y-94050789D01*
X179431400Y-94031201D01*
X179455489Y-94009099D01*
X179479466Y-93962869D01*
X179486197Y-93902810D01*
X179482879Y-93854988D01*
X179471565Y-93817654D01*
X179458408Y-93797821D01*
X179440069Y-93781858D01*
X179386408Y-93760345D01*
X179286582Y-93748669D01*
X179206748Y-93747126D01*
X179099684Y-93750598D01*
X179028284Y-93762989D01*
X179002040Y-93774526D01*
X178983284Y-93790055D01*
X178965229Y-93828298D01*
X178961358Y-93860190D01*
X178718108Y-93860190D01*
X178723235Y-93778374D01*
X178735616Y-93710143D01*
X178749709Y-93669336D01*
X178768869Y-93634415D01*
X178790277Y-93608346D01*
X178816417Y-93586218D01*
X178884453Y-93552717D01*
X178987405Y-93530175D01*
X179154135Y-93519308D01*
X179215216Y-93518765D01*
X179354091Y-93522053D01*
X179466782Y-93533157D01*
X179528990Y-93545929D01*
X179581251Y-93563627D01*
X179617568Y-93582434D01*
X179647989Y-93605336D01*
X179690200Y-93659648D01*
X179716983Y-93733877D01*
X179730375Y-93843503D01*
X179731587Y-93900669D01*
X179728350Y-93981359D01*
X179717598Y-94050593D01*
X179704076Y-94094793D01*
X179685089Y-94134167D01*
X179662913Y-94165825D01*
X179635411Y-94194440D01*
X179561686Y-94244653D01*
X179448032Y-94291623D01*
X179261162Y-94341918D01*
X179210936Y-94353017D01*
X179107115Y-94379292D01*
X179032371Y-94408274D01*
X179000263Y-94428162D01*
X178975864Y-94451136D01*
X178949042Y-94501334D01*
X178938308Y-94573915D01*
X178937908Y-94596267D01*
X178941242Y-94653923D01*
X178952670Y-94698580D01*
X178965572Y-94721514D01*
X178983467Y-94739943D01*
X179033037Y-94763966D01*
X179120210Y-94777318D01*
X179208796Y-94779774D01*
X179317989Y-94776318D01*
X179396669Y-94764034D01*
X179429956Y-94751863D01*
X179455665Y-94735279D01*
X179484752Y-94694988D01*
X179499426Y-94632268D01*
X179501179Y-94611156D01*
X179742196Y-94611156D01*
G37*
G36*
X177477572Y-93864470D02*
G01*
X177729290Y-93864470D01*
X177729290Y-94446911D01*
X177732660Y-94558323D01*
X177744342Y-94642995D01*
X177756724Y-94683346D01*
X177773721Y-94715553D01*
X177791983Y-94736894D01*
X177814226Y-94753494D01*
X177872420Y-94774408D01*
X177968259Y-94781915D01*
X178034170Y-94778503D01*
X178083083Y-94766532D01*
X178105560Y-94753896D01*
X178123054Y-94736504D01*
X178144191Y-94689090D01*
X178153561Y-94604548D01*
X178153907Y-94577097D01*
X178153907Y-93864470D01*
X178405625Y-93864470D01*
X178405625Y-94577097D01*
X178402332Y-94695954D01*
X178391197Y-94792012D01*
X178378423Y-94844658D01*
X178360725Y-94888727D01*
X178341693Y-94919525D01*
X178318475Y-94945151D01*
X178261547Y-94981009D01*
X178179910Y-95003209D01*
X178036562Y-95012323D01*
X177941902Y-95008901D01*
X177868847Y-94996859D01*
X177832327Y-94983837D01*
X177801386Y-94965801D01*
X177755984Y-94918148D01*
X177715588Y-94839675D01*
X177707980Y-94820254D01*
X177697278Y-94820254D01*
X177697278Y-94990920D01*
X177477572Y-94990920D01*
X177477572Y-93864470D01*
G37*
G36*
X177069054Y-94990920D02*
G01*
X176827944Y-94990920D01*
X176827944Y-94393590D01*
X176824267Y-94341292D01*
X176810433Y-94293390D01*
X176762956Y-94209792D01*
X176742612Y-94180211D01*
X176700957Y-94127743D01*
X176660865Y-94095325D01*
X176604143Y-94077048D01*
X176544215Y-94073568D01*
X176488635Y-94077083D01*
X176448711Y-94089775D01*
X176430149Y-94103321D01*
X176414614Y-94122155D01*
X176384251Y-94190913D01*
X176153750Y-94133311D01*
X176171962Y-94053897D01*
X176195194Y-93990585D01*
X176215098Y-93955777D01*
X176239127Y-93927167D01*
X176294677Y-93889793D01*
X176373634Y-93866886D01*
X176499884Y-93856385D01*
X176544215Y-93855909D01*
X176628254Y-93859321D01*
X176694574Y-93871292D01*
X176729547Y-93884640D01*
X176759951Y-93903237D01*
X176808016Y-93954251D01*
X176855819Y-94041619D01*
X176864236Y-94060726D01*
X176874938Y-94060726D01*
X176855768Y-93864470D01*
X177069054Y-93864470D01*
X177069054Y-94990920D01*
G37*
G36*
X175489793Y-93846294D02*
G01*
X175578811Y-93856966D01*
X175633707Y-93870116D01*
X175681345Y-93888469D01*
X175716686Y-93908724D01*
X175747328Y-93933547D01*
X175793598Y-93994512D01*
X175826943Y-94079428D01*
X175848989Y-94203775D01*
X175858285Y-94397495D01*
X175858388Y-94425601D01*
X175855147Y-94563558D01*
X175844365Y-94679086D01*
X175831363Y-94748072D01*
X175813264Y-94807423D01*
X175793772Y-94850187D01*
X175769986Y-94887004D01*
X175744076Y-94915897D01*
X175714014Y-94940375D01*
X175640050Y-94977366D01*
X175536917Y-95001427D01*
X175383504Y-95012055D01*
X175348439Y-95012323D01*
X175237723Y-95009029D01*
X175148066Y-94997889D01*
X175098253Y-94985008D01*
X175056061Y-94967129D01*
X175025426Y-94947429D01*
X174999310Y-94923285D01*
X174959391Y-94861758D01*
X174928906Y-94769359D01*
X174913213Y-94685880D01*
X175150042Y-94685880D01*
X175168170Y-94728257D01*
X175191383Y-94758136D01*
X175236000Y-94781708D01*
X175312399Y-94791811D01*
X175352719Y-94792523D01*
X175432592Y-94789177D01*
X175494898Y-94777666D01*
X175526753Y-94764901D01*
X175552825Y-94747244D01*
X175586717Y-94701964D01*
X175608565Y-94630581D01*
X175619419Y-94532244D01*
X174898324Y-94532244D01*
X174897852Y-94368569D01*
X174899445Y-94340268D01*
X175133013Y-94340268D01*
X175617279Y-94340268D01*
X175610472Y-94245375D01*
X175596332Y-94173191D01*
X175582599Y-94138070D01*
X175564451Y-94110171D01*
X175544820Y-94091377D01*
X175521108Y-94076978D01*
X175456898Y-94059112D01*
X175374029Y-94054306D01*
X175304406Y-94057641D01*
X175249430Y-94069078D01*
X175220482Y-94082019D01*
X175196612Y-94099979D01*
X175164683Y-94147349D01*
X175143679Y-94224310D01*
X175133013Y-94340268D01*
X174899445Y-94340268D01*
X174905549Y-94231835D01*
X174916650Y-94150847D01*
X174933064Y-94081264D01*
X174951086Y-94031673D01*
X174973434Y-93988971D01*
X174997505Y-93956063D01*
X175025552Y-93928072D01*
X175092756Y-93886336D01*
X175183531Y-93858666D01*
X175313874Y-93844481D01*
X175384731Y-93843067D01*
X175489793Y-93846294D01*
G37*
G36*
X174566578Y-94990920D02*
G01*
X174314860Y-94990920D01*
X174314860Y-94408479D01*
X174311489Y-94297103D01*
X174299808Y-94212457D01*
X174287426Y-94172116D01*
X174270428Y-94139916D01*
X174252164Y-94118579D01*
X174229920Y-94101982D01*
X174171717Y-94081072D01*
X174075891Y-94073568D01*
X174009906Y-94076983D01*
X173960961Y-94088975D01*
X173938512Y-94101615D01*
X173921041Y-94119014D01*
X173899931Y-94166462D01*
X173890583Y-94251114D01*
X173890243Y-94278386D01*
X173890243Y-94990920D01*
X173638525Y-94990920D01*
X173638525Y-94278386D01*
X173641816Y-94159574D01*
X173652944Y-94063538D01*
X173665715Y-94010860D01*
X173683411Y-93966762D01*
X173702441Y-93935943D01*
X173725657Y-93910299D01*
X173782568Y-93874416D01*
X173864161Y-93852200D01*
X174007587Y-93843067D01*
X174102247Y-93846489D01*
X174175302Y-93858531D01*
X174211822Y-93871553D01*
X174242764Y-93889589D01*
X174288166Y-93937241D01*
X174328561Y-94015715D01*
X174336170Y-94035136D01*
X174346871Y-94035136D01*
X174346871Y-93864470D01*
X174566578Y-93864470D01*
X174566578Y-94990920D01*
G37*
G36*
X172606993Y-93977534D02*
G01*
X172617695Y-93977534D01*
X172639621Y-93929951D01*
X172665671Y-93894655D01*
X172687584Y-93876658D01*
X172713926Y-93863140D01*
X172786051Y-93847153D01*
X172884395Y-93843067D01*
X172981946Y-93846296D01*
X173064583Y-93856982D01*
X173115533Y-93870156D01*
X173159740Y-93888549D01*
X173192709Y-93908988D01*
X173221264Y-93934068D01*
X173264719Y-93996593D01*
X173296082Y-94085391D01*
X173316415Y-94218067D01*
X173323901Y-94427741D01*
X173320642Y-94573668D01*
X173309745Y-94694213D01*
X173296862Y-94763865D01*
X173278967Y-94823166D01*
X173259873Y-94865114D01*
X173236609Y-94900829D01*
X173211399Y-94928401D01*
X173182186Y-94951424D01*
X173110215Y-94985284D01*
X173008871Y-95005834D01*
X172873693Y-95012323D01*
X172779958Y-95008888D01*
X172711519Y-94996755D01*
X172680111Y-94984153D01*
X172654383Y-94966838D01*
X172617242Y-94920075D01*
X172596385Y-94875716D01*
X172585683Y-94875716D01*
X172585683Y-94990920D01*
X172357416Y-94990920D01*
X172358189Y-94425601D01*
X172592104Y-94425601D01*
X172595482Y-94545611D01*
X172607217Y-94636768D01*
X172619591Y-94679967D01*
X172636570Y-94714481D01*
X172654634Y-94737202D01*
X172676600Y-94754949D01*
X172732930Y-94777303D01*
X172833214Y-94786102D01*
X172900436Y-94782798D01*
X172954616Y-94771580D01*
X172984461Y-94758540D01*
X173009323Y-94740396D01*
X173042836Y-94692776D01*
X173064704Y-94617179D01*
X173075695Y-94487253D01*
X173076464Y-94425601D01*
X173073128Y-94308950D01*
X173061690Y-94219606D01*
X173049349Y-94175839D01*
X173032398Y-94140793D01*
X173014343Y-94117636D01*
X172992394Y-94099497D01*
X172936374Y-94076550D01*
X172848428Y-94067281D01*
X172833214Y-94067147D01*
X172766127Y-94070446D01*
X172712214Y-94081628D01*
X172682572Y-94094625D01*
X172657948Y-94112700D01*
X172624872Y-94160160D01*
X172603412Y-94235739D01*
X172592785Y-94366525D01*
X172592104Y-94425601D01*
X172358189Y-94425601D01*
X172359556Y-93424964D01*
X172609134Y-93424964D01*
X172606993Y-93977534D01*
G37*
G36*
X171953178Y-94990920D02*
G01*
X171712069Y-94990920D01*
X171712069Y-94393590D01*
X171708391Y-94341292D01*
X171694558Y-94293390D01*
X171647080Y-94209792D01*
X171626736Y-94180211D01*
X171585082Y-94127743D01*
X171544990Y-94095325D01*
X171488268Y-94077048D01*
X171428339Y-94073568D01*
X171372760Y-94077083D01*
X171332835Y-94089775D01*
X171314274Y-94103321D01*
X171298738Y-94122155D01*
X171268375Y-94190913D01*
X171037874Y-94133311D01*
X171056086Y-94053897D01*
X171079318Y-93990585D01*
X171099222Y-93955777D01*
X171123251Y-93927167D01*
X171178801Y-93889793D01*
X171257759Y-93866886D01*
X171384009Y-93856385D01*
X171428339Y-93855909D01*
X171512379Y-93859321D01*
X171578698Y-93871292D01*
X171613672Y-93884640D01*
X171644075Y-93903237D01*
X171692140Y-93954251D01*
X171739944Y-94041619D01*
X171748361Y-94060726D01*
X171759062Y-94060726D01*
X171739893Y-93864470D01*
X171953178Y-93864470D01*
X171953178Y-94990920D01*
G37*
G36*
X170394280Y-93846350D02*
G01*
X170488118Y-93857417D01*
X170539147Y-93870085D01*
X170581484Y-93887608D01*
X170610666Y-93906372D01*
X170634615Y-93929230D01*
X170667140Y-93985290D01*
X170685480Y-94066236D01*
X170689192Y-94193053D01*
X170450222Y-94193053D01*
X170447770Y-94136589D01*
X170436391Y-94095542D01*
X170424033Y-94077254D01*
X170406830Y-94063332D01*
X170356407Y-94046783D01*
X170270995Y-94041557D01*
X170196665Y-94044962D01*
X170141534Y-94056886D01*
X170116335Y-94069375D01*
X170096705Y-94086527D01*
X170073412Y-94131537D01*
X170062619Y-94208159D01*
X170061897Y-94244234D01*
X170061897Y-94297555D01*
X170213393Y-94297555D01*
X170352178Y-94300847D01*
X170464632Y-94311977D01*
X170526451Y-94324745D01*
X170578349Y-94342434D01*
X170614390Y-94361233D01*
X170644563Y-94384125D01*
X170686440Y-94438496D01*
X170713024Y-94513020D01*
X170726322Y-94623531D01*
X170727531Y-94681600D01*
X170724238Y-94771306D01*
X170713103Y-94843814D01*
X170700236Y-94883783D01*
X170682379Y-94917204D01*
X170662517Y-94941167D01*
X170638140Y-94960953D01*
X170574096Y-94989370D01*
X170474302Y-95006090D01*
X170358469Y-95010182D01*
X170259287Y-95006727D01*
X170185624Y-94994455D01*
X170151405Y-94981703D01*
X170123099Y-94964153D01*
X170082740Y-94917775D01*
X170053336Y-94856546D01*
X170042728Y-94856546D01*
X170042728Y-94990920D01*
X169829349Y-94990920D01*
X169829349Y-94476782D01*
X170064038Y-94476782D01*
X170069054Y-94578071D01*
X170081793Y-94656086D01*
X170094913Y-94694830D01*
X170112607Y-94725966D01*
X170131687Y-94746992D01*
X170154835Y-94763449D01*
X170215803Y-94784590D01*
X170320036Y-94792523D01*
X170388916Y-94789023D01*
X170436479Y-94776438D01*
X170455244Y-94764139D01*
X170468973Y-94747384D01*
X170483604Y-94700162D01*
X170486514Y-94647448D01*
X170483120Y-94589213D01*
X170471273Y-94545399D01*
X170458425Y-94524462D01*
X170440662Y-94508000D01*
X170390553Y-94487265D01*
X170298533Y-94477389D01*
X170256013Y-94476782D01*
X170064038Y-94476782D01*
X169829349Y-94476782D01*
X169829349Y-94239953D01*
X169832605Y-94140731D01*
X169843482Y-94058811D01*
X169856437Y-94011200D01*
X169874454Y-93970733D01*
X169894296Y-93941415D01*
X169918601Y-93916628D01*
X169979806Y-93880268D01*
X170069325Y-93856121D01*
X170209836Y-93843999D01*
X170277416Y-93843067D01*
X170394280Y-93846350D01*
G37*
G36*
X168208025Y-94572817D02*
G01*
X168207346Y-94681309D01*
X168198601Y-94771172D01*
X168186910Y-94823502D01*
X168169989Y-94868134D01*
X168151173Y-94900296D01*
X168127887Y-94927648D01*
X168069958Y-94967621D01*
X167987007Y-94994710D01*
X167860475Y-95009858D01*
X167757818Y-95012323D01*
X167642981Y-95009064D01*
X167548061Y-94998166D01*
X167493013Y-94985232D01*
X167446148Y-94967250D01*
X167412530Y-94947725D01*
X167383992Y-94923863D01*
X167342662Y-94865642D01*
X167314937Y-94783922D01*
X167299525Y-94661285D01*
X167297002Y-94562115D01*
X167297002Y-93540168D01*
X167553001Y-93540168D01*
X167553001Y-94553554D01*
X167556377Y-94633127D01*
X167568098Y-94692544D01*
X167580503Y-94720256D01*
X167597537Y-94741952D01*
X167641170Y-94767660D01*
X167712787Y-94780357D01*
X167764239Y-94781915D01*
X167829407Y-94778547D01*
X167878185Y-94766889D01*
X167901338Y-94754320D01*
X167919415Y-94737008D01*
X167941346Y-94690156D01*
X167951462Y-94607707D01*
X167952027Y-94572817D01*
X168208025Y-94572817D01*
G37*
G36*
X166589865Y-94990920D02*
G01*
X166265563Y-94990920D01*
X166265563Y-94666618D01*
X166589865Y-94666618D01*
X166589865Y-94990920D01*
G37*
G36*
X164135116Y-93529734D02*
G01*
X164296487Y-93540168D01*
X164296487Y-94990920D01*
X164044676Y-94990920D01*
X164044676Y-94449051D01*
X163884712Y-94449051D01*
X163752706Y-94445787D01*
X163643941Y-94434852D01*
X163581496Y-94421967D01*
X163528437Y-94404070D01*
X163490824Y-94384870D01*
X163458909Y-94361453D01*
X163434051Y-94335668D01*
X163413454Y-94305710D01*
X163383182Y-94229925D01*
X163365743Y-94119767D01*
X163361921Y-94009545D01*
X163362292Y-93996704D01*
X163613732Y-93996704D01*
X163617078Y-94063780D01*
X163628595Y-94116311D01*
X163641489Y-94143378D01*
X163659365Y-94165420D01*
X163706715Y-94194083D01*
X163784662Y-94211167D01*
X163903882Y-94216503D01*
X164044676Y-94216503D01*
X164044676Y-93759875D01*
X163940174Y-93759875D01*
X163832111Y-93763238D01*
X163749776Y-93774866D01*
X163710233Y-93787259D01*
X163678649Y-93804279D01*
X163657657Y-93822628D01*
X163641341Y-93844990D01*
X163620806Y-93903786D01*
X163613732Y-93996704D01*
X163362292Y-93996704D01*
X163365360Y-93890671D01*
X163377525Y-93792040D01*
X163390999Y-93739286D01*
X163409787Y-93693550D01*
X163430299Y-93660092D01*
X163455522Y-93631075D01*
X163518061Y-93587190D01*
X163606802Y-93555515D01*
X163739348Y-93534912D01*
X163946595Y-93527326D01*
X164135116Y-93529734D01*
G37*
G36*
X163000396Y-94990920D02*
G01*
X162759287Y-94990920D01*
X162759287Y-94393590D01*
X162755609Y-94341292D01*
X162741776Y-94293390D01*
X162694298Y-94209792D01*
X162673954Y-94180211D01*
X162632300Y-94127743D01*
X162592207Y-94095325D01*
X162535486Y-94077048D01*
X162475557Y-94073568D01*
X162419978Y-94077083D01*
X162380053Y-94089775D01*
X162361491Y-94103321D01*
X162345956Y-94122155D01*
X162315593Y-94190913D01*
X162085092Y-94133311D01*
X162103304Y-94053897D01*
X162126536Y-93990585D01*
X162146440Y-93955777D01*
X162170469Y-93927167D01*
X162226019Y-93889793D01*
X162304977Y-93866886D01*
X162431226Y-93856385D01*
X162475557Y-93855909D01*
X162559597Y-93859321D01*
X162625916Y-93871292D01*
X162660890Y-93884640D01*
X162691293Y-93903237D01*
X162739358Y-93954251D01*
X162787162Y-94041619D01*
X162795579Y-94060726D01*
X162806280Y-94060726D01*
X162787111Y-93864470D01*
X163000396Y-93864470D01*
X163000396Y-94990920D01*
G37*
G36*
X161421136Y-93846294D02*
G01*
X161510153Y-93856966D01*
X161565049Y-93870116D01*
X161612687Y-93888469D01*
X161648029Y-93908724D01*
X161678671Y-93933547D01*
X161724940Y-93994512D01*
X161758286Y-94079428D01*
X161780331Y-94203775D01*
X161789628Y-94397495D01*
X161789731Y-94425601D01*
X161786489Y-94563558D01*
X161775707Y-94679086D01*
X161762705Y-94748072D01*
X161744606Y-94807423D01*
X161725115Y-94850187D01*
X161701329Y-94887004D01*
X161675418Y-94915897D01*
X161645356Y-94940375D01*
X161571392Y-94977366D01*
X161468259Y-95001427D01*
X161314846Y-95012055D01*
X161279781Y-95012323D01*
X161169065Y-95009029D01*
X161079408Y-94997889D01*
X161029595Y-94985008D01*
X160987403Y-94967129D01*
X160956768Y-94947429D01*
X160930652Y-94923285D01*
X160890734Y-94861758D01*
X160860248Y-94769359D01*
X160844556Y-94685880D01*
X161081384Y-94685880D01*
X161099512Y-94728257D01*
X161122726Y-94758136D01*
X161167343Y-94781708D01*
X161243741Y-94791811D01*
X161284062Y-94792523D01*
X161363934Y-94789177D01*
X161426241Y-94777666D01*
X161458095Y-94764901D01*
X161484168Y-94747244D01*
X161518060Y-94701964D01*
X161539908Y-94630581D01*
X161550762Y-94532244D01*
X160829667Y-94532244D01*
X160829194Y-94368569D01*
X160830787Y-94340268D01*
X161064355Y-94340268D01*
X161548621Y-94340268D01*
X161541814Y-94245375D01*
X161527674Y-94173191D01*
X161513941Y-94138070D01*
X161495793Y-94110171D01*
X161476163Y-94091377D01*
X161452450Y-94076978D01*
X161388240Y-94059112D01*
X161305372Y-94054306D01*
X161235748Y-94057641D01*
X161180772Y-94069078D01*
X161151824Y-94082019D01*
X161127954Y-94099979D01*
X161096026Y-94147349D01*
X161075021Y-94224310D01*
X161064355Y-94340268D01*
X160830787Y-94340268D01*
X160836891Y-94231835D01*
X160847992Y-94150847D01*
X160864406Y-94081264D01*
X160882428Y-94031673D01*
X160904776Y-93988971D01*
X160928847Y-93956063D01*
X160956894Y-93928072D01*
X161024098Y-93886336D01*
X161114874Y-93858666D01*
X161245216Y-93844481D01*
X161316073Y-93843067D01*
X161421136Y-93846294D01*
G37*
G36*
X160502201Y-94670898D02*
G01*
X160502146Y-94754837D01*
X160493856Y-94824440D01*
X160482374Y-94864962D01*
X160465553Y-94899569D01*
X160446205Y-94925109D01*
X160422052Y-94946770D01*
X160358051Y-94979449D01*
X160259329Y-95001435D01*
X160096986Y-95011884D01*
X160043525Y-95012323D01*
X159905822Y-95009025D01*
X159796084Y-94997852D01*
X159737629Y-94985247D01*
X159689256Y-94967833D01*
X159656315Y-94949433D01*
X159629225Y-94927067D01*
X159592695Y-94873620D01*
X159571148Y-94798752D01*
X159563446Y-94683740D01*
X159566713Y-94605243D01*
X159577670Y-94539592D01*
X159590971Y-94500194D01*
X159609573Y-94465934D01*
X159631140Y-94439284D01*
X159657844Y-94415941D01*
X159730412Y-94376889D01*
X159845771Y-94343484D01*
X160005093Y-94316725D01*
X160122383Y-94296574D01*
X160195422Y-94272092D01*
X160217692Y-94256922D01*
X160232799Y-94238704D01*
X160245401Y-94195377D01*
X160246202Y-94175930D01*
X160242833Y-94136148D01*
X160231160Y-94106107D01*
X160217708Y-94090972D01*
X160198898Y-94079217D01*
X160138218Y-94063861D01*
X160022215Y-94058586D01*
X159926817Y-94062187D01*
X159866605Y-94075485D01*
X159846989Y-94087141D01*
X159833385Y-94102749D01*
X159820401Y-94145147D01*
X159819445Y-94154621D01*
X159584756Y-94154621D01*
X159589348Y-94075435D01*
X159601401Y-94010306D01*
X159615103Y-93972662D01*
X159633849Y-93940785D01*
X159654960Y-93917197D01*
X159680825Y-93897456D01*
X159749728Y-93868003D01*
X159857661Y-93849416D01*
X160026403Y-93843067D01*
X160160405Y-93846378D01*
X160266823Y-93857644D01*
X160322817Y-93870254D01*
X160369064Y-93887670D01*
X160400514Y-93906099D01*
X160426297Y-93928511D01*
X160461005Y-93982518D01*
X160481099Y-94059189D01*
X160487312Y-94163182D01*
X160484040Y-94240942D01*
X160473050Y-94305612D01*
X160459794Y-94343973D01*
X160441267Y-94377177D01*
X160419775Y-94402896D01*
X160393163Y-94425299D01*
X160320384Y-94462583D01*
X160203383Y-94494146D01*
X160071256Y-94515215D01*
X159958025Y-94533092D01*
X159881329Y-94555014D01*
X159851658Y-94570570D01*
X159830520Y-94589192D01*
X159810741Y-94630339D01*
X159806696Y-94673038D01*
X159810092Y-94714574D01*
X159821955Y-94745814D01*
X159835406Y-94761240D01*
X159854193Y-94773238D01*
X159914325Y-94788937D01*
X160037104Y-94794663D01*
X160137007Y-94791084D01*
X160203380Y-94777940D01*
X160226910Y-94766039D01*
X160243946Y-94750013D01*
X160261266Y-94708759D01*
X160265372Y-94670898D01*
X160502201Y-94670898D01*
G37*
G36*
X159255243Y-94067147D02*
G01*
X158971514Y-94067147D01*
X158971514Y-94632559D01*
X158968219Y-94737931D01*
X158957066Y-94822709D01*
X158944300Y-94868858D01*
X158926615Y-94907330D01*
X158907370Y-94934354D01*
X158883847Y-94956670D01*
X158824371Y-94988034D01*
X158735457Y-95006728D01*
X158615200Y-95012323D01*
X158506876Y-95007682D01*
X158323461Y-94987111D01*
X158303647Y-94984592D01*
X158303647Y-94756231D01*
X158439696Y-94775226D01*
X158534148Y-94779774D01*
X158612051Y-94776319D01*
X158666659Y-94764047D01*
X158688910Y-94751919D01*
X158705425Y-94735409D01*
X158723224Y-94691525D01*
X158728264Y-94626138D01*
X158728264Y-94067147D01*
X158357062Y-94067147D01*
X158357062Y-93864470D01*
X158723984Y-93864470D01*
X158723984Y-93531607D01*
X158969374Y-93633969D01*
X158969374Y-93864470D01*
X159193361Y-93864470D01*
X159255243Y-94067147D01*
G37*
G36*
X157589783Y-93846294D02*
G01*
X157687162Y-93856966D01*
X157747169Y-93870099D01*
X157799266Y-93888422D01*
X157837709Y-93908501D01*
X157871087Y-93933078D01*
X157921071Y-93992468D01*
X157957017Y-94073376D01*
X157981259Y-94189097D01*
X157992830Y-94364590D01*
X157993397Y-94425601D01*
X157990162Y-94562107D01*
X157979426Y-94676675D01*
X157966415Y-94745611D01*
X157948299Y-94804999D01*
X157928759Y-94847915D01*
X157904911Y-94884913D01*
X157878916Y-94914012D01*
X157848756Y-94938707D01*
X157774584Y-94976150D01*
X157671328Y-95000704D01*
X157518187Y-95011920D01*
X157474886Y-95012323D01*
X157361621Y-95009106D01*
X157265431Y-94998499D01*
X157205625Y-94985366D01*
X157153656Y-94967043D01*
X157115201Y-94946927D01*
X157081786Y-94922308D01*
X157031646Y-94862776D01*
X156995509Y-94781693D01*
X156971056Y-94665836D01*
X156959247Y-94490472D01*
X156958608Y-94425601D01*
X157206046Y-94425601D01*
X157209372Y-94537660D01*
X157220746Y-94624658D01*
X157233211Y-94668496D01*
X157250375Y-94703999D01*
X157268795Y-94727899D01*
X157291229Y-94746906D01*
X157348525Y-94771778D01*
X157437548Y-94783344D01*
X157474886Y-94784055D01*
X157549987Y-94780756D01*
X157610440Y-94769574D01*
X157643608Y-94756639D01*
X157671224Y-94738669D01*
X157707867Y-94692666D01*
X157731664Y-94622141D01*
X157744365Y-94505024D01*
X157745866Y-94425601D01*
X157742532Y-94314998D01*
X157731102Y-94229073D01*
X157718604Y-94185879D01*
X157701388Y-94150851D01*
X157682869Y-94127200D01*
X157660299Y-94108370D01*
X157602416Y-94083632D01*
X157512168Y-94072120D01*
X157474886Y-94071428D01*
X157400466Y-94074720D01*
X157340528Y-94085852D01*
X157307492Y-94098776D01*
X157279997Y-94116729D01*
X157243521Y-94162723D01*
X157219890Y-94233280D01*
X157207411Y-94350530D01*
X157206046Y-94425601D01*
X156958608Y-94425601D01*
X156961842Y-94289666D01*
X156972565Y-94175679D01*
X156985562Y-94107128D01*
X157003654Y-94048122D01*
X157023169Y-94005516D01*
X157046982Y-93968819D01*
X157072955Y-93939968D01*
X157103090Y-93915513D01*
X157177321Y-93878472D01*
X157280928Y-93854274D01*
X157435204Y-93843400D01*
X157474886Y-93843067D01*
X157589783Y-93846294D01*
G37*
G36*
X156661013Y-94990920D02*
G01*
X156409296Y-94990920D01*
X156409296Y-94408479D01*
X156405925Y-94297103D01*
X156394243Y-94212457D01*
X156381862Y-94172116D01*
X156364864Y-94139916D01*
X156346600Y-94118579D01*
X156324355Y-94101982D01*
X156266152Y-94081072D01*
X156170326Y-94073568D01*
X156104342Y-94076983D01*
X156055397Y-94088975D01*
X156032948Y-94101615D01*
X156015477Y-94119014D01*
X155994367Y-94166462D01*
X155985019Y-94251114D01*
X155984679Y-94278386D01*
X155984679Y-94990920D01*
X155732961Y-94990920D01*
X155732961Y-94278386D01*
X155736252Y-94159574D01*
X155747379Y-94063538D01*
X155760151Y-94010860D01*
X155777847Y-93966762D01*
X155796877Y-93935943D01*
X155820092Y-93910299D01*
X155877004Y-93874416D01*
X155958597Y-93852200D01*
X156102023Y-93843067D01*
X156196683Y-93846489D01*
X156269738Y-93858531D01*
X156306258Y-93871553D01*
X156337200Y-93889589D01*
X156382601Y-93937241D01*
X156422997Y-94015715D01*
X156430606Y-94035136D01*
X156441307Y-94035136D01*
X156441307Y-93864470D01*
X156661013Y-93864470D01*
X156661013Y-94990920D01*
G37*
G36*
X153352110Y-94609016D02*
G01*
X153364680Y-94669504D01*
X153383414Y-94714666D01*
X153399944Y-94736479D01*
X153420868Y-94753335D01*
X153475986Y-94773718D01*
X153586798Y-94781915D01*
X153646871Y-94778677D01*
X153697286Y-94767925D01*
X153728156Y-94754589D01*
X153754667Y-94735920D01*
X153792806Y-94686086D01*
X153820299Y-94607930D01*
X153838389Y-94479037D01*
X153844937Y-94261263D01*
X153841598Y-94097952D01*
X153830133Y-93971999D01*
X153817787Y-93909954D01*
X153800828Y-93859864D01*
X153783337Y-93827302D01*
X153762177Y-93801294D01*
X153712657Y-93768607D01*
X153643556Y-93752050D01*
X153586798Y-93749266D01*
X153514591Y-93752713D01*
X153460591Y-93764929D01*
X153435268Y-93777830D01*
X153414704Y-93795638D01*
X153386245Y-93844832D01*
X153364858Y-93930540D01*
X153113140Y-93930540D01*
X153124266Y-93827079D01*
X153141696Y-93741713D01*
X153158566Y-93692022D01*
X153180016Y-93649844D01*
X153202529Y-93619250D01*
X153229258Y-93593453D01*
X153294390Y-93555904D01*
X153386642Y-93531399D01*
X153528000Y-93519513D01*
X153586798Y-93518765D01*
X153677642Y-93521873D01*
X153757994Y-93531718D01*
X153815537Y-93545101D01*
X153866892Y-93563786D01*
X153907381Y-93585055D01*
X153943453Y-93611076D01*
X154000638Y-93674784D01*
X154044616Y-93760608D01*
X154077462Y-93879179D01*
X154098528Y-94048240D01*
X154105216Y-94265544D01*
X154101980Y-94439712D01*
X154091241Y-94585783D01*
X154078266Y-94673378D01*
X154060213Y-94748827D01*
X154040970Y-94802815D01*
X154017533Y-94849431D01*
X153992701Y-94885324D01*
X153964022Y-94915985D01*
X153896790Y-94961664D01*
X153808445Y-94992371D01*
X153685235Y-95009386D01*
X153586798Y-95012323D01*
X153467825Y-95009048D01*
X153369989Y-94998037D01*
X153313997Y-94985092D01*
X153266242Y-94967096D01*
X153231734Y-94947484D01*
X153202214Y-94923492D01*
X153158289Y-94864458D01*
X153126588Y-94780604D01*
X153104451Y-94652345D01*
X153100299Y-94609016D01*
X153352110Y-94609016D01*
G37*
G36*
X152521208Y-94990920D02*
G01*
X152196906Y-94990920D01*
X152196906Y-94666618D01*
X152521208Y-94666618D01*
X152521208Y-94990920D01*
G37*
G36*
X149515203Y-94609016D02*
G01*
X149527773Y-94669504D01*
X149546507Y-94714666D01*
X149563037Y-94736479D01*
X149583962Y-94753335D01*
X149639079Y-94773718D01*
X149749891Y-94781915D01*
X149809964Y-94778677D01*
X149860380Y-94767925D01*
X149891250Y-94754589D01*
X149917761Y-94735920D01*
X149955899Y-94686086D01*
X149983392Y-94607930D01*
X150001482Y-94479037D01*
X150008030Y-94261263D01*
X150004691Y-94097952D01*
X149993226Y-93971999D01*
X149980880Y-93909954D01*
X149963922Y-93859864D01*
X149946430Y-93827302D01*
X149925270Y-93801294D01*
X149875750Y-93768607D01*
X149806649Y-93752050D01*
X149749891Y-93749266D01*
X149677685Y-93752713D01*
X149623684Y-93764929D01*
X149598361Y-93777830D01*
X149577797Y-93795638D01*
X149549339Y-93844832D01*
X149527952Y-93930540D01*
X149276234Y-93930540D01*
X149287360Y-93827079D01*
X149304789Y-93741713D01*
X149321660Y-93692022D01*
X149343109Y-93649844D01*
X149365623Y-93619250D01*
X149392352Y-93593453D01*
X149457483Y-93555904D01*
X149549736Y-93531399D01*
X149691093Y-93519513D01*
X149749891Y-93518765D01*
X149840735Y-93521873D01*
X149921087Y-93531718D01*
X149978630Y-93545101D01*
X150029985Y-93563786D01*
X150070475Y-93585055D01*
X150106546Y-93611076D01*
X150163731Y-93674784D01*
X150207709Y-93760608D01*
X150240555Y-93879179D01*
X150261622Y-94048240D01*
X150268309Y-94265544D01*
X150265074Y-94439712D01*
X150254334Y-94585783D01*
X150241360Y-94673378D01*
X150223306Y-94748827D01*
X150204063Y-94802815D01*
X150180626Y-94849431D01*
X150155795Y-94885324D01*
X150127115Y-94915985D01*
X150059883Y-94961664D01*
X149971538Y-94992371D01*
X149848328Y-95009386D01*
X149749891Y-95012323D01*
X149630918Y-95009048D01*
X149533082Y-94998037D01*
X149477090Y-94985092D01*
X149429335Y-94967096D01*
X149394828Y-94947484D01*
X149365307Y-94923492D01*
X149321382Y-94864458D01*
X149289682Y-94780604D01*
X149267544Y-94652345D01*
X149263392Y-94609016D01*
X149515203Y-94609016D01*
G37*
G36*
X148651809Y-93846350D02*
G01*
X148745647Y-93857417D01*
X148796676Y-93870085D01*
X148839013Y-93887608D01*
X148868195Y-93906372D01*
X148892144Y-93929230D01*
X148924669Y-93985290D01*
X148943009Y-94066236D01*
X148946721Y-94193053D01*
X148707751Y-94193053D01*
X148705299Y-94136589D01*
X148693920Y-94095542D01*
X148681562Y-94077254D01*
X148664359Y-94063332D01*
X148613936Y-94046783D01*
X148528525Y-94041557D01*
X148454194Y-94044962D01*
X148399063Y-94056886D01*
X148373864Y-94069375D01*
X148354234Y-94086527D01*
X148330941Y-94131537D01*
X148320148Y-94208159D01*
X148319427Y-94244234D01*
X148319427Y-94297555D01*
X148470923Y-94297555D01*
X148609707Y-94300847D01*
X148722161Y-94311977D01*
X148783980Y-94324745D01*
X148835878Y-94342434D01*
X148871920Y-94361233D01*
X148902092Y-94384125D01*
X148943969Y-94438496D01*
X148970553Y-94513020D01*
X148983851Y-94623531D01*
X148985060Y-94681600D01*
X148981767Y-94771306D01*
X148970632Y-94843814D01*
X148957765Y-94883783D01*
X148939908Y-94917204D01*
X148920046Y-94941167D01*
X148895669Y-94960953D01*
X148831625Y-94989370D01*
X148731831Y-95006090D01*
X148615998Y-95010182D01*
X148516816Y-95006727D01*
X148443153Y-94994455D01*
X148408934Y-94981703D01*
X148380628Y-94964153D01*
X148340269Y-94917775D01*
X148310865Y-94856546D01*
X148300257Y-94856546D01*
X148300257Y-94990920D01*
X148086878Y-94990920D01*
X148086878Y-94476782D01*
X148321567Y-94476782D01*
X148326583Y-94578071D01*
X148339322Y-94656086D01*
X148352442Y-94694830D01*
X148370136Y-94725966D01*
X148389216Y-94746992D01*
X148412364Y-94763449D01*
X148473332Y-94784590D01*
X148577565Y-94792523D01*
X148646445Y-94789023D01*
X148694008Y-94776438D01*
X148712773Y-94764139D01*
X148726502Y-94747384D01*
X148741133Y-94700162D01*
X148744043Y-94647448D01*
X148740649Y-94589213D01*
X148728802Y-94545399D01*
X148715954Y-94524462D01*
X148698191Y-94508000D01*
X148648082Y-94487265D01*
X148556062Y-94477389D01*
X148513542Y-94476782D01*
X148321567Y-94476782D01*
X148086878Y-94476782D01*
X148086878Y-94239953D01*
X148090134Y-94140731D01*
X148101011Y-94058811D01*
X148113966Y-94011200D01*
X148131983Y-93970733D01*
X148151825Y-93941415D01*
X148176130Y-93916628D01*
X148237336Y-93880268D01*
X148326854Y-93856121D01*
X148467365Y-93843999D01*
X148534945Y-93843067D01*
X148651809Y-93846350D01*
G37*
G36*
X147383929Y-93638250D02*
G01*
X147068189Y-93638250D01*
X147068189Y-93335351D01*
X147383929Y-93335351D01*
X147383929Y-93638250D01*
G37*
G36*
X147661331Y-94990920D02*
G01*
X146741746Y-94990920D01*
X146741746Y-94777634D01*
X147072469Y-94777634D01*
X147072469Y-93864470D01*
X147640021Y-93864470D01*
X147640021Y-94077756D01*
X147311438Y-94077756D01*
X147311438Y-94777634D01*
X147661331Y-94777634D01*
X147661331Y-94990920D01*
G37*
G36*
X146429262Y-94990920D02*
G01*
X146177545Y-94990920D01*
X146177545Y-94408479D01*
X146174174Y-94297103D01*
X146162492Y-94212457D01*
X146150110Y-94172116D01*
X146133113Y-94139916D01*
X146114849Y-94118579D01*
X146092604Y-94101982D01*
X146034401Y-94081072D01*
X145938575Y-94073568D01*
X145872591Y-94076983D01*
X145823646Y-94088975D01*
X145801197Y-94101615D01*
X145783726Y-94119014D01*
X145762616Y-94166462D01*
X145753268Y-94251114D01*
X145752928Y-94278386D01*
X145752928Y-94990920D01*
X145501210Y-94990920D01*
X145501210Y-94278386D01*
X145504501Y-94159574D01*
X145515628Y-94063538D01*
X145528400Y-94010860D01*
X145546096Y-93966762D01*
X145565126Y-93935943D01*
X145588341Y-93910299D01*
X145645253Y-93874416D01*
X145726846Y-93852200D01*
X145870272Y-93843067D01*
X145964932Y-93846489D01*
X146037987Y-93858531D01*
X146074507Y-93871553D01*
X146105449Y-93889589D01*
X146150850Y-93937241D01*
X146191246Y-94015715D01*
X146198854Y-94035136D01*
X146209556Y-94035136D01*
X146209556Y-93864470D01*
X146429262Y-93864470D01*
X146429262Y-94990920D01*
G37*
G36*
X144814903Y-93846350D02*
G01*
X144908741Y-93857417D01*
X144959769Y-93870085D01*
X145002106Y-93887608D01*
X145031289Y-93906372D01*
X145055238Y-93929230D01*
X145087762Y-93985290D01*
X145106103Y-94066236D01*
X145109814Y-94193053D01*
X144870845Y-94193053D01*
X144868392Y-94136589D01*
X144857013Y-94095542D01*
X144844655Y-94077254D01*
X144827453Y-94063332D01*
X144777029Y-94046783D01*
X144691618Y-94041557D01*
X144617287Y-94044962D01*
X144562157Y-94056886D01*
X144536958Y-94069375D01*
X144517328Y-94086527D01*
X144494034Y-94131537D01*
X144483242Y-94208159D01*
X144482520Y-94244234D01*
X144482520Y-94297555D01*
X144634016Y-94297555D01*
X144772801Y-94300847D01*
X144885254Y-94311977D01*
X144947073Y-94324745D01*
X144998971Y-94342434D01*
X145035013Y-94361233D01*
X145065185Y-94384125D01*
X145107063Y-94438496D01*
X145133646Y-94513020D01*
X145146945Y-94623531D01*
X145148153Y-94681600D01*
X145144861Y-94771306D01*
X145133725Y-94843814D01*
X145120858Y-94883783D01*
X145103001Y-94917204D01*
X145083140Y-94941167D01*
X145058763Y-94960953D01*
X144994719Y-94989370D01*
X144894925Y-95006090D01*
X144779091Y-95010182D01*
X144679909Y-95006727D01*
X144606247Y-94994455D01*
X144572027Y-94981703D01*
X144543722Y-94964153D01*
X144503362Y-94917775D01*
X144473959Y-94856546D01*
X144463350Y-94856546D01*
X144463350Y-94990920D01*
X144249972Y-94990920D01*
X144249972Y-94476782D01*
X144484660Y-94476782D01*
X144489677Y-94578071D01*
X144502416Y-94656086D01*
X144515535Y-94694830D01*
X144533229Y-94725966D01*
X144552309Y-94746992D01*
X144575458Y-94763449D01*
X144636426Y-94784590D01*
X144740659Y-94792523D01*
X144809539Y-94789023D01*
X144857101Y-94776438D01*
X144875867Y-94764139D01*
X144889596Y-94747384D01*
X144904227Y-94700162D01*
X144907137Y-94647448D01*
X144903743Y-94589213D01*
X144891895Y-94545399D01*
X144879048Y-94524462D01*
X144861285Y-94508000D01*
X144811176Y-94487265D01*
X144719155Y-94477389D01*
X144676636Y-94476782D01*
X144484660Y-94476782D01*
X144249972Y-94476782D01*
X144249972Y-94239953D01*
X144253227Y-94140731D01*
X144264105Y-94058811D01*
X144277059Y-94011200D01*
X144295076Y-93970733D01*
X144314918Y-93941415D01*
X144339223Y-93916628D01*
X144400429Y-93880268D01*
X144489947Y-93856121D01*
X144630458Y-93843999D01*
X144698039Y-93843067D01*
X144814903Y-93846350D01*
G37*
G36*
X143871325Y-94990920D02*
G01*
X143619607Y-94990920D01*
X143619607Y-94408479D01*
X143616236Y-94297103D01*
X143604555Y-94212457D01*
X143592173Y-94172116D01*
X143575175Y-94139916D01*
X143556911Y-94118579D01*
X143534667Y-94101982D01*
X143476464Y-94081072D01*
X143380638Y-94073568D01*
X143314653Y-94076983D01*
X143265708Y-94088975D01*
X143243259Y-94101615D01*
X143225788Y-94119014D01*
X143204678Y-94166462D01*
X143195330Y-94251114D01*
X143194990Y-94278386D01*
X143194990Y-94990920D01*
X142943272Y-94990920D01*
X142943272Y-94278386D01*
X142946563Y-94159574D01*
X142957691Y-94063538D01*
X142970462Y-94010860D01*
X142988158Y-93966762D01*
X143007188Y-93935943D01*
X143030404Y-93910299D01*
X143087315Y-93874416D01*
X143168908Y-93852200D01*
X143312334Y-93843067D01*
X143406994Y-93846489D01*
X143480049Y-93858531D01*
X143516569Y-93871553D01*
X143547511Y-93889589D01*
X143592913Y-93937241D01*
X143633308Y-94015715D01*
X143640917Y-94035136D01*
X143651618Y-94035136D01*
X143651618Y-93864470D01*
X143871325Y-93864470D01*
X143871325Y-94990920D01*
G37*
G36*
X141243036Y-94990920D02*
G01*
X140353323Y-94990920D01*
X140353323Y-94758371D01*
X140991225Y-94758371D01*
X140991225Y-94353017D01*
X140477088Y-94353017D01*
X140477088Y-94120469D01*
X140991225Y-94120469D01*
X140991225Y-93772717D01*
X140395943Y-93772717D01*
X140395943Y-93540168D01*
X141243036Y-93540168D01*
X141243036Y-94990920D01*
G37*
G36*
X139731519Y-94990920D02*
G01*
X139407217Y-94990920D01*
X139407217Y-94666618D01*
X139731519Y-94666618D01*
X139731519Y-94990920D01*
G37*
G36*
X137512772Y-94572817D02*
G01*
X137512093Y-94681309D01*
X137503348Y-94771172D01*
X137491657Y-94823502D01*
X137474736Y-94868134D01*
X137455920Y-94900296D01*
X137432634Y-94927648D01*
X137374705Y-94967621D01*
X137291754Y-94994710D01*
X137165222Y-95009858D01*
X137062565Y-95012323D01*
X136947728Y-95009064D01*
X136852808Y-94998166D01*
X136797760Y-94985232D01*
X136750895Y-94967250D01*
X136717277Y-94947725D01*
X136688739Y-94923863D01*
X136647409Y-94865642D01*
X136619684Y-94783922D01*
X136604272Y-94661285D01*
X136601749Y-94562115D01*
X136601749Y-93540168D01*
X136857747Y-93540168D01*
X136857747Y-94553554D01*
X136861124Y-94633127D01*
X136872844Y-94692544D01*
X136885250Y-94720256D01*
X136902284Y-94741952D01*
X136945917Y-94767660D01*
X137017534Y-94780357D01*
X137068986Y-94781915D01*
X137134154Y-94778547D01*
X137182932Y-94766889D01*
X137206085Y-94754320D01*
X137224162Y-94737008D01*
X137246093Y-94690156D01*
X137256209Y-94607707D01*
X137256774Y-94572817D01*
X137512772Y-94572817D01*
G37*
G36*
X135271599Y-93864470D02*
G01*
X135523317Y-93864470D01*
X135523317Y-94446911D01*
X135526687Y-94558323D01*
X135538369Y-94642995D01*
X135550751Y-94683346D01*
X135567748Y-94715553D01*
X135586010Y-94736894D01*
X135608253Y-94753494D01*
X135666447Y-94774408D01*
X135762286Y-94781915D01*
X135828197Y-94778503D01*
X135877110Y-94766532D01*
X135899587Y-94753896D01*
X135917081Y-94736504D01*
X135938218Y-94689090D01*
X135947588Y-94604548D01*
X135947934Y-94577097D01*
X135947934Y-93864470D01*
X136199652Y-93864470D01*
X136199652Y-94577097D01*
X136196359Y-94695954D01*
X136185224Y-94792012D01*
X136172450Y-94844658D01*
X136154752Y-94888727D01*
X136135720Y-94919525D01*
X136112502Y-94945151D01*
X136055574Y-94981009D01*
X135973937Y-95003209D01*
X135830590Y-95012323D01*
X135735929Y-95008901D01*
X135662874Y-94996859D01*
X135626354Y-94983837D01*
X135595413Y-94965801D01*
X135550011Y-94918148D01*
X135509615Y-94839675D01*
X135502007Y-94820254D01*
X135491305Y-94820254D01*
X135491305Y-94990920D01*
X135271599Y-94990920D01*
X135271599Y-93864470D01*
G37*
G36*
X134912215Y-94990920D02*
G01*
X133967040Y-94990920D01*
X133967040Y-94775494D01*
X134308371Y-94775494D01*
X134308371Y-93437713D01*
X134890812Y-93437713D01*
X134890812Y-93653232D01*
X134545200Y-93653232D01*
X134545200Y-94775494D01*
X134912215Y-94775494D01*
X134912215Y-94990920D01*
G37*
G36*
X133315272Y-93638250D02*
G01*
X132999531Y-93638250D01*
X132999531Y-93335351D01*
X133315272Y-93335351D01*
X133315272Y-93638250D01*
G37*
G36*
X133592673Y-94990920D02*
G01*
X132673089Y-94990920D01*
X132673089Y-94777634D01*
X133003812Y-94777634D01*
X133003812Y-93864470D01*
X133571363Y-93864470D01*
X133571363Y-94077756D01*
X133242781Y-94077756D01*
X133242781Y-94777634D01*
X133592673Y-94777634D01*
X133592673Y-94990920D01*
G37*
G36*
X132025214Y-93846350D02*
G01*
X132119052Y-93857417D01*
X132170081Y-93870085D01*
X132212417Y-93887608D01*
X132241600Y-93906372D01*
X132265549Y-93929230D01*
X132298074Y-93985290D01*
X132316414Y-94066236D01*
X132320125Y-94193053D01*
X132081156Y-94193053D01*
X132078704Y-94136589D01*
X132067324Y-94095542D01*
X132054966Y-94077254D01*
X132037764Y-94063332D01*
X131987340Y-94046783D01*
X131901929Y-94041557D01*
X131827598Y-94044962D01*
X131772468Y-94056886D01*
X131747269Y-94069375D01*
X131727639Y-94086527D01*
X131704346Y-94131537D01*
X131693553Y-94208159D01*
X131692831Y-94244234D01*
X131692831Y-94297555D01*
X131844327Y-94297555D01*
X131983112Y-94300847D01*
X132095566Y-94311977D01*
X132157384Y-94324745D01*
X132209283Y-94342434D01*
X132245324Y-94361233D01*
X132275496Y-94384125D01*
X132317374Y-94438496D01*
X132343957Y-94513020D01*
X132357256Y-94623531D01*
X132358465Y-94681600D01*
X132355172Y-94771306D01*
X132344036Y-94843814D01*
X132331169Y-94883783D01*
X132313312Y-94917204D01*
X132293451Y-94941167D01*
X132269074Y-94960953D01*
X132205030Y-94989370D01*
X132105236Y-95006090D01*
X131989402Y-95010182D01*
X131890220Y-95006727D01*
X131816558Y-94994455D01*
X131782338Y-94981703D01*
X131754033Y-94964153D01*
X131713673Y-94917775D01*
X131684270Y-94856546D01*
X131673662Y-94856546D01*
X131673662Y-94990920D01*
X131460283Y-94990920D01*
X131460283Y-94476782D01*
X131694971Y-94476782D01*
X131699988Y-94578071D01*
X131712727Y-94656086D01*
X131725846Y-94694830D01*
X131743541Y-94725966D01*
X131762620Y-94746992D01*
X131785769Y-94763449D01*
X131846737Y-94784590D01*
X131950970Y-94792523D01*
X132019850Y-94789023D01*
X132067412Y-94776438D01*
X132086178Y-94764139D01*
X132099907Y-94747384D01*
X132114538Y-94700162D01*
X132117448Y-94647448D01*
X132114054Y-94589213D01*
X132102207Y-94545399D01*
X132089359Y-94524462D01*
X132071596Y-94508000D01*
X132021487Y-94487265D01*
X131929466Y-94477389D01*
X131886947Y-94476782D01*
X131694971Y-94476782D01*
X131460283Y-94476782D01*
X131460283Y-94239953D01*
X131463538Y-94140731D01*
X131474416Y-94058811D01*
X131487370Y-94011200D01*
X131505387Y-93970733D01*
X131525230Y-93941415D01*
X131549534Y-93916628D01*
X131610740Y-93880268D01*
X131700258Y-93856121D01*
X131840769Y-93843999D01*
X131908350Y-93843067D01*
X132025214Y-93846350D01*
G37*
G36*
X131081636Y-94990920D02*
G01*
X130829918Y-94990920D01*
X130829918Y-94408479D01*
X130826548Y-94297103D01*
X130814866Y-94212457D01*
X130802484Y-94172116D01*
X130785486Y-94139916D01*
X130767223Y-94118579D01*
X130744978Y-94101982D01*
X130686775Y-94081072D01*
X130590949Y-94073568D01*
X130524964Y-94076983D01*
X130476020Y-94088975D01*
X130453570Y-94101615D01*
X130436099Y-94119014D01*
X130414989Y-94166462D01*
X130405642Y-94251114D01*
X130405301Y-94278386D01*
X130405301Y-94990920D01*
X130153583Y-94990920D01*
X130153583Y-94278386D01*
X130156874Y-94159574D01*
X130168002Y-94063538D01*
X130180773Y-94010860D01*
X130198470Y-93966762D01*
X130217499Y-93935943D01*
X130240715Y-93910299D01*
X130297627Y-93874416D01*
X130379220Y-93852200D01*
X130522645Y-93843067D01*
X130617306Y-93846489D01*
X130690361Y-93858531D01*
X130726881Y-93871553D01*
X130757822Y-93889589D01*
X130803224Y-93937241D01*
X130843620Y-94015715D01*
X130851228Y-94035136D01*
X130861929Y-94035136D01*
X130861929Y-93864470D01*
X131081636Y-93864470D01*
X131081636Y-94990920D01*
G37*
G36*
X128596282Y-94990920D02*
G01*
X128359453Y-94990920D01*
X128359453Y-94222924D01*
X128389325Y-93828178D01*
X128382904Y-93828178D01*
X128165337Y-94478923D01*
X127954099Y-94478923D01*
X127736440Y-93828178D01*
X127730019Y-93828178D01*
X127759890Y-94222924D01*
X127759890Y-94990920D01*
X127523061Y-94990920D01*
X127523061Y-93540168D01*
X127834615Y-93540168D01*
X128054321Y-94229252D01*
X128065023Y-94229252D01*
X128284822Y-93540168D01*
X128596282Y-93540168D01*
X128596282Y-94990920D01*
G37*
G36*
X126941830Y-94990920D02*
G01*
X126617528Y-94990920D01*
X126617528Y-94666618D01*
X126941830Y-94666618D01*
X126941830Y-94990920D01*
G37*
G36*
X124639891Y-94990920D02*
G01*
X124396641Y-94990920D01*
X124396641Y-94325286D01*
X123916656Y-94990920D01*
X123590213Y-94990920D01*
X124159812Y-94250655D01*
X123686155Y-93540168D01*
X123984866Y-93540168D01*
X124396641Y-94178071D01*
X124396641Y-93540168D01*
X124639891Y-93540168D01*
X124639891Y-94990920D01*
G37*
G36*
X123052069Y-93846294D02*
G01*
X123141087Y-93856966D01*
X123195983Y-93870116D01*
X123243621Y-93888469D01*
X123278962Y-93908724D01*
X123309605Y-93933547D01*
X123355874Y-93994512D01*
X123389219Y-94079428D01*
X123411265Y-94203775D01*
X123420561Y-94397495D01*
X123420664Y-94425601D01*
X123417423Y-94563558D01*
X123406641Y-94679086D01*
X123393639Y-94748072D01*
X123375540Y-94807423D01*
X123356048Y-94850187D01*
X123332262Y-94887004D01*
X123306352Y-94915897D01*
X123276290Y-94940375D01*
X123202326Y-94977366D01*
X123099193Y-95001427D01*
X122945780Y-95012055D01*
X122910715Y-95012323D01*
X122799999Y-95009029D01*
X122710342Y-94997889D01*
X122660529Y-94985008D01*
X122618337Y-94967129D01*
X122587702Y-94947429D01*
X122561586Y-94923285D01*
X122521667Y-94861758D01*
X122491182Y-94769359D01*
X122475489Y-94685880D01*
X122712318Y-94685880D01*
X122730446Y-94728257D01*
X122753659Y-94758136D01*
X122798276Y-94781708D01*
X122874675Y-94791811D01*
X122914995Y-94792523D01*
X122994868Y-94789177D01*
X123057174Y-94777666D01*
X123089029Y-94764901D01*
X123115102Y-94747244D01*
X123148993Y-94701964D01*
X123170841Y-94630581D01*
X123181695Y-94532244D01*
X122460600Y-94532244D01*
X122460128Y-94368569D01*
X122461721Y-94340268D01*
X122695289Y-94340268D01*
X123179555Y-94340268D01*
X123172748Y-94245375D01*
X123158608Y-94173191D01*
X123144875Y-94138070D01*
X123126727Y-94110171D01*
X123107096Y-94091377D01*
X123083384Y-94076978D01*
X123019174Y-94059112D01*
X122936305Y-94054306D01*
X122866682Y-94057641D01*
X122811706Y-94069078D01*
X122782758Y-94082019D01*
X122758888Y-94099979D01*
X122726960Y-94147349D01*
X122705955Y-94224310D01*
X122695289Y-94340268D01*
X122461721Y-94340268D01*
X122467825Y-94231835D01*
X122478926Y-94150847D01*
X122495340Y-94081264D01*
X122513362Y-94031673D01*
X122535710Y-93988971D01*
X122559781Y-93956063D01*
X122587828Y-93928072D01*
X122655032Y-93886336D01*
X122745807Y-93858666D01*
X122876150Y-93844481D01*
X122947007Y-93843067D01*
X123052069Y-93846294D01*
G37*
G36*
X122128854Y-94990920D02*
G01*
X121877136Y-94990920D01*
X121877136Y-94408479D01*
X121873765Y-94297103D01*
X121862084Y-94212457D01*
X121849702Y-94172116D01*
X121832704Y-94139916D01*
X121814440Y-94118579D01*
X121792196Y-94101982D01*
X121733993Y-94081072D01*
X121638167Y-94073568D01*
X121572182Y-94076983D01*
X121523237Y-94088975D01*
X121500788Y-94101615D01*
X121483317Y-94119014D01*
X121462207Y-94166462D01*
X121452859Y-94251114D01*
X121452519Y-94278386D01*
X121452519Y-94990920D01*
X121200801Y-94990920D01*
X121200801Y-94278386D01*
X121204092Y-94159574D01*
X121215220Y-94063538D01*
X121227991Y-94010860D01*
X121245688Y-93966762D01*
X121264717Y-93935943D01*
X121287933Y-93910299D01*
X121344844Y-93874416D01*
X121426437Y-93852200D01*
X121569863Y-93843067D01*
X121664523Y-93846489D01*
X121737578Y-93858531D01*
X121774099Y-93871553D01*
X121805040Y-93889589D01*
X121850442Y-93937241D01*
X121890837Y-94015715D01*
X121898446Y-94035136D01*
X121909147Y-94035136D01*
X121909147Y-93864470D01*
X122128854Y-93864470D01*
X122128854Y-94990920D01*
G37*
G36*
X120794423Y-94990920D02*
G01*
X120553314Y-94990920D01*
X120553314Y-94393590D01*
X120549636Y-94341292D01*
X120535803Y-94293390D01*
X120488325Y-94209792D01*
X120467981Y-94180211D01*
X120426327Y-94127743D01*
X120386235Y-94095325D01*
X120329513Y-94077048D01*
X120269584Y-94073568D01*
X120214005Y-94077083D01*
X120174080Y-94089775D01*
X120155519Y-94103321D01*
X120139983Y-94122155D01*
X120109620Y-94190913D01*
X119879119Y-94133311D01*
X119897331Y-94053897D01*
X119920563Y-93990585D01*
X119940467Y-93955777D01*
X119964496Y-93927167D01*
X120020046Y-93889793D01*
X120099004Y-93866886D01*
X120225254Y-93856385D01*
X120269584Y-93855909D01*
X120353624Y-93859321D01*
X120419943Y-93871292D01*
X120454917Y-93884640D01*
X120485320Y-93903237D01*
X120533385Y-93954251D01*
X120581189Y-94041619D01*
X120589606Y-94060726D01*
X120600307Y-94060726D01*
X120581138Y-93864470D01*
X120794423Y-93864470D01*
X120794423Y-94990920D01*
G37*
G36*
X119246614Y-93638250D02*
G01*
X118930873Y-93638250D01*
X118930873Y-93335351D01*
X119246614Y-93335351D01*
X119246614Y-93638250D01*
G37*
G36*
X119524016Y-94990920D02*
G01*
X118604431Y-94990920D01*
X118604431Y-94777634D01*
X118935154Y-94777634D01*
X118935154Y-93864470D01*
X119502706Y-93864470D01*
X119502706Y-94077756D01*
X119174123Y-94077756D01*
X119174123Y-94777634D01*
X119524016Y-94777634D01*
X119524016Y-94990920D01*
G37*
G36*
X117579413Y-94666618D02*
G01*
X117591976Y-94714171D01*
X117610629Y-94747931D01*
X117627216Y-94763307D01*
X117648379Y-94774450D01*
X117711533Y-94786589D01*
X117764968Y-94788242D01*
X117836841Y-94784962D01*
X117894860Y-94773909D01*
X117927185Y-94760974D01*
X117954113Y-94742999D01*
X117990062Y-94696657D01*
X118013498Y-94625049D01*
X118025965Y-94505246D01*
X118027387Y-94425601D01*
X118024022Y-94308844D01*
X118012374Y-94219447D01*
X117999948Y-94176253D01*
X117982874Y-94141549D01*
X117964638Y-94118489D01*
X117942441Y-94100346D01*
X117885517Y-94077119D01*
X117795909Y-94067369D01*
X117775670Y-94067147D01*
X117706038Y-94070647D01*
X117655919Y-94083233D01*
X117634162Y-94096027D01*
X117616996Y-94113607D01*
X117593920Y-94163787D01*
X117583601Y-94212223D01*
X117336164Y-94212223D01*
X117342084Y-94117934D01*
X117355150Y-94040463D01*
X117369382Y-93995632D01*
X117388487Y-93957730D01*
X117409285Y-93930253D01*
X117434494Y-93907216D01*
X117498305Y-93873630D01*
X117592811Y-93852158D01*
X117767108Y-93843067D01*
X117880815Y-93846296D01*
X117977127Y-93856982D01*
X118036359Y-93870116D01*
X118087766Y-93888440D01*
X118125707Y-93908535D01*
X118158638Y-93933135D01*
X118208000Y-93992723D01*
X118243516Y-94074195D01*
X118267424Y-94191208D01*
X118278702Y-94369564D01*
X118279198Y-94427741D01*
X118275966Y-94564184D01*
X118265246Y-94678581D01*
X118252253Y-94747388D01*
X118234166Y-94806604D01*
X118214662Y-94849351D01*
X118190864Y-94886166D01*
X118164921Y-94915096D01*
X118134824Y-94939618D01*
X118060740Y-94976748D01*
X117957413Y-95001015D01*
X117803646Y-95011970D01*
X117762828Y-95012323D01*
X117647598Y-95009020D01*
X117554813Y-94997810D01*
X117504352Y-94985016D01*
X117462060Y-94967287D01*
X117432210Y-94948066D01*
X117407254Y-94924577D01*
X117371374Y-94865941D01*
X117347693Y-94779804D01*
X117336164Y-94666618D01*
X117579413Y-94666618D01*
G37*
G36*
X115396959Y-94990920D02*
G01*
X115145148Y-94990920D01*
X115145148Y-93770576D01*
X114765384Y-93770576D01*
X114765384Y-93540168D01*
X115774582Y-93540168D01*
X115774582Y-93770576D01*
X115396959Y-93770576D01*
X115396959Y-94990920D01*
G37*
G36*
X114152142Y-94990920D02*
G01*
X113827840Y-94990920D01*
X113827840Y-94666618D01*
X114152142Y-94666618D01*
X114152142Y-94990920D01*
G37*
%LPC*%
D11*
X95250000Y-90576000D03*
X102870000Y-90576000D03*
X102870000Y-93726000D03*
X95250000Y-93726000D03*
D12*
X95594000Y-111744000D03*
D13*
X95594000Y-109744000D03*
D14*
X95504000Y-97790000D03*
D15*
X98044000Y-97790000D03*
X95504000Y-100330000D03*
X98044000Y-100330000D03*
X95504000Y-102870000D03*
X98044000Y-102870000D03*
X95504000Y-105410000D03*
X98044000Y-105410000D03*
%LPD*%
M02*
