M48
; DRILL file {KiCad 9.0.7} date 2026-02-19T02:03:26-0800
; FORMAT={-:-/ absolute / metric / decimal}
; #@! TF.CreationDate,2026-02-19T02:03:26-08:00
; #@! TF.GenerationSoftware,Kicad,Pcbnew,9.0.7
; #@! TF.FileFunction,Plated,1,4,PTH
FMAT,2
METRIC
; #@! TA.AperFunction,Plated,PTH,ViaDrill
T1C0.300
; #@! TA.AperFunction,Plated,PTH,ComponentDrill
T2C0.889
; #@! TA.AperFunction,Plated,PTH,ComponentDrill
T3C1.000
%
G90
G05
T1
X102.87Y-105.41
X105.918Y-105.41
T2
X167.25Y-94.002
X167.25Y-109.242
X169.79Y-94.002
X169.79Y-109.242
X172.33Y-94.002
X172.33Y-109.242
X174.87Y-94.002
X174.87Y-109.242
X177.41Y-94.002
X177.41Y-109.242
X179.95Y-94.002
X179.95Y-109.242
X182.49Y-94.002
X182.49Y-109.242
T3
X95.504Y-97.79
X95.504Y-100.33
X95.504Y-102.87
X95.504Y-105.41
X98.044Y-97.79
X98.044Y-100.33
X98.044Y-102.87
X98.044Y-105.41
M30
