G04 #@! TF.GenerationSoftware,KiCad,Pcbnew,9.0.7*
G04 #@! TF.CreationDate,2026-02-21T01:38:48-08:00*
G04 #@! TF.ProjectId,memori-hw,6d656d6f-7269-42d6-9877-2e6b69636164,vFEB 2026*
G04 #@! TF.SameCoordinates,Original*
G04 #@! TF.FileFunction,Legend,Top*
G04 #@! TF.FilePolarity,Positive*
%FSLAX46Y46*%
G04 Gerber Fmt 4.6, Leading zero omitted, Abs format (unit mm)*
G04 Created by KiCad (PCBNEW 9.0.7) date 2026-02-21 01:38:48*
%MOMM*%
%LPD*%
G01*
G04 APERTURE LIST*
G04 Aperture macros list*
%AMRoundRect*
0 Rectangle with rounded corners*
0 $1 Rounding radius*
0 $2 $3 $4 $5 $6 $7 $8 $9 X,Y pos of 4 corners*
0 Add a 4 corners polygon primitive as box body*
4,1,4,$2,$3,$4,$5,$6,$7,$8,$9,$2,$3,0*
0 Add four circle primitives for the rounded corners*
1,1,$1+$1,$2,$3*
1,1,$1+$1,$4,$5*
1,1,$1+$1,$6,$7*
1,1,$1+$1,$8,$9*
0 Add four rect primitives between the rounded corners*
20,1,$1+$1,$2,$3,$4,$5,0*
20,1,$1+$1,$4,$5,$6,$7,0*
20,1,$1+$1,$6,$7,$8,$9,0*
20,1,$1+$1,$8,$9,$2,$3,0*%
%AMOutline5P*
0 Free polygon, 5 corners , with rotation*
0 The origin of the aperture is its center*
0 number of corners: always 5*
0 $1 to $10 corner X, Y*
0 $11 Rotation angle, in degrees counterclockwise*
0 create outline with 5 corners*
4,1,5,$1,$2,$3,$4,$5,$6,$7,$8,$9,$10,$1,$2,$11*%
%AMOutline6P*
0 Free polygon, 6 corners , with rotation*
0 The origin of the aperture is its center*
0 number of corners: always 6*
0 $1 to $12 corner X, Y*
0 $13 Rotation angle, in degrees counterclockwise*
0 create outline with 6 corners*
4,1,6,$1,$2,$3,$4,$5,$6,$7,$8,$9,$10,$11,$12,$1,$2,$13*%
%AMOutline7P*
0 Free polygon, 7 corners , with rotation*
0 The origin of the aperture is its center*
0 number of corners: always 7*
0 $1 to $14 corner X, Y*
0 $15 Rotation angle, in degrees counterclockwise*
0 create outline with 7 corners*
4,1,7,$1,$2,$3,$4,$5,$6,$7,$8,$9,$10,$11,$12,$13,$14,$1,$2,$15*%
%AMOutline8P*
0 Free polygon, 8 corners , with rotation*
0 The origin of the aperture is its center*
0 number of corners: always 8*
0 $1 to $16 corner X, Y*
0 $17 Rotation angle, in degrees counterclockwise*
0 create outline with 8 corners*
4,1,8,$1,$2,$3,$4,$5,$6,$7,$8,$9,$10,$11,$12,$13,$14,$15,$16,$1,$2,$17*%
G04 Aperture macros list end*
%ADD10C,0.304800*%
%ADD11C,0.187500*%
%ADD12C,0.300000*%
%ADD13C,0.375000*%
%ADD14C,0.150000*%
%ADD15C,0.106680*%
%ADD16C,0.120000*%
%ADD17C,0.100000*%
%ADD18C,0.127000*%
%ADD19C,0.504000*%
%ADD20C,1.400000*%
%ADD21RoundRect,0.250000X0.625000X-0.350000X0.625000X0.350000X-0.625000X0.350000X-0.625000X-0.350000X0*%
%ADD22O,1.750000X1.200000*%
%ADD23Outline5P,-0.850000X0.510000X-0.510000X0.850000X0.850000X0.850000X0.850000X-0.850000X-0.850000X-0.850000X0.000000*%
%ADD24C,1.700000*%
%ADD25RoundRect,0.525400X-0.525400X0.900400X-0.525400X-0.900400X0.525400X-0.900400X0.525400X0.900400X0*%
%ADD26RoundRect,0.300400X0.300400X-1.000400X0.300400X1.000400X-0.300400X1.000400X-0.300400X-1.000400X0*%
G04 APERTURE END LIST*
D10*
G36*
X118992845Y-102242700D02*
G01*
X119566269Y-102242700D01*
X119566269Y-100383183D01*
X119493943Y-99427401D01*
X119509490Y-99427401D01*
X120036274Y-101003022D01*
X120547737Y-101003022D01*
X121074747Y-99427401D01*
X121090293Y-99427401D01*
X121017967Y-100383183D01*
X121017967Y-102242700D01*
X121591392Y-102242700D01*
X121591392Y-98730054D01*
X120837040Y-98730054D01*
X120305074Y-100398504D01*
X120279163Y-100398504D01*
X119746971Y-98730054D01*
X118992845Y-98730054D01*
X118992845Y-102242700D01*
G37*
G36*
X123552623Y-99466873D02*
G01*
X123868217Y-99501219D01*
X124088009Y-99568217D01*
X124250727Y-99669270D01*
X124318635Y-99737042D01*
X124376918Y-99816723D01*
X124431027Y-99920115D01*
X124474664Y-100040188D01*
X124514406Y-100208665D01*
X124541285Y-100404760D01*
X124559921Y-100735827D01*
X124558777Y-101132127D01*
X122812819Y-101132127D01*
X122839099Y-101370226D01*
X122891999Y-101543064D01*
X122974060Y-101652697D01*
X123037188Y-101695450D01*
X123114316Y-101726358D01*
X123265177Y-101754229D01*
X123458569Y-101762330D01*
X123556195Y-101760607D01*
X123741176Y-101736145D01*
X123849205Y-101679069D01*
X123905410Y-101606726D01*
X123949303Y-101504120D01*
X124522727Y-101504120D01*
X124484732Y-101706244D01*
X124410918Y-101929965D01*
X124314265Y-102078939D01*
X124251031Y-102137397D01*
X124176857Y-102185096D01*
X124074699Y-102228387D01*
X123954088Y-102259575D01*
X123737005Y-102286548D01*
X123468933Y-102294522D01*
X123384032Y-102293873D01*
X123012578Y-102268140D01*
X122762867Y-102209882D01*
X122583781Y-102120317D01*
X122510992Y-102061051D01*
X122448257Y-101991093D01*
X122390665Y-101901950D01*
X122343472Y-101798407D01*
X122299649Y-101654703D01*
X122268168Y-101487670D01*
X122242062Y-101207945D01*
X122234213Y-100873917D01*
X122234462Y-100805863D01*
X122241112Y-100667304D01*
X122818001Y-100667304D01*
X123990535Y-100667304D01*
X123964710Y-100386538D01*
X123913852Y-100200197D01*
X123836546Y-100085501D01*
X123778750Y-100042014D01*
X123708660Y-100010682D01*
X123575549Y-99982990D01*
X123406972Y-99974914D01*
X123206325Y-99986551D01*
X123050856Y-100029810D01*
X122993442Y-100064675D01*
X122945911Y-100110178D01*
X122901971Y-100177729D01*
X122868720Y-100262765D01*
X122834483Y-100437542D01*
X122818001Y-100667304D01*
X122241112Y-100667304D01*
X122256972Y-100336818D01*
X122310349Y-100035743D01*
X122391088Y-99830138D01*
X122503117Y-99682527D01*
X122577310Y-99622424D01*
X122662882Y-99573380D01*
X122778226Y-99528944D01*
X122911142Y-99497104D01*
X123126677Y-99471263D01*
X123381061Y-99463451D01*
X123552623Y-99466873D01*
G37*
G36*
X125145044Y-102242700D02*
G01*
X125697740Y-102242700D01*
X125697740Y-100822095D01*
X125705700Y-100495525D01*
X125732583Y-100263914D01*
X125760078Y-100163912D01*
X125797235Y-100091102D01*
X125834483Y-100050524D01*
X125879038Y-100023843D01*
X125981861Y-100006007D01*
X126050668Y-100013755D01*
X126105755Y-100039151D01*
X126166748Y-100120459D01*
X126205089Y-100281865D01*
X126219567Y-100605117D01*
X126219567Y-102242700D01*
X126772262Y-102242700D01*
X126772262Y-100822095D01*
X126780183Y-100495525D01*
X126806789Y-100263914D01*
X126834165Y-100163190D01*
X126871143Y-100090092D01*
X126908107Y-100049609D01*
X126952276Y-100023162D01*
X127051201Y-100006007D01*
X127120008Y-100013755D01*
X127175095Y-100039151D01*
X127236088Y-100120459D01*
X127274430Y-100281865D01*
X127288907Y-100605117D01*
X127288907Y-102242700D01*
X127841603Y-102242700D01*
X127841603Y-100605117D01*
X127833841Y-100272814D01*
X127808349Y-100007474D01*
X127778462Y-99859267D01*
X127737316Y-99738218D01*
X127694287Y-99657571D01*
X127642286Y-99592675D01*
X127521226Y-99510559D01*
X127356147Y-99469537D01*
X127237085Y-99463451D01*
X127107996Y-99471326D01*
X127002669Y-99497614D01*
X126938506Y-99530309D01*
X126882178Y-99576197D01*
X126785881Y-99712610D01*
X126725622Y-99845809D01*
X126694754Y-99845809D01*
X126652058Y-99711868D01*
X126599436Y-99611196D01*
X126553594Y-99557866D01*
X126498783Y-99517913D01*
X126362438Y-99473649D01*
X126209203Y-99463451D01*
X126070739Y-99471326D01*
X125957978Y-99497614D01*
X125889429Y-99530181D01*
X125828988Y-99575850D01*
X125724799Y-99710591D01*
X125656282Y-99845809D01*
X125625414Y-99845809D01*
X125625414Y-99515273D01*
X125145044Y-99515273D01*
X125145044Y-102242700D01*
G37*
G36*
X129680937Y-99464256D02*
G01*
X130054480Y-99490586D01*
X130305340Y-99549174D01*
X130485073Y-99638861D01*
X130558037Y-99698073D01*
X130620924Y-99767929D01*
X130678581Y-99856781D01*
X130725832Y-99959943D01*
X130769637Y-100102810D01*
X130801107Y-100268791D01*
X130827070Y-100544782D01*
X130834900Y-100873917D01*
X130833354Y-101030985D01*
X130804760Y-101455588D01*
X130745554Y-101736107D01*
X130658057Y-101932432D01*
X130536654Y-102076573D01*
X130455749Y-102136182D01*
X130362639Y-102184887D01*
X130236808Y-102229253D01*
X130092001Y-102261052D01*
X129859101Y-102286733D01*
X129584857Y-102294522D01*
X129480013Y-102293548D01*
X129109221Y-102266390D01*
X128859210Y-102206938D01*
X128679620Y-102116280D01*
X128606594Y-102056486D01*
X128543656Y-101986031D01*
X128485913Y-101896448D01*
X128438601Y-101792537D01*
X128394737Y-101648743D01*
X128363234Y-101481833D01*
X128337241Y-101204432D01*
X128329408Y-100873917D01*
X128928743Y-100873917D01*
X128932378Y-101066221D01*
X128963132Y-101349791D01*
X129020749Y-101520550D01*
X129109472Y-101631936D01*
X129176338Y-101675445D01*
X129256646Y-101706765D01*
X129403017Y-101733839D01*
X129584857Y-101741826D01*
X129675263Y-101740104D01*
X129890809Y-101712100D01*
X130029538Y-101651879D01*
X130083858Y-101605858D01*
X130128457Y-101547991D01*
X130170015Y-101462029D01*
X130200195Y-101355886D01*
X130227735Y-101145242D01*
X130235790Y-100873917D01*
X130232483Y-100692150D01*
X130202269Y-100408257D01*
X130145052Y-100237422D01*
X130056735Y-100126058D01*
X129990162Y-100082589D01*
X129910174Y-100051297D01*
X129765046Y-100024342D01*
X129584857Y-100016372D01*
X129494587Y-100018047D01*
X129276073Y-100045921D01*
X129135925Y-100105817D01*
X129081275Y-100151410D01*
X129036436Y-100208676D01*
X128994753Y-100293487D01*
X128964492Y-100398072D01*
X128936816Y-100606118D01*
X128928743Y-100873917D01*
X128329408Y-100873917D01*
X128330780Y-100726193D01*
X128358797Y-100301280D01*
X128417494Y-100021088D01*
X128504527Y-99825188D01*
X128625550Y-99681390D01*
X128706369Y-99621883D01*
X128799449Y-99573266D01*
X128925588Y-99528902D01*
X129070881Y-99497104D01*
X129306662Y-99471263D01*
X129584857Y-99463451D01*
X129680937Y-99464256D01*
G37*
G36*
X131689741Y-102242700D02*
G01*
X132273530Y-102242700D01*
X132273530Y-100796409D01*
X132282434Y-100669783D01*
X132315929Y-100553800D01*
X132430884Y-100351386D01*
X132480143Y-100279764D01*
X132580998Y-100152724D01*
X132678072Y-100074233D01*
X132815410Y-100029980D01*
X132960512Y-100021554D01*
X133095085Y-100030064D01*
X133191753Y-100060795D01*
X133236695Y-100093592D01*
X133274310Y-100139195D01*
X133347827Y-100305675D01*
X133905930Y-100166205D01*
X133861834Y-99973925D01*
X133805584Y-99820630D01*
X133757391Y-99736351D01*
X133699210Y-99667079D01*
X133564709Y-99576586D01*
X133373532Y-99521122D01*
X133067849Y-99495697D01*
X132960512Y-99494544D01*
X132757031Y-99502805D01*
X132596455Y-99531790D01*
X132511775Y-99564109D01*
X132438160Y-99609138D01*
X132321782Y-99732657D01*
X132206037Y-99944195D01*
X132185657Y-99990460D01*
X132159746Y-99990460D01*
X132206161Y-99515273D01*
X131689741Y-99515273D01*
X131689741Y-102242700D01*
G37*
G36*
X135437389Y-98967535D02*
G01*
X136201880Y-98967535D01*
X136201880Y-98234138D01*
X135437389Y-98234138D01*
X135437389Y-98967535D01*
G37*
G36*
X134765728Y-102242700D02*
G01*
X136992281Y-102242700D01*
X136992281Y-101726280D01*
X136191515Y-101726280D01*
X136191515Y-99515273D01*
X134817325Y-99515273D01*
X134817325Y-100031693D01*
X135612909Y-100031693D01*
X135612909Y-101726280D01*
X134765728Y-101726280D01*
X134765728Y-102242700D01*
G37*
G36*
X140669857Y-102242700D02*
G01*
X141243281Y-102242700D01*
X141243281Y-100383183D01*
X141170955Y-99427401D01*
X141186502Y-99427401D01*
X141713286Y-101003022D01*
X142224749Y-101003022D01*
X142751758Y-99427401D01*
X142767305Y-99427401D01*
X142694979Y-100383183D01*
X142694979Y-102242700D01*
X143268403Y-102242700D01*
X143268403Y-98730054D01*
X142514052Y-98730054D01*
X141982086Y-100398504D01*
X141956175Y-100398504D01*
X141423983Y-98730054D01*
X140669857Y-98730054D01*
X140669857Y-102242700D01*
G37*
G36*
X145200975Y-99465706D02*
G01*
X145541188Y-99495058D01*
X145757935Y-99553524D01*
X145906130Y-99641560D01*
X145964978Y-99701575D01*
X146013022Y-99772563D01*
X146056645Y-99870544D01*
X146088012Y-99985822D01*
X146114348Y-100184173D01*
X146122231Y-100424415D01*
X146122231Y-102242700D01*
X145605586Y-102242700D01*
X145605586Y-101917346D01*
X145579900Y-101917346D01*
X145508707Y-102065599D01*
X145410986Y-102177891D01*
X145342451Y-102220385D01*
X145259596Y-102251259D01*
X145081240Y-102280974D01*
X144841095Y-102289340D01*
X144560632Y-102279432D01*
X144319005Y-102238947D01*
X144163937Y-102170144D01*
X144104915Y-102122235D01*
X144056825Y-102064215D01*
X144013588Y-101983294D01*
X143982434Y-101886520D01*
X143955472Y-101710958D01*
X143947500Y-101493756D01*
X143949221Y-101411065D01*
X144531063Y-101411065D01*
X144538109Y-101538699D01*
X144573535Y-101653037D01*
X144606777Y-101693605D01*
X144652213Y-101723383D01*
X144767374Y-101753857D01*
X144934150Y-101762330D01*
X145186525Y-101743123D01*
X145334145Y-101691934D01*
X145390193Y-101652088D01*
X145436391Y-101601178D01*
X145479233Y-101525789D01*
X145510998Y-101431980D01*
X145541843Y-101243086D01*
X145553989Y-100997840D01*
X145089166Y-100997840D01*
X144986216Y-100999309D01*
X144763410Y-101023222D01*
X144642083Y-101073427D01*
X144599074Y-101113286D01*
X144567967Y-101163979D01*
X144539281Y-101270063D01*
X144531063Y-101411065D01*
X143949221Y-101411065D01*
X143950427Y-101353156D01*
X143982626Y-101085582D01*
X144046991Y-100905139D01*
X144148387Y-100773492D01*
X144221442Y-100718066D01*
X144308708Y-100672548D01*
X144434368Y-100629717D01*
X144584046Y-100598804D01*
X144856326Y-100571855D01*
X145192360Y-100563885D01*
X145559171Y-100563885D01*
X145559171Y-100434780D01*
X145557424Y-100347433D01*
X145531292Y-100161912D01*
X145474893Y-100052931D01*
X145427363Y-100011400D01*
X145366350Y-99981161D01*
X145232865Y-99952290D01*
X145052891Y-99944046D01*
X144846088Y-99956700D01*
X144723999Y-99996769D01*
X144682348Y-100030478D01*
X144652426Y-100074758D01*
X144624874Y-100174143D01*
X144618936Y-100310857D01*
X144040329Y-100310857D01*
X144049315Y-100003801D01*
X144093722Y-99807809D01*
X144172473Y-99672074D01*
X144230460Y-99616729D01*
X144301118Y-99571296D01*
X144403626Y-99528867D01*
X144527180Y-99498196D01*
X144754386Y-99471399D01*
X145037344Y-99463451D01*
X145200975Y-99465706D01*
G37*
G36*
X147173321Y-102242700D02*
G01*
X147757109Y-102242700D01*
X147757109Y-100796409D01*
X147766014Y-100669783D01*
X147799509Y-100553800D01*
X147914464Y-100351386D01*
X147963722Y-100279764D01*
X148064578Y-100152724D01*
X148161652Y-100074233D01*
X148298990Y-100029980D01*
X148444092Y-100021554D01*
X148578665Y-100030064D01*
X148675333Y-100060795D01*
X148720275Y-100093592D01*
X148757890Y-100139195D01*
X148831407Y-100305675D01*
X149389510Y-100166205D01*
X149345414Y-99973925D01*
X149289164Y-99820630D01*
X149240971Y-99736351D01*
X149182790Y-99667079D01*
X149048289Y-99576586D01*
X148857112Y-99521122D01*
X148551429Y-99495697D01*
X148444092Y-99494544D01*
X148240611Y-99502805D01*
X148080035Y-99531790D01*
X147995355Y-99564109D01*
X147921740Y-99609138D01*
X147805362Y-99732657D01*
X147689617Y-99944195D01*
X147669237Y-99990460D01*
X147643326Y-99990460D01*
X147689741Y-99515273D01*
X147173321Y-99515273D01*
X147173321Y-102242700D01*
G37*
G36*
X150264855Y-102242700D02*
G01*
X150853825Y-102242700D01*
X150853825Y-100889238D01*
X151917984Y-102242700D01*
X152692839Y-102242700D01*
X151525261Y-100806773D01*
X152532640Y-99515273D01*
X151762968Y-99515273D01*
X150853825Y-100703354D01*
X150853825Y-98481983D01*
X150264855Y-98481983D01*
X150264855Y-102242700D01*
G37*
G36*
X153423532Y-100966746D02*
G01*
X155293638Y-100966746D01*
X155293638Y-100346907D01*
X153423532Y-100346907D01*
X153423532Y-100966746D01*
G37*
G36*
X157535012Y-100071713D02*
G01*
X157641976Y-100102897D01*
X157680955Y-100135396D01*
X157709839Y-100181450D01*
X157741188Y-100310938D01*
X157749787Y-100507106D01*
X157742415Y-100692036D01*
X157709941Y-100832535D01*
X157682845Y-100876591D01*
X157646747Y-100908377D01*
X157566499Y-100937904D01*
X157455301Y-100946243D01*
X157375990Y-100942549D01*
X157268813Y-100911484D01*
X157229803Y-100879100D01*
X157200891Y-100833198D01*
X157169430Y-100703623D01*
X157160816Y-100507106D01*
X157168172Y-100322112D01*
X157200603Y-100181647D01*
X157227675Y-100137609D01*
X157263756Y-100105834D01*
X157344022Y-100076307D01*
X157455301Y-100067969D01*
X157535012Y-100071713D01*
G37*
G36*
X157733702Y-98686229D02*
G01*
X158015319Y-98725021D01*
X158203820Y-98794201D01*
X158279221Y-98842924D01*
X158344522Y-98902450D01*
X158408192Y-98984479D01*
X158462360Y-99082993D01*
X158529795Y-99264025D01*
X158586603Y-99489362D01*
X158655147Y-99937009D01*
X158684840Y-100496741D01*
X158657946Y-101025430D01*
X158586603Y-101498938D01*
X158536442Y-101698701D01*
X158447404Y-101929519D01*
X158340766Y-102081538D01*
X158273482Y-102140734D01*
X158195587Y-102188947D01*
X158089501Y-102232546D01*
X157964940Y-102263944D01*
X157735226Y-102291629D01*
X157450119Y-102299704D01*
X157188464Y-102292582D01*
X156907562Y-102254669D01*
X156717799Y-102185634D01*
X156641127Y-102136595D01*
X156574224Y-102076470D01*
X156508387Y-101993462D01*
X156451592Y-101893532D01*
X156380521Y-101713020D01*
X156318817Y-101488573D01*
X156258065Y-101142643D01*
X156233405Y-100853062D01*
X156225762Y-100553520D01*
X156226262Y-100491559D01*
X156835237Y-100491559D01*
X156857841Y-100951209D01*
X156912745Y-101333557D01*
X156963198Y-101518016D01*
X157031913Y-101639137D01*
X157080174Y-101682147D01*
X157139683Y-101713364D01*
X157271035Y-101743535D01*
X157450119Y-101751966D01*
X157667215Y-101737007D01*
X157801805Y-101690446D01*
X157855020Y-101649689D01*
X157898741Y-101595669D01*
X157954035Y-101476833D01*
X157997632Y-101313054D01*
X158048924Y-100984965D01*
X158075140Y-100507106D01*
X158053861Y-100053947D01*
X157997632Y-99659925D01*
X157942672Y-99464203D01*
X157871443Y-99340740D01*
X157822292Y-99297020D01*
X157762303Y-99265325D01*
X157629668Y-99234494D01*
X157450119Y-99225970D01*
X157244074Y-99238938D01*
X157109174Y-99282818D01*
X157056419Y-99321770D01*
X157013104Y-99373881D01*
X156957076Y-99493069D01*
X156912745Y-99659925D01*
X156864026Y-99973830D01*
X156835237Y-100491559D01*
X156226262Y-100491559D01*
X156226576Y-100452576D01*
X156259793Y-99892096D01*
X156323999Y-99478998D01*
X156373236Y-99282349D01*
X156462321Y-99049713D01*
X156568668Y-98896836D01*
X156635571Y-98837443D01*
X156712959Y-98789086D01*
X156818129Y-98745426D01*
X156941505Y-98713991D01*
X157168581Y-98686307D01*
X157450119Y-98678232D01*
X157733702Y-98686229D01*
G37*
G36*
X160631728Y-100071713D02*
G01*
X160738692Y-100102897D01*
X160777671Y-100135396D01*
X160806555Y-100181450D01*
X160837904Y-100310938D01*
X160846503Y-100507106D01*
X160839131Y-100692036D01*
X160806657Y-100832535D01*
X160779561Y-100876591D01*
X160743463Y-100908377D01*
X160663215Y-100937904D01*
X160552017Y-100946243D01*
X160472706Y-100942549D01*
X160365529Y-100911484D01*
X160326519Y-100879100D01*
X160297607Y-100833198D01*
X160266146Y-100703623D01*
X160257532Y-100507106D01*
X160264888Y-100322112D01*
X160297319Y-100181647D01*
X160324391Y-100137609D01*
X160360472Y-100105834D01*
X160440738Y-100076307D01*
X160552017Y-100067969D01*
X160631728Y-100071713D01*
G37*
G36*
X160830418Y-98686229D02*
G01*
X161112035Y-98725021D01*
X161300536Y-98794201D01*
X161375937Y-98842924D01*
X161441238Y-98902450D01*
X161504908Y-98984479D01*
X161559076Y-99082993D01*
X161626511Y-99264025D01*
X161683319Y-99489362D01*
X161751863Y-99937009D01*
X161781556Y-100496741D01*
X161754662Y-101025430D01*
X161683319Y-101498938D01*
X161633158Y-101698701D01*
X161544120Y-101929519D01*
X161437482Y-102081538D01*
X161370198Y-102140734D01*
X161292303Y-102188947D01*
X161186217Y-102232546D01*
X161061656Y-102263944D01*
X160831942Y-102291629D01*
X160546835Y-102299704D01*
X160285180Y-102292582D01*
X160004278Y-102254669D01*
X159814515Y-102185634D01*
X159737843Y-102136595D01*
X159670940Y-102076470D01*
X159605103Y-101993462D01*
X159548308Y-101893532D01*
X159477237Y-101713020D01*
X159415533Y-101488573D01*
X159354781Y-101142643D01*
X159330121Y-100853062D01*
X159322478Y-100553520D01*
X159322978Y-100491559D01*
X159931953Y-100491559D01*
X159954557Y-100951209D01*
X160009461Y-101333557D01*
X160059914Y-101518016D01*
X160128629Y-101639137D01*
X160176890Y-101682147D01*
X160236398Y-101713364D01*
X160367751Y-101743535D01*
X160546835Y-101751966D01*
X160763931Y-101737007D01*
X160898521Y-101690446D01*
X160951736Y-101649689D01*
X160995457Y-101595669D01*
X161050751Y-101476833D01*
X161094348Y-101313054D01*
X161145640Y-100984965D01*
X161171856Y-100507106D01*
X161150577Y-100053947D01*
X161094348Y-99659925D01*
X161039388Y-99464203D01*
X160968159Y-99340740D01*
X160919008Y-99297020D01*
X160859019Y-99265325D01*
X160726384Y-99234494D01*
X160546835Y-99225970D01*
X160340790Y-99238938D01*
X160205890Y-99282818D01*
X160153135Y-99321770D01*
X160109820Y-99373881D01*
X160053792Y-99493069D01*
X160009461Y-99659925D01*
X159960742Y-99973830D01*
X159931953Y-100491559D01*
X159322978Y-100491559D01*
X159323292Y-100452576D01*
X159356509Y-99892096D01*
X159420715Y-99478998D01*
X159469952Y-99282349D01*
X159559037Y-99049713D01*
X159665384Y-98896836D01*
X159732287Y-98837443D01*
X159809675Y-98789086D01*
X159914845Y-98745426D01*
X160038221Y-98713991D01*
X160265297Y-98686307D01*
X160546835Y-98678232D01*
X160830418Y-98686229D01*
G37*
D11*
G36*
X109757547Y-94995000D02*
G01*
X109940272Y-94995000D01*
X110353897Y-93907264D01*
X110171264Y-93907264D01*
X109856283Y-94791393D01*
X109841536Y-94791393D01*
X109526555Y-93907264D01*
X109343831Y-93907264D01*
X109757547Y-94995000D01*
G37*
G36*
X110722368Y-94995000D02*
G01*
X110894559Y-94995000D01*
X110894559Y-94360823D01*
X111495213Y-94360823D01*
X111495213Y-94201271D01*
X110894559Y-94201271D01*
X110894559Y-93726646D01*
X111577096Y-93726646D01*
X111577096Y-93567095D01*
X110722368Y-93567095D01*
X110722368Y-94995000D01*
G37*
G36*
X112012703Y-94995000D02*
G01*
X112842151Y-94995000D01*
X112842151Y-94837554D01*
X112184894Y-94837554D01*
X112184894Y-94331422D01*
X112720427Y-94331422D01*
X112720427Y-94173977D01*
X112184894Y-94173977D01*
X112184894Y-93724540D01*
X112800203Y-93724540D01*
X112800203Y-93567095D01*
X112012703Y-93567095D01*
X112012703Y-94995000D01*
G37*
G36*
X113673774Y-93561283D02*
G01*
X113821153Y-93578546D01*
X113916358Y-93606338D01*
X113981109Y-93644835D01*
X114006342Y-93669746D01*
X114026854Y-93698565D01*
X114045027Y-93736704D01*
X114058034Y-93780658D01*
X114068500Y-93851288D01*
X114071670Y-93934558D01*
X114069328Y-94013725D01*
X114055260Y-94102736D01*
X114028464Y-94159817D01*
X114007355Y-94183223D01*
X113980900Y-94202539D01*
X113930665Y-94225306D01*
X113865865Y-94243220D01*
X113865865Y-94249540D01*
X113969522Y-94284923D01*
X114039495Y-94324843D01*
X114064793Y-94347965D01*
X114085264Y-94374469D01*
X114103081Y-94409168D01*
X114115898Y-94449805D01*
X114127104Y-94524226D01*
X114130380Y-94617095D01*
X114127069Y-94706293D01*
X114110131Y-94805051D01*
X114079718Y-94874461D01*
X114058458Y-94902561D01*
X114032635Y-94926835D01*
X113998703Y-94949315D01*
X113958443Y-94967793D01*
X113900641Y-94985238D01*
X113832138Y-94997820D01*
X113710388Y-95008633D01*
X113561325Y-95011852D01*
X113417504Y-95008956D01*
X113204303Y-94995000D01*
X113204303Y-94841768D01*
X113372372Y-94841768D01*
X113477049Y-94851694D01*
X113636887Y-94852209D01*
X113661218Y-94851694D01*
X113791818Y-94841052D01*
X113866682Y-94820032D01*
X113913451Y-94787774D01*
X113931210Y-94763798D01*
X113943982Y-94734907D01*
X113954947Y-94682454D01*
X113958189Y-94617095D01*
X113957550Y-94578562D01*
X113946471Y-94483188D01*
X113922876Y-94423264D01*
X113905278Y-94400424D01*
X113883264Y-94381739D01*
X113851235Y-94364633D01*
X113811950Y-94352236D01*
X113735096Y-94341019D01*
X113636887Y-94337742D01*
X113372372Y-94337742D01*
X113372372Y-94841768D01*
X113204303Y-94841768D01*
X113204303Y-93716205D01*
X113372372Y-93716205D01*
X113372372Y-94182312D01*
X113636887Y-94182312D01*
X113742019Y-94176828D01*
X113811143Y-94159366D01*
X113854933Y-94129068D01*
X113872140Y-94104785D01*
X113884609Y-94074664D01*
X113896074Y-94013679D01*
X113899387Y-93934558D01*
X113897748Y-93890930D01*
X113884105Y-93826521D01*
X113871771Y-93802792D01*
X113854960Y-93782794D01*
X113829371Y-93763878D01*
X113796387Y-93748831D01*
X113728115Y-93731670D01*
X113636887Y-93720327D01*
X113618270Y-93718647D01*
X113509626Y-93712632D01*
X113372372Y-93716205D01*
X113204303Y-93716205D01*
X113204303Y-93567095D01*
X113489975Y-93556562D01*
X113673774Y-93561283D01*
G37*
G36*
X114448476Y-94995000D02*
G01*
X115359807Y-94995000D01*
X115359807Y-94835448D01*
X114622773Y-94835448D01*
X114622773Y-94812367D01*
X114916504Y-94547760D01*
X115087684Y-94382162D01*
X115193935Y-94264286D01*
X115251754Y-94191478D01*
X115290763Y-94127898D01*
X115307994Y-94086777D01*
X115319323Y-94044064D01*
X115328295Y-93941717D01*
X115328391Y-93926132D01*
X115325193Y-93832760D01*
X115314527Y-93755310D01*
X115301729Y-93709767D01*
X115283915Y-93670930D01*
X115264183Y-93642570D01*
X115239988Y-93618523D01*
X115178647Y-93582931D01*
X115088467Y-93559086D01*
X114946670Y-93546995D01*
X114876847Y-93546029D01*
X114758248Y-93549265D01*
X114661767Y-93560191D01*
X114607990Y-93572839D01*
X114562562Y-93590390D01*
X114530264Y-93609391D01*
X114502978Y-93632604D01*
X114463371Y-93689674D01*
X114436251Y-93771293D01*
X114419075Y-93907264D01*
X114591266Y-93907264D01*
X114600070Y-93843900D01*
X114615526Y-93794655D01*
X114630584Y-93768871D01*
X114650184Y-93748163D01*
X114700599Y-93721602D01*
X114782775Y-93706827D01*
X114876847Y-93703565D01*
X114973321Y-93706882D01*
X115046012Y-93718371D01*
X115080280Y-93730523D01*
X115107383Y-93747196D01*
X115125438Y-93765482D01*
X115139205Y-93787821D01*
X115156098Y-93849105D01*
X115160321Y-93924025D01*
X115156827Y-93989491D01*
X115144092Y-94043036D01*
X115105951Y-94113519D01*
X115070013Y-94161338D01*
X115002123Y-94239957D01*
X114912411Y-94330908D01*
X114622605Y-94593288D01*
X114448476Y-94745139D01*
X114448476Y-94995000D01*
G37*
G36*
X116184012Y-94135580D02*
G01*
X116220480Y-94153367D01*
X116235357Y-94174701D01*
X116244026Y-94204138D01*
X116249064Y-94289474D01*
X116246475Y-94357360D01*
X116234150Y-94406741D01*
X116223230Y-94422753D01*
X116208127Y-94434527D01*
X116180978Y-94443904D01*
X116144101Y-94446919D01*
X116103662Y-94443167D01*
X116067370Y-94425214D01*
X116052644Y-94403874D01*
X116044052Y-94374495D01*
X116039046Y-94289474D01*
X116040256Y-94241228D01*
X116050683Y-94179225D01*
X116072596Y-94147759D01*
X116102118Y-94135380D01*
X116144101Y-94131937D01*
X116184012Y-94135580D01*
G37*
G36*
X116226525Y-93547760D02*
G01*
X116344350Y-93561299D01*
X116422065Y-93587357D01*
X116452883Y-93606004D01*
X116479613Y-93629020D01*
X116505598Y-93660805D01*
X116527800Y-93699209D01*
X116555346Y-93769325D01*
X116578792Y-93856889D01*
X116582681Y-93873609D01*
X116613694Y-94057139D01*
X116622081Y-94162598D01*
X116624954Y-94281047D01*
X116615251Y-94490204D01*
X116600175Y-94601120D01*
X116578792Y-94705205D01*
X116564634Y-94760353D01*
X116527825Y-94861327D01*
X116485658Y-94925910D01*
X116459748Y-94950501D01*
X116429900Y-94970476D01*
X116389738Y-94988354D01*
X116342721Y-95001225D01*
X116254261Y-95012745D01*
X116144101Y-95016065D01*
X116061789Y-95014340D01*
X115943903Y-95000814D01*
X115866167Y-94974773D01*
X115835347Y-94956136D01*
X115808617Y-94933132D01*
X115782633Y-94901363D01*
X115760434Y-94862975D01*
X115732871Y-94792826D01*
X115709410Y-94705205D01*
X115705392Y-94687920D01*
X115674399Y-94504409D01*
X115666027Y-94399194D01*
X115663156Y-94281047D01*
X115835348Y-94281047D01*
X115840530Y-94438369D01*
X115850915Y-94540420D01*
X115866855Y-94635963D01*
X115878054Y-94683973D01*
X115907116Y-94765671D01*
X115942482Y-94813763D01*
X115967278Y-94831687D01*
X115996991Y-94844660D01*
X116060533Y-94857173D01*
X116144101Y-94860635D01*
X116197679Y-94859422D01*
X116281539Y-94847584D01*
X116335034Y-94822514D01*
X116357534Y-94801513D01*
X116376301Y-94774491D01*
X116400993Y-94715621D01*
X116421256Y-94635963D01*
X116440997Y-94510142D01*
X116449827Y-94402087D01*
X116452763Y-94281047D01*
X116447484Y-94121996D01*
X116437129Y-94020879D01*
X116421256Y-93926132D01*
X116410072Y-93878099D01*
X116381039Y-93796427D01*
X116345678Y-93748335D01*
X116320881Y-93730408D01*
X116291167Y-93717435D01*
X116227637Y-93704921D01*
X116144101Y-93701459D01*
X116090752Y-93702659D01*
X116006772Y-93714468D01*
X115953230Y-93739500D01*
X115930716Y-93760472D01*
X115911935Y-93787459D01*
X115887181Y-93846373D01*
X115866855Y-93926132D01*
X115847051Y-94052852D01*
X115838276Y-94160503D01*
X115835348Y-94281047D01*
X115663156Y-94281047D01*
X115672816Y-94072704D01*
X115687946Y-93961347D01*
X115709410Y-93856889D01*
X115724364Y-93797703D01*
X115760502Y-93698979D01*
X115802601Y-93635340D01*
X115828713Y-93610962D01*
X115858877Y-93591138D01*
X115899587Y-93573364D01*
X115947322Y-93560570D01*
X116035138Y-93549312D01*
X116144101Y-93546029D01*
X116226525Y-93547760D01*
G37*
G36*
X116966131Y-94995000D02*
G01*
X117877462Y-94995000D01*
X117877462Y-94835448D01*
X117140429Y-94835448D01*
X117140429Y-94812367D01*
X117434159Y-94547760D01*
X117605339Y-94382162D01*
X117711591Y-94264286D01*
X117769409Y-94191478D01*
X117808418Y-94127898D01*
X117825650Y-94086777D01*
X117836978Y-94044064D01*
X117845950Y-93941717D01*
X117846046Y-93926132D01*
X117842848Y-93832760D01*
X117832182Y-93755310D01*
X117819384Y-93709767D01*
X117801570Y-93670930D01*
X117781838Y-93642570D01*
X117757643Y-93618523D01*
X117696303Y-93582931D01*
X117606122Y-93559086D01*
X117464326Y-93546995D01*
X117394502Y-93546029D01*
X117275903Y-93549265D01*
X117179422Y-93560191D01*
X117125645Y-93572839D01*
X117080218Y-93590390D01*
X117047920Y-93609391D01*
X117020633Y-93632604D01*
X116981026Y-93689674D01*
X116953906Y-93771293D01*
X116936730Y-93907264D01*
X117108921Y-93907264D01*
X117117725Y-93843900D01*
X117133182Y-93794655D01*
X117148239Y-93768871D01*
X117167839Y-93748163D01*
X117218254Y-93721602D01*
X117300431Y-93706827D01*
X117394502Y-93703565D01*
X117490977Y-93706882D01*
X117563668Y-93718371D01*
X117597936Y-93730523D01*
X117625038Y-93747196D01*
X117643094Y-93765482D01*
X117656860Y-93787821D01*
X117673753Y-93849105D01*
X117677977Y-93924025D01*
X117674482Y-93989491D01*
X117661747Y-94043036D01*
X117623606Y-94113519D01*
X117587668Y-94161338D01*
X117519778Y-94239957D01*
X117430066Y-94330908D01*
X117140260Y-94593288D01*
X116966131Y-94745139D01*
X116966131Y-94995000D01*
G37*
G36*
X118872072Y-93631445D02*
G01*
X118636292Y-93851687D01*
X118511317Y-93988771D01*
X118437649Y-94097196D01*
X118408418Y-94158790D01*
X118386617Y-94222246D01*
X118397150Y-94230672D01*
X118411397Y-94199248D01*
X118445372Y-94154490D01*
X118469888Y-94137667D01*
X118500430Y-94125316D01*
X118576210Y-94112379D01*
X118684837Y-94108856D01*
X118787149Y-94111447D01*
X118909808Y-94126706D01*
X118991272Y-94153948D01*
X119049072Y-94194346D01*
X119072664Y-94222106D01*
X119091963Y-94254771D01*
X119109680Y-94300121D01*
X119122420Y-94353325D01*
X119133090Y-94444282D01*
X119136290Y-94554080D01*
X119132813Y-94671710D01*
X119116332Y-94791234D01*
X119087885Y-94871466D01*
X119046010Y-94928897D01*
X119017256Y-94952470D01*
X118983499Y-94971759D01*
X118936677Y-94989487D01*
X118881835Y-95002234D01*
X118788650Y-95012871D01*
X118676411Y-95016065D01*
X118540064Y-95011068D01*
X118425982Y-94992674D01*
X118347904Y-94962173D01*
X118291116Y-94917635D01*
X118267573Y-94887043D01*
X118248300Y-94851255D01*
X118230542Y-94801659D01*
X118217779Y-94743729D01*
X118207174Y-94646083D01*
X118204670Y-94554080D01*
X118371962Y-94554080D01*
X118373176Y-94611999D01*
X118385547Y-94711504D01*
X118409908Y-94773744D01*
X118427558Y-94797201D01*
X118449403Y-94816340D01*
X118480584Y-94833657D01*
X118518486Y-94846177D01*
X118591021Y-94857363D01*
X118682731Y-94860635D01*
X118715775Y-94860232D01*
X118818576Y-94850078D01*
X118881487Y-94827792D01*
X118904883Y-94811345D01*
X118923967Y-94790754D01*
X118941203Y-94761152D01*
X118953683Y-94724897D01*
X118965018Y-94653565D01*
X118968312Y-94562415D01*
X118967267Y-94510098D01*
X118955228Y-94412017D01*
X118931041Y-94350522D01*
X118913381Y-94327263D01*
X118891459Y-94308266D01*
X118860052Y-94291042D01*
X118821788Y-94278583D01*
X118749252Y-94267539D01*
X118657543Y-94264286D01*
X118628422Y-94264583D01*
X118522901Y-94274234D01*
X118459037Y-94295908D01*
X118435500Y-94311894D01*
X118416318Y-94331949D01*
X118399075Y-94360700D01*
X118386591Y-94395944D01*
X118375256Y-94465331D01*
X118371962Y-94554080D01*
X118204670Y-94554080D01*
X118203984Y-94528893D01*
X118213015Y-94335892D01*
X118238464Y-94193652D01*
X118283062Y-94068035D01*
X118315652Y-94004504D01*
X118355299Y-93941264D01*
X118410443Y-93867413D01*
X118476561Y-93790944D01*
X118590677Y-93675012D01*
X118730999Y-93546029D01*
X118968312Y-93546029D01*
X118872072Y-93631445D01*
G37*
D10*
G36*
X105278426Y-92793000D02*
G01*
X105708904Y-92793000D01*
X105708904Y-91624145D01*
X105670436Y-90955530D01*
X105680969Y-90955530D01*
X105901398Y-91967153D01*
X106251429Y-91967153D01*
X106468347Y-90955530D01*
X106478880Y-90955530D01*
X106440412Y-91624145D01*
X106440412Y-92793000D01*
X106870890Y-92793000D01*
X106870890Y-90413158D01*
X106328365Y-90413158D01*
X106079848Y-91515609D01*
X106069468Y-91515609D01*
X105820951Y-90413158D01*
X105278426Y-90413158D01*
X105278426Y-92793000D01*
G37*
G36*
X107300604Y-92793000D02*
G01*
X108641040Y-92793000D01*
X108641040Y-92366032D01*
X107776573Y-92366032D01*
X107776573Y-91781529D01*
X108462590Y-91781529D01*
X108462590Y-91358073D01*
X107776573Y-91358073D01*
X107776573Y-90840125D01*
X108578147Y-90840125D01*
X108578147Y-90413158D01*
X107300604Y-90413158D01*
X107300604Y-92793000D01*
G37*
G36*
X108951839Y-92793000D02*
G01*
X109382317Y-92793000D01*
X109382317Y-91624145D01*
X109343848Y-90955530D01*
X109354381Y-90955530D01*
X109574811Y-91967153D01*
X109924841Y-91967153D01*
X110141759Y-90955530D01*
X110152292Y-90955530D01*
X110113824Y-91624145D01*
X110113824Y-92793000D01*
X110544302Y-92793000D01*
X110544302Y-90413158D01*
X110001778Y-90413158D01*
X109753260Y-91515609D01*
X109742880Y-91515609D01*
X109494363Y-90413158D01*
X108951839Y-90413158D01*
X108951839Y-92793000D01*
G37*
G36*
X110939060Y-93346057D02*
G01*
X112230494Y-93346057D01*
X112230494Y-92863067D01*
X110939060Y-92863067D01*
X110939060Y-93346057D01*
G37*
G36*
X113755790Y-92145603D02*
G01*
X113739438Y-92252929D01*
X113711612Y-92325438D01*
X113688221Y-92353811D01*
X113658071Y-92373998D01*
X113572843Y-92394662D01*
X113496740Y-92397631D01*
X113419526Y-92392120D01*
X113356445Y-92373081D01*
X113320943Y-92350487D01*
X113290948Y-92318716D01*
X113246708Y-92225854D01*
X113215830Y-92059609D01*
X113200180Y-91741035D01*
X113199222Y-91592546D01*
X113205018Y-91281727D01*
X113226055Y-91062791D01*
X113245709Y-90977425D01*
X113272284Y-90912221D01*
X113299042Y-90873067D01*
X113331201Y-90844061D01*
X113409345Y-90812504D01*
X113496740Y-90805168D01*
X113583532Y-90811122D01*
X113645175Y-90833262D01*
X113692495Y-90887152D01*
X113724933Y-90990668D01*
X113738235Y-91071087D01*
X114207181Y-91071087D01*
X114187361Y-90874051D01*
X114156519Y-90716988D01*
X114129254Y-90636221D01*
X114094660Y-90568745D01*
X114058868Y-90521281D01*
X114016356Y-90481900D01*
X113912306Y-90426173D01*
X113761631Y-90391725D01*
X113496740Y-90378048D01*
X113336077Y-90383355D01*
X113198016Y-90400958D01*
X113111072Y-90422876D01*
X113034603Y-90453570D01*
X112976565Y-90487860D01*
X112925495Y-90530029D01*
X112845829Y-90634879D01*
X112785517Y-90781885D01*
X112741978Y-90996408D01*
X112716967Y-91324962D01*
X112712721Y-91599568D01*
X112718164Y-91916315D01*
X112736726Y-92175349D01*
X112757895Y-92317882D01*
X112787273Y-92439024D01*
X112818138Y-92523423D01*
X112855701Y-92595396D01*
X112895348Y-92649875D01*
X112941146Y-92695752D01*
X113049373Y-92762716D01*
X113194661Y-92805825D01*
X113404780Y-92826640D01*
X113496740Y-92828109D01*
X113682900Y-92822618D01*
X113833905Y-92803716D01*
X113915540Y-92782350D01*
X113984887Y-92752666D01*
X114034981Y-92720139D01*
X114077657Y-92680242D01*
X114141868Y-92579347D01*
X114188549Y-92430001D01*
X114221271Y-92189510D01*
X114224736Y-92145603D01*
X113755790Y-92145603D01*
G37*
G36*
X115318089Y-91316650D02*
G01*
X115380426Y-91341751D01*
X115405029Y-91368718D01*
X115423290Y-91407224D01*
X115440275Y-91493196D01*
X115445493Y-91617123D01*
X115441125Y-91732325D01*
X115418881Y-91838777D01*
X115401048Y-91871150D01*
X115377913Y-91894286D01*
X115327458Y-91915665D01*
X115259868Y-91921510D01*
X115204691Y-91918101D01*
X115140781Y-91894575D01*
X115115969Y-91869088D01*
X115097574Y-91832529D01*
X115079736Y-91745260D01*
X115074396Y-91617123D01*
X115078041Y-91497706D01*
X115097665Y-91393215D01*
X115135935Y-91339756D01*
X115187360Y-91318422D01*
X115259868Y-91312583D01*
X115318089Y-91316650D01*
G37*
G36*
X115430849Y-90382561D02*
G01*
X115616840Y-90407135D01*
X115738425Y-90451838D01*
X115786307Y-90483595D01*
X115827273Y-90522600D01*
X115866871Y-90577148D01*
X115899736Y-90643049D01*
X115941175Y-90773193D01*
X115973973Y-90938128D01*
X116009698Y-91200232D01*
X116025017Y-91398438D01*
X116029996Y-91620634D01*
X116028853Y-91728114D01*
X116011414Y-92002010D01*
X115970462Y-92285585D01*
X115945137Y-92415459D01*
X115893522Y-92580303D01*
X115829922Y-92686023D01*
X115789530Y-92726444D01*
X115742352Y-92759323D01*
X115677858Y-92788943D01*
X115601750Y-92810294D01*
X115456182Y-92829584D01*
X115273912Y-92835131D01*
X115102052Y-92830586D01*
X114914784Y-92805593D01*
X114790487Y-92759979D01*
X114740930Y-92727530D01*
X114698160Y-92687702D01*
X114656402Y-92632207D01*
X114621114Y-92565254D01*
X114576217Y-92436785D01*
X114538894Y-92275052D01*
X114534387Y-92253177D01*
X114497897Y-91981614D01*
X114489893Y-91641547D01*
X114490561Y-91610101D01*
X114962502Y-91610101D01*
X114962926Y-91679580D01*
X114975752Y-91934934D01*
X115007993Y-92166517D01*
X115021090Y-92235203D01*
X115054585Y-92335684D01*
X115075903Y-92366056D01*
X115102759Y-92388003D01*
X115164784Y-92409212D01*
X115252999Y-92415034D01*
X115304919Y-92413346D01*
X115390612Y-92394315D01*
X115422368Y-92374113D01*
X115448127Y-92344964D01*
X115482384Y-92268290D01*
X115508385Y-92152625D01*
X115533111Y-91986654D01*
X115548837Y-91813301D01*
X115553875Y-91624145D01*
X115550284Y-91393342D01*
X115538625Y-91233295D01*
X115515407Y-91078109D01*
X115497887Y-90984458D01*
X115461888Y-90879023D01*
X115439488Y-90846945D01*
X115411985Y-90823802D01*
X115347080Y-90800723D01*
X115256510Y-90794635D01*
X115207617Y-90796130D01*
X115123163Y-90814468D01*
X115091955Y-90834313D01*
X115066658Y-90863206D01*
X115031238Y-90946032D01*
X115004482Y-91074598D01*
X114987429Y-91188448D01*
X114968061Y-91384748D01*
X114962502Y-91610101D01*
X114490561Y-91610101D01*
X114495686Y-91368991D01*
X114513402Y-91148998D01*
X114545916Y-90920573D01*
X114571969Y-90793305D01*
X114624508Y-90630413D01*
X114688718Y-90526020D01*
X114729574Y-90486000D01*
X114777379Y-90453417D01*
X114843011Y-90423984D01*
X114920699Y-90402751D01*
X115069488Y-90383579D01*
X115256510Y-90378048D01*
X115430849Y-90382561D01*
G37*
G36*
X117186145Y-90395813D02*
G01*
X117413773Y-90419275D01*
X117559315Y-90461489D01*
X117659248Y-90523576D01*
X117699143Y-90565779D01*
X117731682Y-90615517D01*
X117761476Y-90684680D01*
X117782901Y-90765995D01*
X117801693Y-90914310D01*
X117807168Y-91095664D01*
X117799259Y-91330422D01*
X117772879Y-91483370D01*
X117728709Y-91575018D01*
X117695653Y-91609861D01*
X117655059Y-91636719D01*
X117573171Y-91666113D01*
X117467671Y-91683526D01*
X117467671Y-91704592D01*
X117561001Y-91741006D01*
X117598192Y-91768921D01*
X117630397Y-91806634D01*
X117681920Y-91908898D01*
X117733590Y-92068514D01*
X117947150Y-92793000D01*
X117432714Y-92793000D01*
X117264644Y-92114157D01*
X117245031Y-92045077D01*
X117201437Y-91950361D01*
X117174373Y-91919869D01*
X117141349Y-91897719D01*
X117062026Y-91875164D01*
X116949723Y-91869151D01*
X116851721Y-91869151D01*
X116851721Y-92793000D01*
X116393155Y-92793000D01*
X116393155Y-90822570D01*
X116851721Y-90822570D01*
X116851721Y-91449053D01*
X117121151Y-91449053D01*
X117222469Y-91441707D01*
X117292925Y-91413824D01*
X117319617Y-91387159D01*
X117339341Y-91350664D01*
X117360363Y-91253224D01*
X117366157Y-91109556D01*
X117362328Y-91014232D01*
X117340482Y-90921871D01*
X117320487Y-90890065D01*
X117293069Y-90865570D01*
X117220601Y-90835763D01*
X117114129Y-90819059D01*
X116988134Y-90812915D01*
X116851721Y-90822570D01*
X116393155Y-90822570D01*
X116393155Y-90413158D01*
X116623755Y-90396042D01*
X116998725Y-90392092D01*
X117186145Y-90395813D01*
G37*
G36*
X118320842Y-92793000D02*
G01*
X119661277Y-92793000D01*
X119661277Y-92366032D01*
X118796810Y-92366032D01*
X118796810Y-91781529D01*
X119482827Y-91781529D01*
X119482827Y-91358073D01*
X118796810Y-91358073D01*
X118796810Y-90840125D01*
X119598384Y-90840125D01*
X119598384Y-90413158D01*
X118320842Y-90413158D01*
X118320842Y-92793000D01*
G37*
D12*
G36*
X103014897Y-111444183D02*
G01*
X103130175Y-111481381D01*
X103232323Y-111507010D01*
X103308464Y-111519758D01*
X103380611Y-111525592D01*
X103407547Y-111526065D01*
X103533368Y-111522865D01*
X103638194Y-111512189D01*
X103699974Y-111499411D01*
X103752923Y-111481632D01*
X103791005Y-111462431D01*
X103823629Y-111438984D01*
X103849352Y-111413115D01*
X103870952Y-111383038D01*
X103903476Y-111307313D01*
X103923696Y-111198591D01*
X103930441Y-111045121D01*
X103927220Y-110941693D01*
X103916395Y-110856630D01*
X103903650Y-110807976D01*
X103885932Y-110766660D01*
X103866523Y-110736887D01*
X103842759Y-110711702D01*
X103783333Y-110674848D01*
X103697008Y-110650146D01*
X103562189Y-110637005D01*
X103506283Y-110635617D01*
X103854878Y-110268154D01*
X103854878Y-110077095D01*
X103044297Y-110077095D01*
X103044297Y-110293341D01*
X103560871Y-110293341D01*
X103264757Y-110610430D01*
X103264757Y-110856168D01*
X103401832Y-110838038D01*
X103507063Y-110833039D01*
X103557767Y-110837209D01*
X103598688Y-110847374D01*
X103625134Y-110860174D01*
X103646283Y-110877305D01*
X103673353Y-110921981D01*
X103687125Y-110991741D01*
X103688915Y-111040908D01*
X103685627Y-111120966D01*
X103674332Y-111183451D01*
X103661826Y-111215295D01*
X103644541Y-111241201D01*
X103600828Y-111273946D01*
X103533200Y-111293538D01*
X103405441Y-111301393D01*
X103301309Y-111289215D01*
X103166855Y-111247704D01*
X103014897Y-111181683D01*
X103014897Y-111444183D01*
G37*
G36*
X104599147Y-111505000D02*
G01*
X104918342Y-111505000D01*
X104918342Y-111185805D01*
X104599147Y-111185805D01*
X104599147Y-111505000D01*
G37*
G36*
X105624876Y-111526065D02*
G01*
X105897909Y-111526065D01*
X106185596Y-110933838D01*
X106483817Y-110933838D01*
X106483817Y-110702845D01*
X106296879Y-110702845D01*
X106479603Y-110329062D01*
X106479603Y-110077095D01*
X105547206Y-110077095D01*
X105547206Y-110308087D01*
X106219210Y-110308087D01*
X106026045Y-110702845D01*
X105698423Y-110702845D01*
X105698423Y-110933838D01*
X105914670Y-110933838D01*
X105624876Y-111526065D01*
G37*
G36*
X107129442Y-111505000D02*
G01*
X107421343Y-111505000D01*
X107797233Y-110396290D01*
X107532626Y-110396290D01*
X107280659Y-111269885D01*
X107270126Y-111269885D01*
X107018159Y-110396290D01*
X106753552Y-110396290D01*
X107129442Y-111505000D01*
G37*
G36*
X109380384Y-111505000D02*
G01*
X110300142Y-111505000D01*
X110300142Y-111274007D01*
X109632351Y-111274007D01*
X109632351Y-110077095D01*
X109380384Y-110077095D01*
X109380384Y-111505000D01*
G37*
G36*
X110914351Y-110173632D02*
G01*
X111225120Y-110173632D01*
X111225120Y-109875503D01*
X110914351Y-109875503D01*
X110914351Y-110173632D01*
G37*
G36*
X110641318Y-111505000D02*
G01*
X111546421Y-111505000D01*
X111546421Y-111295073D01*
X111220907Y-111295073D01*
X111220907Y-110396290D01*
X110662293Y-110396290D01*
X110662293Y-110606216D01*
X110985701Y-110606216D01*
X110985701Y-111295073D01*
X110641318Y-111295073D01*
X110641318Y-111505000D01*
G37*
G36*
X111931653Y-110986319D02*
G01*
X112691859Y-110986319D01*
X112691859Y-110734352D01*
X111931653Y-110734352D01*
X111931653Y-110986319D01*
G37*
G36*
X113698913Y-110071921D02*
G01*
X113829371Y-110092200D01*
X113916715Y-110123376D01*
X113978269Y-110166569D01*
X114003095Y-110195130D01*
X114023284Y-110228061D01*
X114041776Y-110273076D01*
X114055038Y-110325000D01*
X114067011Y-110422077D01*
X114070396Y-110539080D01*
X114066634Y-110647566D01*
X114049470Y-110755989D01*
X114019675Y-110830581D01*
X113999402Y-110860067D01*
X113974935Y-110885446D01*
X113943523Y-110908494D01*
X113906502Y-110927392D01*
X113854279Y-110945007D01*
X113792817Y-110957689D01*
X113685766Y-110968452D01*
X113555838Y-110971665D01*
X113398393Y-110971665D01*
X113398393Y-111505000D01*
X113150547Y-111505000D01*
X113150547Y-110742779D01*
X113398393Y-110742779D01*
X113536970Y-110742779D01*
X113654313Y-110737526D01*
X113731032Y-110720712D01*
X113777636Y-110692500D01*
X113795230Y-110670805D01*
X113807922Y-110644165D01*
X113819257Y-110592461D01*
X113822551Y-110526441D01*
X113815589Y-110434987D01*
X113795377Y-110377116D01*
X113779318Y-110355107D01*
X113758656Y-110337046D01*
X113727570Y-110320294D01*
X113688649Y-110308097D01*
X113607611Y-110296651D01*
X113501250Y-110293341D01*
X113398393Y-110293341D01*
X113398393Y-110742779D01*
X113150547Y-110742779D01*
X113150547Y-110077095D01*
X113309378Y-110066825D01*
X113494930Y-110064455D01*
X113698913Y-110071921D01*
G37*
G36*
X114868468Y-110375551D02*
G01*
X115020315Y-110386254D01*
X115122291Y-110410070D01*
X115195353Y-110446528D01*
X115225013Y-110470598D01*
X115250577Y-110498995D01*
X115274015Y-110535114D01*
X115293222Y-110577050D01*
X115311029Y-110635126D01*
X115323822Y-110702598D01*
X115334376Y-110814789D01*
X115337559Y-110948584D01*
X115336930Y-111012433D01*
X115325307Y-111185036D01*
X115301239Y-111299068D01*
X115265672Y-111378874D01*
X115216321Y-111437468D01*
X115183432Y-111461700D01*
X115145583Y-111481499D01*
X115094432Y-111499533D01*
X115035568Y-111512460D01*
X114940893Y-111522899D01*
X114829412Y-111526065D01*
X114786792Y-111525670D01*
X114636063Y-111514630D01*
X114534433Y-111490462D01*
X114461429Y-111453610D01*
X114431744Y-111429303D01*
X114406159Y-111400663D01*
X114382686Y-111364247D01*
X114363454Y-111322007D01*
X114345623Y-111263554D01*
X114332817Y-111195704D01*
X114322250Y-111082940D01*
X114319066Y-110948584D01*
X114562698Y-110948584D01*
X114564176Y-111026756D01*
X114576678Y-111142029D01*
X114600099Y-111211443D01*
X114636165Y-111256722D01*
X114663347Y-111274408D01*
X114695992Y-111287140D01*
X114755493Y-111298146D01*
X114829412Y-111301393D01*
X114866162Y-111300693D01*
X114953782Y-111289309D01*
X115010176Y-111264828D01*
X115032257Y-111246121D01*
X115050387Y-111222598D01*
X115067280Y-111187654D01*
X115079549Y-111144506D01*
X115090744Y-111058878D01*
X115094018Y-110948584D01*
X115092674Y-110874695D01*
X115080392Y-110759291D01*
X115057133Y-110689846D01*
X115021232Y-110644576D01*
X114994169Y-110626906D01*
X114961654Y-110614186D01*
X114902659Y-110603228D01*
X114829412Y-110599988D01*
X114792716Y-110600669D01*
X114703889Y-110612000D01*
X114646919Y-110636348D01*
X114624703Y-110654882D01*
X114606476Y-110678161D01*
X114589532Y-110712637D01*
X114577230Y-110755151D01*
X114565980Y-110839722D01*
X114562698Y-110948584D01*
X114319066Y-110948584D01*
X114319624Y-110888534D01*
X114331013Y-110715804D01*
X114354873Y-110601905D01*
X114390253Y-110522271D01*
X114439449Y-110463817D01*
X114472303Y-110439627D01*
X114510140Y-110419864D01*
X114561416Y-110401830D01*
X114620478Y-110388904D01*
X114716324Y-110378399D01*
X114829412Y-110375224D01*
X114868468Y-110375551D01*
G37*
G36*
X117419712Y-110070726D02*
G01*
X117557028Y-110089685D01*
X117647688Y-110119340D01*
X117710631Y-110160339D01*
X117735572Y-110187067D01*
X117755878Y-110217932D01*
X117774014Y-110259018D01*
X117787001Y-110306333D01*
X117797457Y-110382327D01*
X117800626Y-110471852D01*
X117799276Y-110526130D01*
X117786700Y-110611342D01*
X117760680Y-110666553D01*
X117739339Y-110689737D01*
X117712196Y-110709086D01*
X117657094Y-110733386D01*
X117584379Y-110753220D01*
X117584379Y-110759540D01*
X117699275Y-110795919D01*
X117768702Y-110834626D01*
X117793948Y-110857413D01*
X117814385Y-110883640D01*
X117832209Y-110918108D01*
X117845026Y-110958494D01*
X117856162Y-111031785D01*
X117859427Y-111122882D01*
X117855112Y-111224074D01*
X117836890Y-111320518D01*
X117805098Y-111389012D01*
X117782953Y-111416966D01*
X117756154Y-111441133D01*
X117720911Y-111463605D01*
X117679172Y-111482080D01*
X117619342Y-111499525D01*
X117548532Y-111512106D01*
X117423785Y-111522855D01*
X117271413Y-111526065D01*
X117160400Y-111525427D01*
X117014466Y-111519568D01*
X116895523Y-111505000D01*
X116895523Y-111295073D01*
X117141262Y-111295073D01*
X117234685Y-111302114D01*
X117340747Y-111301393D01*
X117413747Y-111295114D01*
X117511923Y-111276870D01*
X117565488Y-111251300D01*
X117583892Y-111233605D01*
X117597059Y-111212256D01*
X117608381Y-111172750D01*
X117611673Y-111122882D01*
X117606156Y-111029047D01*
X117588177Y-110965050D01*
X117556043Y-110923119D01*
X117529548Y-110906196D01*
X117496455Y-110893901D01*
X117428924Y-110882546D01*
X117340747Y-110879249D01*
X117141262Y-110879249D01*
X117141262Y-111295073D01*
X116895523Y-111295073D01*
X116895523Y-110293341D01*
X117141262Y-110293341D01*
X117141262Y-110658790D01*
X117340747Y-110658790D01*
X117382024Y-110658086D01*
X117465774Y-110647885D01*
X117512817Y-110626447D01*
X117529972Y-110609069D01*
X117542406Y-110586902D01*
X117553785Y-110541103D01*
X117557085Y-110480279D01*
X117550106Y-110405738D01*
X117529163Y-110360011D01*
X117509929Y-110341191D01*
X117484323Y-110326206D01*
X117424470Y-110307802D01*
X117340747Y-110295448D01*
X117258315Y-110288865D01*
X117141262Y-110293341D01*
X116895523Y-110293341D01*
X116895523Y-110077095D01*
X117006314Y-110066825D01*
X117221038Y-110064455D01*
X117419712Y-110070726D01*
G37*
G36*
X118659771Y-110376140D02*
G01*
X118798070Y-110388072D01*
X118886178Y-110411839D01*
X118946420Y-110447626D01*
X118970342Y-110472022D01*
X118989872Y-110500879D01*
X119007605Y-110540709D01*
X119020356Y-110587569D01*
X119031062Y-110668200D01*
X119034266Y-110765860D01*
X119034266Y-111505000D01*
X118824248Y-111505000D01*
X118824248Y-111372742D01*
X118813806Y-111372742D01*
X118784866Y-111433007D01*
X118745142Y-111478655D01*
X118717282Y-111495928D01*
X118683601Y-111508479D01*
X118611099Y-111520558D01*
X118513479Y-111523959D01*
X118399470Y-111519931D01*
X118301247Y-111503474D01*
X118238212Y-111475505D01*
X118214219Y-111456030D01*
X118194670Y-111432445D01*
X118177094Y-111399550D01*
X118164430Y-111360211D01*
X118153469Y-111288844D01*
X118150229Y-111200551D01*
X118150929Y-111166937D01*
X118387450Y-111166937D01*
X118390314Y-111218821D01*
X118404715Y-111265299D01*
X118418228Y-111281790D01*
X118436698Y-111293895D01*
X118483511Y-111306283D01*
X118551306Y-111309727D01*
X118653898Y-111301920D01*
X118713906Y-111281111D01*
X118736690Y-111264913D01*
X118755469Y-111244218D01*
X118772885Y-111213572D01*
X118785797Y-111175439D01*
X118798336Y-111098653D01*
X118803273Y-110998959D01*
X118614321Y-110998959D01*
X118572471Y-110999556D01*
X118481900Y-111009277D01*
X118432580Y-111029685D01*
X118415097Y-111045888D01*
X118402451Y-111066495D01*
X118390790Y-111109619D01*
X118387450Y-111166937D01*
X118150929Y-111166937D01*
X118151419Y-111143397D01*
X118164508Y-111034626D01*
X118190672Y-110961276D01*
X118231890Y-110907761D01*
X118261588Y-110885230D01*
X118297061Y-110866727D01*
X118348143Y-110849316D01*
X118408988Y-110836749D01*
X118519670Y-110825794D01*
X118656270Y-110822554D01*
X118805380Y-110822554D01*
X118805380Y-110770073D01*
X118804669Y-110734566D01*
X118794047Y-110659151D01*
X118771120Y-110614850D01*
X118751799Y-110597967D01*
X118726997Y-110585675D01*
X118672735Y-110573939D01*
X118599575Y-110570587D01*
X118515509Y-110575731D01*
X118465879Y-110592020D01*
X118448948Y-110605722D01*
X118436784Y-110623722D01*
X118425584Y-110664123D01*
X118423170Y-110719698D01*
X118187964Y-110719698D01*
X118191617Y-110594878D01*
X118209669Y-110515207D01*
X118241681Y-110460030D01*
X118265253Y-110437532D01*
X118293976Y-110419063D01*
X118335646Y-110401815D01*
X118385871Y-110389348D01*
X118478231Y-110378455D01*
X118593255Y-110375224D01*
X118659771Y-110376140D01*
G37*
G36*
X119371229Y-110595775D02*
G01*
X119650491Y-110595775D01*
X119650491Y-111152282D01*
X119653734Y-111255995D01*
X119664711Y-111339438D01*
X119677276Y-111384861D01*
X119694683Y-111422727D01*
X119713624Y-111449325D01*
X119736777Y-111471290D01*
X119795316Y-111502159D01*
X119882830Y-111520559D01*
X120001193Y-111526065D01*
X120107812Y-111521498D01*
X120288338Y-111501251D01*
X120307840Y-111498771D01*
X120307840Y-111274007D01*
X120173934Y-111292703D01*
X120080969Y-111297179D01*
X120004292Y-111293779D01*
X119950545Y-111281699D01*
X119928644Y-111269763D01*
X119912389Y-111253513D01*
X119894870Y-111210319D01*
X119889910Y-111145963D01*
X119889910Y-110595775D01*
X120255266Y-110595775D01*
X120255266Y-110396290D01*
X119894123Y-110396290D01*
X119894123Y-110068668D01*
X119652597Y-110169419D01*
X119652597Y-110396290D01*
X119432137Y-110396290D01*
X119371229Y-110595775D01*
G37*
G36*
X120630057Y-110595775D02*
G01*
X120909318Y-110595775D01*
X120909318Y-111152282D01*
X120912561Y-111255995D01*
X120923538Y-111339438D01*
X120936104Y-111384861D01*
X120953510Y-111422727D01*
X120972452Y-111449325D01*
X120995604Y-111471290D01*
X121054144Y-111502159D01*
X121141658Y-111520559D01*
X121260020Y-111526065D01*
X121366639Y-111521498D01*
X121547166Y-111501251D01*
X121566667Y-111498771D01*
X121566667Y-111274007D01*
X121432761Y-111292703D01*
X121339796Y-111297179D01*
X121263120Y-111293779D01*
X121209372Y-111281699D01*
X121187472Y-111269763D01*
X121171217Y-111253513D01*
X121153698Y-111210319D01*
X121148737Y-111145963D01*
X121148737Y-110595775D01*
X121514094Y-110595775D01*
X121514094Y-110396290D01*
X121152950Y-110396290D01*
X121152950Y-110068668D01*
X120911425Y-110169419D01*
X120911425Y-110396290D01*
X120690965Y-110396290D01*
X120630057Y-110595775D01*
G37*
G36*
X122447905Y-110376615D02*
G01*
X122576195Y-110390577D01*
X122665541Y-110417811D01*
X122731687Y-110458890D01*
X122759292Y-110486440D01*
X122782984Y-110518830D01*
X122804980Y-110560859D01*
X122822718Y-110609670D01*
X122838874Y-110678156D01*
X122849800Y-110757870D01*
X122857375Y-110892450D01*
X122856911Y-111053547D01*
X122147172Y-111053547D01*
X122157855Y-111150335D01*
X122179359Y-111220595D01*
X122212717Y-111265161D01*
X122238378Y-111282540D01*
X122269731Y-111295105D01*
X122331057Y-111306434D01*
X122409672Y-111309727D01*
X122449357Y-111309027D01*
X122524552Y-111299083D01*
X122568467Y-111275881D01*
X122591314Y-111246474D01*
X122609157Y-111204764D01*
X122842256Y-111204764D01*
X122826811Y-111286928D01*
X122796805Y-111377872D01*
X122757516Y-111438430D01*
X122731810Y-111462194D01*
X122701658Y-111481583D01*
X122660131Y-111499182D01*
X122611102Y-111511859D01*
X122522857Y-111522824D01*
X122413885Y-111526065D01*
X122379372Y-111525802D01*
X122228374Y-111515341D01*
X122126866Y-111491659D01*
X122054067Y-111455251D01*
X122024478Y-111431158D01*
X121998976Y-111402720D01*
X121975564Y-111366483D01*
X121956380Y-111324393D01*
X121938566Y-111265976D01*
X121925769Y-111198077D01*
X121915156Y-111084368D01*
X121911966Y-110948584D01*
X121912067Y-110920920D01*
X121914770Y-110864595D01*
X122149278Y-110864595D01*
X122625918Y-110864595D01*
X122615420Y-110750463D01*
X122594746Y-110674714D01*
X122563321Y-110628089D01*
X122539826Y-110610412D01*
X122511335Y-110597675D01*
X122457224Y-110586418D01*
X122388697Y-110583135D01*
X122307134Y-110587866D01*
X122243934Y-110605451D01*
X122220596Y-110619624D01*
X122201274Y-110638121D01*
X122183412Y-110665581D01*
X122169896Y-110700148D01*
X122155978Y-110771196D01*
X122149278Y-110864595D01*
X121914770Y-110864595D01*
X121921217Y-110730251D01*
X121942916Y-110607863D01*
X121975736Y-110524283D01*
X122021277Y-110464279D01*
X122051436Y-110439847D01*
X122086221Y-110419910D01*
X122133109Y-110401847D01*
X122187140Y-110388904D01*
X122274756Y-110378399D01*
X122378164Y-110375224D01*
X122447905Y-110376615D01*
G37*
G36*
X123238021Y-111505000D02*
G01*
X123475334Y-111505000D01*
X123475334Y-110917076D01*
X123478953Y-110865603D01*
X123492569Y-110818455D01*
X123539299Y-110736173D01*
X123559323Y-110707058D01*
X123600321Y-110655416D01*
X123639782Y-110623509D01*
X123695610Y-110605520D01*
X123754595Y-110602095D01*
X123809299Y-110605554D01*
X123848595Y-110618047D01*
X123866864Y-110631379D01*
X123882155Y-110649916D01*
X123912040Y-110717591D01*
X124138911Y-110660896D01*
X124120986Y-110582733D01*
X124098120Y-110520419D01*
X124078529Y-110486159D01*
X124054878Y-110457999D01*
X124000203Y-110421214D01*
X123922489Y-110398667D01*
X123798228Y-110388332D01*
X123754595Y-110387863D01*
X123671879Y-110391221D01*
X123606604Y-110403004D01*
X123572181Y-110416142D01*
X123542256Y-110434446D01*
X123494948Y-110484657D01*
X123447897Y-110570648D01*
X123439613Y-110589455D01*
X123429080Y-110589455D01*
X123447948Y-110396290D01*
X123238021Y-110396290D01*
X123238021Y-111505000D01*
G37*
G36*
X124629106Y-111967076D02*
G01*
X124876952Y-111967076D01*
X125418713Y-110396290D01*
X125166746Y-110396290D01*
X124910474Y-111196338D01*
X124902139Y-111196338D01*
X124641746Y-110396290D01*
X124389687Y-110396290D01*
X124746709Y-111431543D01*
X124820257Y-111431543D01*
X124629106Y-111967076D01*
G37*
D10*
G36*
X167101536Y-113410000D02*
G01*
X167374569Y-113410000D01*
X167632856Y-112866132D01*
X167634963Y-112866132D01*
X167893250Y-113410000D01*
X168166283Y-113410000D01*
X167788286Y-112662433D01*
X168143110Y-111982095D01*
X167874382Y-111982095D01*
X167634963Y-112467161D01*
X167632856Y-112467161D01*
X167393437Y-111982095D01*
X167124617Y-111982095D01*
X167479533Y-112662433D01*
X167101536Y-113410000D01*
G37*
G36*
X168755213Y-112078632D02*
G01*
X169065982Y-112078632D01*
X169065982Y-111780503D01*
X168755213Y-111780503D01*
X168755213Y-112078632D01*
G37*
G36*
X168482180Y-113410000D02*
G01*
X169387283Y-113410000D01*
X169387283Y-113200073D01*
X169061769Y-113200073D01*
X169061769Y-112301290D01*
X168503155Y-112301290D01*
X168503155Y-112511216D01*
X168826563Y-112511216D01*
X168826563Y-113200073D01*
X168482180Y-113200073D01*
X168482180Y-113410000D01*
G37*
G36*
X170206495Y-112281140D02*
G01*
X170344793Y-112293072D01*
X170432902Y-112316839D01*
X170493144Y-112352626D01*
X170517066Y-112377022D01*
X170536596Y-112405879D01*
X170554329Y-112445709D01*
X170567079Y-112492569D01*
X170577785Y-112573200D01*
X170580990Y-112670860D01*
X170580990Y-113410000D01*
X170370971Y-113410000D01*
X170370971Y-113277742D01*
X170360530Y-113277742D01*
X170331590Y-113338007D01*
X170291865Y-113383655D01*
X170264006Y-113400928D01*
X170230325Y-113413479D01*
X170157823Y-113425558D01*
X170060203Y-113428959D01*
X169946193Y-113424931D01*
X169847971Y-113408474D01*
X169784935Y-113380505D01*
X169760942Y-113361030D01*
X169741394Y-113337445D01*
X169723818Y-113304550D01*
X169711153Y-113265211D01*
X169700193Y-113193844D01*
X169696953Y-113105551D01*
X169697652Y-113071937D01*
X169934173Y-113071937D01*
X169937038Y-113123821D01*
X169951439Y-113170299D01*
X169964951Y-113186790D01*
X169983421Y-113198895D01*
X170030235Y-113211283D01*
X170098030Y-113214727D01*
X170200621Y-113206920D01*
X170260629Y-113186111D01*
X170283413Y-113169913D01*
X170302193Y-113149218D01*
X170319608Y-113118572D01*
X170332521Y-113080439D01*
X170345059Y-113003653D01*
X170349997Y-112903959D01*
X170161045Y-112903959D01*
X170119195Y-112904556D01*
X170028624Y-112914277D01*
X169979304Y-112934685D01*
X169961820Y-112950888D01*
X169949175Y-112971495D01*
X169937514Y-113014619D01*
X169934173Y-113071937D01*
X169697652Y-113071937D01*
X169698142Y-113048397D01*
X169711231Y-112939626D01*
X169737396Y-112866276D01*
X169778614Y-112812761D01*
X169808311Y-112790230D01*
X169843785Y-112771727D01*
X169894866Y-112754316D01*
X169955711Y-112741749D01*
X170066394Y-112730794D01*
X170202993Y-112727554D01*
X170352103Y-112727554D01*
X170352103Y-112675073D01*
X170351393Y-112639566D01*
X170340770Y-112564151D01*
X170317844Y-112519850D01*
X170298523Y-112502967D01*
X170273721Y-112490675D01*
X170219459Y-112478939D01*
X170146298Y-112475587D01*
X170062232Y-112480731D01*
X170012603Y-112497020D01*
X169995671Y-112510722D01*
X169983508Y-112528722D01*
X169972308Y-112569123D01*
X169969894Y-112624698D01*
X169734688Y-112624698D01*
X169738341Y-112499878D01*
X169756392Y-112420207D01*
X169788405Y-112365030D01*
X169811977Y-112342532D01*
X169840700Y-112324063D01*
X169882370Y-112306815D01*
X169932595Y-112294348D01*
X170024955Y-112283455D01*
X170139979Y-112280224D01*
X170206495Y-112281140D01*
G37*
G36*
X171450502Y-112280551D02*
G01*
X171602349Y-112291254D01*
X171704325Y-112315070D01*
X171777387Y-112351528D01*
X171807047Y-112375598D01*
X171832611Y-112403995D01*
X171856049Y-112440114D01*
X171875256Y-112482050D01*
X171893064Y-112540126D01*
X171905856Y-112607598D01*
X171916410Y-112719789D01*
X171919593Y-112853584D01*
X171918965Y-112917433D01*
X171907341Y-113090036D01*
X171883273Y-113204068D01*
X171847706Y-113283874D01*
X171798355Y-113342468D01*
X171765467Y-113366700D01*
X171727617Y-113386499D01*
X171676466Y-113404533D01*
X171617602Y-113417460D01*
X171522927Y-113427899D01*
X171411446Y-113431065D01*
X171368826Y-113430670D01*
X171218098Y-113419630D01*
X171116467Y-113395462D01*
X171043463Y-113358610D01*
X171013778Y-113334303D01*
X170988193Y-113305663D01*
X170964720Y-113269247D01*
X170945488Y-113227007D01*
X170927657Y-113168554D01*
X170914851Y-113100704D01*
X170904285Y-112987940D01*
X170901100Y-112853584D01*
X171144733Y-112853584D01*
X171146210Y-112931756D01*
X171158712Y-113047029D01*
X171182134Y-113116443D01*
X171218200Y-113161722D01*
X171245381Y-113179408D01*
X171278026Y-113192140D01*
X171337527Y-113203146D01*
X171411446Y-113206393D01*
X171448196Y-113205693D01*
X171535816Y-113194309D01*
X171592210Y-113169828D01*
X171614291Y-113151121D01*
X171632421Y-113127598D01*
X171649315Y-113092654D01*
X171661583Y-113049506D01*
X171672778Y-112963878D01*
X171676052Y-112853584D01*
X171674708Y-112779695D01*
X171662426Y-112664291D01*
X171639167Y-112594846D01*
X171603266Y-112549576D01*
X171576204Y-112531906D01*
X171543688Y-112519186D01*
X171484693Y-112508228D01*
X171411446Y-112504988D01*
X171374750Y-112505669D01*
X171285924Y-112517000D01*
X171228953Y-112541348D01*
X171206738Y-112559882D01*
X171188510Y-112583161D01*
X171171566Y-112617637D01*
X171159265Y-112660151D01*
X171148015Y-112744722D01*
X171144733Y-112853584D01*
X170901100Y-112853584D01*
X170901658Y-112793534D01*
X170913047Y-112620804D01*
X170936908Y-112506905D01*
X170972287Y-112427271D01*
X171021483Y-112368817D01*
X171054337Y-112344627D01*
X171092174Y-112324864D01*
X171143450Y-112306830D01*
X171202512Y-112293904D01*
X171298358Y-112283399D01*
X171411446Y-112280224D01*
X171450502Y-112280551D01*
G37*
G36*
X173540572Y-113410000D02*
G01*
X174416274Y-113410000D01*
X174416274Y-113181113D01*
X173788417Y-113181113D01*
X173788417Y-112782143D01*
X174294458Y-112782143D01*
X174294458Y-112553257D01*
X173788417Y-112553257D01*
X173788417Y-112210981D01*
X174374325Y-112210981D01*
X174374325Y-111982095D01*
X173540572Y-111982095D01*
X173540572Y-113410000D01*
G37*
G36*
X174671355Y-113036216D02*
G01*
X174672152Y-113128304D01*
X174680784Y-113205545D01*
X174692459Y-113251831D01*
X174709374Y-113291707D01*
X174728521Y-113321180D01*
X174752295Y-113346489D01*
X174812980Y-113384741D01*
X174901995Y-113411682D01*
X175039929Y-113427655D01*
X175179502Y-113431065D01*
X175315327Y-113427845D01*
X175426593Y-113417029D01*
X175489558Y-113404397D01*
X175542826Y-113386870D01*
X175580249Y-113368167D01*
X175611856Y-113345379D01*
X175636240Y-113320422D01*
X175656327Y-113291458D01*
X175685422Y-113218491D01*
X175701581Y-113112541D01*
X175704502Y-113021562D01*
X175701311Y-112933438D01*
X175690699Y-112858099D01*
X175677466Y-112810566D01*
X175658909Y-112768372D01*
X175637540Y-112734977D01*
X175611109Y-112704907D01*
X175541792Y-112653339D01*
X175437602Y-112606502D01*
X175271044Y-112558427D01*
X175202583Y-112542724D01*
X175088879Y-112514249D01*
X175009681Y-112484674D01*
X174977256Y-112465394D01*
X174953546Y-112443641D01*
X174929947Y-112398139D01*
X174923322Y-112339025D01*
X174926588Y-112291957D01*
X174937723Y-112255210D01*
X174950674Y-112235690D01*
X174968724Y-112219978D01*
X175021540Y-112198804D01*
X175119793Y-112187312D01*
X175198370Y-112185793D01*
X175303748Y-112189210D01*
X175374024Y-112201406D01*
X175399854Y-112212762D01*
X175418315Y-112228046D01*
X175436086Y-112265687D01*
X175439896Y-112297076D01*
X175679315Y-112297076D01*
X175674269Y-112216549D01*
X175662082Y-112149393D01*
X175648212Y-112109228D01*
X175629354Y-112074857D01*
X175608282Y-112049198D01*
X175582554Y-112027419D01*
X175515590Y-111994446D01*
X175414259Y-111972259D01*
X175250155Y-111961563D01*
X175190035Y-111961029D01*
X175053348Y-111964265D01*
X174942432Y-111975194D01*
X174881203Y-111987765D01*
X174829765Y-112005184D01*
X174794019Y-112023695D01*
X174764078Y-112046236D01*
X174722531Y-112099693D01*
X174696171Y-112172753D01*
X174682989Y-112280652D01*
X174681796Y-112336919D01*
X174684983Y-112416337D01*
X174695565Y-112484481D01*
X174708874Y-112527986D01*
X174727562Y-112566739D01*
X174749389Y-112597898D01*
X174776458Y-112626063D01*
X174849022Y-112675485D01*
X174960886Y-112721716D01*
X175144813Y-112771219D01*
X175194248Y-112782143D01*
X175296434Y-112808004D01*
X175370001Y-112836529D01*
X175401604Y-112856104D01*
X175425619Y-112878716D01*
X175452018Y-112928124D01*
X175462583Y-112999562D01*
X175462977Y-113021562D01*
X175459695Y-113078310D01*
X175448447Y-113122263D01*
X175435748Y-113144837D01*
X175418135Y-113162975D01*
X175369346Y-113186620D01*
X175283546Y-113199762D01*
X175196355Y-113202179D01*
X175088881Y-113198777D01*
X175011440Y-113186687D01*
X174978677Y-113174707D01*
X174953374Y-113158385D01*
X174924744Y-113118729D01*
X174910302Y-113056996D01*
X174908576Y-113036216D01*
X174671355Y-113036216D01*
G37*
G36*
X176575085Y-111976921D02*
G01*
X176705544Y-111997200D01*
X176792888Y-112028376D01*
X176854442Y-112071569D01*
X176879267Y-112100130D01*
X176899457Y-112133061D01*
X176917948Y-112178076D01*
X176931210Y-112230000D01*
X176943183Y-112327077D01*
X176946569Y-112444080D01*
X176942807Y-112552566D01*
X176925643Y-112660989D01*
X176895847Y-112735581D01*
X176875574Y-112765067D01*
X176851108Y-112790446D01*
X176819695Y-112813494D01*
X176782675Y-112832392D01*
X176730452Y-112850007D01*
X176668990Y-112862689D01*
X176561938Y-112873452D01*
X176432010Y-112876665D01*
X176274565Y-112876665D01*
X176274565Y-113410000D01*
X176026720Y-113410000D01*
X176026720Y-112647779D01*
X176274565Y-112647779D01*
X176413142Y-112647779D01*
X176530485Y-112642526D01*
X176607205Y-112625712D01*
X176653808Y-112597500D01*
X176671403Y-112575805D01*
X176684095Y-112549165D01*
X176695429Y-112497461D01*
X176698723Y-112431441D01*
X176691761Y-112339987D01*
X176671549Y-112282116D01*
X176655490Y-112260107D01*
X176634828Y-112242046D01*
X176603742Y-112225294D01*
X176564822Y-112213097D01*
X176483783Y-112201651D01*
X176377422Y-112198341D01*
X176274565Y-112198341D01*
X176274565Y-112647779D01*
X176026720Y-112647779D01*
X176026720Y-111982095D01*
X176185550Y-111971825D01*
X176371102Y-111969455D01*
X176575085Y-111976921D01*
G37*
G36*
X177220518Y-113349183D02*
G01*
X177335796Y-113386381D01*
X177437944Y-113412010D01*
X177514085Y-113424758D01*
X177586233Y-113430592D01*
X177613169Y-113431065D01*
X177738989Y-113427865D01*
X177843815Y-113417189D01*
X177905595Y-113404411D01*
X177958544Y-113386632D01*
X177996626Y-113367431D01*
X178029250Y-113343984D01*
X178054973Y-113318115D01*
X178076573Y-113288038D01*
X178109097Y-113212313D01*
X178129317Y-113103591D01*
X178136062Y-112950121D01*
X178132841Y-112846693D01*
X178122016Y-112761630D01*
X178109271Y-112712976D01*
X178091553Y-112671660D01*
X178072144Y-112641887D01*
X178048381Y-112616702D01*
X177988954Y-112579848D01*
X177902629Y-112555146D01*
X177767810Y-112542005D01*
X177711904Y-112540617D01*
X178060499Y-112173154D01*
X178060499Y-111982095D01*
X177249918Y-111982095D01*
X177249918Y-112198341D01*
X177766492Y-112198341D01*
X177470378Y-112515430D01*
X177470378Y-112761168D01*
X177607453Y-112743038D01*
X177712684Y-112738039D01*
X177763388Y-112742209D01*
X177804309Y-112752374D01*
X177830755Y-112765174D01*
X177851904Y-112782305D01*
X177878974Y-112826981D01*
X177892746Y-112896741D01*
X177894536Y-112945908D01*
X177891248Y-113025966D01*
X177879953Y-113088451D01*
X177867447Y-113120295D01*
X177850162Y-113146201D01*
X177806449Y-113178946D01*
X177738821Y-113198538D01*
X177611062Y-113206393D01*
X177506930Y-113194215D01*
X177372476Y-113152704D01*
X177220518Y-113086683D01*
X177220518Y-113349183D01*
G37*
G36*
X178508746Y-113410000D02*
G01*
X179457904Y-113410000D01*
X179457904Y-113181113D01*
X178811088Y-113181113D01*
X178811088Y-113170672D01*
X179016322Y-112984643D01*
X179157831Y-112843818D01*
X179285713Y-112700260D01*
X179348990Y-112621328D01*
X179390607Y-112553671D01*
X179407378Y-112512938D01*
X179418275Y-112470514D01*
X179426397Y-112362198D01*
X179423192Y-112264291D01*
X179412481Y-112183004D01*
X179399667Y-112135329D01*
X179381828Y-112094599D01*
X179362153Y-112064903D01*
X179338037Y-112039639D01*
X179277471Y-112002226D01*
X179189534Y-111976785D01*
X179053239Y-111962906D01*
X178955985Y-111961029D01*
X178835651Y-111964255D01*
X178736979Y-111975116D01*
X178681003Y-111987817D01*
X178633455Y-112005461D01*
X178599458Y-112024565D01*
X178570559Y-112047909D01*
X178528422Y-112104845D01*
X178499227Y-112184994D01*
X178480828Y-112306453D01*
X178477239Y-112360091D01*
X178729206Y-112360091D01*
X178737953Y-112299784D01*
X178753796Y-112254802D01*
X178768549Y-112233552D01*
X178787835Y-112217026D01*
X178839861Y-112196775D01*
X178932343Y-112188115D01*
X178955985Y-112187900D01*
X179039889Y-112191258D01*
X179100522Y-112203043D01*
X179126814Y-112215023D01*
X179146851Y-112231380D01*
X179169223Y-112272950D01*
X179178320Y-112342466D01*
X179178551Y-112360091D01*
X179175117Y-112413812D01*
X179162796Y-112458624D01*
X179123489Y-112523389D01*
X179092456Y-112561683D01*
X178973516Y-112696379D01*
X178850571Y-112820347D01*
X178602100Y-113039905D01*
X178508746Y-113118190D01*
X178508746Y-113410000D01*
G37*
G36*
X180504607Y-113034110D02*
G01*
X180492234Y-113093646D01*
X180473796Y-113138097D01*
X180457526Y-113159566D01*
X180436931Y-113176157D01*
X180382682Y-113196219D01*
X180273614Y-113204286D01*
X180214487Y-113201099D01*
X180164866Y-113190517D01*
X180134482Y-113177391D01*
X180108389Y-113159016D01*
X180070851Y-113109966D01*
X180043790Y-113033042D01*
X180025986Y-112906178D01*
X180019541Y-112691834D01*
X180022827Y-112531095D01*
X180034111Y-112407125D01*
X180046263Y-112346057D01*
X180062954Y-112296756D01*
X180080171Y-112264707D01*
X180100998Y-112239108D01*
X180149737Y-112206936D01*
X180217750Y-112190640D01*
X180273614Y-112187900D01*
X180344684Y-112191292D01*
X180397834Y-112203316D01*
X180422758Y-112216014D01*
X180442999Y-112233541D01*
X180471009Y-112281961D01*
X180492059Y-112366319D01*
X180739813Y-112366319D01*
X180728862Y-112264487D01*
X180711707Y-112180466D01*
X180695102Y-112131557D01*
X180673991Y-112090044D01*
X180651832Y-112059932D01*
X180625524Y-112034540D01*
X180561418Y-111997583D01*
X180470618Y-111973464D01*
X180331486Y-111961765D01*
X180273614Y-111961029D01*
X180184201Y-111964088D01*
X180105114Y-111973778D01*
X180048478Y-111986950D01*
X179997931Y-112005340D01*
X179958080Y-112026275D01*
X179922576Y-112051885D01*
X179866291Y-112114590D01*
X179823006Y-112199063D01*
X179790677Y-112315767D01*
X179769943Y-112482165D01*
X179763360Y-112696047D01*
X179766545Y-112867472D01*
X179777116Y-113011243D01*
X179789886Y-113097459D01*
X179807655Y-113171720D01*
X179826595Y-113224858D01*
X179849663Y-113270739D01*
X179874103Y-113306067D01*
X179902331Y-113336245D01*
X179968505Y-113381204D01*
X180055458Y-113411428D01*
X180176728Y-113428175D01*
X180273614Y-113431065D01*
X180390714Y-113427842D01*
X180487009Y-113417005D01*
X180542120Y-113404264D01*
X180589122Y-113386551D01*
X180623087Y-113367248D01*
X180652142Y-113343633D01*
X180695375Y-113285530D01*
X180726577Y-113202996D01*
X180748365Y-113076757D01*
X180752452Y-113034110D01*
X180504607Y-113034110D01*
G37*
G36*
X180997001Y-113349183D02*
G01*
X181112279Y-113386381D01*
X181214427Y-113412010D01*
X181290568Y-113424758D01*
X181362715Y-113430592D01*
X181389651Y-113431065D01*
X181515472Y-113427865D01*
X181620298Y-113417189D01*
X181682078Y-113404411D01*
X181735027Y-113386632D01*
X181773109Y-113367431D01*
X181805733Y-113343984D01*
X181831456Y-113318115D01*
X181853056Y-113288038D01*
X181885580Y-113212313D01*
X181905800Y-113103591D01*
X181912545Y-112950121D01*
X181909324Y-112846693D01*
X181898499Y-112761630D01*
X181885754Y-112712976D01*
X181868036Y-112671660D01*
X181848627Y-112641887D01*
X181824863Y-112616702D01*
X181765437Y-112579848D01*
X181679112Y-112555146D01*
X181544293Y-112542005D01*
X181488387Y-112540617D01*
X181836982Y-112173154D01*
X181836982Y-111982095D01*
X181026401Y-111982095D01*
X181026401Y-112198341D01*
X181542975Y-112198341D01*
X181246861Y-112515430D01*
X181246861Y-112761168D01*
X181383936Y-112743038D01*
X181489167Y-112738039D01*
X181539871Y-112742209D01*
X181580792Y-112752374D01*
X181607238Y-112765174D01*
X181628387Y-112782305D01*
X181655457Y-112826981D01*
X181669229Y-112896741D01*
X181671019Y-112945908D01*
X181667731Y-113025966D01*
X181656436Y-113088451D01*
X181643930Y-113120295D01*
X181626645Y-113146201D01*
X181582932Y-113178946D01*
X181515304Y-113198538D01*
X181387545Y-113206393D01*
X181283413Y-113194215D01*
X181148959Y-113152704D01*
X180997001Y-113086683D01*
X180997001Y-113349183D01*
G37*
D12*
G36*
X100518952Y-106425000D02*
G01*
X100796106Y-106425000D01*
X100953643Y-105183941D01*
X100966283Y-105183941D01*
X101123728Y-106425000D01*
X101400974Y-106425000D01*
X101560525Y-104997095D01*
X101348401Y-104997095D01*
X101260198Y-106170926D01*
X101249757Y-106170926D01*
X101211930Y-105778275D01*
X101094327Y-104997095D01*
X100823492Y-104997095D01*
X100707904Y-105778275D01*
X100676489Y-106170926D01*
X100665956Y-106170926D01*
X100569327Y-104997095D01*
X100357294Y-104997095D01*
X100518952Y-106425000D01*
G37*
G36*
X102284318Y-105296615D02*
G01*
X102412608Y-105310577D01*
X102501954Y-105337811D01*
X102568100Y-105378890D01*
X102595705Y-105406440D01*
X102619397Y-105438830D01*
X102641393Y-105480859D01*
X102659131Y-105529670D01*
X102675287Y-105598156D01*
X102686213Y-105677870D01*
X102693789Y-105812450D01*
X102693324Y-105973547D01*
X101983585Y-105973547D01*
X101994268Y-106070335D01*
X102015772Y-106140595D01*
X102049130Y-106185161D01*
X102074792Y-106202540D01*
X102106145Y-106215105D01*
X102167470Y-106226434D01*
X102246085Y-106229727D01*
X102285770Y-106229027D01*
X102360965Y-106219083D01*
X102404880Y-106195881D01*
X102427727Y-106166474D01*
X102445570Y-106124764D01*
X102678669Y-106124764D01*
X102663224Y-106206928D01*
X102633218Y-106297872D01*
X102593929Y-106358430D01*
X102568224Y-106382194D01*
X102538072Y-106401583D01*
X102496544Y-106419182D01*
X102447515Y-106431859D01*
X102359270Y-106442824D01*
X102250298Y-106446065D01*
X102215785Y-106445802D01*
X102064788Y-106435341D01*
X101963279Y-106411659D01*
X101890480Y-106375251D01*
X101860891Y-106351158D01*
X101835389Y-106322720D01*
X101811977Y-106286483D01*
X101792793Y-106244393D01*
X101774979Y-106185976D01*
X101762182Y-106118077D01*
X101751570Y-106004368D01*
X101748379Y-105868584D01*
X101748480Y-105840920D01*
X101751183Y-105784595D01*
X101985691Y-105784595D01*
X102462331Y-105784595D01*
X102451833Y-105670463D01*
X102431159Y-105594714D01*
X102399734Y-105548089D01*
X102376239Y-105530412D01*
X102347748Y-105517675D01*
X102293637Y-105506418D01*
X102225110Y-105503135D01*
X102143547Y-105507866D01*
X102080348Y-105525451D01*
X102057009Y-105539624D01*
X102037687Y-105558121D01*
X102019825Y-105585581D01*
X102006309Y-105620148D01*
X101992391Y-105691196D01*
X101985691Y-105784595D01*
X101751183Y-105784595D01*
X101757630Y-105650251D01*
X101779329Y-105527863D01*
X101812149Y-105444283D01*
X101857690Y-105384279D01*
X101887849Y-105359847D01*
X101922635Y-105339910D01*
X101969522Y-105321847D01*
X102023554Y-105308904D01*
X102111169Y-105298399D01*
X102214577Y-105295224D01*
X102284318Y-105296615D01*
G37*
G36*
X104050887Y-106425000D02*
G01*
X103811468Y-106425000D01*
X103725372Y-106107911D01*
X103225560Y-106107911D01*
X103143677Y-106425000D01*
X102904350Y-106425000D01*
X103044513Y-105889558D01*
X103280239Y-105889558D01*
X103674997Y-105889558D01*
X103500699Y-105215448D01*
X103454537Y-105215448D01*
X103280239Y-105889558D01*
X103044513Y-105889558D01*
X103278133Y-104997095D01*
X103674997Y-104997095D01*
X104050887Y-106425000D01*
G37*
G36*
X104979986Y-106105805D02*
G01*
X104967621Y-106152609D01*
X104949262Y-106185837D01*
X104932936Y-106200971D01*
X104912107Y-106211939D01*
X104849948Y-106223887D01*
X104797354Y-106225514D01*
X104726613Y-106222285D01*
X104669508Y-106211406D01*
X104637692Y-106198676D01*
X104611188Y-106180983D01*
X104575804Y-106135371D01*
X104552737Y-106064891D01*
X104540467Y-105946974D01*
X104539067Y-105868584D01*
X104542380Y-105753665D01*
X104553844Y-105665676D01*
X104566074Y-105623162D01*
X104582879Y-105589005D01*
X104600829Y-105566309D01*
X104622676Y-105548451D01*
X104678703Y-105525590D01*
X104766900Y-105515993D01*
X104786821Y-105515775D01*
X104855355Y-105519219D01*
X104904686Y-105531607D01*
X104926100Y-105544200D01*
X104942995Y-105561503D01*
X104965709Y-105610893D01*
X104975865Y-105658565D01*
X105219405Y-105658565D01*
X105213578Y-105565762D01*
X105200718Y-105489511D01*
X105186710Y-105445386D01*
X105167907Y-105408081D01*
X105147435Y-105381037D01*
X105122623Y-105358362D01*
X105059817Y-105325305D01*
X104966800Y-105304171D01*
X104795247Y-105295224D01*
X104683331Y-105298401D01*
X104588536Y-105308919D01*
X104530237Y-105321846D01*
X104479640Y-105339882D01*
X104442296Y-105359660D01*
X104409883Y-105383873D01*
X104361299Y-105442523D01*
X104326342Y-105522712D01*
X104302811Y-105637882D01*
X104291711Y-105813429D01*
X104291222Y-105870690D01*
X104294404Y-106004984D01*
X104304954Y-106117580D01*
X104317743Y-106185303D01*
X104335545Y-106243587D01*
X104354741Y-106285661D01*
X104378165Y-106321896D01*
X104403699Y-106350370D01*
X104433323Y-106374506D01*
X104506240Y-106411051D01*
X104607939Y-106434936D01*
X104759285Y-106445719D01*
X104799460Y-106446065D01*
X104912876Y-106442815D01*
X105004200Y-106431782D01*
X105053866Y-106419189D01*
X105095492Y-106401739D01*
X105124871Y-106382821D01*
X105149435Y-106359702D01*
X105184749Y-106301989D01*
X105208058Y-106217208D01*
X105219405Y-106105805D01*
X104979986Y-106105805D01*
G37*
G36*
X105501781Y-105515775D02*
G01*
X105781042Y-105515775D01*
X105781042Y-106072282D01*
X105784285Y-106175995D01*
X105795262Y-106259438D01*
X105807827Y-106304861D01*
X105825234Y-106342727D01*
X105844176Y-106369325D01*
X105867328Y-106391290D01*
X105925868Y-106422159D01*
X106013381Y-106440559D01*
X106131744Y-106446065D01*
X106238363Y-106441498D01*
X106418889Y-106421251D01*
X106438391Y-106418771D01*
X106438391Y-106194007D01*
X106304485Y-106212703D01*
X106211520Y-106217179D01*
X106134844Y-106213779D01*
X106081096Y-106201699D01*
X106059195Y-106189763D01*
X106042941Y-106173513D01*
X106025422Y-106130319D01*
X106020461Y-106065963D01*
X106020461Y-105515775D01*
X106385818Y-105515775D01*
X106385818Y-105316290D01*
X106024674Y-105316290D01*
X106024674Y-104988668D01*
X105783148Y-105089419D01*
X105783148Y-105316290D01*
X105562689Y-105316290D01*
X105501781Y-105515775D01*
G37*
G36*
X108124399Y-106425000D02*
G01*
X109000102Y-106425000D01*
X109000102Y-106196113D01*
X108372245Y-106196113D01*
X108372245Y-105797143D01*
X108878285Y-105797143D01*
X108878285Y-105568257D01*
X108372245Y-105568257D01*
X108372245Y-105225981D01*
X108958153Y-105225981D01*
X108958153Y-104997095D01*
X108124399Y-104997095D01*
X108124399Y-106425000D01*
G37*
G36*
X109900085Y-104991921D02*
G01*
X110030544Y-105012200D01*
X110117888Y-105043376D01*
X110179442Y-105086569D01*
X110204267Y-105115130D01*
X110224457Y-105148061D01*
X110242948Y-105193076D01*
X110256210Y-105245000D01*
X110268183Y-105342077D01*
X110271569Y-105459080D01*
X110267807Y-105567566D01*
X110250643Y-105675989D01*
X110220847Y-105750581D01*
X110200574Y-105780067D01*
X110176108Y-105805446D01*
X110144695Y-105828494D01*
X110107675Y-105847392D01*
X110055452Y-105865007D01*
X109993990Y-105877689D01*
X109886938Y-105888452D01*
X109757010Y-105891665D01*
X109599565Y-105891665D01*
X109599565Y-106425000D01*
X109351720Y-106425000D01*
X109351720Y-105662779D01*
X109599565Y-105662779D01*
X109738142Y-105662779D01*
X109855485Y-105657526D01*
X109932205Y-105640712D01*
X109978808Y-105612500D01*
X109996403Y-105590805D01*
X110009095Y-105564165D01*
X110020429Y-105512461D01*
X110023723Y-105446441D01*
X110016761Y-105354987D01*
X109996549Y-105297116D01*
X109980490Y-105275107D01*
X109959828Y-105257046D01*
X109928742Y-105240294D01*
X109889822Y-105228097D01*
X109808783Y-105216651D01*
X109702422Y-105213341D01*
X109599565Y-105213341D01*
X109599565Y-105662779D01*
X109351720Y-105662779D01*
X109351720Y-104997095D01*
X109510550Y-104986825D01*
X109696102Y-104984455D01*
X109900085Y-104991921D01*
G37*
G36*
X110814042Y-104984730D02*
G01*
X110879367Y-104986562D01*
X110906216Y-104987213D01*
X111091139Y-105000848D01*
X111219098Y-105027221D01*
X111312486Y-105065508D01*
X111383705Y-105117337D01*
X111413792Y-105150351D01*
X111439760Y-105188038D01*
X111463881Y-105235265D01*
X111483622Y-105288833D01*
X111501776Y-105360955D01*
X111514772Y-105443055D01*
X111525135Y-105571804D01*
X111528290Y-105721580D01*
X111527620Y-105793842D01*
X111515502Y-105990920D01*
X111490382Y-106126253D01*
X111453524Y-106224020D01*
X111403844Y-106297658D01*
X111372503Y-106328397D01*
X111336774Y-106354893D01*
X111292431Y-106379290D01*
X111242255Y-106399240D01*
X111175276Y-106417469D01*
X111099275Y-106430511D01*
X110981773Y-106440812D01*
X110845753Y-106443959D01*
X110712706Y-106441337D01*
X110549639Y-106422984D01*
X110549639Y-106212966D01*
X110797485Y-106212966D01*
X110918658Y-106218991D01*
X110965013Y-106217395D01*
X110967569Y-106217179D01*
X111062996Y-106204185D01*
X111140981Y-106178739D01*
X111195558Y-106140338D01*
X111217998Y-106113130D01*
X111236419Y-106080483D01*
X111253664Y-106033422D01*
X111266137Y-105976923D01*
X111277190Y-105871074D01*
X111280444Y-105738341D01*
X111279679Y-105662225D01*
X111268384Y-105492659D01*
X111245838Y-105388062D01*
X111212801Y-105319172D01*
X111191225Y-105292850D01*
X111165888Y-105271262D01*
X111132330Y-105252031D01*
X111093253Y-105237794D01*
X111029197Y-105225238D01*
X110952823Y-105219661D01*
X110900096Y-105216267D01*
X110797485Y-105213341D01*
X110797485Y-106212966D01*
X110549639Y-106212966D01*
X110549639Y-104997095D01*
X110706541Y-104983729D01*
X110814042Y-104984730D01*
G37*
G36*
X113092574Y-106425000D02*
G01*
X114041732Y-106425000D01*
X114041732Y-106196113D01*
X113394916Y-106196113D01*
X113394916Y-106185672D01*
X113600149Y-105999643D01*
X113741658Y-105858818D01*
X113869541Y-105715260D01*
X113932818Y-105636328D01*
X113974435Y-105568671D01*
X113991205Y-105527938D01*
X114002102Y-105485514D01*
X114010225Y-105377198D01*
X114007020Y-105279291D01*
X113996308Y-105198004D01*
X113983495Y-105150329D01*
X113965656Y-105109599D01*
X113945980Y-105079903D01*
X113921865Y-105054639D01*
X113861299Y-105017226D01*
X113773361Y-104991785D01*
X113637066Y-104977906D01*
X113539813Y-104976029D01*
X113419478Y-104979255D01*
X113320807Y-104990116D01*
X113264831Y-105002817D01*
X113217282Y-105020461D01*
X113183285Y-105039565D01*
X113154387Y-105062909D01*
X113112249Y-105119845D01*
X113083055Y-105199994D01*
X113064656Y-105321453D01*
X113061066Y-105375091D01*
X113313033Y-105375091D01*
X113321781Y-105314784D01*
X113337624Y-105269802D01*
X113352376Y-105248552D01*
X113371663Y-105232026D01*
X113423688Y-105211775D01*
X113516171Y-105203115D01*
X113539813Y-105202900D01*
X113623716Y-105206258D01*
X113684350Y-105218043D01*
X113710641Y-105230023D01*
X113730679Y-105246380D01*
X113753051Y-105287950D01*
X113762148Y-105357466D01*
X113762379Y-105375091D01*
X113758944Y-105428812D01*
X113746624Y-105473624D01*
X113707317Y-105538389D01*
X113676284Y-105576683D01*
X113557344Y-105711379D01*
X113434399Y-105835347D01*
X113185928Y-106054905D01*
X113092574Y-106133190D01*
X113092574Y-106425000D01*
G37*
G36*
X114647424Y-106425000D02*
G01*
X114966618Y-106425000D01*
X114966618Y-106105805D01*
X114647424Y-106105805D01*
X114647424Y-106425000D01*
G37*
G36*
X116198520Y-104980810D02*
G01*
X116318052Y-104998820D01*
X116398899Y-105028625D01*
X116456941Y-105071762D01*
X116480745Y-105101098D01*
X116500208Y-105135357D01*
X116518036Y-105182512D01*
X116530842Y-105237478D01*
X116541451Y-105329701D01*
X116544641Y-105440121D01*
X116542367Y-105535520D01*
X116524985Y-105688214D01*
X116488242Y-105822825D01*
X116459630Y-105891956D01*
X116423698Y-105961989D01*
X116372135Y-106045885D01*
X116308870Y-106134855D01*
X116192309Y-106279409D01*
X116044920Y-106446065D01*
X115719405Y-106446065D01*
X115835196Y-106332345D01*
X116010287Y-106140328D01*
X116235979Y-105864371D01*
X116227553Y-105855944D01*
X116198762Y-105875770D01*
X116125782Y-105911643D01*
X116054066Y-105925795D01*
X115956718Y-105929492D01*
X115911459Y-105928820D01*
X115795568Y-105917176D01*
X115719046Y-105892655D01*
X115664309Y-105853929D01*
X115641588Y-105826218D01*
X115622949Y-105793080D01*
X115605509Y-105745575D01*
X115592925Y-105688987D01*
X115581962Y-105586080D01*
X115578722Y-105459080D01*
X115578946Y-105452760D01*
X115822262Y-105452760D01*
X115827310Y-105553892D01*
X115844376Y-105624373D01*
X115874046Y-105668654D01*
X115897689Y-105685924D01*
X115926980Y-105698427D01*
X115985723Y-105709847D01*
X116061681Y-105713154D01*
X116151872Y-105707913D01*
X116215632Y-105690161D01*
X116238642Y-105676227D01*
X116257424Y-105658193D01*
X116274299Y-105631764D01*
X116286559Y-105598706D01*
X116297817Y-105531733D01*
X116301100Y-105444334D01*
X116296566Y-105349704D01*
X116280086Y-105280079D01*
X116250882Y-105236368D01*
X116227364Y-105219275D01*
X116198058Y-105206886D01*
X116139625Y-105195647D01*
X116063788Y-105192367D01*
X115973540Y-105197277D01*
X115908286Y-105214508D01*
X115866063Y-105245512D01*
X115849147Y-105271034D01*
X115836859Y-105302966D01*
X115825552Y-105367909D01*
X115822262Y-105452760D01*
X115578946Y-105452760D01*
X115583742Y-105317461D01*
X115602043Y-105200510D01*
X115632245Y-105121004D01*
X115676099Y-105063584D01*
X115706074Y-105039906D01*
X115741104Y-105020540D01*
X115789564Y-105002725D01*
X115846118Y-104989926D01*
X115942156Y-104979231D01*
X116057468Y-104976029D01*
X116198520Y-104980810D01*
G37*
G36*
X117007634Y-105477948D02*
G01*
X117200799Y-105477948D01*
X117232307Y-105015963D01*
X117232307Y-104835345D01*
X116971913Y-104835345D01*
X116971913Y-105018069D01*
X117007634Y-105477948D01*
G37*
G36*
X117452766Y-105477948D02*
G01*
X117646024Y-105477948D01*
X117677531Y-105015963D01*
X117677531Y-104835345D01*
X117417137Y-104835345D01*
X117417137Y-105018069D01*
X117452766Y-105477948D01*
G37*
D10*
X102798383Y-109072070D02*
X103959526Y-109072070D01*
X102798383Y-112882070D02*
X103959526Y-112882070D01*
X103378954Y-113462641D02*
X103378954Y-112301498D01*
D13*
G36*
X126594893Y-95375000D02*
G01*
X126923705Y-95375000D01*
X127293916Y-93594286D01*
X127405108Y-92880242D01*
X127417564Y-92880242D01*
X127654968Y-94308330D01*
X127979384Y-94308330D01*
X128810298Y-92880242D01*
X128822388Y-92880242D01*
X128637191Y-93594286D01*
X128266980Y-95375000D01*
X128595608Y-95375000D01*
X129189302Y-92519190D01*
X128720905Y-92519190D01*
X127909042Y-93955521D01*
X127871856Y-93955521D01*
X127656983Y-92519190D01*
X127188586Y-92519190D01*
X126594893Y-95375000D01*
G37*
G36*
X130682079Y-93159419D02*
G01*
X130925885Y-93184353D01*
X131085727Y-93233968D01*
X131195385Y-93308114D01*
X131237808Y-93357899D01*
X131271350Y-93416450D01*
X131298886Y-93493762D01*
X131315864Y-93583759D01*
X131322857Y-93713075D01*
X131315216Y-93864312D01*
X131279228Y-94128155D01*
X131215846Y-94446816D01*
X129732803Y-94446816D01*
X129706972Y-94620668D01*
X129700967Y-94813745D01*
X129729131Y-94933358D01*
X129755470Y-94978298D01*
X129790696Y-95015118D01*
X129844121Y-95048904D01*
X129911261Y-95073429D01*
X130043451Y-95095549D01*
X130212923Y-95102058D01*
X130374787Y-95095507D01*
X130525047Y-95063710D01*
X130584188Y-95035224D01*
X130635941Y-94996707D01*
X130705082Y-94917184D01*
X130770896Y-94808051D01*
X131099708Y-94808051D01*
X131071780Y-94877506D01*
X130963810Y-95094985D01*
X130856521Y-95232572D01*
X130795751Y-95284095D01*
X130728171Y-95325761D01*
X130641574Y-95362193D01*
X130542615Y-95388291D01*
X130369765Y-95410595D01*
X130159617Y-95417131D01*
X130098728Y-95416675D01*
X129819397Y-95396632D01*
X129640645Y-95351765D01*
X129520601Y-95283982D01*
X129474866Y-95239204D01*
X129438112Y-95186444D01*
X129407449Y-95117941D01*
X129386996Y-95038281D01*
X129375213Y-94924689D01*
X129377216Y-94792089D01*
X129403282Y-94561268D01*
X129454549Y-94283051D01*
X129487365Y-94144565D01*
X129799665Y-94144565D01*
X130962138Y-94144565D01*
X130988645Y-93970757D01*
X130997519Y-93767131D01*
X130971572Y-93642820D01*
X130946779Y-93596959D01*
X130913422Y-93559466D01*
X130863334Y-93525517D01*
X130800430Y-93500901D01*
X130678480Y-93478955D01*
X130522868Y-93472470D01*
X130470795Y-93473027D01*
X130261430Y-93493385D01*
X130120238Y-93541744D01*
X130062144Y-93578985D01*
X130010963Y-93626190D01*
X129959101Y-93694415D01*
X129913636Y-93778634D01*
X129853726Y-93939273D01*
X129799665Y-94144565D01*
X129487365Y-94144565D01*
X129534079Y-93947431D01*
X129630106Y-93664079D01*
X129731172Y-93475019D01*
X129847184Y-93342947D01*
X129916563Y-93290869D01*
X129993463Y-93248655D01*
X130091483Y-93211497D01*
X130201471Y-93185007D01*
X130373029Y-93163939D01*
X130571960Y-93157580D01*
X130682079Y-93159419D01*
G37*
G36*
X131601444Y-95375000D02*
G01*
X131917800Y-95375000D01*
X132149159Y-94262168D01*
X132216968Y-93968215D01*
X132284609Y-93752119D01*
X132329490Y-93652290D01*
X132378161Y-93576681D01*
X132421578Y-93531393D01*
X132469283Y-93499282D01*
X132574986Y-93469957D01*
X132614075Y-93468257D01*
X132683550Y-93474494D01*
X132737778Y-93494705D01*
X132768274Y-93519900D01*
X132790880Y-93554837D01*
X132813194Y-93658815D01*
X132800570Y-93850651D01*
X132756774Y-94085764D01*
X132480535Y-95375000D01*
X132801104Y-95375000D01*
X133032463Y-94262168D01*
X133098392Y-93976520D01*
X133164217Y-93764032D01*
X133209723Y-93660157D01*
X133258727Y-93581471D01*
X133302175Y-93534290D01*
X133349628Y-93500813D01*
X133452910Y-93470215D01*
X133493349Y-93468257D01*
X133559858Y-93474494D01*
X133611237Y-93494705D01*
X133639802Y-93519918D01*
X133660659Y-93554884D01*
X133680315Y-93661504D01*
X133664254Y-93864396D01*
X133623592Y-94085764D01*
X133355596Y-95375000D01*
X133672135Y-95375000D01*
X133940130Y-94085764D01*
X133991941Y-93805421D01*
X134016412Y-93583992D01*
X134016602Y-93466330D01*
X134003254Y-93370521D01*
X133982489Y-93308541D01*
X133952440Y-93258537D01*
X133873746Y-93195776D01*
X133755383Y-93163170D01*
X133656564Y-93157580D01*
X133553468Y-93163977D01*
X133465782Y-93185312D01*
X133407382Y-93213080D01*
X133353245Y-93252437D01*
X133248420Y-93373881D01*
X133176627Y-93489323D01*
X133156294Y-93489323D01*
X133150130Y-93375056D01*
X133128923Y-93288652D01*
X133104735Y-93244831D01*
X133071395Y-93211078D01*
X132980989Y-93171630D01*
X132822719Y-93157580D01*
X132703810Y-93163977D01*
X132604930Y-93185312D01*
X132542195Y-93212265D01*
X132485319Y-93250211D01*
X132381795Y-93362885D01*
X132301749Y-93489323D01*
X132281050Y-93489323D01*
X132341317Y-93199528D01*
X132053721Y-93199528D01*
X131601444Y-95375000D01*
G37*
G36*
X135717389Y-93159419D02*
G01*
X135961196Y-93184353D01*
X136121037Y-93233968D01*
X136230696Y-93308114D01*
X136273119Y-93357899D01*
X136306661Y-93416450D01*
X136334197Y-93493762D01*
X136351175Y-93583759D01*
X136358167Y-93713075D01*
X136350527Y-93864312D01*
X136314538Y-94128155D01*
X136251156Y-94446816D01*
X134768114Y-94446816D01*
X134742283Y-94620668D01*
X134736278Y-94813745D01*
X134764441Y-94933358D01*
X134790780Y-94978298D01*
X134826007Y-95015118D01*
X134879431Y-95048904D01*
X134946572Y-95073429D01*
X135078761Y-95095549D01*
X135248234Y-95102058D01*
X135410097Y-95095507D01*
X135560358Y-95063710D01*
X135619498Y-95035224D01*
X135671251Y-94996707D01*
X135740393Y-94917184D01*
X135806207Y-94808051D01*
X136135019Y-94808051D01*
X136107091Y-94877506D01*
X135999120Y-95094985D01*
X135891832Y-95232572D01*
X135831061Y-95284095D01*
X135763482Y-95325761D01*
X135676884Y-95362193D01*
X135577925Y-95388291D01*
X135405075Y-95410595D01*
X135194928Y-95417131D01*
X135134039Y-95416675D01*
X134854708Y-95396632D01*
X134675956Y-95351765D01*
X134555911Y-95283982D01*
X134510176Y-95239204D01*
X134473423Y-95186444D01*
X134442759Y-95117941D01*
X134422307Y-95038281D01*
X134410523Y-94924689D01*
X134412527Y-94792089D01*
X134438592Y-94561268D01*
X134489860Y-94283051D01*
X134522676Y-94144565D01*
X134834975Y-94144565D01*
X135997449Y-94144565D01*
X136023956Y-93970757D01*
X136032829Y-93767131D01*
X136006882Y-93642820D01*
X135982089Y-93596959D01*
X135948733Y-93559466D01*
X135898644Y-93525517D01*
X135835741Y-93500901D01*
X135713790Y-93478955D01*
X135558178Y-93472470D01*
X135506105Y-93473027D01*
X135296740Y-93493385D01*
X135155549Y-93541744D01*
X135097455Y-93578985D01*
X135046273Y-93626190D01*
X134994411Y-93694415D01*
X134948946Y-93778634D01*
X134889037Y-93939273D01*
X134834975Y-94144565D01*
X134522676Y-94144565D01*
X134569389Y-93947431D01*
X134665417Y-93664079D01*
X134766483Y-93475019D01*
X134882495Y-93342947D01*
X134951873Y-93290869D01*
X135028773Y-93248655D01*
X135126794Y-93211497D01*
X135236782Y-93185007D01*
X135408339Y-93163939D01*
X135607271Y-93157580D01*
X135717389Y-93159419D01*
G37*
G36*
X136809312Y-95375000D02*
G01*
X137137941Y-95375000D01*
X137369300Y-94262168D01*
X137425019Y-94026077D01*
X137486167Y-93840833D01*
X137532077Y-93743600D01*
X137584117Y-93664519D01*
X137634286Y-93610368D01*
X137690883Y-93567175D01*
X137823098Y-93510750D01*
X138009594Y-93483609D01*
X138115218Y-93480896D01*
X138263867Y-93487466D01*
X138375126Y-93510007D01*
X138426868Y-93533992D01*
X138466028Y-93566844D01*
X138506410Y-93648388D01*
X138514003Y-93777812D01*
X138481948Y-93989043D01*
X138193803Y-95375000D01*
X138522431Y-95375000D01*
X138810577Y-93989043D01*
X138851390Y-93760939D01*
X138867401Y-93576804D01*
X138863027Y-93477367D01*
X138845841Y-93393992D01*
X138821634Y-93336774D01*
X138787833Y-93288859D01*
X138696634Y-93221552D01*
X138555052Y-93178104D01*
X138322832Y-93158189D01*
X138260664Y-93157580D01*
X138072618Y-93164263D01*
X137922872Y-93187601D01*
X137841939Y-93213923D01*
X137770631Y-93250638D01*
X137655549Y-93350461D01*
X137537248Y-93517784D01*
X137516945Y-93552337D01*
X137496612Y-93552337D01*
X137569884Y-93199528D01*
X137261589Y-93199528D01*
X136809312Y-95375000D01*
G37*
G36*
X139665671Y-93489323D02*
G01*
X140224377Y-93489323D01*
X139969387Y-94715727D01*
X139934137Y-94917302D01*
X139923393Y-95077899D01*
X139930903Y-95161545D01*
X139950700Y-95231084D01*
X139976977Y-95278772D01*
X140012721Y-95318200D01*
X140111689Y-95373823D01*
X140273133Y-95407550D01*
X140489075Y-95417131D01*
X140690974Y-95408938D01*
X140977887Y-95375030D01*
X141008030Y-95370969D01*
X141071777Y-95064323D01*
X140785738Y-95094181D01*
X140624446Y-95102058D01*
X140477733Y-95095342D01*
X140373082Y-95071777D01*
X140329768Y-95048186D01*
X140298541Y-95016085D01*
X140270225Y-94934307D01*
X140276002Y-94794760D01*
X140293253Y-94698874D01*
X140544762Y-93489323D01*
X141308815Y-93489323D01*
X141369082Y-93199528D01*
X140609059Y-93199528D01*
X140740034Y-92569565D01*
X140395102Y-92708051D01*
X140292887Y-93199528D01*
X139808004Y-93199528D01*
X139665671Y-93489323D01*
G37*
G36*
X143481942Y-93175708D02*
G01*
X143661268Y-93218789D01*
X143781164Y-93284848D01*
X143826753Y-93328709D01*
X143863409Y-93380575D01*
X143894013Y-93448128D01*
X143914449Y-93526905D01*
X143926265Y-93639706D01*
X143924291Y-93771742D01*
X143898092Y-94003157D01*
X143846437Y-94283051D01*
X143759646Y-94644106D01*
X143663456Y-94917834D01*
X143560936Y-95102454D01*
X143442134Y-95232691D01*
X143370605Y-95284417D01*
X143291241Y-95326390D01*
X143189805Y-95363438D01*
X143075904Y-95389865D01*
X142899280Y-95410792D01*
X142694588Y-95417131D01*
X142652579Y-95416909D01*
X142372687Y-95398278D01*
X142194188Y-95354535D01*
X142074529Y-95287738D01*
X142028959Y-95243422D01*
X141992335Y-95191085D01*
X141961759Y-95122942D01*
X141941374Y-95043554D01*
X141929645Y-94929976D01*
X141931580Y-94806499D01*
X142279152Y-94806499D01*
X142308507Y-94930509D01*
X142335209Y-94976907D01*
X142370479Y-95014828D01*
X142422703Y-95049144D01*
X142487508Y-95073969D01*
X142608419Y-95095616D01*
X142760167Y-95102058D01*
X142877570Y-95098503D01*
X143058995Y-95069359D01*
X143189828Y-95010245D01*
X143246572Y-94965008D01*
X143297034Y-94908472D01*
X143349823Y-94825721D01*
X143396625Y-94724136D01*
X143459645Y-94530117D01*
X143517625Y-94283051D01*
X143570946Y-93965898D01*
X143576323Y-93767849D01*
X143547251Y-93643810D01*
X143520696Y-93597431D01*
X143485573Y-93559521D01*
X143433576Y-93525241D01*
X143369025Y-93500440D01*
X143249185Y-93478897D01*
X143098871Y-93472470D01*
X142980804Y-93475998D01*
X142797453Y-93505093D01*
X142665655Y-93563972D01*
X142608710Y-93608878D01*
X142558145Y-93664937D01*
X142505419Y-93746779D01*
X142458784Y-93847122D01*
X142396089Y-94038969D01*
X142338665Y-94283051D01*
X142284138Y-94608597D01*
X142279152Y-94806499D01*
X141931580Y-94806499D01*
X141931726Y-94797160D01*
X141958135Y-94564360D01*
X142010036Y-94283051D01*
X142094849Y-93929655D01*
X142190577Y-93656113D01*
X142292617Y-93471883D01*
X142411012Y-93341980D01*
X142482428Y-93290357D01*
X142561731Y-93248471D01*
X142663389Y-93211429D01*
X142777657Y-93185007D01*
X142956596Y-93163939D01*
X143164450Y-93157580D01*
X143481942Y-93175708D01*
G37*
G36*
X146736135Y-95375000D02*
G01*
X147064947Y-95375000D01*
X147435158Y-93594286D01*
X147546350Y-92880242D01*
X147558806Y-92880242D01*
X147796210Y-94308330D01*
X148120626Y-94308330D01*
X148951540Y-92880242D01*
X148963630Y-92880242D01*
X148778433Y-93594286D01*
X148408222Y-95375000D01*
X148736851Y-95375000D01*
X149330544Y-92519190D01*
X148862147Y-92519190D01*
X148050284Y-93955521D01*
X148013098Y-93955521D01*
X147798225Y-92519190D01*
X147329829Y-92519190D01*
X146736135Y-95375000D01*
G37*
G36*
X151034908Y-93175708D02*
G01*
X151214234Y-93218789D01*
X151334130Y-93284848D01*
X151379719Y-93328709D01*
X151416375Y-93380575D01*
X151446978Y-93448128D01*
X151467415Y-93526905D01*
X151479231Y-93639706D01*
X151477257Y-93771742D01*
X151451058Y-94003157D01*
X151399403Y-94283051D01*
X151312612Y-94644106D01*
X151216422Y-94917834D01*
X151113902Y-95102454D01*
X150995100Y-95232691D01*
X150923571Y-95284417D01*
X150844207Y-95326390D01*
X150742771Y-95363438D01*
X150628870Y-95389865D01*
X150452246Y-95410792D01*
X150247554Y-95417131D01*
X150205545Y-95416909D01*
X149925653Y-95398278D01*
X149747154Y-95354535D01*
X149627495Y-95287738D01*
X149581925Y-95243422D01*
X149545301Y-95191085D01*
X149514725Y-95122942D01*
X149494340Y-95043554D01*
X149482610Y-94929976D01*
X149484546Y-94806499D01*
X149832118Y-94806499D01*
X149861473Y-94930509D01*
X149888174Y-94976907D01*
X149923445Y-95014828D01*
X149975669Y-95049144D01*
X150040474Y-95073969D01*
X150161384Y-95095616D01*
X150313133Y-95102058D01*
X150430536Y-95098503D01*
X150611961Y-95069359D01*
X150742794Y-95010245D01*
X150799537Y-94965008D01*
X150850000Y-94908472D01*
X150902788Y-94825721D01*
X150949591Y-94724136D01*
X151012611Y-94530117D01*
X151070591Y-94283051D01*
X151123912Y-93965898D01*
X151129289Y-93767849D01*
X151100217Y-93643810D01*
X151073662Y-93597431D01*
X151038538Y-93559521D01*
X150986542Y-93525241D01*
X150921990Y-93500440D01*
X150802151Y-93478897D01*
X150651837Y-93472470D01*
X150533770Y-93475998D01*
X150350419Y-93505093D01*
X150218620Y-93563972D01*
X150161676Y-93608878D01*
X150111111Y-93664937D01*
X150058385Y-93746779D01*
X150011750Y-93847122D01*
X149949054Y-94038969D01*
X149891631Y-94283051D01*
X149837103Y-94608597D01*
X149832118Y-94806499D01*
X149484546Y-94806499D01*
X149484692Y-94797160D01*
X149511101Y-94564360D01*
X149563002Y-94283051D01*
X149647815Y-93929655D01*
X149743543Y-93656113D01*
X149845583Y-93471883D01*
X149963977Y-93341980D01*
X150035394Y-93290357D01*
X150114697Y-93248471D01*
X150216354Y-93211429D01*
X150330623Y-93185007D01*
X150509561Y-93163939D01*
X150717416Y-93157580D01*
X151034908Y-93175708D01*
G37*
G36*
X151985219Y-95375000D02*
G01*
X152305605Y-95375000D01*
X152542276Y-94236889D01*
X152573320Y-94121461D01*
X152620879Y-94016290D01*
X152755047Y-93822868D01*
X152816866Y-93745594D01*
X152927185Y-93621576D01*
X153026522Y-93540381D01*
X153087975Y-93508604D01*
X153154477Y-93487890D01*
X153329593Y-93472470D01*
X153462929Y-93479264D01*
X153557179Y-93503373D01*
X153597282Y-93527881D01*
X153627880Y-93561444D01*
X153665774Y-93657024D01*
X153679471Y-93745594D01*
X153987034Y-93669940D01*
X153980724Y-93523521D01*
X153958336Y-93408368D01*
X153933175Y-93348768D01*
X153898262Y-93299989D01*
X153808106Y-93236951D01*
X153665379Y-93198389D01*
X153389860Y-93182676D01*
X153212687Y-93189276D01*
X153069227Y-93212034D01*
X152988200Y-93238457D01*
X152916341Y-93275406D01*
X152799382Y-93376205D01*
X152679950Y-93543842D01*
X152638630Y-93615352D01*
X152617930Y-93615352D01*
X152741395Y-93199528D01*
X152437496Y-93199528D01*
X151985219Y-95375000D01*
G37*
G36*
X155651427Y-92754396D02*
G01*
X156103337Y-92754396D01*
X156199508Y-92292411D01*
X155747597Y-92292411D01*
X155651427Y-92754396D01*
G37*
G36*
X154523208Y-95375000D02*
G01*
X156219841Y-95375000D01*
X156281756Y-95076962D01*
X155612226Y-95076962D01*
X156002587Y-93199528D01*
X155016700Y-93199528D01*
X154954785Y-93497749D01*
X155624499Y-93497749D01*
X155296053Y-95076962D01*
X154585123Y-95076962D01*
X154523208Y-95375000D01*
G37*
D14*
G36*
X98692758Y-91663146D02*
G01*
X98789753Y-91674214D01*
X98851462Y-91692113D01*
X98893313Y-91717261D01*
X98909724Y-91733816D01*
X98923083Y-91753133D01*
X98935071Y-91779238D01*
X98943669Y-91809627D01*
X98950822Y-91861001D01*
X98952960Y-91922617D01*
X98952753Y-91946707D01*
X98946365Y-92030384D01*
X98932120Y-92080915D01*
X98909016Y-92114976D01*
X98891338Y-92129106D01*
X98869829Y-92140291D01*
X98829791Y-92152504D01*
X98779365Y-92160632D01*
X98779365Y-92169058D01*
X98819928Y-92178421D01*
X98857029Y-92197432D01*
X98873110Y-92212801D01*
X98887093Y-92232632D01*
X98907361Y-92277430D01*
X98926338Y-92339845D01*
X98999122Y-92617000D01*
X98873154Y-92617000D01*
X98811544Y-92339845D01*
X98803191Y-92307967D01*
X98783514Y-92262985D01*
X98756567Y-92234024D01*
X98736227Y-92222532D01*
X98711487Y-92214191D01*
X98659753Y-92206291D01*
X98591725Y-92204046D01*
X98467161Y-92204046D01*
X98467161Y-92617000D01*
X98355176Y-92617000D01*
X98355176Y-91771431D01*
X98467161Y-91771431D01*
X98467161Y-92100426D01*
X98688323Y-92100426D01*
X98737224Y-92097946D01*
X98779839Y-92087193D01*
X98807504Y-92066983D01*
X98818697Y-92049958D01*
X98826847Y-92028468D01*
X98834546Y-91982936D01*
X98836762Y-91922617D01*
X98836633Y-91911381D01*
X98830193Y-91857272D01*
X98814442Y-91821999D01*
X98801804Y-91807867D01*
X98785650Y-91796219D01*
X98760859Y-91785135D01*
X98729809Y-91777055D01*
X98664729Y-91769424D01*
X98579147Y-91767218D01*
X98520438Y-91769146D01*
X98467161Y-91771431D01*
X98355176Y-91771431D01*
X98355176Y-91665063D01*
X98418658Y-91662189D01*
X98637948Y-91660850D01*
X98692758Y-91663146D01*
G37*
G36*
X99188777Y-92617000D02*
G01*
X99796331Y-92617000D01*
X99796331Y-92510632D01*
X99304975Y-92510632D01*
X99304975Y-92495244D01*
X99500796Y-92318840D01*
X99614916Y-92208441D01*
X99685750Y-92129857D01*
X99724296Y-92081318D01*
X99750302Y-92038932D01*
X99761789Y-92011518D01*
X99769342Y-91983043D01*
X99775323Y-91914811D01*
X99775387Y-91904421D01*
X99773255Y-91842173D01*
X99766145Y-91790540D01*
X99757613Y-91760178D01*
X99745736Y-91734287D01*
X99732582Y-91715380D01*
X99716452Y-91699349D01*
X99675558Y-91675620D01*
X99615438Y-91659724D01*
X99520907Y-91651663D01*
X99474358Y-91651019D01*
X99395292Y-91653176D01*
X99330971Y-91660460D01*
X99295120Y-91668893D01*
X99264835Y-91680593D01*
X99243303Y-91693260D01*
X99225112Y-91708736D01*
X99198707Y-91746783D01*
X99180627Y-91801195D01*
X99169176Y-91891842D01*
X99283971Y-91891842D01*
X99289840Y-91849600D01*
X99300144Y-91816770D01*
X99310182Y-91799580D01*
X99323249Y-91785775D01*
X99356859Y-91768068D01*
X99411643Y-91758218D01*
X99474358Y-91756043D01*
X99538674Y-91758254D01*
X99587135Y-91765914D01*
X99609980Y-91774015D01*
X99628048Y-91785131D01*
X99640085Y-91797321D01*
X99649263Y-91812214D01*
X99660525Y-91853070D01*
X99663341Y-91903017D01*
X99661011Y-91946661D01*
X99652521Y-91982357D01*
X99627094Y-92029346D01*
X99603135Y-92061225D01*
X99557875Y-92113638D01*
X99498067Y-92174272D01*
X99304863Y-92349192D01*
X99188777Y-92450426D01*
X99188777Y-92617000D01*
G37*
G36*
X98692758Y-94812746D02*
G01*
X98789753Y-94823814D01*
X98851462Y-94841713D01*
X98893313Y-94866861D01*
X98909724Y-94883416D01*
X98923083Y-94902733D01*
X98935071Y-94928838D01*
X98943669Y-94959227D01*
X98950822Y-95010601D01*
X98952960Y-95072217D01*
X98952753Y-95096307D01*
X98946365Y-95179984D01*
X98932120Y-95230515D01*
X98909016Y-95264576D01*
X98891338Y-95278706D01*
X98869829Y-95289891D01*
X98829791Y-95302104D01*
X98779365Y-95310232D01*
X98779365Y-95318658D01*
X98819928Y-95328021D01*
X98857029Y-95347032D01*
X98873110Y-95362401D01*
X98887093Y-95382232D01*
X98907361Y-95427030D01*
X98926338Y-95489445D01*
X98999122Y-95766600D01*
X98873154Y-95766600D01*
X98811544Y-95489445D01*
X98803191Y-95457567D01*
X98783514Y-95412585D01*
X98756567Y-95383624D01*
X98736227Y-95372132D01*
X98711487Y-95363791D01*
X98659753Y-95355891D01*
X98591725Y-95353646D01*
X98467161Y-95353646D01*
X98467161Y-95766600D01*
X98355176Y-95766600D01*
X98355176Y-94921031D01*
X98467161Y-94921031D01*
X98467161Y-95250026D01*
X98688323Y-95250026D01*
X98737224Y-95247546D01*
X98779839Y-95236793D01*
X98807504Y-95216583D01*
X98818697Y-95199558D01*
X98826847Y-95178068D01*
X98834546Y-95132536D01*
X98836762Y-95072217D01*
X98836633Y-95060981D01*
X98830193Y-95006872D01*
X98814442Y-94971599D01*
X98801804Y-94957467D01*
X98785650Y-94945819D01*
X98760859Y-94934735D01*
X98729809Y-94926655D01*
X98664729Y-94919024D01*
X98579147Y-94916818D01*
X98520438Y-94918746D01*
X98467161Y-94921031D01*
X98355176Y-94921031D01*
X98355176Y-94814663D01*
X98418658Y-94811789D01*
X98637948Y-94810450D01*
X98692758Y-94812746D01*
G37*
G36*
X99514963Y-95766600D02*
G01*
X99626949Y-95766600D01*
X99626949Y-94814663D01*
X99495363Y-94814663D01*
X99211186Y-95019033D01*
X99211186Y-95154832D01*
X99514963Y-94937822D01*
X99514963Y-95766600D01*
G37*
D15*
X185914705Y-94158557D02*
X186548012Y-94158557D01*
X186548012Y-94158557D02*
X186622518Y-94121304D01*
X186622518Y-94121304D02*
X186659772Y-94084050D01*
X186659772Y-94084050D02*
X186697025Y-94009544D01*
X186697025Y-94009544D02*
X186697025Y-93860530D01*
X186697025Y-93860530D02*
X186659772Y-93786024D01*
X186659772Y-93786024D02*
X186622518Y-93748770D01*
X186622518Y-93748770D02*
X186548012Y-93711517D01*
X186548012Y-93711517D02*
X185914705Y-93711517D01*
X186697025Y-92929197D02*
X186697025Y-93376237D01*
X186697025Y-93152717D02*
X185914705Y-93152717D01*
X185914705Y-93152717D02*
X186026465Y-93227224D01*
X186026465Y-93227224D02*
X186100972Y-93301731D01*
X186100972Y-93301731D02*
X186138225Y-93376237D01*
D16*
X100980000Y-91496000D02*
X97140000Y-91496000D01*
X97140000Y-89656000D01*
X100980000Y-89656000D01*
X100980000Y-91496000D01*
X101930000Y-90576000D02*
X100980000Y-90576000D01*
X96190000Y-90576000D02*
X97140000Y-90576000D01*
X96190000Y-93726000D02*
X97140000Y-93726000D01*
X101930000Y-93726000D02*
X100980000Y-93726000D01*
X100980000Y-94646000D02*
X97140000Y-94646000D01*
X97140000Y-92806000D01*
X100980000Y-92806000D01*
X100980000Y-94646000D01*
X94134000Y-107684000D02*
X94134000Y-108604000D01*
X94134000Y-108604000D02*
X95734000Y-108604000D01*
X94134000Y-112884000D02*
X94134000Y-113804000D01*
X94134000Y-113804000D02*
X101954000Y-113804000D01*
X95734000Y-107684000D02*
X95734000Y-108604000D01*
X95734000Y-108604000D02*
X95734000Y-108884000D01*
X95734000Y-112604000D02*
X94519000Y-112604000D01*
X95734000Y-112604000D02*
X95734000Y-112884000D01*
X95734000Y-112884000D02*
X94134000Y-112884000D01*
X95734000Y-113804000D02*
X95734000Y-112884000D01*
X97594000Y-110244000D02*
X101954000Y-110244000D01*
X97594000Y-111244000D02*
X97594000Y-110244000D01*
X99694000Y-112044000D02*
X101954000Y-112044000D01*
X99694000Y-112544000D02*
X101954000Y-112544000D01*
X101954000Y-107684000D02*
X94134000Y-107684000D01*
X101954000Y-111244000D02*
X97594000Y-111244000D01*
X101954000Y-113804000D02*
X101954000Y-107684000D01*
X98094000Y-109444000D02*
X99694000Y-109444000D01*
X99694000Y-108444000D01*
X98094000Y-108444000D01*
X98094000Y-109444000D01*
X98094000Y-113044000D02*
X99694000Y-113044000D01*
X99694000Y-112044000D01*
X98094000Y-112044000D01*
X98094000Y-113044000D01*
X94124000Y-96410000D02*
X95504000Y-96410000D01*
X94124000Y-97790000D02*
X94124000Y-96410000D01*
X94124000Y-99060000D02*
X94124000Y-106790000D01*
X94124000Y-99060000D02*
X96774000Y-99060000D01*
X94124000Y-106790000D02*
X99424000Y-106790000D01*
X96774000Y-96410000D02*
X99424000Y-96410000D01*
X96774000Y-99060000D02*
X96774000Y-96410000D01*
X99424000Y-96410000D02*
X99424000Y-106790000D01*
D17*
X164465000Y-94615000D02*
X164465000Y-108585000D01*
X166370000Y-92710000D02*
X183515000Y-92710000D01*
X166370000Y-110490000D02*
X183515000Y-110490000D01*
D18*
X185420000Y-97105000D02*
X186430272Y-97108728D01*
D17*
X185420000Y-108585000D02*
X185420000Y-94615000D01*
D18*
X186430000Y-106104000D02*
X185420000Y-106104000D01*
X186930000Y-97608728D02*
X186930000Y-105604000D01*
D17*
X164465000Y-94615000D02*
G75*
G02*
X166370000Y-92710000I1905001J-1D01*
G01*
X166370000Y-110490000D02*
G75*
G02*
X164465000Y-108585000I0J1905000D01*
G01*
X183519000Y-92710000D02*
G75*
G02*
X185424000Y-94615000I-1J-1905001D01*
G01*
X185420000Y-108585000D02*
G75*
G02*
X183515000Y-110490000I-1905000J0D01*
G01*
D18*
X186430272Y-97108728D02*
G75*
G02*
X186929999Y-97608728I-291J-500018D01*
G01*
X186930000Y-105604000D02*
G75*
G02*
X186430000Y-106104000I-500000J0D01*
G01*
D19*
X184376000Y-93643000D02*
G75*
G02*
X183872000Y-93643000I-252000J0D01*
G01*
X183872000Y-93643000D02*
G75*
G02*
X184376000Y-93643000I252000J0D01*
G01*
X185256000Y-92500000D02*
G75*
G02*
X184752000Y-92500000I-252000J0D01*
G01*
X184752000Y-92500000D02*
G75*
G02*
X185256000Y-92500000I252000J0D01*
G01*
%LPC*%
D20*
X95250000Y-90576000D03*
X102870000Y-90576000D03*
X102870000Y-93726000D03*
X95250000Y-93726000D03*
D21*
X95594000Y-111744000D03*
D22*
X95594000Y-109744000D03*
D23*
X95504000Y-97790000D03*
D24*
X98044000Y-97790000D03*
X95504000Y-100330000D03*
X98044000Y-100330000D03*
X95504000Y-102870000D03*
X98044000Y-102870000D03*
X95504000Y-105410000D03*
X98044000Y-105410000D03*
D25*
X182503000Y-93545000D03*
X179963000Y-93545000D03*
X177423000Y-93545000D03*
X174883000Y-93545000D03*
X172343000Y-93545000D03*
X169803000Y-93545000D03*
X167263000Y-93545000D03*
X167263000Y-109710000D03*
X169803000Y-109710000D03*
X172343000Y-109710000D03*
X174883000Y-109710000D03*
X177423000Y-109710000D03*
X179963000Y-109710000D03*
X182503000Y-109710000D03*
D26*
X175265000Y-97155000D03*
X177170000Y-97155000D03*
D24*
X183515000Y-100330000D03*
X183515000Y-102870000D03*
X180975000Y-100330000D03*
X180975000Y-102870000D03*
X178435000Y-100330000D03*
X178435000Y-102870000D03*
%LPD*%
M02*
