G04 #@! TF.GenerationSoftware,KiCad,Pcbnew,9.0.7*
G04 #@! TF.CreationDate,2026-02-21T01:38:48-08:00*
G04 #@! TF.ProjectId,memori-hw,6d656d6f-7269-42d6-9877-2e6b69636164,vFEB 2026*
G04 #@! TF.SameCoordinates,Original*
G04 #@! TF.FileFunction,Copper,L1,Top*
G04 #@! TF.FilePolarity,Positive*
%FSLAX46Y46*%
G04 Gerber Fmt 4.6, Leading zero omitted, Abs format (unit mm)*
G04 Created by KiCad (PCBNEW 9.0.7) date 2026-02-21 01:38:48*
%MOMM*%
%LPD*%
G01*
G04 APERTURE LIST*
G04 Aperture macros list*
%AMRoundRect*
0 Rectangle with rounded corners*
0 $1 Rounding radius*
0 $2 $3 $4 $5 $6 $7 $8 $9 X,Y pos of 4 corners*
0 Add a 4 corners polygon primitive as box body*
4,1,4,$2,$3,$4,$5,$6,$7,$8,$9,$2,$3,0*
0 Add four circle primitives for the rounded corners*
1,1,$1+$1,$2,$3*
1,1,$1+$1,$4,$5*
1,1,$1+$1,$6,$7*
1,1,$1+$1,$8,$9*
0 Add four rect primitives between the rounded corners*
20,1,$1+$1,$2,$3,$4,$5,0*
20,1,$1+$1,$4,$5,$6,$7,0*
20,1,$1+$1,$6,$7,$8,$9,0*
20,1,$1+$1,$8,$9,$2,$3,0*%
%AMOutline5P*
0 Free polygon, 5 corners , with rotation*
0 The origin of the aperture is its center*
0 number of corners: always 5*
0 $1 to $10 corner X, Y*
0 $11 Rotation angle, in degrees counterclockwise*
0 create outline with 5 corners*
4,1,5,$1,$2,$3,$4,$5,$6,$7,$8,$9,$10,$1,$2,$11*%
%AMOutline6P*
0 Free polygon, 6 corners , with rotation*
0 The origin of the aperture is its center*
0 number of corners: always 6*
0 $1 to $12 corner X, Y*
0 $13 Rotation angle, in degrees counterclockwise*
0 create outline with 6 corners*
4,1,6,$1,$2,$3,$4,$5,$6,$7,$8,$9,$10,$11,$12,$1,$2,$13*%
%AMOutline7P*
0 Free polygon, 7 corners , with rotation*
0 The origin of the aperture is its center*
0 number of corners: always 7*
0 $1 to $14 corner X, Y*
0 $15 Rotation angle, in degrees counterclockwise*
0 create outline with 7 corners*
4,1,7,$1,$2,$3,$4,$5,$6,$7,$8,$9,$10,$11,$12,$13,$14,$1,$2,$15*%
%AMOutline8P*
0 Free polygon, 8 corners , with rotation*
0 The origin of the aperture is its center*
0 number of corners: always 8*
0 $1 to $16 corner X, Y*
0 $17 Rotation angle, in degrees counterclockwise*
0 create outline with 8 corners*
4,1,8,$1,$2,$3,$4,$5,$6,$7,$8,$9,$10,$11,$12,$13,$14,$15,$16,$1,$2,$17*%
G04 Aperture macros list end*
G04 #@! TA.AperFunction,ComponentPad*
%ADD10C,1.400000*%
G04 #@! TD*
G04 #@! TA.AperFunction,ComponentPad*
%ADD11RoundRect,0.250000X0.625000X-0.350000X0.625000X0.350000X-0.625000X0.350000X-0.625000X-0.350000X0*%
G04 #@! TD*
G04 #@! TA.AperFunction,ComponentPad*
%ADD12O,1.750000X1.200000*%
G04 #@! TD*
G04 #@! TA.AperFunction,ComponentPad*
%ADD13Outline5P,-0.850000X0.510000X-0.510000X0.850000X0.850000X0.850000X0.850000X-0.850000X-0.850000X-0.850000X0.000000*%
G04 #@! TD*
G04 #@! TA.AperFunction,ComponentPad*
%ADD14C,1.700000*%
G04 #@! TD*
G04 #@! TA.AperFunction,SMDPad,CuDef*
%ADD15RoundRect,0.500000X-0.500000X0.875000X-0.500000X-0.875000X0.500000X-0.875000X0.500000X0.875000X0*%
G04 #@! TD*
G04 #@! TA.AperFunction,SMDPad,CuDef*
%ADD16RoundRect,0.275000X0.275000X-0.975000X0.275000X0.975000X-0.275000X0.975000X-0.275000X-0.975000X0*%
G04 #@! TD*
G04 #@! TA.AperFunction,SMDPad,CuDef*
%ADD17C,1.700000*%
G04 #@! TD*
G04 #@! TA.AperFunction,ViaPad*
%ADD18C,0.600000*%
G04 #@! TD*
G04 #@! TA.AperFunction,Conductor*
%ADD19C,0.150000*%
G04 #@! TD*
G04 #@! TA.AperFunction,Conductor*
%ADD20C,0.127000*%
G04 #@! TD*
G04 #@! TA.AperFunction,Conductor*
%ADD21C,0.400000*%
G04 #@! TD*
G04 APERTURE END LIST*
D10*
X95250000Y-90576000D03*
X102870000Y-90576000D03*
X102870000Y-93726000D03*
X95250000Y-93726000D03*
D11*
X95594000Y-111744000D03*
D12*
X95594000Y-109744000D03*
D13*
X95504000Y-97790000D03*
D14*
X98044000Y-97790000D03*
X95504000Y-100330000D03*
X98044000Y-100330000D03*
X95504000Y-102870000D03*
X98044000Y-102870000D03*
X95504000Y-105410000D03*
X98044000Y-105410000D03*
D15*
X182503000Y-93545000D03*
X179963000Y-93545000D03*
X177423000Y-93545000D03*
X174883000Y-93545000D03*
X172343000Y-93545000D03*
X169803000Y-93545000D03*
X167263000Y-93545000D03*
X167263000Y-109710000D03*
X169803000Y-109710000D03*
X172343000Y-109710000D03*
X174883000Y-109710000D03*
X177423000Y-109710000D03*
X179963000Y-109710000D03*
X182503000Y-109710000D03*
D16*
X175265000Y-97155000D03*
X177170000Y-97155000D03*
D17*
X183515000Y-100330000D03*
X183515000Y-102870000D03*
X180975000Y-100330000D03*
X180975000Y-102870000D03*
X178435000Y-100330000D03*
X178435000Y-102870000D03*
D18*
X161290000Y-102870000D03*
X163830000Y-102870000D03*
X153035000Y-112395000D03*
X157480000Y-110490000D03*
X180975000Y-97155000D03*
X110236000Y-113284000D03*
X110236000Y-108204000D03*
X118745000Y-97790000D03*
X113030000Y-97790000D03*
X114300000Y-96520000D03*
X120015000Y-96520000D03*
X120015000Y-102870000D03*
X122555000Y-105410000D03*
X121920000Y-106680000D03*
X117475000Y-101600000D03*
X179070000Y-106045000D03*
D19*
X169803000Y-108585000D02*
X169803000Y-107573000D01*
X169803000Y-107573000D02*
X168910000Y-106680000D01*
X168910000Y-106680000D02*
X121920000Y-106680000D01*
D20*
X169803000Y-108585000D02*
X169803000Y-109710000D01*
X170180000Y-105410000D02*
X172720000Y-105410000D01*
X172720000Y-105410000D02*
X174883000Y-107573000D01*
X174883000Y-107573000D02*
X174883000Y-109710000D01*
D19*
X98044000Y-100330000D02*
X114300000Y-100330000D01*
X114300000Y-100330000D02*
X123190000Y-91440000D01*
X123190000Y-91440000D02*
X175318000Y-91440000D01*
X175318000Y-91440000D02*
X177423000Y-93545000D01*
D21*
X107315000Y-108585000D02*
X106156000Y-109744000D01*
X110236000Y-108204000D02*
X109855000Y-108585000D01*
X109855000Y-108585000D02*
X107315000Y-108585000D01*
X107093000Y-112776000D02*
X106061000Y-111744000D01*
X109728000Y-112776000D02*
X107093000Y-112776000D01*
X106061000Y-111744000D02*
X106045000Y-111744000D01*
X110236000Y-113284000D02*
X109728000Y-112776000D01*
X118761000Y-111744000D02*
X106045000Y-111744000D01*
X153035000Y-112395000D02*
X119412000Y-112395000D01*
X119412000Y-112395000D02*
X118761000Y-111744000D01*
X119602000Y-110490000D02*
X118856000Y-109744000D01*
X157480000Y-110490000D02*
X119602000Y-110490000D01*
X118856000Y-109744000D02*
X106156000Y-109744000D01*
X163830000Y-102870000D02*
X165735000Y-100965000D01*
X165735000Y-100965000D02*
X174610000Y-100965000D01*
X174610000Y-100965000D02*
X177170000Y-98405000D01*
X177170000Y-98405000D02*
X177170000Y-97155000D01*
X161290000Y-102870000D02*
X165100000Y-99060000D01*
X165100000Y-99060000D02*
X173360000Y-99060000D01*
X173360000Y-99060000D02*
X175265000Y-97155000D01*
D20*
X180975000Y-97155000D02*
X182503000Y-95627000D01*
X182503000Y-95627000D02*
X182503000Y-93545000D01*
D21*
X106156000Y-109744000D02*
X95594000Y-109744000D01*
X95594000Y-111744000D02*
X106045000Y-111744000D01*
D19*
X176588000Y-90170000D02*
X179963000Y-93545000D01*
X113665000Y-99060000D02*
X122555000Y-90170000D01*
X122555000Y-90170000D02*
X176588000Y-90170000D01*
X95504000Y-100330000D02*
X96774000Y-99060000D01*
X96774000Y-99060000D02*
X113665000Y-99060000D01*
X173990000Y-104140000D02*
X177423000Y-107573000D01*
X98044000Y-105410000D02*
X99314000Y-104140000D01*
X99314000Y-104140000D02*
X173990000Y-104140000D01*
X177423000Y-107573000D02*
X177423000Y-109710000D01*
X158750000Y-97790000D02*
X159385000Y-97155000D01*
X118745000Y-97790000D02*
X158750000Y-97790000D01*
X174883000Y-94992000D02*
X174883000Y-93545000D01*
X172720000Y-97155000D02*
X174883000Y-94992000D01*
X159385000Y-97155000D02*
X172720000Y-97155000D01*
X95504000Y-96901000D02*
X95885000Y-96520000D01*
X159385000Y-95885000D02*
X171450000Y-95885000D01*
X95504000Y-97790000D02*
X95504000Y-96901000D01*
X120015000Y-96520000D02*
X158750000Y-96520000D01*
X171450000Y-95885000D02*
X172343000Y-94992000D01*
X172343000Y-94992000D02*
X172343000Y-93545000D01*
X158750000Y-96520000D02*
X159385000Y-95885000D01*
X95885000Y-96520000D02*
X114300000Y-96520000D01*
X122555000Y-105410000D02*
X170180000Y-105410000D01*
X120015000Y-102870000D02*
X98044000Y-102870000D01*
X96520000Y-101600000D02*
X95504000Y-102616000D01*
X117475000Y-101600000D02*
X96520000Y-101600000D01*
X95504000Y-102616000D02*
X95504000Y-102870000D01*
X179963000Y-109710000D02*
X179963000Y-106938000D01*
X179963000Y-106938000D02*
X179070000Y-106045000D01*
X98044000Y-97790000D02*
X113030000Y-97790000D01*
G04 #@! TA.AperFunction,Conductor*
G36*
X96853173Y-103547483D02*
G01*
X96879730Y-103578132D01*
X96882103Y-103582005D01*
X96882106Y-103582009D01*
X97007794Y-103755004D01*
X97158996Y-103906206D01*
X97331988Y-104031892D01*
X97331991Y-104031894D01*
X97335873Y-104034273D01*
X97382748Y-104086086D01*
X97394169Y-104155016D01*
X97366512Y-104219178D01*
X97335873Y-104245727D01*
X97331991Y-104248105D01*
X97158993Y-104373796D01*
X97007796Y-104524993D01*
X96882103Y-104697994D01*
X96879709Y-104702693D01*
X96831731Y-104753485D01*
X96763908Y-104770275D01*
X96697775Y-104747732D01*
X96661804Y-104706215D01*
X96661171Y-104706604D01*
X96658826Y-104702778D01*
X96658743Y-104702682D01*
X96658624Y-104702449D01*
X96619270Y-104648282D01*
X96619269Y-104648282D01*
X95986962Y-105280590D01*
X95969925Y-105217007D01*
X95904099Y-105102993D01*
X95811007Y-105009901D01*
X95696993Y-104944075D01*
X95633409Y-104927037D01*
X96265716Y-104294728D01*
X96211547Y-104255373D01*
X96211545Y-104255371D01*
X96211308Y-104255251D01*
X96211234Y-104255181D01*
X96207396Y-104252829D01*
X96207890Y-104252022D01*
X96160515Y-104207274D01*
X96143724Y-104139451D01*
X96166266Y-104073318D01*
X96211319Y-104034283D01*
X96216009Y-104031894D01*
X96389004Y-103906206D01*
X96540206Y-103755004D01*
X96665894Y-103582009D01*
X96665896Y-103582004D01*
X96668270Y-103578132D01*
X96720080Y-103531254D01*
X96789009Y-103519829D01*
X96853173Y-103547483D01*
G37*
G04 #@! TD.AperFunction*
G04 #@! TA.AperFunction,Conductor*
G36*
X184926922Y-88993280D02*
G01*
X185013326Y-89003015D01*
X185031523Y-89006458D01*
X185042954Y-89009521D01*
X185051804Y-89012251D01*
X185123540Y-89037352D01*
X185148549Y-89049395D01*
X185219606Y-89094043D01*
X185241313Y-89111355D01*
X185300644Y-89170686D01*
X185317957Y-89192395D01*
X185362599Y-89263443D01*
X185362601Y-89263445D01*
X185374648Y-89288463D01*
X185374649Y-89288465D01*
X185399746Y-89360193D01*
X185402478Y-89369049D01*
X185405538Y-89380468D01*
X185408984Y-89398679D01*
X185418720Y-89485077D01*
X185419500Y-89498962D01*
X185419500Y-113793037D01*
X185418720Y-113806921D01*
X185418720Y-113806923D01*
X185408984Y-113893320D01*
X185405538Y-113911530D01*
X185402478Y-113922949D01*
X185399746Y-113931806D01*
X185374648Y-114003536D01*
X185362600Y-114028555D01*
X185317958Y-114099603D01*
X185300645Y-114121312D01*
X185241312Y-114180645D01*
X185219604Y-114197957D01*
X185219603Y-114197958D01*
X185148555Y-114242600D01*
X185123536Y-114254648D01*
X185051806Y-114279746D01*
X185042949Y-114282478D01*
X185031530Y-114285538D01*
X185013320Y-114288984D01*
X184932726Y-114298065D01*
X184926921Y-114298720D01*
X184913037Y-114299500D01*
X110520469Y-114299500D01*
X110453430Y-114279815D01*
X110407675Y-114227011D01*
X110397731Y-114157853D01*
X110426756Y-114094297D01*
X110473016Y-114060939D01*
X110618968Y-114000483D01*
X110751389Y-113912003D01*
X110864003Y-113799389D01*
X110952483Y-113666968D01*
X111013430Y-113519831D01*
X111044500Y-113363630D01*
X111044500Y-113204370D01*
X111013430Y-113048169D01*
X110952483Y-112901032D01*
X110920055Y-112852500D01*
X110864004Y-112768612D01*
X110863998Y-112768605D01*
X110759574Y-112664181D01*
X110726089Y-112602858D01*
X110731073Y-112533166D01*
X110772945Y-112477233D01*
X110838409Y-112452816D01*
X110847255Y-112452500D01*
X118416167Y-112452500D01*
X118483206Y-112472185D01*
X118503848Y-112488819D01*
X118960353Y-112945325D01*
X118960357Y-112945328D01*
X119076392Y-113022861D01*
X119076405Y-113022868D01*
X119137486Y-113048168D01*
X119167572Y-113060630D01*
X119205338Y-113076273D01*
X119240854Y-113083337D01*
X119273730Y-113089877D01*
X119273754Y-113089881D01*
X119273778Y-113089886D01*
X119325108Y-113100096D01*
X119342217Y-113103500D01*
X119342218Y-113103500D01*
X119342219Y-113103500D01*
X152608094Y-113103500D01*
X152655547Y-113112939D01*
X152799169Y-113172430D01*
X152955365Y-113203499D01*
X152955369Y-113203500D01*
X152955370Y-113203500D01*
X153114631Y-113203500D01*
X153114632Y-113203499D01*
X153270831Y-113172430D01*
X153417968Y-113111483D01*
X153550389Y-113023003D01*
X153663003Y-112910389D01*
X153751483Y-112777968D01*
X153812430Y-112630831D01*
X153843500Y-112474630D01*
X153843500Y-112315370D01*
X153812430Y-112159169D01*
X153751483Y-112012032D01*
X153663003Y-111879611D01*
X153662998Y-111879605D01*
X153550394Y-111767001D01*
X153550387Y-111766995D01*
X153417969Y-111678517D01*
X153270831Y-111617570D01*
X153270823Y-111617568D01*
X153114634Y-111586500D01*
X153114630Y-111586500D01*
X152955370Y-111586500D01*
X152955365Y-111586500D01*
X152799176Y-111617568D01*
X152799168Y-111617570D01*
X152655547Y-111677061D01*
X152608094Y-111686500D01*
X119756833Y-111686500D01*
X119689794Y-111666815D01*
X119669152Y-111650181D01*
X119428137Y-111409165D01*
X119394652Y-111347842D01*
X119399636Y-111278150D01*
X119441508Y-111222217D01*
X119506972Y-111197800D01*
X119527981Y-111198082D01*
X119532214Y-111198499D01*
X119532218Y-111198500D01*
X119532219Y-111198500D01*
X157053094Y-111198500D01*
X157100547Y-111207939D01*
X157244169Y-111267430D01*
X157382588Y-111294963D01*
X157400365Y-111298499D01*
X157400369Y-111298500D01*
X157400370Y-111298500D01*
X157559631Y-111298500D01*
X157559632Y-111298499D01*
X157715831Y-111267430D01*
X157862968Y-111206483D01*
X157995389Y-111118003D01*
X158108003Y-111005389D01*
X158196483Y-110872968D01*
X158257430Y-110725831D01*
X158288500Y-110569630D01*
X158288500Y-110410370D01*
X158257430Y-110254169D01*
X158196483Y-110107032D01*
X158127355Y-110003574D01*
X158108004Y-109974612D01*
X158107998Y-109974605D01*
X157995394Y-109862001D01*
X157995387Y-109861995D01*
X157862969Y-109773517D01*
X157715831Y-109712570D01*
X157715823Y-109712568D01*
X157559634Y-109681500D01*
X157559630Y-109681500D01*
X157400370Y-109681500D01*
X157400365Y-109681500D01*
X157244176Y-109712568D01*
X157244168Y-109712570D01*
X157100547Y-109772061D01*
X157053094Y-109781500D01*
X119946833Y-109781500D01*
X119879794Y-109761815D01*
X119859152Y-109745181D01*
X119307646Y-109193674D01*
X119307638Y-109193668D01*
X119191603Y-109116136D01*
X119191599Y-109116134D01*
X119164896Y-109105073D01*
X119100427Y-109078369D01*
X119100426Y-109078368D01*
X119062664Y-109062727D01*
X119062658Y-109062725D01*
X118994221Y-109049113D01*
X118925785Y-109035500D01*
X118925782Y-109035500D01*
X118925781Y-109035500D01*
X110847255Y-109035500D01*
X110780216Y-109015815D01*
X110734461Y-108963011D01*
X110724517Y-108893853D01*
X110753542Y-108830297D01*
X110759574Y-108823819D01*
X110863998Y-108719394D01*
X110864003Y-108719389D01*
X110952483Y-108586968D01*
X111013430Y-108439831D01*
X111044500Y-108283630D01*
X111044500Y-108124370D01*
X111013430Y-107968169D01*
X110952483Y-107821032D01*
X110948247Y-107814693D01*
X110864004Y-107688612D01*
X110863998Y-107688605D01*
X110751394Y-107576001D01*
X110751387Y-107575995D01*
X110618969Y-107487517D01*
X110471831Y-107426570D01*
X110471823Y-107426568D01*
X110315634Y-107395500D01*
X110315630Y-107395500D01*
X110156370Y-107395500D01*
X110156365Y-107395500D01*
X110000176Y-107426568D01*
X110000168Y-107426570D01*
X109853030Y-107487517D01*
X109720612Y-107575995D01*
X109720605Y-107576001D01*
X109608001Y-107688605D01*
X109607995Y-107688612D01*
X109519277Y-107821390D01*
X109465665Y-107866196D01*
X109416175Y-107876500D01*
X107245214Y-107876500D01*
X107108345Y-107903725D01*
X107108337Y-107903727D01*
X107058874Y-107924216D01*
X107058873Y-107924216D01*
X106979406Y-107957131D01*
X106979393Y-107957138D01*
X106863358Y-108034671D01*
X106863354Y-108034674D01*
X105898848Y-108999181D01*
X105837525Y-109032666D01*
X105811167Y-109035500D01*
X96779519Y-109035500D01*
X96712480Y-109015815D01*
X96691838Y-108999182D01*
X96655667Y-108963011D01*
X96591139Y-108898483D01*
X96591135Y-108898480D01*
X96591131Y-108898476D01*
X96449984Y-108795928D01*
X96449983Y-108795927D01*
X96449981Y-108795926D01*
X96400175Y-108770548D01*
X96294516Y-108716711D01*
X96294513Y-108716710D01*
X96128575Y-108662795D01*
X96042407Y-108649147D01*
X95956241Y-108635500D01*
X95231759Y-108635500D01*
X95174314Y-108644598D01*
X95059424Y-108662795D01*
X94893486Y-108716710D01*
X94893483Y-108716711D01*
X94738015Y-108795928D01*
X94596867Y-108898477D01*
X94596862Y-108898481D01*
X94473481Y-109021862D01*
X94473477Y-109021867D01*
X94370928Y-109163015D01*
X94291711Y-109318483D01*
X94291710Y-109318486D01*
X94237795Y-109484424D01*
X94210500Y-109656759D01*
X94210500Y-109831240D01*
X94237795Y-110003575D01*
X94291710Y-110169513D01*
X94291711Y-110169516D01*
X94370928Y-110324984D01*
X94473477Y-110466132D01*
X94473481Y-110466137D01*
X94574316Y-110566972D01*
X94607801Y-110628295D01*
X94602817Y-110697987D01*
X94560945Y-110753920D01*
X94551732Y-110760191D01*
X94495351Y-110794967D01*
X94495347Y-110794970D01*
X94369971Y-110920346D01*
X94276886Y-111071259D01*
X94276884Y-111071264D01*
X94221113Y-111239572D01*
X94210500Y-111343447D01*
X94210500Y-112144537D01*
X94210501Y-112144553D01*
X94221113Y-112248427D01*
X94276884Y-112416735D01*
X94276885Y-112416738D01*
X94369970Y-112567652D01*
X94495348Y-112693030D01*
X94646262Y-112786115D01*
X94814574Y-112841887D01*
X94918455Y-112852500D01*
X96269544Y-112852499D01*
X96373426Y-112841887D01*
X96541738Y-112786115D01*
X96692652Y-112693030D01*
X96818030Y-112567652D01*
X96852726Y-112511400D01*
X96904672Y-112464679D01*
X96958263Y-112452500D01*
X105716167Y-112452500D01*
X105783206Y-112472185D01*
X105803848Y-112488819D01*
X106641350Y-113326321D01*
X106641353Y-113326323D01*
X106641357Y-113326327D01*
X106690925Y-113359448D01*
X106757394Y-113403863D01*
X106757399Y-113403865D01*
X106810804Y-113425985D01*
X106810806Y-113425986D01*
X106810807Y-113425986D01*
X106886338Y-113457273D01*
X106909177Y-113461816D01*
X107003741Y-113480626D01*
X107014859Y-113482837D01*
X107023218Y-113484500D01*
X107023219Y-113484500D01*
X109361081Y-113484500D01*
X109428120Y-113504185D01*
X109473875Y-113556989D01*
X109475642Y-113561046D01*
X109519518Y-113666971D01*
X109607995Y-113799387D01*
X109608001Y-113799394D01*
X109720605Y-113911998D01*
X109720612Y-113912004D01*
X109853030Y-114000482D01*
X109853031Y-114000482D01*
X109853032Y-114000483D01*
X109920796Y-114028552D01*
X109998984Y-114060939D01*
X110053387Y-114104780D01*
X110075452Y-114171075D01*
X110058173Y-114238774D01*
X110007035Y-114286384D01*
X109951531Y-114299500D01*
X94126963Y-114299500D01*
X94113078Y-114298720D01*
X94026679Y-114288984D01*
X94008468Y-114285538D01*
X93997049Y-114282478D01*
X93988193Y-114279746D01*
X93916465Y-114254649D01*
X93891445Y-114242601D01*
X93891443Y-114242600D01*
X93820395Y-114197957D01*
X93798686Y-114180644D01*
X93739354Y-114121312D01*
X93722042Y-114099604D01*
X93677395Y-114028549D01*
X93665352Y-114003540D01*
X93640251Y-113931804D01*
X93637520Y-113922949D01*
X93634458Y-113911523D01*
X93631015Y-113893320D01*
X93621280Y-113806921D01*
X93620500Y-113793038D01*
X93620500Y-97238366D01*
X94145500Y-97238366D01*
X94145500Y-98688654D01*
X94152011Y-98749202D01*
X94152011Y-98749204D01*
X94187666Y-98844796D01*
X94203111Y-98886204D01*
X94290739Y-99003261D01*
X94407796Y-99090889D01*
X94528626Y-99135956D01*
X94584557Y-99177827D01*
X94608974Y-99243291D01*
X94594122Y-99311564D01*
X94572972Y-99339818D01*
X94467793Y-99444997D01*
X94342106Y-99617990D01*
X94245027Y-99808516D01*
X94245026Y-99808519D01*
X94178951Y-100011882D01*
X94145500Y-100223084D01*
X94145500Y-100436915D01*
X94178951Y-100648117D01*
X94245026Y-100851480D01*
X94245027Y-100851483D01*
X94310603Y-100980181D01*
X94342106Y-101042009D01*
X94467794Y-101215004D01*
X94618996Y-101366206D01*
X94791991Y-101491894D01*
X94795873Y-101494273D01*
X94842748Y-101546086D01*
X94854169Y-101615016D01*
X94826512Y-101679178D01*
X94795873Y-101705727D01*
X94791991Y-101708105D01*
X94618993Y-101833796D01*
X94467796Y-101984993D01*
X94342106Y-102157990D01*
X94245027Y-102348516D01*
X94245026Y-102348519D01*
X94178951Y-102551882D01*
X94145500Y-102763084D01*
X94145500Y-102976915D01*
X94178951Y-103188117D01*
X94245026Y-103391480D01*
X94245027Y-103391483D01*
X94316245Y-103531254D01*
X94342106Y-103582009D01*
X94467794Y-103755004D01*
X94618996Y-103906206D01*
X94791991Y-104031894D01*
X94796680Y-104034283D01*
X94847478Y-104082254D01*
X94864276Y-104150074D01*
X94841742Y-104216210D01*
X94800205Y-104252209D01*
X94800590Y-104252838D01*
X94796804Y-104255157D01*
X94796702Y-104255246D01*
X94796449Y-104255374D01*
X94796440Y-104255380D01*
X94742282Y-104294727D01*
X94742282Y-104294728D01*
X95374591Y-104927037D01*
X95311007Y-104944075D01*
X95196993Y-105009901D01*
X95103901Y-105102993D01*
X95038075Y-105217007D01*
X95021037Y-105280591D01*
X94388728Y-104648282D01*
X94388727Y-104648282D01*
X94349380Y-104702439D01*
X94252904Y-104891782D01*
X94187242Y-105093869D01*
X94187242Y-105093872D01*
X94154000Y-105303753D01*
X94154000Y-105516246D01*
X94187242Y-105726127D01*
X94187242Y-105726130D01*
X94252904Y-105928217D01*
X94349375Y-106117550D01*
X94388728Y-106171716D01*
X95021037Y-105539408D01*
X95038075Y-105602993D01*
X95103901Y-105717007D01*
X95196993Y-105810099D01*
X95311007Y-105875925D01*
X95374590Y-105892962D01*
X94742282Y-106525269D01*
X94742282Y-106525270D01*
X94796449Y-106564624D01*
X94985782Y-106661095D01*
X95187870Y-106726757D01*
X95397754Y-106760000D01*
X95610246Y-106760000D01*
X95820127Y-106726757D01*
X95820130Y-106726757D01*
X96022217Y-106661095D01*
X96211554Y-106564622D01*
X96265716Y-106525270D01*
X96265717Y-106525270D01*
X95633408Y-105892962D01*
X95696993Y-105875925D01*
X95811007Y-105810099D01*
X95904099Y-105717007D01*
X95969925Y-105602993D01*
X95986962Y-105539408D01*
X96619270Y-106171717D01*
X96619270Y-106171716D01*
X96658621Y-106117556D01*
X96658738Y-106117327D01*
X96658808Y-106117252D01*
X96661168Y-106113402D01*
X96661976Y-106113897D01*
X96706707Y-106066526D01*
X96774526Y-106049723D01*
X96840663Y-106072254D01*
X96879712Y-106117311D01*
X96882105Y-106122008D01*
X96909311Y-106159453D01*
X97007794Y-106295004D01*
X97158996Y-106446206D01*
X97331991Y-106571894D01*
X97425438Y-106619507D01*
X97522516Y-106668972D01*
X97522519Y-106668973D01*
X97624200Y-106702010D01*
X97725884Y-106735049D01*
X97937084Y-106768500D01*
X97937085Y-106768500D01*
X98150915Y-106768500D01*
X98150916Y-106768500D01*
X98362116Y-106735049D01*
X98565483Y-106668972D01*
X98756009Y-106571894D01*
X98929004Y-106446206D01*
X99080206Y-106295004D01*
X99205894Y-106122009D01*
X99302972Y-105931483D01*
X99369049Y-105728116D01*
X99402500Y-105516916D01*
X99402500Y-105303084D01*
X99369049Y-105091884D01*
X99347960Y-105026980D01*
X99347526Y-105011768D01*
X99342208Y-104997509D01*
X99346549Y-104977553D01*
X99345966Y-104957140D01*
X99354054Y-104943053D01*
X99357060Y-104929236D01*
X99378207Y-104900985D01*
X99519376Y-104759816D01*
X99580698Y-104726334D01*
X99607056Y-104723500D01*
X121809343Y-104723500D01*
X121876382Y-104743185D01*
X121922137Y-104795989D01*
X121932081Y-104865147D01*
X121912446Y-104916388D01*
X121891768Y-104947336D01*
X121838516Y-105027032D01*
X121777570Y-105174168D01*
X121777568Y-105174176D01*
X121746500Y-105330365D01*
X121746500Y-105489634D01*
X121777568Y-105645823D01*
X121777570Y-105645831D01*
X121810889Y-105726269D01*
X121818358Y-105795738D01*
X121787083Y-105858218D01*
X121726994Y-105893870D01*
X121720519Y-105895339D01*
X121684176Y-105902568D01*
X121684168Y-105902570D01*
X121537030Y-105963517D01*
X121404612Y-106051995D01*
X121404605Y-106052001D01*
X121292001Y-106164605D01*
X121291995Y-106164612D01*
X121203517Y-106297030D01*
X121142570Y-106444168D01*
X121142568Y-106444176D01*
X121111500Y-106600365D01*
X121111500Y-106759634D01*
X121142568Y-106915823D01*
X121142570Y-106915831D01*
X121203517Y-107062969D01*
X121291995Y-107195387D01*
X121292001Y-107195394D01*
X121404605Y-107307998D01*
X121404612Y-107308004D01*
X121537030Y-107396482D01*
X121537031Y-107396482D01*
X121537032Y-107396483D01*
X121684169Y-107457430D01*
X121835428Y-107487517D01*
X121840365Y-107488499D01*
X121840369Y-107488500D01*
X121840370Y-107488500D01*
X121999631Y-107488500D01*
X121999632Y-107488499D01*
X122155831Y-107457430D01*
X122302968Y-107396483D01*
X122435389Y-107308003D01*
X122435394Y-107307998D01*
X122443574Y-107299819D01*
X122504897Y-107266334D01*
X122531255Y-107263500D01*
X168616944Y-107263500D01*
X168683983Y-107283185D01*
X168704625Y-107299819D01*
X168902503Y-107497697D01*
X169066887Y-107662080D01*
X169100372Y-107723403D01*
X169095388Y-107793094D01*
X169053517Y-107849028D01*
X169015203Y-107868421D01*
X168915193Y-107898759D01*
X168740001Y-107992401D01*
X168739994Y-107992405D01*
X168611665Y-108097723D01*
X168547355Y-108125036D01*
X168478487Y-108113245D01*
X168454335Y-108097723D01*
X168326005Y-107992405D01*
X168325998Y-107992401D01*
X168150808Y-107898760D01*
X168038315Y-107864636D01*
X167960701Y-107841092D01*
X167960699Y-107841091D01*
X167960701Y-107841091D01*
X167854415Y-107830623D01*
X167812547Y-107826500D01*
X167812543Y-107826500D01*
X166713457Y-107826500D01*
X166565300Y-107841091D01*
X166375191Y-107898760D01*
X166200001Y-107992401D01*
X166199994Y-107992405D01*
X166046431Y-108118431D01*
X165920405Y-108271994D01*
X165920401Y-108272001D01*
X165826760Y-108447191D01*
X165769091Y-108637300D01*
X165754500Y-108785456D01*
X165754500Y-110634542D01*
X165769091Y-110782699D01*
X165826760Y-110972808D01*
X165920401Y-111147998D01*
X165920405Y-111148005D01*
X166046431Y-111301568D01*
X166199994Y-111427594D01*
X166200001Y-111427598D01*
X166375191Y-111521239D01*
X166375193Y-111521239D01*
X166375196Y-111521241D01*
X166565299Y-111578908D01*
X166565298Y-111578908D01*
X166575766Y-111579938D01*
X166713453Y-111593500D01*
X167812546Y-111593499D01*
X167960701Y-111578908D01*
X168150804Y-111521241D01*
X168326004Y-111427595D01*
X168454335Y-111322275D01*
X168518645Y-111294963D01*
X168587512Y-111306754D01*
X168611665Y-111322276D01*
X168739994Y-111427594D01*
X168740001Y-111427598D01*
X168915191Y-111521239D01*
X168915193Y-111521239D01*
X168915196Y-111521241D01*
X169105299Y-111578908D01*
X169105298Y-111578908D01*
X169115766Y-111579938D01*
X169253453Y-111593500D01*
X170352546Y-111593499D01*
X170500701Y-111578908D01*
X170690804Y-111521241D01*
X170866004Y-111427595D01*
X170994335Y-111322275D01*
X171058645Y-111294963D01*
X171127512Y-111306754D01*
X171151665Y-111322276D01*
X171279994Y-111427594D01*
X171280001Y-111427598D01*
X171455191Y-111521239D01*
X171455193Y-111521239D01*
X171455196Y-111521241D01*
X171645299Y-111578908D01*
X171645298Y-111578908D01*
X171655766Y-111579938D01*
X171793453Y-111593500D01*
X172892546Y-111593499D01*
X173040701Y-111578908D01*
X173230804Y-111521241D01*
X173406004Y-111427595D01*
X173534335Y-111322275D01*
X173598645Y-111294963D01*
X173667512Y-111306754D01*
X173691665Y-111322276D01*
X173819994Y-111427594D01*
X173820001Y-111427598D01*
X173995191Y-111521239D01*
X173995193Y-111521239D01*
X173995196Y-111521241D01*
X174185299Y-111578908D01*
X174185298Y-111578908D01*
X174195766Y-111579938D01*
X174333453Y-111593500D01*
X175432546Y-111593499D01*
X175580701Y-111578908D01*
X175770804Y-111521241D01*
X175946004Y-111427595D01*
X176074335Y-111322275D01*
X176138645Y-111294963D01*
X176207512Y-111306754D01*
X176231665Y-111322276D01*
X176359994Y-111427594D01*
X176360001Y-111427598D01*
X176535191Y-111521239D01*
X176535193Y-111521239D01*
X176535196Y-111521241D01*
X176725299Y-111578908D01*
X176725298Y-111578908D01*
X176735766Y-111579938D01*
X176873453Y-111593500D01*
X177972546Y-111593499D01*
X178120701Y-111578908D01*
X178310804Y-111521241D01*
X178486004Y-111427595D01*
X178620871Y-111316911D01*
X178685176Y-111289601D01*
X178754044Y-111301392D01*
X178777893Y-111316665D01*
X178909870Y-111424278D01*
X179090138Y-111518442D01*
X179285671Y-111574390D01*
X179285674Y-111574391D01*
X179404999Y-111584999D01*
X179405002Y-111585000D01*
X180520998Y-111585000D01*
X180521000Y-111584999D01*
X180640325Y-111574391D01*
X180640328Y-111574390D01*
X180835861Y-111518442D01*
X181016129Y-111424278D01*
X181148105Y-111316666D01*
X181212501Y-111289557D01*
X181281331Y-111301566D01*
X181305131Y-111316915D01*
X181406673Y-111400247D01*
X181439996Y-111427595D01*
X181439999Y-111427596D01*
X181440001Y-111427598D01*
X181615191Y-111521239D01*
X181615193Y-111521239D01*
X181615196Y-111521241D01*
X181805299Y-111578908D01*
X181805298Y-111578908D01*
X181815766Y-111579938D01*
X181953453Y-111593500D01*
X183052546Y-111593499D01*
X183200701Y-111578908D01*
X183390804Y-111521241D01*
X183566004Y-111427595D01*
X183719568Y-111301568D01*
X183845595Y-111148004D01*
X183939241Y-110972804D01*
X183996908Y-110782701D01*
X184011500Y-110634547D01*
X184011499Y-108785454D01*
X183996908Y-108637299D01*
X183939241Y-108447196D01*
X183939239Y-108447193D01*
X183939239Y-108447191D01*
X183845598Y-108272001D01*
X183845594Y-108271994D01*
X183719568Y-108118431D01*
X183566005Y-107992405D01*
X183565998Y-107992401D01*
X183390808Y-107898760D01*
X183278315Y-107864636D01*
X183200701Y-107841092D01*
X183200699Y-107841091D01*
X183200701Y-107841091D01*
X183094415Y-107830623D01*
X183052547Y-107826500D01*
X183052543Y-107826500D01*
X181953457Y-107826500D01*
X181805300Y-107841091D01*
X181615191Y-107898760D01*
X181440001Y-107992401D01*
X181439995Y-107992405D01*
X181305130Y-108103085D01*
X181240820Y-108130397D01*
X181171953Y-108118606D01*
X181148105Y-108103333D01*
X181016129Y-107995721D01*
X180835861Y-107901557D01*
X180640328Y-107845609D01*
X180640325Y-107845608D01*
X180521000Y-107835000D01*
X179404999Y-107835000D01*
X179285674Y-107845608D01*
X179285671Y-107845609D01*
X179090138Y-107901557D01*
X178909870Y-107995721D01*
X178777894Y-108103333D01*
X178713497Y-108130442D01*
X178644668Y-108118433D01*
X178620868Y-108103084D01*
X178502665Y-108006078D01*
X178486004Y-107992405D01*
X178486002Y-107992404D01*
X178485998Y-107992401D01*
X178310808Y-107898760D01*
X178198315Y-107864636D01*
X178120701Y-107841092D01*
X178120699Y-107841091D01*
X178120697Y-107841091D01*
X178118333Y-107840858D01*
X178117175Y-107840390D01*
X178114725Y-107839903D01*
X178114817Y-107839438D01*
X178053548Y-107814690D01*
X178013196Y-107757651D01*
X178006500Y-107717456D01*
X178006500Y-107496183D01*
X178006500Y-107496181D01*
X177966735Y-107347777D01*
X177918078Y-107263500D01*
X177889916Y-107214722D01*
X174348278Y-103673084D01*
X174281750Y-103634674D01*
X174215225Y-103596266D01*
X174215224Y-103596265D01*
X174162004Y-103582005D01*
X174066819Y-103556500D01*
X174066816Y-103556500D01*
X164575657Y-103556500D01*
X164508618Y-103536815D01*
X164462863Y-103484011D01*
X164452919Y-103414853D01*
X164472553Y-103363611D01*
X164546483Y-103252968D01*
X164605976Y-103109340D01*
X164632851Y-103069118D01*
X165992151Y-101709819D01*
X166053474Y-101676334D01*
X166079832Y-101673500D01*
X174679782Y-101673500D01*
X174748221Y-101659886D01*
X174816662Y-101646273D01*
X174854427Y-101630630D01*
X174945601Y-101592865D01*
X175061643Y-101515328D01*
X177045838Y-99531131D01*
X177107160Y-99497647D01*
X177176851Y-99502631D01*
X177232785Y-99544502D01*
X177257202Y-99609967D01*
X177244003Y-99675108D01*
X177176028Y-99808516D01*
X177176026Y-99808519D01*
X177109951Y-100011882D01*
X177076500Y-100223084D01*
X177076500Y-100436915D01*
X177109951Y-100648117D01*
X177176026Y-100851480D01*
X177176027Y-100851483D01*
X177241603Y-100980181D01*
X177273106Y-101042009D01*
X177398794Y-101215004D01*
X177549996Y-101366206D01*
X177722991Y-101491894D01*
X177726873Y-101494273D01*
X177773748Y-101546086D01*
X177785169Y-101615016D01*
X177757512Y-101679178D01*
X177726873Y-101705727D01*
X177722991Y-101708105D01*
X177549993Y-101833796D01*
X177398796Y-101984993D01*
X177273106Y-102157990D01*
X177176027Y-102348516D01*
X177176026Y-102348519D01*
X177109951Y-102551882D01*
X177076500Y-102763084D01*
X177076500Y-102976915D01*
X177109951Y-103188117D01*
X177176026Y-103391480D01*
X177176027Y-103391483D01*
X177247245Y-103531254D01*
X177273106Y-103582009D01*
X177398794Y-103755004D01*
X177549996Y-103906206D01*
X177722991Y-104031894D01*
X177804290Y-104073318D01*
X177913516Y-104128972D01*
X177913519Y-104128973D01*
X177978463Y-104150074D01*
X178116884Y-104195049D01*
X178328084Y-104228500D01*
X178328085Y-104228500D01*
X178541915Y-104228500D01*
X178541916Y-104228500D01*
X178753116Y-104195049D01*
X178956483Y-104128972D01*
X179147009Y-104031894D01*
X179320004Y-103906206D01*
X179471206Y-103755004D01*
X179596894Y-103582009D01*
X179596896Y-103582004D01*
X179599270Y-103578132D01*
X179651080Y-103531254D01*
X179720009Y-103519829D01*
X179784173Y-103547483D01*
X179810730Y-103578132D01*
X179813103Y-103582005D01*
X179813106Y-103582009D01*
X179938794Y-103755004D01*
X180089996Y-103906206D01*
X180262991Y-104031894D01*
X180344290Y-104073318D01*
X180453516Y-104128972D01*
X180453519Y-104128973D01*
X180518463Y-104150074D01*
X180656884Y-104195049D01*
X180868084Y-104228500D01*
X180868085Y-104228500D01*
X181081915Y-104228500D01*
X181081916Y-104228500D01*
X181293116Y-104195049D01*
X181496483Y-104128972D01*
X181687009Y-104031894D01*
X181860004Y-103906206D01*
X182011206Y-103755004D01*
X182136894Y-103582009D01*
X182136896Y-103582004D01*
X182139270Y-103578132D01*
X182191080Y-103531254D01*
X182260009Y-103519829D01*
X182324173Y-103547483D01*
X182350730Y-103578132D01*
X182353103Y-103582005D01*
X182353106Y-103582009D01*
X182478794Y-103755004D01*
X182629996Y-103906206D01*
X182802991Y-104031894D01*
X182884290Y-104073318D01*
X182993516Y-104128972D01*
X182993519Y-104128973D01*
X183058463Y-104150074D01*
X183196884Y-104195049D01*
X183408084Y-104228500D01*
X183408085Y-104228500D01*
X183621915Y-104228500D01*
X183621916Y-104228500D01*
X183833116Y-104195049D01*
X184036483Y-104128972D01*
X184227009Y-104031894D01*
X184400004Y-103906206D01*
X184551206Y-103755004D01*
X184676894Y-103582009D01*
X184773972Y-103391483D01*
X184840049Y-103188116D01*
X184873500Y-102976916D01*
X184873500Y-102763084D01*
X184840049Y-102551884D01*
X184785000Y-102382458D01*
X184773973Y-102348519D01*
X184773972Y-102348516D01*
X184719696Y-102241995D01*
X184676894Y-102157991D01*
X184551206Y-101984996D01*
X184400004Y-101833794D01*
X184227009Y-101708106D01*
X184227005Y-101708103D01*
X184223132Y-101705730D01*
X184176254Y-101653920D01*
X184164829Y-101584991D01*
X184192483Y-101520827D01*
X184223132Y-101494270D01*
X184227005Y-101491896D01*
X184227004Y-101491896D01*
X184227009Y-101491894D01*
X184400004Y-101366206D01*
X184551206Y-101215004D01*
X184676894Y-101042009D01*
X184773972Y-100851483D01*
X184840049Y-100648116D01*
X184873500Y-100436916D01*
X184873500Y-100223084D01*
X184840049Y-100011884D01*
X184773972Y-99808517D01*
X184773972Y-99808516D01*
X184708575Y-99680169D01*
X184676894Y-99617991D01*
X184551206Y-99444996D01*
X184400004Y-99293794D01*
X184227009Y-99168106D01*
X184190854Y-99149684D01*
X184036483Y-99071027D01*
X184036480Y-99071026D01*
X183833117Y-99004951D01*
X183701172Y-98984053D01*
X183621916Y-98971500D01*
X183408084Y-98971500D01*
X183337684Y-98982650D01*
X183196882Y-99004951D01*
X182993519Y-99071026D01*
X182993516Y-99071027D01*
X182802990Y-99168106D01*
X182629993Y-99293796D01*
X182478796Y-99444993D01*
X182353105Y-99617991D01*
X182350727Y-99621873D01*
X182298914Y-99668748D01*
X182229984Y-99680169D01*
X182165822Y-99652512D01*
X182139273Y-99621873D01*
X182136894Y-99617991D01*
X182136893Y-99617990D01*
X182011206Y-99444996D01*
X181860004Y-99293794D01*
X181687009Y-99168106D01*
X181650854Y-99149684D01*
X181496483Y-99071027D01*
X181496480Y-99071026D01*
X181293117Y-99004951D01*
X181161172Y-98984053D01*
X181081916Y-98971500D01*
X180868084Y-98971500D01*
X180797684Y-98982650D01*
X180656882Y-99004951D01*
X180453519Y-99071026D01*
X180453516Y-99071027D01*
X180262990Y-99168106D01*
X180089993Y-99293796D01*
X179938796Y-99444993D01*
X179813105Y-99617991D01*
X179810727Y-99621873D01*
X179758914Y-99668748D01*
X179689984Y-99680169D01*
X179625822Y-99652512D01*
X179599273Y-99621873D01*
X179596894Y-99617991D01*
X179596893Y-99617990D01*
X179471206Y-99444996D01*
X179320004Y-99293794D01*
X179147009Y-99168106D01*
X179110854Y-99149684D01*
X178956483Y-99071027D01*
X178956480Y-99071026D01*
X178753117Y-99004951D01*
X178621172Y-98984053D01*
X178541916Y-98971500D01*
X178328084Y-98971500D01*
X178257684Y-98982650D01*
X178116882Y-99004951D01*
X177913519Y-99071026D01*
X177913511Y-99071030D01*
X177780106Y-99139003D01*
X177764291Y-99141972D01*
X177750170Y-99149684D01*
X177730660Y-99148288D01*
X177711437Y-99151899D01*
X177696528Y-99145847D01*
X177680478Y-99144700D01*
X177664818Y-99132977D01*
X177646697Y-99125622D01*
X177637426Y-99112470D01*
X177624545Y-99102828D01*
X177617710Y-99084503D01*
X177606440Y-99068516D01*
X177605750Y-99052439D01*
X177600128Y-99037364D01*
X177604285Y-99018251D01*
X177603448Y-98998710D01*
X177611725Y-98984053D01*
X177614980Y-98969091D01*
X177636127Y-98940841D01*
X177689396Y-98887572D01*
X177736120Y-98858214D01*
X177787099Y-98840376D01*
X177936596Y-98746441D01*
X178061441Y-98621596D01*
X178155376Y-98472099D01*
X178213690Y-98305448D01*
X178228500Y-98174004D01*
X178228500Y-96135996D01*
X178213690Y-96004552D01*
X178155376Y-95837901D01*
X178061441Y-95688404D01*
X178002255Y-95629218D01*
X177968770Y-95567895D01*
X177973754Y-95498203D01*
X178015626Y-95442270D01*
X178077783Y-95418134D01*
X178120701Y-95413908D01*
X178310804Y-95356241D01*
X178486004Y-95262595D01*
X178614335Y-95157275D01*
X178678645Y-95129963D01*
X178747512Y-95141754D01*
X178771665Y-95157276D01*
X178899994Y-95262594D01*
X178900001Y-95262598D01*
X179075191Y-95356239D01*
X179075193Y-95356239D01*
X179075196Y-95356241D01*
X179265299Y-95413908D01*
X179265298Y-95413908D01*
X179275766Y-95414938D01*
X179413453Y-95428500D01*
X180512546Y-95428499D01*
X180660701Y-95413908D01*
X180850804Y-95356241D01*
X181026004Y-95262595D01*
X181154335Y-95157275D01*
X181218645Y-95129963D01*
X181287512Y-95141754D01*
X181311665Y-95157276D01*
X181439994Y-95262594D01*
X181440001Y-95262598D01*
X181615191Y-95356239D01*
X181615193Y-95356239D01*
X181615196Y-95356241D01*
X181685481Y-95377561D01*
X181743919Y-95415859D01*
X181772375Y-95479671D01*
X181761815Y-95548738D01*
X181737166Y-95583903D01*
X181010889Y-96310181D01*
X180949566Y-96343666D01*
X180923208Y-96346500D01*
X180895365Y-96346500D01*
X180739176Y-96377568D01*
X180739168Y-96377570D01*
X180592030Y-96438517D01*
X180459612Y-96526995D01*
X180459605Y-96527001D01*
X180347001Y-96639605D01*
X180346995Y-96639612D01*
X180258517Y-96772030D01*
X180197570Y-96919168D01*
X180197568Y-96919176D01*
X180166500Y-97075365D01*
X180166500Y-97234634D01*
X180197568Y-97390823D01*
X180197570Y-97390831D01*
X180258517Y-97537969D01*
X180346995Y-97670387D01*
X180347001Y-97670394D01*
X180459605Y-97782998D01*
X180459612Y-97783004D01*
X180592030Y-97871482D01*
X180592031Y-97871482D01*
X180592032Y-97871483D01*
X180739169Y-97932430D01*
X180895365Y-97963499D01*
X180895369Y-97963500D01*
X180895370Y-97963500D01*
X181054631Y-97963500D01*
X181054632Y-97963499D01*
X181210831Y-97932430D01*
X181357968Y-97871483D01*
X181490389Y-97783003D01*
X181603003Y-97670389D01*
X181691483Y-97537968D01*
X181752430Y-97390831D01*
X181783500Y-97234630D01*
X181783500Y-97206792D01*
X181803185Y-97139753D01*
X181819819Y-97119111D01*
X182370264Y-96568666D01*
X182960714Y-95978217D01*
X183036019Y-95847784D01*
X183075000Y-95702306D01*
X183075000Y-95551695D01*
X183075000Y-95538675D01*
X183094685Y-95471636D01*
X183147489Y-95425881D01*
X183186848Y-95415272D01*
X183200701Y-95413908D01*
X183390804Y-95356241D01*
X183566004Y-95262595D01*
X183719568Y-95136568D01*
X183845595Y-94983004D01*
X183939241Y-94807804D01*
X183996908Y-94617701D01*
X184011500Y-94469547D01*
X184011499Y-92620454D01*
X183996908Y-92472299D01*
X183939241Y-92282196D01*
X183939239Y-92282193D01*
X183939239Y-92282191D01*
X183845598Y-92107001D01*
X183845594Y-92106994D01*
X183719568Y-91953431D01*
X183566005Y-91827405D01*
X183565998Y-91827401D01*
X183390808Y-91733760D01*
X183266194Y-91695959D01*
X183200701Y-91676092D01*
X183200699Y-91676091D01*
X183200701Y-91676091D01*
X183094415Y-91665623D01*
X183052547Y-91661500D01*
X183052543Y-91661500D01*
X181953457Y-91661500D01*
X181805300Y-91676091D01*
X181615191Y-91733760D01*
X181440001Y-91827401D01*
X181439994Y-91827405D01*
X181311665Y-91932723D01*
X181247355Y-91960036D01*
X181178487Y-91948245D01*
X181154335Y-91932723D01*
X181026005Y-91827405D01*
X181025998Y-91827401D01*
X180850808Y-91733760D01*
X180726194Y-91695959D01*
X180660701Y-91676092D01*
X180660699Y-91676091D01*
X180660701Y-91676091D01*
X180554415Y-91665623D01*
X180512547Y-91661500D01*
X180512543Y-91661500D01*
X179413457Y-91661500D01*
X179265300Y-91676091D01*
X179070940Y-91735050D01*
X179001073Y-91735673D01*
X178947264Y-91704070D01*
X176946280Y-89703086D01*
X176946278Y-89703084D01*
X176879750Y-89664674D01*
X176813225Y-89626266D01*
X176813224Y-89626265D01*
X176776122Y-89616323D01*
X176664819Y-89586500D01*
X122631820Y-89586500D01*
X122478181Y-89586500D01*
X122329776Y-89626264D01*
X122196723Y-89703084D01*
X122196720Y-89703086D01*
X115320181Y-96579624D01*
X115258858Y-96613109D01*
X115189166Y-96608125D01*
X115133233Y-96566253D01*
X115108816Y-96500789D01*
X115108500Y-96491943D01*
X115108500Y-96440369D01*
X115108499Y-96440365D01*
X115106735Y-96431499D01*
X115077430Y-96284169D01*
X115016483Y-96137032D01*
X114960391Y-96053084D01*
X114928004Y-96004612D01*
X114927998Y-96004605D01*
X114815394Y-95892001D01*
X114815387Y-95891995D01*
X114682969Y-95803517D01*
X114535831Y-95742570D01*
X114535823Y-95742568D01*
X114379634Y-95711500D01*
X114379630Y-95711500D01*
X114220370Y-95711500D01*
X114220365Y-95711500D01*
X114064176Y-95742568D01*
X114064168Y-95742570D01*
X113917030Y-95803517D01*
X113784612Y-95891995D01*
X113784605Y-95892001D01*
X113776426Y-95900181D01*
X113715103Y-95933666D01*
X113688745Y-95936500D01*
X95808181Y-95936500D01*
X95659777Y-95976265D01*
X95603927Y-96008510D01*
X95565324Y-96030797D01*
X95526723Y-96053083D01*
X95526720Y-96053085D01*
X95184625Y-96395180D01*
X95123302Y-96428665D01*
X95096944Y-96431499D01*
X94952371Y-96431499D01*
X94866954Y-96442228D01*
X94866950Y-96442229D01*
X94731857Y-96498186D01*
X94663878Y-96550994D01*
X94663863Y-96551008D01*
X94265003Y-96949868D01*
X94264998Y-96949874D01*
X94212185Y-97017859D01*
X94156229Y-97152951D01*
X94145500Y-97238366D01*
X93620500Y-97238366D01*
X93620500Y-93630883D01*
X94041500Y-93630883D01*
X94041500Y-93821116D01*
X94071256Y-94008991D01*
X94130040Y-94189907D01*
X94216398Y-94359392D01*
X94328208Y-94513285D01*
X94462715Y-94647792D01*
X94616608Y-94759602D01*
X94696683Y-94800402D01*
X94786092Y-94845959D01*
X94786094Y-94845959D01*
X94786097Y-94845961D01*
X94883070Y-94877469D01*
X94967008Y-94904743D01*
X95154884Y-94934500D01*
X95154889Y-94934500D01*
X95345116Y-94934500D01*
X95532991Y-94904743D01*
X95713903Y-94845961D01*
X95883392Y-94759602D01*
X96037285Y-94647792D01*
X96171792Y-94513285D01*
X96283602Y-94359392D01*
X96369961Y-94189903D01*
X96428743Y-94008991D01*
X96458500Y-93821116D01*
X96458500Y-93630883D01*
X101661500Y-93630883D01*
X101661500Y-93821116D01*
X101691256Y-94008991D01*
X101750040Y-94189907D01*
X101836398Y-94359392D01*
X101948208Y-94513285D01*
X102082715Y-94647792D01*
X102236608Y-94759602D01*
X102316683Y-94800402D01*
X102406092Y-94845959D01*
X102406094Y-94845959D01*
X102406097Y-94845961D01*
X102503070Y-94877469D01*
X102587008Y-94904743D01*
X102774884Y-94934500D01*
X102774889Y-94934500D01*
X102965116Y-94934500D01*
X103152991Y-94904743D01*
X103333903Y-94845961D01*
X103503392Y-94759602D01*
X103657285Y-94647792D01*
X103791792Y-94513285D01*
X103903602Y-94359392D01*
X103989961Y-94189903D01*
X104048743Y-94008991D01*
X104078500Y-93821116D01*
X104078500Y-93630883D01*
X104048743Y-93443008D01*
X103989959Y-93262092D01*
X103903601Y-93092607D01*
X103791792Y-92938715D01*
X103657285Y-92804208D01*
X103503392Y-92692398D01*
X103333907Y-92606040D01*
X103152991Y-92547256D01*
X102965116Y-92517500D01*
X102965111Y-92517500D01*
X102774889Y-92517500D01*
X102774884Y-92517500D01*
X102587008Y-92547256D01*
X102406092Y-92606040D01*
X102236607Y-92692398D01*
X102148806Y-92756189D01*
X102082715Y-92804208D01*
X102082713Y-92804210D01*
X102082712Y-92804210D01*
X101948210Y-92938712D01*
X101948210Y-92938713D01*
X101948208Y-92938715D01*
X101900189Y-93004806D01*
X101836398Y-93092607D01*
X101750040Y-93262092D01*
X101691256Y-93443008D01*
X101661500Y-93630883D01*
X96458500Y-93630883D01*
X96428743Y-93443008D01*
X96369959Y-93262092D01*
X96283601Y-93092607D01*
X96171792Y-92938715D01*
X96037285Y-92804208D01*
X95883392Y-92692398D01*
X95713907Y-92606040D01*
X95532991Y-92547256D01*
X95345116Y-92517500D01*
X95345111Y-92517500D01*
X95154889Y-92517500D01*
X95154884Y-92517500D01*
X94967008Y-92547256D01*
X94786092Y-92606040D01*
X94616607Y-92692398D01*
X94528806Y-92756189D01*
X94462715Y-92804208D01*
X94462713Y-92804210D01*
X94462712Y-92804210D01*
X94328210Y-92938712D01*
X94328210Y-92938713D01*
X94328208Y-92938715D01*
X94280189Y-93004806D01*
X94216398Y-93092607D01*
X94130040Y-93262092D01*
X94071256Y-93443008D01*
X94041500Y-93630883D01*
X93620500Y-93630883D01*
X93620500Y-90480883D01*
X94041500Y-90480883D01*
X94041500Y-90671116D01*
X94071256Y-90858991D01*
X94130040Y-91039907D01*
X94216398Y-91209392D01*
X94328208Y-91363285D01*
X94462715Y-91497792D01*
X94616608Y-91609602D01*
X94696683Y-91650402D01*
X94786092Y-91695959D01*
X94786094Y-91695959D01*
X94786097Y-91695961D01*
X94883070Y-91727469D01*
X94967008Y-91754743D01*
X95154884Y-91784500D01*
X95154889Y-91784500D01*
X95345116Y-91784500D01*
X95532991Y-91754743D01*
X95591682Y-91735673D01*
X95713903Y-91695961D01*
X95883392Y-91609602D01*
X96037285Y-91497792D01*
X96171792Y-91363285D01*
X96283602Y-91209392D01*
X96369961Y-91039903D01*
X96428743Y-90858991D01*
X96439699Y-90789819D01*
X96458500Y-90671116D01*
X96458500Y-90480883D01*
X101661500Y-90480883D01*
X101661500Y-90671116D01*
X101691256Y-90858991D01*
X101750040Y-91039907D01*
X101836398Y-91209392D01*
X101948208Y-91363285D01*
X102082715Y-91497792D01*
X102236608Y-91609602D01*
X102316683Y-91650402D01*
X102406092Y-91695959D01*
X102406094Y-91695959D01*
X102406097Y-91695961D01*
X102503070Y-91727469D01*
X102587008Y-91754743D01*
X102774884Y-91784500D01*
X102774889Y-91784500D01*
X102965116Y-91784500D01*
X103152991Y-91754743D01*
X103211682Y-91735673D01*
X103333903Y-91695961D01*
X103503392Y-91609602D01*
X103657285Y-91497792D01*
X103791792Y-91363285D01*
X103903602Y-91209392D01*
X103989961Y-91039903D01*
X104048743Y-90858991D01*
X104059699Y-90789819D01*
X104078500Y-90671116D01*
X104078500Y-90480883D01*
X104048743Y-90293008D01*
X103989959Y-90112092D01*
X103903601Y-89942607D01*
X103791792Y-89788715D01*
X103657285Y-89654208D01*
X103503392Y-89542398D01*
X103333907Y-89456040D01*
X103152991Y-89397256D01*
X102965116Y-89367500D01*
X102965111Y-89367500D01*
X102774889Y-89367500D01*
X102774884Y-89367500D01*
X102587008Y-89397256D01*
X102406092Y-89456040D01*
X102236607Y-89542398D01*
X102175907Y-89586500D01*
X102082715Y-89654208D01*
X102082713Y-89654210D01*
X102082712Y-89654210D01*
X101948210Y-89788712D01*
X101948210Y-89788713D01*
X101948208Y-89788715D01*
X101900189Y-89854806D01*
X101836398Y-89942607D01*
X101750040Y-90112092D01*
X101691256Y-90293008D01*
X101661500Y-90480883D01*
X96458500Y-90480883D01*
X96428743Y-90293008D01*
X96369959Y-90112092D01*
X96283601Y-89942607D01*
X96171792Y-89788715D01*
X96037285Y-89654208D01*
X95883392Y-89542398D01*
X95713907Y-89456040D01*
X95532991Y-89397256D01*
X95345116Y-89367500D01*
X95345111Y-89367500D01*
X95154889Y-89367500D01*
X95154884Y-89367500D01*
X94967008Y-89397256D01*
X94786092Y-89456040D01*
X94616607Y-89542398D01*
X94555907Y-89586500D01*
X94462715Y-89654208D01*
X94462713Y-89654210D01*
X94462712Y-89654210D01*
X94328210Y-89788712D01*
X94328210Y-89788713D01*
X94328208Y-89788715D01*
X94280189Y-89854806D01*
X94216398Y-89942607D01*
X94130040Y-90112092D01*
X94071256Y-90293008D01*
X94041500Y-90480883D01*
X93620500Y-90480883D01*
X93620500Y-89498960D01*
X93621280Y-89485077D01*
X93626854Y-89435607D01*
X93631016Y-89398670D01*
X93634455Y-89380487D01*
X93637528Y-89369020D01*
X93640252Y-89360193D01*
X93665355Y-89288452D01*
X93677393Y-89263453D01*
X93722046Y-89192389D01*
X93739350Y-89170691D01*
X93798691Y-89111350D01*
X93820389Y-89094046D01*
X93891453Y-89049393D01*
X93916452Y-89037355D01*
X93988210Y-89012246D01*
X93997020Y-89009528D01*
X94008487Y-89006455D01*
X94026670Y-89003016D01*
X94113078Y-88993279D01*
X94126960Y-88992500D01*
X184913039Y-88992500D01*
X184926922Y-88993280D01*
G37*
G04 #@! TD.AperFunction*
M02*
