M48
; DRILL file {KiCad 9.0.7} date 2026-02-21T01:38:53-0800
; FORMAT={-:-/ absolute / metric / decimal}
; #@! TF.CreationDate,2026-02-21T01:38:53-08:00
; #@! TF.GenerationSoftware,Kicad,Pcbnew,9.0.7
; #@! TF.FileFunction,Plated,1,4,PTH
FMAT,2
METRIC
; #@! TA.AperFunction,Plated,PTH,ViaDrill
T1C0.300
; #@! TA.AperFunction,Plated,PTH,ComponentDrill
T2C0.700
; #@! TA.AperFunction,Plated,PTH,ComponentDrill
T3C0.750
; #@! TA.AperFunction,Plated,PTH,ComponentDrill
T4C1.000
%
G90
G05
T1
X110.236Y-108.204
X110.236Y-113.284
X113.03Y-97.79
X114.3Y-96.52
X117.475Y-101.6
X118.745Y-97.79
X120.015Y-96.52
X120.015Y-102.87
X121.92Y-106.68
X122.555Y-105.41
X153.035Y-112.395
X157.48Y-110.49
X161.29Y-102.87
X163.83Y-102.87
X179.07Y-106.045
X180.975Y-97.155
T2
X95.25Y-90.576
X95.25Y-93.726
X102.87Y-90.576
X102.87Y-93.726
T3
X95.594Y-109.744
X95.594Y-111.744
T4
X95.504Y-97.79
X95.504Y-100.33
X95.504Y-102.87
X95.504Y-105.41
X98.044Y-97.79
X98.044Y-100.33
X98.044Y-102.87
X98.044Y-105.41
M30
